<svg width="197" height="220" viewBox="0 0 197 220" fill="none" xmlns="http://www.w3.org/2000/svg">
<path fill-rule="evenodd" clip-rule="evenodd" d="M72 158.891L93.3093 145.721L114.432 158.891L93.3093 172L72 158.891Z" fill="#530043"/>
<path fill-rule="evenodd" clip-rule="evenodd" d="M112.22 159.12V157.59L104.618 162.275V163.859L112.22 159.12Z" fill="#26008D"/>
<path d="M74.2385 157.617L74.6255 157.371L93.3111 168.803L93.3122 168.804V169.254L74.2385 157.617Z" fill="#C6A5FF"/>
<path d="M74.2385 159.01V157.617L93.3122 169.254V170.921L74.2385 159.01Z" fill="#0027B4"/>
<path d="M101.24 120.313L101.522 120.49V120.138L101.24 120.313Z" fill="#9D009D"/>
<path d="M85.1298 120.49L85.4149 120.313L85.1298 120.138V120.49Z" fill="#0027B4"/>
<path fill-rule="evenodd" clip-rule="evenodd" d="M93.3122 131.379V131.87V133.045L111.833 121.387V157.375L93.3111 168.804L74.6255 157.375V157.371L93.3111 168.803V133.045V131.871L75.0682 120.643L75.3878 120.443L74.9447 120.173L74.2799 119.767V119.766L74.9457 120.172L75.3361 119.931L75.7765 120.2L93.3122 130.928V131.379ZM93.3122 131.379L111.272 120.336L111.527 120.179L112.386 119.651V119.652L111.527 120.179L111.272 120.336L93.3122 131.379ZM101.522 120.138V120.49L101.24 120.313L101.522 120.138ZM85.1298 120.138V120.49L85.4149 120.313L85.1298 120.138Z" fill="#3D0142"/>
<path d="M74.6255 121.377V157.371L93.3111 168.803V133.045L74.6255 121.377Z" fill="#F371FF"/>
<path d="M104.619 163.859V162.275L93.3125 169.255V170.921L104.619 163.859Z" fill="#26008D"/>
<path d="M112.22 157.59L111.833 157.372L93.3125 168.804V169.255L112.22 157.59Z" fill="#1C55FF"/>
<path d="M103.956 118.895H103.997H104.038V123.587C104.009 123.596 103.99 123.595 103.956 123.587V118.895Z" fill="url(#paint0_radial_1855_217)"/>
<path d="M103.513 116.068C102.664 116.791 102.581 119.199 103.734 120.52C104.887 121.842 107.28 122.118 108.13 121.394C108.979 120.671 107.358 119.344 106.205 118.022C105.051 116.7 104.363 115.344 103.513 116.068Z" fill="url(#paint1_linear_1855_217)"/>
<ellipse cx="3.53338" cy="1.64825" rx="3.53338" ry="1.64825" transform="matrix(-0.657457 -0.753492 -0.761147 0.648579 109.419 120.313)" fill="url(#paint2_linear_1855_217)"/>
<path fill-rule="evenodd" clip-rule="evenodd" d="M112.22 159.12V157.59L104.618 162.275V163.859L112.22 159.12Z" fill="#26008D"/>
<path d="M74.2382 157.617L74.6252 157.372L93.3108 168.803L93.3119 168.804V169.255L74.2382 157.617Z" fill="#C6A5FF"/>
<path d="M74.2382 159.011V157.617L93.3119 169.255V170.921L74.2382 159.011Z" fill="#0027B4"/>
<path d="M101.239 120.313L101.522 120.49V120.138L101.239 120.313Z" fill="#9D009D"/>
<path d="M85.1296 120.49L85.4146 120.313L85.1296 120.138V120.49Z" fill="#0027B4"/>
<path fill-rule="evenodd" clip-rule="evenodd" d="M93.3119 131.379V131.87V133.045L111.833 121.387V157.375L93.3108 168.804L74.6252 157.375V157.372L93.3108 168.803V133.045V131.871L75.068 120.643L75.3875 120.443L74.9445 120.173L74.2797 119.767V119.766L74.9455 120.172L75.3358 119.931L75.7763 120.2L93.3119 130.928V131.379ZM93.3119 131.379L111.272 120.336L111.527 120.179L112.386 119.651V119.652L111.527 120.179L111.272 120.337L93.3119 131.379ZM101.522 120.138V120.49L101.239 120.313L101.522 120.138ZM85.1296 120.138V120.49L85.4146 120.313L85.1296 120.138Z" fill="#3D0142"/>
<path d="M74.6252 121.377V157.372L93.3108 168.803V133.045L74.6252 121.377Z" fill="#F371FF"/>
<path fill-rule="evenodd" clip-rule="evenodd" d="M74.6255 95.7572L93.3111 84.202L111.833 95.7572L93.3111 107.258L74.6255 95.7572Z" fill="#DDDDDD"/>
<path fill-rule="evenodd" clip-rule="evenodd" d="M74.6255 132.762V95.7572L93.3111 107.258V144.191L74.6255 132.762Z" fill="white"/>
<path d="M93.3111 144.191L93.3116 144.191L111.833 132.762V95.7572L93.3111 107.258V144.191Z" fill="#5A5A5A"/>
<path fill-rule="evenodd" clip-rule="evenodd" d="M74.6255 95.7572L93.3111 84.202L111.833 95.7572L93.3111 107.258L74.6255 95.7572Z" fill="#DDDDDD"/>
<path fill-rule="evenodd" clip-rule="evenodd" d="M74.6255 132.762V95.7572L93.3111 107.258V144.191L74.6255 132.762Z" fill="white"/>
<path d="M93.3111 144.191L93.3116 144.191L111.833 132.762V95.7572L93.3111 107.258V144.191Z" fill="#5A5A5A"/>
<path fill-rule="evenodd" clip-rule="evenodd" d="M74.6255 95.7572L93.3111 84.202L111.833 95.7572L93.3111 107.258L74.6255 95.7572Z" fill="#FEC3FF"/>
<path fill-rule="evenodd" clip-rule="evenodd" d="M74.6255 132.762V95.7572L93.3111 107.258V144.191L74.6255 132.762Z" fill="url(#paint3_linear_1855_217)"/>
<path d="M93.3111 144.191L93.3116 144.191L111.833 132.762V95.7572L93.3111 107.258V144.191Z" fill="#3D0042"/>
<path fill-rule="evenodd" clip-rule="evenodd" d="M74.6255 95.7572L93.3111 84.202L111.833 95.7572L93.3111 107.258L74.6255 95.7572Z" fill="#FEC3FF"/>
<path fill-rule="evenodd" clip-rule="evenodd" d="M74.6255 132.762V95.7572L93.3111 107.258V144.191L74.6255 132.762Z" fill="url(#paint4_linear_1855_217)"/>
<path d="M93.3111 144.191L93.3116 144.191L111.833 132.762V95.7572L93.3111 107.258V144.191Z" fill="#3D0042"/>
<path fill-rule="evenodd" clip-rule="evenodd" d="M74.6255 95.7572L93.3111 84.202L111.833 95.7572L93.3111 107.258L74.6255 95.7572Z" fill="url(#paint5_linear_1855_217)"/>
<path fill-rule="evenodd" clip-rule="evenodd" d="M74.6255 132.762V95.7572L93.3111 107.258V144.191L74.6255 132.762Z" fill="url(#paint6_linear_1855_217)"/>
<path d="M93.3111 144.191L93.3116 144.191L111.833 132.762V95.7572L93.3111 107.258V144.191Z" fill="#3D0042"/>
<path d="M101.24 95.7006L101.522 95.8769V95.525L101.24 95.7006Z" fill="#9D009D"/>
<path d="M85.1298 95.8769L85.4149 95.7006L85.1298 95.525V95.8769Z" fill="#0027B4"/>
<path fill-rule="evenodd" clip-rule="evenodd" d="M93.362 90.7823L85.4149 95.7006L93.362 100.596L101.24 95.7006L93.362 90.7823Z" fill="#9D009D"/>
<path d="M93.362 100.948L101.522 95.8769L101.24 95.7006L93.362 100.596L85.4149 95.7006L85.1298 95.8769L93.362 100.948Z" fill="#0027B4"/>
<path fill-rule="evenodd" clip-rule="evenodd" d="M93.362 100.596L101.24 95.7006L93.362 90.7823L85.4149 95.7006L93.362 100.596Z" fill="#9B68FF"/>
<path d="M93.362 90.4303L85.1298 95.525L85.4149 95.7006L93.362 90.7823L101.24 95.7006L101.522 95.525L93.362 90.4303Z" fill="#9B68FF"/>
<path d="M93.326 84.6254L93.3122 83.4098L74.2799 95.1016V96.5221L93.326 84.6254Z" fill="#EA00FF"/>
<path d="M93.3122 83.4098V83L112.911 94.7328H112.165L93.3122 83.4098Z" fill="#FECDFF"/>
<path d="M93.3122 84.6117V83.4098L112.386 94.8557V96.4128L93.3122 84.6117Z" fill="#FF79FF"/>
<path d="M73.8376 94.8831H74.6255L93.3122 106.315V106.766L73.8376 94.8831Z" fill="#C6A5FF"/>
<path d="M74.2385 96.5221V95.1289L93.3122 106.766V108.432L74.2385 96.5221Z" fill="#0027B4"/>
<path d="M112.883 94.7328H112.165L93.3122 106.315V106.766L112.883 94.7328Z" fill="#FB41FF"/>
<path d="M93.3122 83.4098V83L73.8515 94.8831H74.6393L93.3122 83.4098Z" fill="#FC63FF"/>
<path d="M112.386 96.4265V95.0385L93.3122 106.766V108.432L112.386 96.4265Z" fill="#0B0088"/>
<path d="M81.644 94.5626V96.1298L82.4966 95.578V94.0355L82.4949 94.0345L81.644 94.5626Z" fill="#0B0088"/>
<path fill-rule="evenodd" clip-rule="evenodd" d="M84.494 92.7959L83.6414 93.325V93.323L82.4949 94.0345L82.4966 94.0355V95.578L81.644 96.1298V97.2038L84.494 95.3885V92.7959ZM80.4815 92.7959L80.4815 92.7959L80.4815 92.7959V92.7959Z" fill="#0B0088"/>
<path d="M79.6289 93.323V95.923L80.4815 96.4649V93.8475L79.6289 93.323Z" fill="url(#paint7_linear_1855_217)"/>
<path d="M81.644 94.5626L80.4815 93.8475V96.4649L81.644 97.2038V96.1298V94.5626Z" fill="url(#paint8_linear_1855_217)"/>
<path d="M81.644 94.5626L82.4949 94.0345L80.4815 92.7959L80.4815 92.7959V93.8475L81.644 94.5626Z" fill="#A6AFFF"/>
<path d="M79.6289 93.323L80.4815 93.8475V92.7959L79.6289 93.323Z" fill="#A6AFFF"/>
<path d="M83.6414 93.323L81.644 92.0774L80.4815 92.7959L82.4949 94.0345L83.6414 93.323Z" fill="#A6AFFF"/>
<path d="M82.4966 91.5503L80.4815 92.7959L80.4815 92.7959L81.644 92.0774L83.6414 93.323V93.325L84.494 92.7959L82.4966 91.5503Z" fill="#A6AFFF"/>
<path d="M81.4907 94.6522L82.4287 94.0748L80.2094 92.7208L80.2093 92.7208V93.8703L81.4907 94.6522Z" fill="#A6AFFF"/>
<path d="M79.2695 93.297L80.2093 93.8703V92.7208L79.2695 93.297Z" fill="#A6AFFF"/>
<path d="M83.6925 93.297L81.4907 91.9353L80.2094 92.7208L82.4287 94.0748L83.6925 93.297Z" fill="#A6AFFF"/>
<path d="M82.4305 91.3591L80.2093 92.7208L80.2094 92.7208L81.4907 91.9353L83.6925 93.297V93.2992L84.6323 92.7208L82.4305 91.3591Z" fill="#A6AFFF"/>
<path fill-rule="evenodd" clip-rule="evenodd" d="M79.2695 93.4944V93.297L80.2093 93.8703V94.0819L79.2695 93.4944Z" fill="#BC89FF"/>
<path fill-rule="evenodd" clip-rule="evenodd" d="M81.4907 94.6522V94.8831L80.2093 94.0819V93.8703L81.4907 94.6522Z" fill="#BC89FF"/>
<path fill-rule="evenodd" clip-rule="evenodd" d="M81.4907 94.8831V94.6522L82.4287 94.0748L82.4305 94.076V94.2979L81.4907 94.8831Z" fill="#3700FF"/>
<path fill-rule="evenodd" clip-rule="evenodd" d="M84.6323 92.7208L83.6925 93.2992V93.297L82.4287 94.0748L82.4305 94.076V94.2979L84.6323 92.927V92.7208ZM80.2093 92.7208L80.2094 92.7208L80.2093 92.7208V92.7208Z" fill="#3700FF"/>
<path d="M100.696 90.6562V92.2234L99.8431 91.6716V90.1291L99.8448 90.1281L100.696 90.6562Z" fill="url(#paint9_linear_1855_217)"/>
<path fill-rule="evenodd" clip-rule="evenodd" d="M97.8456 88.8895L98.6983 89.4186V89.4166L99.8448 90.1281L99.8431 90.1291V91.6716L100.696 92.2234V93.2974L97.8456 91.4822V88.8895ZM101.858 88.8896L101.858 88.8895L101.858 88.8895V88.8896Z" fill="url(#paint10_linear_1855_217)"/>
<path d="M102.711 89.4166V92.0166L101.858 92.5585V89.9411L102.711 89.4166Z" fill="#0B0088"/>
<path d="M100.696 90.6562L101.858 89.9411V92.5585L100.696 93.2974V92.2234V90.6562Z" fill="#0B0088"/>
<path d="M100.696 90.6562L99.8448 90.1281L101.858 88.8895L101.858 88.8896V89.9411L100.696 90.6562Z" fill="#A6AFFF"/>
<path d="M102.711 89.4166L101.858 89.9411V88.8896L102.711 89.4166Z" fill="#A6AFFF"/>
<path d="M98.6983 89.4166L100.696 88.171L101.858 88.8895L99.8448 90.1281L98.6983 89.4166Z" fill="#A6AFFF"/>
<path d="M99.8431 87.644L101.858 88.8895L101.858 88.8895L100.696 88.171L98.6983 89.4166V89.4186L97.8456 88.8895L99.8431 87.644Z" fill="#A6AFFF"/>
<path d="M100.766 90.7731L99.8281 90.1958L102.047 88.8417L102.047 88.8418V89.9913L100.766 90.7731Z" fill="#A6AFFF"/>
<path d="M102.987 89.4179L102.047 89.9913V88.8418L102.987 89.4179Z" fill="#A6AFFF"/>
<path d="M98.5643 89.4179L100.766 88.0562L102.047 88.8417L99.8281 90.1958L98.5643 89.4179Z" fill="#A6AFFF"/>
<path d="M99.8263 87.48L102.047 88.8417L102.047 88.8417L100.766 88.0562L98.5643 89.4179V89.4201L97.6245 88.8417L99.8263 87.48Z" fill="#A6AFFF"/>
<path fill-rule="evenodd" clip-rule="evenodd" d="M102.987 89.6153V89.4179L102.047 89.9913V90.2029L102.987 89.6153Z" fill="#3800DE"/>
<path fill-rule="evenodd" clip-rule="evenodd" d="M100.766 90.7731V91.004L102.047 90.2029V89.9913L100.766 90.7731Z" fill="#3800DE"/>
<path fill-rule="evenodd" clip-rule="evenodd" d="M100.766 91.004V90.7731L99.8281 90.1958L99.8263 90.1969V90.4188L100.766 91.004Z" fill="#BC89FF"/>
<path fill-rule="evenodd" clip-rule="evenodd" d="M97.6245 88.8417L98.5643 89.4201V89.4179L99.8281 90.1958L99.8263 90.1969V90.4188L97.6245 89.0479V88.8417ZM102.047 88.8418L102.047 88.8417L102.047 88.8417V88.8418Z" fill="#BC89FF"/>
<path fill-rule="evenodd" clip-rule="evenodd" d="M93.3116 144.191L74.6255 132.759V132.762L93.3111 144.191L93.3116 144.191Z" fill="#C6A5FF"/>
<path d="M84.0923 124.663L84.3487 124.505L84.0923 124.347V124.663Z" fill="#0027B4"/>
<path fill-rule="evenodd" clip-rule="evenodd" d="M84.0923 124.347V124.663L84.3487 124.505L84.0923 124.347Z" fill="#3D0142"/>
<path fill-rule="evenodd" clip-rule="evenodd" d="M91.4522 145.982L91.4517 145.981L74.6431 135.699V135.702L75.1155 135.991L75.4636 136.204L91.4517 145.982L91.4522 145.982Z" fill="#C6A5FF"/>
<path d="M84.0923 124.663L84.3487 124.505L84.0923 124.347V124.663Z" fill="#0027B4"/>
<path fill-rule="evenodd" clip-rule="evenodd" d="M84.0923 124.347V124.663L84.3487 124.505L84.0923 124.347Z" fill="#3D0142"/>
<path fill-rule="evenodd" clip-rule="evenodd" d="M91.4522 145.982L91.4517 145.981L74.6431 135.699V135.702L75.1155 135.991L75.4636 136.204L91.4517 145.982L91.4522 145.982Z" fill="#C6A5FF"/>
<path d="M84.9129 124.123L85.1693 123.964L84.9129 123.806V124.123Z" fill="#0027B4"/>
<path fill-rule="evenodd" clip-rule="evenodd" d="M84.9129 123.806V124.123L85.1693 123.964L84.9129 123.806Z" fill="#3D0142"/>
<path fill-rule="evenodd" clip-rule="evenodd" d="M92.2728 145.441L92.2723 145.441L91.4517 144.939L75.4636 135.158V135.161L91.4517 144.94L92.2723 145.442L92.2728 145.441Z" fill="#C6A5FF"/>
<path d="M84.9129 124.123L85.1693 123.964L84.9129 123.806V124.123Z" fill="#0027B4"/>
<path fill-rule="evenodd" clip-rule="evenodd" d="M84.9129 123.806V124.123L85.1693 123.964L84.9129 123.806Z" fill="#3D0142"/>
<path fill-rule="evenodd" clip-rule="evenodd" d="M92.2728 145.441L92.2723 145.441L91.4517 144.939L75.4636 135.158V135.161L91.4517 144.94L92.2723 145.442L92.2728 145.441Z" fill="#C6A5FF"/>
<path d="M91.4528 145.982V146.388V146.833L92.2723 147.345V145.846L91.4517 145.346V145.981L91.4522 145.982L91.4528 145.982Z" fill="#0027B4"/>
<path d="M91.4517 145.346L92.2723 145.846V145.442L91.4517 144.94V145.346Z" fill="#0027B4"/>
<path d="M92.2723 135.416L91.4517 134.903V135.956V144.939L92.2723 145.441V135.416Z" fill="#0027B4"/>
<path d="M91.4517 134.903L92.2723 135.416V128.656L91.4517 128.15V129.196V134.903Z" fill="#0027B4"/>
<path d="M92.2723 112.221L91.4517 112.761V128.15L92.2723 128.656V112.221Z" fill="#0027B4"/>
<path d="M74.6431 123.77L74.6477 123.772L75.2823 124.161L75.4636 124.271V124.015V123.229V102.922L74.6431 102.417V123.77Z" fill="white"/>
<path d="M75.4636 101.876L74.6431 102.417L75.4636 102.922V101.876Z" fill="#FFD9FF"/>
<path d="M92.2723 112.221L75.4636 101.876V102.922L91.4517 112.761L92.2723 112.221Z" fill="#FFD9FF"/>
<path d="M75.1155 136.421L74.6431 136.132V137.391L75.4636 137.903V136.85L75.1155 136.633V136.421Z" fill="white"/>
<path d="M75.1155 135.991V136.421L75.4636 136.633V136.204L75.1155 135.991Z" fill="white"/>
<path d="M75.1155 136.421V136.633L75.4636 136.85V136.633L75.1155 136.421Z" fill="white"/>
<path d="M74.6431 136.132L75.1155 136.421V135.991L74.6431 135.702V136.132Z" fill="white"/>
<path d="M84.0923 119.501L84.3487 119.342L84.0923 119.184V119.501Z" fill="#0027B4"/>
<path fill-rule="evenodd" clip-rule="evenodd" d="M84.0923 119.184V119.501L84.3487 119.342L84.0923 119.184Z" fill="#3D0142"/>
<path fill-rule="evenodd" clip-rule="evenodd" d="M91.4522 140.819L91.4517 140.818L74.6431 130.536V130.539L75.1155 130.828L75.4636 131.041L91.4517 140.819L91.4522 140.819Z" fill="#C6A5FF"/>
<path d="M84.0923 119.501L84.3487 119.342L84.0923 119.184V119.501Z" fill="#0027B4"/>
<path fill-rule="evenodd" clip-rule="evenodd" d="M84.0923 119.184V119.501L84.3487 119.342L84.0923 119.184Z" fill="#3D0142"/>
<path fill-rule="evenodd" clip-rule="evenodd" d="M91.4522 140.819L91.4517 140.818L74.6431 130.536V130.539L75.1155 130.828L75.4636 131.041L91.4517 140.819L91.4522 140.819Z" fill="#C6A5FF"/>
<path fill-rule="evenodd" clip-rule="evenodd" d="M92.2728 140.278L92.2723 140.278L91.4517 139.776L75.4636 129.995V129.998L91.4517 139.777L92.2723 140.279L92.2728 140.278Z" fill="#C6A5FF"/>
<path fill-rule="evenodd" clip-rule="evenodd" d="M92.2728 140.278L92.2723 140.278L91.4517 139.776L75.4636 129.995V129.998L91.4517 139.777L92.2723 140.279L92.2728 140.278Z" fill="#C6A5FF"/>
<path d="M91.4517 162.957L91.4522 162.958L92.2733 162.417L92.2723 162.417V142.182L91.4528 141.67V142.723L91.4517 142.723V161.915V162.957Z" fill="#0027B4"/>
<path d="M91.4528 140.819V141.225V141.67L92.2723 142.182V140.683L91.4517 140.183V140.818L91.4522 140.819L91.4528 140.819Z" fill="#0027B4"/>
<path d="M91.4517 140.183L92.2723 140.683V140.279L91.4517 139.777V140.183Z" fill="#0027B4"/>
<path d="M92.2723 130.253L91.4517 129.74V130.793V139.776L92.2723 140.278V130.253Z" fill="#0027B4"/>
<path d="M91.4517 129.74L92.2723 130.253V123.493L91.4517 122.987V124.033V129.74Z" fill="#0027B4"/>
<path fill-rule="evenodd" clip-rule="evenodd" d="M74.6431 152.675L91.4517 162.957V161.915V142.723V140.818V140.183V139.777V139.776V130.793L74.6431 120.298V130.539L75.1155 130.828L75.4636 131.041V131.47V131.687V132.74L74.6431 132.228V152.675Z" fill="white"/>
<path d="M75.1155 131.258L74.6431 130.969V132.228L75.4636 132.74V131.687L75.1155 131.47V131.258Z" fill="white"/>
<path d="M75.1155 130.828V131.258L75.4636 131.47V131.041L75.1155 130.828Z" fill="white"/>
<path d="M75.1155 131.258V131.47L75.4636 131.687V131.47L75.1155 131.258Z" fill="white"/>
<path d="M74.6431 130.969L75.1155 131.258V130.828L74.6431 130.539V130.969Z" fill="white"/>
<path fill-rule="evenodd" clip-rule="evenodd" d="M74.6431 123.77V135.702L75.1155 135.991L75.4636 136.204L91.4517 145.982V145.981V145.346V144.94V144.939V134.903V129.196V128.15V112.761L75.4636 102.922V123.229V124.015V124.271L75.2823 124.161L74.6477 123.772L74.6431 123.77ZM85.1693 118.801L84.9129 118.96V118.643L85.1693 118.801Z" fill="white"/>
<path d="M84.9129 118.96L85.1693 118.801L84.9129 118.643V118.96Z" fill="white"/>
<path d="M110.147 100.907L107.106 102.792V106.589L110.147 104.813V100.907Z" fill="url(#paint11_linear_1855_217)"/>
<path d="M110.59 100.62L110.148 100.907V104.813L110.59 105.079V100.62Z" fill="#002080"/>
<path d="M110.59 100.62L110.148 100.907V104.813L110.59 105.079V100.62Z" fill="#002080"/>
<path d="M110.59 100.62L110.148 100.907V104.813L110.59 105.079V100.62Z" fill="#002080"/>
<path d="M110.59 100.62L110.148 100.907V104.813L110.59 105.079V100.62Z" stroke="#002678"/>
<path d="M110.59 105.073L110.148 104.813L107.107 106.589V107.135L110.59 105.073Z" fill="#BB00FF"/>
<path d="M110.59 105.441V105.073L107.107 107.135V107.558L110.59 105.441Z" fill="#0027B4"/>
<path d="M98.2603 108.159L97.818 108.446V112.353L98.2603 112.619V108.159Z" fill="#002080"/>
<path d="M98.2603 108.159L97.818 108.446V112.353L98.2603 112.619V108.159Z" fill="#002080"/>
<path d="M98.2603 108.159L97.818 108.446V112.353L98.2603 112.619V108.159Z" fill="#002080"/>
<path d="M98.2603 108.159L97.818 108.446V112.353L98.2603 112.619V108.159Z" stroke="#002678"/>
<path d="M98.2603 112.612L97.818 112.353L94.7772 114.128V114.675L98.2603 112.612Z" fill="#BB00FF"/>
<path d="M98.2603 112.981V112.612L94.7772 114.675V115.098L98.2603 112.981Z" fill="#0027B4"/>
<g filter="url(#filter0_d_1855_217)">
<path d="M97.8184 108.446L94.7776 110.331V114.128L97.8184 112.353V108.446Z" fill="#F8FF77"/>
</g>
<path d="M104.039 104.649L100.998 106.534V110.331L104.039 108.555V104.649Z" fill="url(#paint12_linear_1855_217)"/>
<path d="M104.48 104.362L104.038 104.649V108.555L104.48 108.822V104.362Z" fill="#002080"/>
<path d="M104.48 104.362L104.038 104.649V108.555L104.48 108.822V104.362Z" fill="#002080"/>
<path d="M104.48 104.362L104.038 104.649V108.555L104.48 108.822V104.362Z" fill="#002080"/>
<path d="M104.48 104.362L104.038 104.649V108.555L104.48 108.822V104.362Z" stroke="#002678"/>
<path d="M104.48 108.815L104.038 108.556L100.997 110.331V110.878L104.48 108.815Z" fill="#BB00FF"/>
<path d="M104.48 109.184V108.815L100.997 110.877V111.301L104.48 109.184Z" fill="#0027B4"/>
<path d="M110.811 107.449L110.369 107.736V111.642L110.811 111.908V107.449Z" fill="#002080"/>
<path d="M110.811 107.449L110.369 107.736V111.642L110.811 111.908V107.449Z" fill="#002080"/>
<path d="M110.811 107.449L110.369 107.736V111.642L110.811 111.908V107.449Z" fill="#002080"/>
<path d="M110.811 107.449L110.369 107.736V111.642L110.811 111.908V107.449Z" stroke="#002678"/>
<path d="M110.811 111.902L110.369 111.642L107.328 113.418V113.964L110.811 111.902Z" fill="#BB00FF"/>
<path d="M110.811 112.271V111.902L107.328 113.964V114.388L110.811 112.271Z" fill="#0027B4"/>
<g filter="url(#filter1_d_1855_217)">
<path d="M110.368 107.736L107.327 109.621V113.418L110.368 111.642V107.736Z" fill="#F8FF77"/>
</g>
<path d="M98.04 115.275L94.9993 117.16V120.957L98.04 119.182V115.275Z" fill="url(#paint13_linear_1855_217)"/>
<path d="M98.4819 114.989L98.0396 115.275V119.182L98.4819 119.448V114.989Z" fill="#002080"/>
<path d="M98.4819 114.989L98.0396 115.275V119.182L98.4819 119.448V114.989Z" fill="#002080"/>
<path d="M98.4819 114.989L98.0396 115.275V119.182L98.4819 119.448V114.989Z" fill="#002080"/>
<path d="M98.4819 114.989L98.0396 115.275V119.182L98.4819 119.448V114.989Z" stroke="#002678"/>
<path d="M98.4819 119.441L98.0396 119.182L94.9989 120.957V121.504L98.4819 119.441Z" fill="#BB00FF"/>
<path d="M98.4819 119.81V119.441L94.9989 121.504V121.927L98.4819 119.81Z" fill="#0027B4"/>
<path d="M104.259 111.478L101.219 113.363V117.16L104.259 115.385V111.478Z" fill="url(#paint14_linear_1855_217)"/>
<path d="M104.701 111.192L104.259 111.478V115.385L104.701 115.651V111.192Z" fill="#002080"/>
<path d="M104.701 111.192L104.259 111.478V115.385L104.701 115.651V111.192Z" fill="#002080"/>
<path d="M104.701 111.192L104.259 111.478V115.385L104.701 115.651V111.192Z" fill="#002080"/>
<path d="M104.701 111.192L104.259 111.478V115.385L104.701 115.651V111.192Z" stroke="#002678"/>
<path d="M104.701 115.644L104.259 115.385L101.218 117.16V117.707L104.701 115.644Z" fill="#BB00FF"/>
<path d="M104.701 116.013V115.644L101.218 117.707V118.13L104.701 116.013Z" fill="#0027B4"/>
<path d="M110.23 114.975L107.19 116.86V120.657L110.23 118.881V114.975Z" fill="url(#paint15_linear_1855_217)"/>
<path d="M110.672 114.688L110.23 114.975V118.882L110.672 119.148V114.688Z" fill="#002080"/>
<path d="M110.672 114.688L110.23 114.975V118.882L110.672 119.148V114.688Z" fill="#002080"/>
<path d="M110.672 114.688L110.23 114.975V118.882L110.672 119.148V114.688Z" fill="#002080"/>
<path d="M110.672 114.688L110.23 114.975V118.882L110.672 119.148V114.688Z" stroke="#002678"/>
<path d="M110.672 119.141L110.23 118.881L107.189 120.657V121.203L110.672 119.141Z" fill="#BB00FF"/>
<path d="M110.672 119.51V119.141L107.189 121.203V121.627L110.672 119.51Z" fill="#0027B4"/>
<path d="M98.3438 126.681L97.9015 126.421L94.8607 128.197V128.743L98.3438 126.681Z" fill="#BB00FF"/>
<path d="M98.3438 127.049V126.681L94.8607 128.743V129.166L98.3438 127.049Z" fill="#0027B4"/>
<path d="M98.3438 122.228L97.9015 122.515V126.421L98.3438 126.687V122.228Z" fill="#002080"/>
<path d="M98.3438 122.228L97.9015 122.515V126.421L98.3438 126.687V122.228Z" fill="#002080"/>
<path d="M98.3438 122.228L97.9015 122.515V126.421L98.3438 126.687V122.228Z" fill="#002080"/>
<path d="M98.3438 122.228L97.9015 122.515V126.421L98.3438 126.687V122.228Z" stroke="#002678"/>
<g filter="url(#filter2_d_1855_217)">
<path d="M97.9009 122.515L94.8601 124.4V128.197L97.9009 126.421V122.515Z" fill="#F8FF77"/>
</g>
<path d="M104.121 118.717L101.08 120.602V124.399L104.121 122.624V118.717Z" fill="url(#paint16_linear_1855_217)"/>
<path d="M104.563 118.431L104.121 118.717V122.624L104.563 122.89V118.431Z" fill="#002080"/>
<path d="M104.563 118.431L104.121 118.717V122.624L104.563 122.89V118.431Z" fill="#002080"/>
<path d="M104.563 118.431L104.121 118.717V122.624L104.563 122.89V118.431Z" fill="#002080"/>
<path d="M104.563 118.431L104.121 118.717V122.624L104.563 122.89V118.431Z" stroke="#002678"/>
<path d="M104.563 122.883L104.121 122.624L101.08 124.399V124.946L104.563 122.883Z" fill="#BB00FF"/>
<path d="M104.563 123.252V122.883L101.08 124.946V125.369L104.563 123.252Z" fill="#0027B4"/>
<path d="M110.147 122.214L107.106 124.099V127.896L110.147 126.121V122.214Z" fill="url(#paint17_linear_1855_217)"/>
<path d="M110.59 121.927L110.148 122.214V126.121L110.59 126.387V121.927Z" fill="#002080"/>
<path d="M110.59 121.927L110.148 122.214V126.121L110.59 126.387V121.927Z" fill="#002080"/>
<path d="M110.59 121.927L110.148 122.214V126.121L110.59 126.387V121.927Z" fill="#002080"/>
<path d="M110.59 121.927L110.148 122.214V126.121L110.59 126.387V121.927Z" stroke="#002678"/>
<path d="M110.59 126.38L110.148 126.121L107.107 127.896V128.443L110.59 126.38Z" fill="#BB00FF"/>
<path d="M110.59 126.749V126.38L107.107 128.443V128.866L110.59 126.749Z" fill="#0027B4"/>
<path d="M97.8184 129.754L94.7776 131.639V135.436L97.8184 133.66V129.754Z" fill="url(#paint18_linear_1855_217)"/>
<path d="M98.2603 129.467L97.818 129.754V133.66L98.2603 133.926V129.467Z" fill="#002080"/>
<path d="M98.2603 129.467L97.818 129.754V133.66L98.2603 133.926V129.467Z" fill="#002080"/>
<path d="M98.2603 129.467L97.818 129.754V133.66L98.2603 133.926V129.467Z" fill="#002080"/>
<path d="M98.2603 129.467L97.818 129.754V133.66L98.2603 133.926V129.467Z" stroke="#002678"/>
<path d="M98.2603 133.92L97.818 133.66L94.7772 135.436V135.982L98.2603 133.92Z" fill="#BB00FF"/>
<path d="M98.2603 134.288V133.92L94.7772 135.982V136.405L98.2603 134.288Z" fill="#0027B4"/>
<path d="M104.039 125.956L100.998 127.841V131.638L104.039 129.863V125.956Z" fill="url(#paint19_linear_1855_217)"/>
<path d="M104.48 125.67L104.038 125.957V129.863L104.48 130.129V125.67Z" fill="#002080"/>
<path d="M104.48 125.67L104.038 125.957V129.863L104.48 130.129V125.67Z" fill="#002080"/>
<path d="M104.48 125.67L104.038 125.957V129.863L104.48 130.129V125.67Z" fill="#002080"/>
<path d="M104.48 125.67L104.038 125.957V129.863L104.48 130.129V125.67Z" stroke="#002678"/>
<path d="M104.48 130.122L104.038 129.863L100.997 131.639V132.185L104.48 130.122Z" fill="#BB00FF"/>
<path d="M104.48 130.491V130.122L100.997 132.185V132.608L104.48 130.491Z" fill="#0027B4"/>
<path d="M110.229 129.262L107.189 131.147V134.944L110.229 133.168V129.262Z" fill="url(#paint20_linear_1855_217)"/>
<path d="M110.671 128.975L110.229 129.262V133.168L110.671 133.434V128.975Z" fill="#002080"/>
<path d="M110.671 128.975L110.229 129.262V133.168L110.671 133.434V128.975Z" fill="#002080"/>
<path d="M110.671 128.975L110.229 129.262V133.168L110.671 133.434V128.975Z" fill="#002080"/>
<path d="M110.671 128.975L110.229 129.262V133.168L110.671 133.434V128.975Z" stroke="#002678"/>
<path d="M110.671 133.428L110.229 133.168L107.188 134.944V135.49L110.671 133.428Z" fill="#BB00FF"/>
<path d="M110.671 133.797V133.428L107.188 135.49V135.914L110.671 133.797Z" fill="#0027B4"/>
<path d="M98.3433 136.515L97.901 136.802V140.708L98.3433 140.974V136.515Z" fill="#002080"/>
<path d="M98.3433 136.515L97.901 136.802V140.708L98.3433 140.974V136.515Z" fill="#002080"/>
<path d="M98.3433 136.515L97.901 136.802V140.708L98.3433 140.974V136.515Z" fill="#002080"/>
<path d="M98.3433 136.515L97.901 136.802V140.708L98.3433 140.974V136.515Z" stroke="#002678"/>
<path d="M98.3433 140.967L97.901 140.708L94.8602 142.484V143.03L98.3433 140.967Z" fill="#BB00FF"/>
<path d="M98.3433 141.336V140.967L94.8602 143.03V143.453L98.3433 141.336Z" fill="#0027B4"/>
<g filter="url(#filter3_d_1855_217)">
<path d="M97.9009 136.802L94.8601 138.686V142.484L97.9009 140.708V136.802Z" fill="#F8FF77"/>
</g>
<path d="M104.121 133.004L101.08 134.889V138.686L104.121 136.911V133.004Z" fill="url(#paint21_linear_1855_217)"/>
<path d="M104.562 132.718L104.12 133.004V136.911L104.562 137.177V132.718Z" fill="#002080"/>
<path d="M104.562 132.718L104.12 133.004V136.911L104.562 137.177V132.718Z" fill="#002080"/>
<path d="M104.562 132.718L104.12 133.004V136.911L104.562 137.177V132.718Z" fill="#002080"/>
<path d="M104.562 132.718L104.12 133.004V136.911L104.562 137.177V132.718Z" stroke="#002678"/>
<path d="M104.562 137.17L104.12 136.911L101.079 138.686V139.233L104.562 137.17Z" fill="#BB00FF"/>
<path d="M104.562 137.539V137.17L101.079 139.233V139.656L104.562 137.539Z" fill="#0027B4"/>
<path d="M110.811 136.187L110.368 136.474V140.38L110.811 140.646V136.187Z" fill="#002080"/>
<path d="M110.811 136.187L110.368 136.474V140.38L110.811 140.646V136.187Z" fill="#002080"/>
<path d="M110.811 136.187L110.368 136.474V140.38L110.811 140.646V136.187Z" fill="#002080"/>
<path d="M110.811 136.187L110.368 136.474V140.38L110.811 140.646V136.187Z" stroke="#002678"/>
<path d="M110.811 140.64L110.368 140.38L107.328 142.156V142.702L110.811 140.64Z" fill="#BB00FF"/>
<path d="M110.811 141.009V140.64L107.328 142.702V143.126L110.811 141.009Z" fill="#0027B4"/>
<g filter="url(#filter4_d_1855_217)">
<path d="M110.369 136.474L107.328 138.359V142.156L110.369 140.38V136.474Z" fill="#F8FF77"/>
</g>
<path d="M98.04 144.014L94.9993 145.898V149.696L98.04 147.92V144.014Z" fill="url(#paint22_linear_1855_217)"/>
<path d="M98.4819 143.727L98.0396 144.013V147.92L98.4819 148.186V143.727Z" fill="#002080"/>
<path d="M98.4819 143.727L98.0396 144.013V147.92L98.4819 148.186V143.727Z" fill="#002080"/>
<path d="M98.4819 143.727L98.0396 144.013V147.92L98.4819 148.186V143.727Z" fill="#002080"/>
<path d="M98.4819 143.727L98.0396 144.013V147.92L98.4819 148.186V143.727Z" stroke="#002678"/>
<path d="M98.4819 148.179L98.0396 147.92L94.9989 149.696V150.242L98.4819 148.179Z" fill="#BB00FF"/>
<path d="M98.4819 148.548V148.179L94.9989 150.242V150.665L98.4819 148.548Z" fill="#0027B4"/>
<path d="M104.26 140.216L101.219 142.101V145.898L104.26 144.123V140.216Z" fill="url(#paint23_linear_1855_217)"/>
<path d="M104.702 139.93L104.259 140.216V144.123L104.702 144.389V139.93Z" fill="#002080"/>
<path d="M104.702 139.93L104.259 140.216V144.123L104.702 144.389V139.93Z" fill="#002080"/>
<path d="M104.702 139.93L104.259 140.216V144.123L104.702 144.389V139.93Z" fill="#002080"/>
<path d="M104.702 139.93L104.259 140.216V144.123L104.702 144.389V139.93Z" stroke="#002678"/>
<path d="M104.702 144.382L104.259 144.123L101.219 145.898V146.445L104.702 144.382Z" fill="#BB00FF"/>
<path d="M104.702 144.751V144.382L101.219 146.445V146.868L104.702 144.751Z" fill="#0027B4"/>
<path d="M110.369 143.494L107.328 145.379V149.176L110.369 147.401V143.494Z" fill="url(#paint24_linear_1855_217)"/>
<path d="M110.811 143.208L110.368 143.494V147.401L110.811 147.667V143.208Z" fill="#002080"/>
<path d="M110.811 143.208L110.368 143.494V147.401L110.811 147.667V143.208Z" fill="#002080"/>
<path d="M110.811 143.208L110.368 143.494V147.401L110.811 147.667V143.208Z" fill="#002080"/>
<path d="M110.811 143.208L110.368 143.494V147.401L110.811 147.667V143.208Z" stroke="#002678"/>
<path d="M110.811 147.66L110.368 147.401L107.328 149.176V149.723L110.811 147.66Z" fill="#BB00FF"/>
<path d="M110.811 148.029V147.66L107.328 149.723V150.146L110.811 148.029Z" fill="#0027B4"/>
<path d="M98.4819 155.2L98.0396 154.94L94.9989 156.716V157.262L98.4819 155.2Z" fill="#BB00FF"/>
<path d="M98.4819 155.569V155.2L94.9989 157.262V157.686L98.4819 155.569Z" fill="#0027B4"/>
<path d="M98.4819 150.747L98.0396 151.034V154.94L98.4819 155.206V150.747Z" fill="#002080"/>
<path d="M98.4819 150.747L98.0396 151.034V154.94L98.4819 155.206V150.747Z" fill="#002080"/>
<path d="M98.4819 150.747L98.0396 151.034V154.94L98.4819 155.206V150.747Z" fill="#002080"/>
<path d="M98.4819 150.747L98.0396 151.034V154.94L98.4819 155.206V150.747Z" stroke="#002678"/>
<g filter="url(#filter5_d_1855_217)">
<path d="M98.04 151.034L94.9993 152.919V156.716L98.04 154.94V151.034Z" fill="#F8FF77"/>
</g>
<path d="M104.26 147.237L101.219 149.122V152.919L104.26 151.143V147.237Z" fill="url(#paint25_linear_1855_217)"/>
<path d="M104.702 146.95L104.259 147.237V151.143L104.702 151.409V146.95Z" fill="#002080"/>
<path d="M104.702 146.95L104.259 147.237V151.143L104.702 151.409V146.95Z" fill="#002080"/>
<path d="M104.702 146.95L104.259 147.237V151.143L104.702 151.409V146.95Z" fill="#002080"/>
<path d="M104.702 146.95L104.259 147.237V151.143L104.702 151.409V146.95Z" stroke="#002678"/>
<path d="M104.702 151.403L104.259 151.143L101.219 152.919V153.465L104.702 151.403Z" fill="#BB00FF"/>
<path d="M104.702 151.771V151.403L101.219 153.465V153.888L104.702 151.771Z" fill="#0027B4"/>
<path d="M110.092 150.733L107.051 152.618V156.415L110.092 154.64V150.733Z" fill="url(#paint26_linear_1855_217)"/>
<path d="M110.535 150.447L110.092 150.733V154.64L110.535 154.906V150.447Z" fill="#002080"/>
<path d="M110.535 150.447L110.092 150.733V154.64L110.535 154.906V150.447Z" fill="#002080"/>
<path d="M110.535 150.447L110.092 150.733V154.64L110.535 154.906V150.447Z" fill="#002080"/>
<path d="M110.535 150.447L110.092 150.733V154.64L110.535 154.906V150.447Z" stroke="#002678"/>
<path d="M110.535 154.899L110.092 154.64L107.052 156.415V156.962L110.535 154.899Z" fill="#BB00FF"/>
<path d="M110.535 155.268V154.899L107.052 156.962V157.385L110.535 155.268Z" fill="#0027B4"/>
<path d="M97.7632 158.273L94.7224 160.158V163.955L97.7632 162.179V158.273Z" fill="url(#paint27_linear_1855_217)"/>
<path d="M98.2051 157.986L97.7628 158.273V162.179L98.2051 162.445V157.986Z" fill="#002080"/>
<path d="M98.2051 157.986L97.7628 158.273V162.179L98.2051 162.445V157.986Z" fill="#002080"/>
<path d="M98.2051 157.986L97.7628 158.273V162.179L98.2051 162.445V157.986Z" fill="#002080"/>
<path d="M98.2051 157.986L97.7628 158.273V162.179L98.2051 162.445V157.986Z" stroke="#002678"/>
<path d="M98.2051 162.439L97.7628 162.179L94.7221 163.955V164.501L98.2051 162.439Z" fill="#BB00FF"/>
<path d="M98.2051 162.808V162.439L94.7221 164.501V164.925L98.2051 162.808Z" fill="#0027B4"/>
<path d="M103.983 154.476L100.943 156.361V160.158L103.983 158.382V154.476Z" fill="url(#paint28_linear_1855_217)"/>
<path d="M104.425 154.189L103.983 154.476V158.382L104.425 158.648V154.189Z" fill="#002080"/>
<path d="M104.425 154.189L103.983 154.476V158.382L104.425 158.648V154.189Z" fill="#002080"/>
<path d="M104.425 154.189L103.983 154.476V158.382L104.425 158.648V154.189Z" fill="#002080"/>
<path d="M104.425 154.189L103.983 154.476V158.382L104.425 158.648V154.189Z" stroke="#002678"/>
<path d="M104.425 158.642L103.983 158.382L100.942 160.158V160.704L104.425 158.642Z" fill="#BB00FF"/>
<path d="M104.425 159.011V158.642L100.942 160.704V161.128L104.425 159.011Z" fill="#0027B4"/>
<path d="M76.4094 99.9915L76.7964 100.237V102.873L76.4094 102.614V99.9915Z" fill="#98B2FF"/>
<path d="M76.9346 100.128L76.5476 99.8822L76.4094 99.9915L76.7964 100.237L76.9346 100.128Z" fill="white"/>
<path d="M76.9346 102.764V100.128L76.7964 100.237V102.873L76.9346 102.764Z" fill="#A200FF"/>
<path d="M76.6705 101.62C76.678 101.601 76.683 101.581 76.6855 101.559V101.492C76.668 101.329 76.5299 101.131 76.3131 100.984C76.0496 100.806 75.7568 100.761 75.6074 100.866L76.6705 101.62Z" fill="white"/>
<path fill-rule="evenodd" clip-rule="evenodd" d="M75.551 100.922C75.5663 100.9 75.5853 100.881 75.6074 100.866L76.6705 101.62C76.6644 101.635 76.6565 101.65 76.6468 101.664C76.5285 101.835 76.1873 101.807 75.8847 101.602C75.5821 101.397 75.4327 101.092 75.551 100.922ZM76.6855 101.559V101.492C76.688 101.515 76.688 101.538 76.6855 101.559Z" fill="white"/>
<path d="M76.5334 100.155L75.6074 100.866L75.6074 100.866C75.7568 100.761 76.0496 100.806 76.3131 100.984C76.5299 101.131 76.668 101.329 76.6855 101.492V100.251L76.5334 100.155Z" fill="url(#paint29_linear_1855_217)"/>
<path d="M91.1152 109.061L91.5022 109.307V111.943L91.1152 111.683V109.061Z" fill="#98B2FF"/>
<path d="M91.6405 109.197L91.2534 108.951L91.1152 109.061L91.5022 109.307L91.6405 109.197Z" fill="white"/>
<path d="M91.6405 111.833V109.197L91.5022 109.307V111.943L91.6405 111.833Z" fill="#A200FF"/>
<path d="M91.377 110.689C91.3846 110.67 91.3895 110.65 91.392 110.629V110.561C91.3746 110.398 91.2364 110.2 91.0197 110.054C90.7562 109.875 90.4633 109.831 90.314 109.935L91.377 110.689Z" fill="white"/>
<path fill-rule="evenodd" clip-rule="evenodd" d="M90.2576 109.991C90.2729 109.969 90.2918 109.95 90.314 109.935L91.377 110.689C91.3709 110.705 91.363 110.72 91.3533 110.734C91.235 110.904 90.8938 110.876 90.5913 110.671C90.2887 110.466 90.1393 110.162 90.2576 109.991ZM91.392 110.629V110.561C91.3945 110.585 91.3945 110.607 91.392 110.629Z" fill="white"/>
<path d="M91.24 109.225L90.3139 109.935L90.314 109.935C90.4633 109.831 90.7562 109.875 91.0197 110.054C91.2364 110.2 91.3746 110.398 91.392 110.561V109.32L91.24 109.225Z" fill="url(#paint30_linear_1855_217)"/>
<path d="M87.1895 106.657L87.5765 106.903V109.539L87.1895 109.279V106.657Z" fill="#98B2FF"/>
<path d="M87.7147 106.793L87.3277 106.548L87.1895 106.657L87.5765 106.903L87.7147 106.793Z" fill="white"/>
<path d="M87.7147 109.43V106.793L87.5765 106.903V109.539L87.7147 109.43Z" fill="#A200FF"/>
<path d="M87.4513 108.285C87.4588 108.266 87.4638 108.246 87.4662 108.225V108.157C87.4488 107.994 87.3106 107.796 87.0939 107.65C86.8304 107.471 86.5376 107.427 86.3882 107.531L87.4513 108.285Z" fill="white"/>
<path fill-rule="evenodd" clip-rule="evenodd" d="M86.3318 107.587C86.3471 107.565 86.3661 107.546 86.3882 107.531L87.4513 108.285C87.4451 108.301 87.4372 108.316 87.4276 108.33C87.3093 108.5 86.9681 108.472 86.6655 108.267C86.3629 108.062 86.2135 107.758 86.3318 107.587ZM87.4662 108.225V108.157C87.4687 108.181 87.4688 108.203 87.4662 108.225Z" fill="white"/>
<path d="M87.3142 106.821L86.3882 107.531L86.3882 107.531C86.5376 107.427 86.8304 107.471 87.0939 107.65C87.3106 107.796 87.4488 107.994 87.4662 108.157V106.916L87.3142 106.821Z" fill="url(#paint31_linear_1855_217)"/>
<path d="M79.7817 102.095L80.1687 102.341V104.977L79.7817 104.717V102.095Z" fill="#98B2FF"/>
<path d="M80.307 102.231L79.92 101.986L79.7817 102.095L80.1687 102.341L80.307 102.231Z" fill="white"/>
<path d="M80.307 104.868V102.231L80.1687 102.341V104.977L80.307 104.868Z" fill="#A200FF"/>
<path d="M80.0436 103.723C80.0511 103.704 80.056 103.684 80.0585 103.663V103.595C80.0411 103.432 79.9029 103.234 79.6862 103.088C79.4227 102.909 79.1298 102.865 78.9805 102.969L80.0436 103.723Z" fill="white"/>
<path fill-rule="evenodd" clip-rule="evenodd" d="M78.9241 103.025C78.9394 103.003 78.9584 102.984 78.9805 102.969L80.0436 103.723C80.0374 103.739 80.0295 103.754 80.0199 103.768C79.9015 103.938 79.5603 103.91 79.2578 103.705C78.9552 103.5 78.8058 103.196 78.9241 103.025ZM80.0585 103.663V103.595C80.061 103.619 80.061 103.641 80.0585 103.663Z" fill="white"/>
<path d="M79.9065 102.259L78.9804 102.969L78.9805 102.969C79.1298 102.865 79.4227 102.909 79.6862 103.088C79.9029 103.234 80.0411 103.432 80.0585 103.595V102.354L79.9065 102.259Z" fill="url(#paint32_linear_1855_217)"/>
<path d="M83.4858 104.362L83.8728 104.608V107.244L83.4858 106.985V104.362Z" fill="#98B2FF"/>
<path d="M84.0111 104.499L83.6241 104.253L83.4858 104.362L83.8728 104.608L84.0111 104.499Z" fill="white"/>
<path d="M84.0111 107.135V104.499L83.8728 104.608V107.244L84.0111 107.135Z" fill="#A200FF"/>
<path d="M83.7477 105.991C83.7552 105.972 83.7601 105.951 83.7626 105.93V105.863C83.7452 105.7 83.607 105.502 83.3903 105.355C83.1268 105.176 82.8339 105.132 82.6846 105.236L83.7477 105.991Z" fill="white"/>
<path fill-rule="evenodd" clip-rule="evenodd" d="M82.6282 105.293C82.6435 105.271 82.6625 105.252 82.6846 105.236L83.7477 105.991C83.7415 106.006 83.7336 106.021 83.724 106.035C83.6056 106.206 83.2644 106.178 82.9619 105.973C82.6593 105.768 82.5099 105.463 82.6282 105.293ZM83.7626 105.93V105.863C83.7651 105.886 83.7651 105.909 83.7626 105.93Z" fill="white"/>
<path d="M83.6106 104.526L82.6845 105.236L82.6846 105.236C82.8339 105.132 83.1268 105.176 83.3903 105.355C83.607 105.502 83.7452 105.7 83.7626 105.863V104.622L83.6106 104.526Z" fill="url(#paint33_linear_1855_217)"/>
<g filter="url(#filter6_dddd_1855_217)">
<ellipse cx="0.660258" cy="0.375687" rx="0.660258" ry="0.375687" transform="matrix(0.841394 0.540422 -0.549503 0.835491 75.7305 100.62)" fill="white"/>
<ellipse cx="0.660258" cy="0.375687" rx="0.660258" ry="0.375687" transform="matrix(0.841394 0.540422 -0.549503 0.835491 79.1301 102.723)" fill="white"/>
<ellipse cx="0.660258" cy="0.375687" rx="0.660258" ry="0.375687" transform="matrix(0.841394 0.540422 -0.549503 0.835491 82.8345 104.991)" fill="white"/>
<ellipse cx="0.660258" cy="0.375687" rx="0.660258" ry="0.375687" transform="matrix(0.841394 0.540422 -0.549503 0.835491 86.5386 107.285)" fill="white"/>
<ellipse cx="0.660258" cy="0.375687" rx="0.660258" ry="0.375687" transform="matrix(0.841394 0.540422 -0.549503 0.835491 90.436 109.689)" fill="white"/>
</g>
<path d="M102.658 95.363H102.695H102.732V99.5489C102.706 99.5565 102.689 99.5561 102.658 99.5489V95.363Z" fill="url(#paint34_radial_1855_217)"/>
<path d="M102.264 92.8408C101.506 93.4865 101.432 95.634 102.461 96.813C103.49 97.9919 105.624 98.2384 106.382 97.5928C107.14 96.9471 105.694 95.7633 104.665 94.5843C103.636 93.4053 103.022 92.1952 102.264 92.8408Z" fill="url(#paint35_linear_1855_217)"/>
<ellipse cx="3.152" cy="1.47034" rx="3.152" ry="1.47034" transform="matrix(-0.657457 -0.753492 -0.761147 0.648579 107.532 96.6282)" fill="url(#paint36_linear_1855_217)"/>
<path d="M93.4321 98.9942H93.3807H93.3292V104.819C93.3662 104.829 93.3891 104.829 93.4321 104.819V98.9942Z" fill="url(#paint37_radial_1855_217)"/>
<path d="M97.2385 97.0136C97.7227 98.3035 96.3523 100.969 94.2972 101.722C92.242 102.476 89.4738 101.359 88.9896 100.069C88.5054 98.7791 91.0724 98.297 93.1275 97.5436C95.1826 96.7902 96.7543 95.7238 97.2385 97.0136Z" fill="url(#paint38_linear_1855_217)"/>
<ellipse cx="4.38766" cy="2.04509" rx="4.38766" ry="2.04509" transform="matrix(0.943544 -0.345903 0.349702 0.93156 88.2444 98.1302)" fill="url(#paint39_linear_1855_217)"/>
<path d="M90.2983 89.1933H90.2746H90.251V91.8747C90.268 91.8795 90.2785 91.8793 90.2983 91.8747V89.1933Z" fill="url(#paint40_radial_1855_217)"/>
<path d="M92.4755 89.1332C92.2946 89.7408 91.0461 90.3509 90.078 90.0693C89.11 89.7878 88.4003 88.6222 88.5813 88.0146C88.7622 87.407 89.8435 87.928 90.8115 88.2096C91.7795 88.4911 92.6565 88.5256 92.4755 89.1332Z" fill="url(#paint41_linear_1855_217)"/>
<ellipse cx="2.022" cy="0.940497" rx="2.022" ry="0.940497" transform="matrix(0.964426 0.280507 -0.284178 0.95416 88.8469 87.0966)" fill="url(#paint42_linear_1855_217)"/>
<defs>
<filter id="filter0_d_1855_217" x="38.4778" y="60.1464" width="119.641" height="122.282" filterUnits="userSpaceOnUse" color-interpolation-filters="sRGB">
<feFlood flood-opacity="0" result="BackgroundImageFix"/>
<feColorMatrix in="SourceAlpha" type="matrix" values="0 0 0 0 0 0 0 0 0 0 0 0 0 0 0 0 0 0 127 0" result="hardAlpha"/>
<feOffset dx="2" dy="10"/>
<feGaussianBlur stdDeviation="29.15"/>
<feComposite in2="hardAlpha" operator="out"/>
<feColorMatrix type="matrix" values="0 0 0 0 1 0 0 0 0 1 0 0 0 0 1 0 0 0 1 0"/>
<feBlend mode="normal" in2="BackgroundImageFix" result="effect1_dropShadow_1855_217"/>
<feBlend mode="normal" in="SourceGraphic" in2="effect1_dropShadow_1855_217" result="shape"/>
</filter>
<filter id="filter1_d_1855_217" x="82.4276" y="83.8358" width="58.8405" height="61.482" filterUnits="userSpaceOnUse" color-interpolation-filters="sRGB">
<feFlood flood-opacity="0" result="BackgroundImageFix"/>
<feColorMatrix in="SourceAlpha" type="matrix" values="0 0 0 0 0 0 0 0 0 0 0 0 0 0 0 0 0 0 127 0" result="hardAlpha"/>
<feOffset dx="3" dy="4"/>
<feGaussianBlur stdDeviation="13.95"/>
<feComposite in2="hardAlpha" operator="out"/>
<feColorMatrix type="matrix" values="0 0 0 0 1 0 0 0 0 1 0 0 0 0 1 0 0 0 1 0"/>
<feBlend mode="normal" in2="BackgroundImageFix" result="effect1_dropShadow_1855_217"/>
<feBlend mode="normal" in="SourceGraphic" in2="effect1_dropShadow_1855_217" result="shape"/>
</filter>
<filter id="filter2_d_1855_217" x="77.1604" y="102.815" width="50.4405" height="53.082" filterUnits="userSpaceOnUse" color-interpolation-filters="sRGB">
<feFlood flood-opacity="0" result="BackgroundImageFix"/>
<feColorMatrix in="SourceAlpha" type="matrix" values="0 0 0 0 0 0 0 0 0 0 0 0 0 0 0 0 0 0 127 0" result="hardAlpha"/>
<feOffset dx="6" dy="4"/>
<feGaussianBlur stdDeviation="11.85"/>
<feComposite in2="hardAlpha" operator="out"/>
<feColorMatrix type="matrix" values="0 0 0 0 1 0 0 0 0 1 0 0 0 0 1 0 0 0 1 0"/>
<feBlend mode="normal" in2="BackgroundImageFix" result="effect1_dropShadow_1855_217"/>
<feBlend mode="normal" in="SourceGraphic" in2="effect1_dropShadow_1855_217" result="shape"/>
</filter>
<filter id="filter3_d_1855_217" x="38.5604" y="88.5015" width="119.641" height="122.282" filterUnits="userSpaceOnUse" color-interpolation-filters="sRGB">
<feFlood flood-opacity="0" result="BackgroundImageFix"/>
<feColorMatrix in="SourceAlpha" type="matrix" values="0 0 0 0 0 0 0 0 0 0 0 0 0 0 0 0 0 0 127 0" result="hardAlpha"/>
<feOffset dx="2" dy="10"/>
<feGaussianBlur stdDeviation="29.15"/>
<feComposite in2="hardAlpha" operator="out"/>
<feColorMatrix type="matrix" values="0 0 0 0 1 0 0 0 0 1 0 0 0 0 1 0 0 0 1 0"/>
<feBlend mode="normal" in2="BackgroundImageFix" result="effect1_dropShadow_1855_217"/>
<feBlend mode="normal" in="SourceGraphic" in2="effect1_dropShadow_1855_217" result="shape"/>
</filter>
<filter id="filter4_d_1855_217" x="82.4281" y="112.574" width="58.8405" height="61.482" filterUnits="userSpaceOnUse" color-interpolation-filters="sRGB">
<feFlood flood-opacity="0" result="BackgroundImageFix"/>
<feColorMatrix in="SourceAlpha" type="matrix" values="0 0 0 0 0 0 0 0 0 0 0 0 0 0 0 0 0 0 127 0" result="hardAlpha"/>
<feOffset dx="3" dy="4"/>
<feGaussianBlur stdDeviation="13.95"/>
<feComposite in2="hardAlpha" operator="out"/>
<feColorMatrix type="matrix" values="0 0 0 0 1 0 0 0 0 1 0 0 0 0 1 0 0 0 1 0"/>
<feBlend mode="normal" in2="BackgroundImageFix" result="effect1_dropShadow_1855_217"/>
<feBlend mode="normal" in="SourceGraphic" in2="effect1_dropShadow_1855_217" result="shape"/>
</filter>
<filter id="filter5_d_1855_217" x="77.2995" y="131.334" width="50.4405" height="53.082" filterUnits="userSpaceOnUse" color-interpolation-filters="sRGB">
<feFlood flood-opacity="0" result="BackgroundImageFix"/>
<feColorMatrix in="SourceAlpha" type="matrix" values="0 0 0 0 0 0 0 0 0 0 0 0 0 0 0 0 0 0 127 0" result="hardAlpha"/>
<feOffset dx="6" dy="4"/>
<feGaussianBlur stdDeviation="11.85"/>
<feComposite in2="hardAlpha" operator="out"/>
<feColorMatrix type="matrix" values="0 0 0 0 1 0 0 0 0 1 0 0 0 0 1 0 0 0 1 0"/>
<feBlend mode="normal" in2="BackgroundImageFix" result="effect1_dropShadow_1855_217"/>
<feBlend mode="normal" in="SourceGraphic" in2="effect1_dropShadow_1855_217" result="shape"/>
</filter>
<filter id="filter6_dddd_1855_217" x="-29.3132" y="0.0152435" width="225.491" height="219.62" filterUnits="userSpaceOnUse" color-interpolation-filters="sRGB">
<feFlood flood-opacity="0" result="BackgroundImageFix"/>
<feColorMatrix in="SourceAlpha" type="matrix" values="0 0 0 0 0 0 0 0 0 0 0 0 0 0 0 0 0 0 127 0" result="hardAlpha"/>
<feOffset dx="-3" dy="9"/>
<feGaussianBlur stdDeviation="12.65"/>
<feComposite in2="hardAlpha" operator="out"/>
<feColorMatrix type="matrix" values="0 0 0 0 1 0 0 0 0 1 0 0 0 0 1 0 0 0 1 0"/>
<feBlend mode="normal" in2="BackgroundImageFix" result="effect1_dropShadow_1855_217"/>
<feColorMatrix in="SourceAlpha" type="matrix" values="0 0 0 0 0 0 0 0 0 0 0 0 0 0 0 0 0 0 127 0" result="hardAlpha"/>
<feOffset dy="4"/>
<feGaussianBlur stdDeviation="8.2"/>
<feComposite in2="hardAlpha" operator="out"/>
<feColorMatrix type="matrix" values="0 0 0 0 1 0 0 0 0 1 0 0 0 0 1 0 0 0 1 0"/>
<feBlend mode="normal" in2="effect1_dropShadow_1855_217" result="effect2_dropShadow_1855_217"/>
<feColorMatrix in="SourceAlpha" type="matrix" values="0 0 0 0 0 0 0 0 0 0 0 0 0 0 0 0 0 0 127 0" result="hardAlpha"/>
<feOffset dy="4"/>
<feGaussianBlur stdDeviation="18.25"/>
<feComposite in2="hardAlpha" operator="out"/>
<feColorMatrix type="matrix" values="0 0 0 0 1 0 0 0 0 1 0 0 0 0 1 0 0 0 1 0"/>
<feBlend mode="normal" in2="effect2_dropShadow_1855_217" result="effect3_dropShadow_1855_217"/>
<feColorMatrix in="SourceAlpha" type="matrix" values="0 0 0 0 0 0 0 0 0 0 0 0 0 0 0 0 0 0 127 0" result="hardAlpha"/>
<feOffset dy="4"/>
<feGaussianBlur stdDeviation="52.4"/>
<feComposite in2="hardAlpha" operator="out"/>
<feColorMatrix type="matrix" values="0 0 0 0 1 0 0 0 0 1 0 0 0 0 1 0 0 0 1 0"/>
<feBlend mode="normal" in2="effect3_dropShadow_1855_217" result="effect4_dropShadow_1855_217"/>
<feBlend mode="normal" in="SourceGraphic" in2="effect4_dropShadow_1855_217" result="shape"/>
</filter>
<radialGradient id="paint0_radial_1855_217" cx="0" cy="0" r="1" gradientUnits="userSpaceOnUse" gradientTransform="translate(104.038 118.899) rotate(90.5061) scale(4.69445 0.0828503)">
<stop offset="0.565" stop-color="white"/>
<stop offset="1" stop-color="#5A0033"/>
</radialGradient>
<linearGradient id="paint1_linear_1855_217" x1="105.088" y1="121.463" x2="103.795" y2="119.741" gradientUnits="userSpaceOnUse">
<stop stop-color="white"/>
<stop offset="1" stop-color="#FF8EFF"/>
</linearGradient>
<linearGradient id="paint2_linear_1855_217" x1="2.4445" y1="0.926818" x2="2.86328" y2="4.1071" gradientUnits="userSpaceOnUse">
<stop stop-color="#FFA7D9"/>
<stop offset="1" stop-color="#FF2CD1"/>
</linearGradient>
<linearGradient id="paint3_linear_1855_217" x1="93.3744" y1="83" x2="93.3744" y2="146.308" gradientUnits="userSpaceOnUse">
<stop stop-color="#A967FF"/>
<stop offset="1" stop-color="#F373FF"/>
</linearGradient>
<linearGradient id="paint4_linear_1855_217" x1="93.3744" y1="83" x2="93.3744" y2="146.308" gradientUnits="userSpaceOnUse">
<stop stop-color="#A967FF"/>
<stop offset="1" stop-color="#F373FF"/>
</linearGradient>
<linearGradient id="paint5_linear_1855_217" x1="93.3744" y1="83" x2="93.3744" y2="146.308" gradientUnits="userSpaceOnUse">
<stop stop-color="#FEC3FF"/>
<stop offset="1" stop-color="#FEC0FF"/>
</linearGradient>
<linearGradient id="paint6_linear_1855_217" x1="93.3744" y1="83" x2="93.3744" y2="146.308" gradientUnits="userSpaceOnUse">
<stop stop-color="#A967FF"/>
<stop offset="1" stop-color="#F373FF"/>
</linearGradient>
<linearGradient id="paint7_linear_1855_217" x1="93.3744" y1="83" x2="93.3744" y2="146.308" gradientUnits="userSpaceOnUse">
<stop stop-color="#A967FF"/>
<stop offset="1" stop-color="#F373FF"/>
</linearGradient>
<linearGradient id="paint8_linear_1855_217" x1="93.3744" y1="83" x2="93.3744" y2="146.308" gradientUnits="userSpaceOnUse">
<stop stop-color="#A967FF"/>
<stop offset="1" stop-color="#F373FF"/>
</linearGradient>
<linearGradient id="paint9_linear_1855_217" x1="93.3744" y1="83" x2="93.3744" y2="146.308" gradientUnits="userSpaceOnUse">
<stop stop-color="#A967FF"/>
<stop offset="1" stop-color="#F373FF"/>
</linearGradient>
<linearGradient id="paint10_linear_1855_217" x1="93.3744" y1="83" x2="93.3744" y2="146.308" gradientUnits="userSpaceOnUse">
<stop stop-color="#A967FF"/>
<stop offset="1" stop-color="#F373FF"/>
</linearGradient>
<linearGradient id="paint11_linear_1855_217" x1="108.627" y1="100.907" x2="108.627" y2="106.589" gradientUnits="userSpaceOnUse">
<stop stop-color="#0D000D"/>
<stop offset="1" stop-color="#520031"/>
</linearGradient>
<linearGradient id="paint12_linear_1855_217" x1="102.518" y1="104.649" x2="102.518" y2="110.331" gradientUnits="userSpaceOnUse">
<stop stop-color="#0D000D"/>
<stop offset="1" stop-color="#520031"/>
</linearGradient>
<linearGradient id="paint13_linear_1855_217" x1="96.5197" y1="115.275" x2="96.5197" y2="120.957" gradientUnits="userSpaceOnUse">
<stop stop-color="#0D000D"/>
<stop offset="1" stop-color="#520031"/>
</linearGradient>
<linearGradient id="paint14_linear_1855_217" x1="102.739" y1="111.478" x2="102.739" y2="117.16" gradientUnits="userSpaceOnUse">
<stop stop-color="#0D000D"/>
<stop offset="1" stop-color="#520031"/>
</linearGradient>
<linearGradient id="paint15_linear_1855_217" x1="108.71" y1="114.975" x2="108.71" y2="120.657" gradientUnits="userSpaceOnUse">
<stop stop-color="#0D000D"/>
<stop offset="1" stop-color="#520031"/>
</linearGradient>
<linearGradient id="paint16_linear_1855_217" x1="102.601" y1="118.717" x2="102.601" y2="124.399" gradientUnits="userSpaceOnUse">
<stop stop-color="#0D000D"/>
<stop offset="1" stop-color="#520031"/>
</linearGradient>
<linearGradient id="paint17_linear_1855_217" x1="108.627" y1="122.214" x2="108.627" y2="127.896" gradientUnits="userSpaceOnUse">
<stop stop-color="#0D000D"/>
<stop offset="1" stop-color="#520031"/>
</linearGradient>
<linearGradient id="paint18_linear_1855_217" x1="96.298" y1="129.754" x2="96.298" y2="135.436" gradientUnits="userSpaceOnUse">
<stop stop-color="#0D000D"/>
<stop offset="1" stop-color="#520031"/>
</linearGradient>
<linearGradient id="paint19_linear_1855_217" x1="102.518" y1="125.956" x2="102.518" y2="131.638" gradientUnits="userSpaceOnUse">
<stop stop-color="#0D000D"/>
<stop offset="1" stop-color="#520031"/>
</linearGradient>
<linearGradient id="paint20_linear_1855_217" x1="108.709" y1="129.262" x2="108.709" y2="134.944" gradientUnits="userSpaceOnUse">
<stop stop-color="#0D000D"/>
<stop offset="1" stop-color="#520031"/>
</linearGradient>
<linearGradient id="paint21_linear_1855_217" x1="102.6" y1="133.004" x2="102.6" y2="138.686" gradientUnits="userSpaceOnUse">
<stop stop-color="#0D000D"/>
<stop offset="1" stop-color="#520031"/>
</linearGradient>
<linearGradient id="paint22_linear_1855_217" x1="96.5197" y1="144.014" x2="96.5197" y2="149.696" gradientUnits="userSpaceOnUse">
<stop stop-color="#0D000D"/>
<stop offset="1" stop-color="#520031"/>
</linearGradient>
<linearGradient id="paint23_linear_1855_217" x1="102.739" y1="140.216" x2="102.739" y2="145.898" gradientUnits="userSpaceOnUse">
<stop stop-color="#0D000D"/>
<stop offset="1" stop-color="#520031"/>
</linearGradient>
<linearGradient id="paint24_linear_1855_217" x1="108.848" y1="143.494" x2="108.848" y2="149.176" gradientUnits="userSpaceOnUse">
<stop stop-color="#0D000D"/>
<stop offset="1" stop-color="#520031"/>
</linearGradient>
<linearGradient id="paint25_linear_1855_217" x1="102.739" y1="147.237" x2="102.739" y2="152.919" gradientUnits="userSpaceOnUse">
<stop stop-color="#0D000D"/>
<stop offset="1" stop-color="#520031"/>
</linearGradient>
<linearGradient id="paint26_linear_1855_217" x1="108.571" y1="150.733" x2="108.571" y2="156.415" gradientUnits="userSpaceOnUse">
<stop stop-color="#0D000D"/>
<stop offset="1" stop-color="#520031"/>
</linearGradient>
<linearGradient id="paint27_linear_1855_217" x1="96.2428" y1="158.273" x2="96.2428" y2="163.955" gradientUnits="userSpaceOnUse">
<stop stop-color="#0D000D"/>
<stop offset="1" stop-color="#520031"/>
</linearGradient>
<linearGradient id="paint28_linear_1855_217" x1="102.463" y1="154.476" x2="102.463" y2="160.158" gradientUnits="userSpaceOnUse">
<stop stop-color="#0D000D"/>
<stop offset="1" stop-color="#520031"/>
</linearGradient>
<linearGradient id="paint29_linear_1855_217" x1="76.0989" y1="100.155" x2="76.0989" y2="101.776" gradientUnits="userSpaceOnUse">
<stop stop-color="white"/>
<stop offset="1" stop-color="#FF0099"/>
</linearGradient>
<linearGradient id="paint30_linear_1855_217" x1="90.8055" y1="109.225" x2="90.8055" y2="110.845" gradientUnits="userSpaceOnUse">
<stop stop-color="white"/>
<stop offset="1" stop-color="#FF0099"/>
</linearGradient>
<linearGradient id="paint31_linear_1855_217" x1="86.8797" y1="106.821" x2="86.8797" y2="108.441" gradientUnits="userSpaceOnUse">
<stop stop-color="white"/>
<stop offset="1" stop-color="#FF0099"/>
</linearGradient>
<linearGradient id="paint32_linear_1855_217" x1="79.472" y1="102.259" x2="79.472" y2="103.879" gradientUnits="userSpaceOnUse">
<stop stop-color="white"/>
<stop offset="1" stop-color="#FF0099"/>
</linearGradient>
<linearGradient id="paint33_linear_1855_217" x1="83.1761" y1="104.526" x2="83.1761" y2="106.147" gradientUnits="userSpaceOnUse">
<stop stop-color="white"/>
<stop offset="1" stop-color="#FF0099"/>
</linearGradient>
<radialGradient id="paint34_radial_1855_217" cx="0" cy="0" r="1" gradientUnits="userSpaceOnUse" gradientTransform="translate(102.732 95.3668) rotate(90.5061) scale(4.18775 0.0739078)">
<stop offset="0.565" stop-color="white"/>
<stop offset="1" stop-color="#5A0033"/>
</radialGradient>
<linearGradient id="paint35_linear_1855_217" x1="103.669" y1="97.6537" x2="102.515" y2="96.1175" gradientUnits="userSpaceOnUse">
<stop stop-color="#FF76E1"/>
<stop offset="1" stop-color="#9C5AFF"/>
</linearGradient>
<linearGradient id="paint36_linear_1855_217" x1="2.18065" y1="0.82678" x2="2.55423" y2="3.66379" gradientUnits="userSpaceOnUse">
<stop stop-color="#FF6BBF"/>
<stop offset="1" stop-color="#1D0050"/>
</linearGradient>
<radialGradient id="paint37_radial_1855_217" cx="0" cy="0" r="1" gradientUnits="userSpaceOnUse" gradientTransform="translate(93.3292 98.9996) rotate(89.4939) scale(5.82708 0.10284)">
<stop offset="0.565" stop-color="white"/>
<stop offset="1" stop-color="#5A0033"/>
</radialGradient>
<linearGradient id="paint38_linear_1855_217" x1="92.254" y1="101.945" x2="94.7071" y2="100.845" gradientUnits="userSpaceOnUse">
<stop stop-color="#FF76E1"/>
<stop offset="1" stop-color="#9C5AFF"/>
</linearGradient>
<linearGradient id="paint39_linear_1855_217" x1="3.03551" y1="1.14996" x2="3.55473" y2="5.09606" gradientUnits="userSpaceOnUse">
<stop stop-color="#FF6BBF"/>
<stop offset="1" stop-color="#1D0050"/>
</linearGradient>
<radialGradient id="paint40_radial_1855_217" cx="0" cy="0" r="1" gradientUnits="userSpaceOnUse" gradientTransform="translate(90.251 89.1958) rotate(89.4939) scale(2.68254 0.0473431)">
<stop offset="0.565" stop-color="white"/>
<stop offset="1" stop-color="#5A0033"/>
</radialGradient>
<linearGradient id="paint41_linear_1855_217" x1="89.2624" y1="89.5952" x2="90.4699" y2="89.8742" gradientUnits="userSpaceOnUse">
<stop stop-color="#FF76E1"/>
<stop offset="1" stop-color="#9C5AFF"/>
</linearGradient>
<linearGradient id="paint42_linear_1855_217" x1="1.39888" y1="0.528845" x2="1.63717" y2="2.3437" gradientUnits="userSpaceOnUse">
<stop stop-color="#FF6BBF"/>
<stop offset="1" stop-color="#1D0050"/>
</linearGradient>
</defs>
</svg>
