<svg width="2062" height="3258" viewBox="0 0 2062 3258" fill="none" xmlns="http://www.w3.org/2000/svg">
<path fill-rule="evenodd" clip-rule="evenodd" d="M0 2778.14L770.875 2296L1535 2778.14L770.875 3258L0 2778.14Z" fill="#530043"/>
<path fill-rule="evenodd" clip-rule="evenodd" d="M1455 2786.5V2730.5L1180 2902V2960L1455 2786.5Z" fill="#26008D"/>
<path d="M81 2731.5L95 2722.5L770.959 3140.97L771 3141V3157.5L81 2731.5Z" fill="#C6A5FF"/>
<path d="M81 2782.5V2731.5L771 3157.5V3218.5L81 2782.5Z" fill="#0027B4"/>
<path d="M1057.78 1365.93L1068 1372.38V1359.5L1057.78 1365.93Z" fill="#9D009D"/>
<path d="M475 1372.38L485.311 1365.93L475 1359.5V1372.38Z" fill="#0027B4"/>
<path fill-rule="evenodd" clip-rule="evenodd" d="M771 1771V1788.97V1832L1441 1405.24V2722.63L770.959 3141L95 2722.63V2722.5L770.959 3140.97V1831.97V1789L111.017 1377.98L122.576 1370.67L106.548 1360.77L82.5 1345.93V1345.88L106.585 1360.75L120.706 1351.91L136.641 1361.78L771 1754.5V1771ZM771 1771L1420.7 1366.77L1429.94 1361.02L1461 1341.69V1341.7L1429.94 1361.02L1420.7 1366.77L771 1771ZM1068 1359.5V1372.38L1057.78 1365.93L1068 1359.5ZM475 1359.5V1372.38L485.311 1365.93L475 1359.5Z" fill="#3D0142"/>
<path d="M95 1404.85V2722.5L770.959 3140.97V1831.97L95 1404.85Z" fill="#F371FF"/>
<path d="M1180 2960V2902L771 3157.5V3218.5L1180 2960Z" fill="#26008D"/>
<path d="M1455 2730.5L1441 2722.5L771 3141V3157.5L1455 2730.5Z" fill="#1C55FF"/>
<path d="M1156 1314H1157.5H1159V1485.77C1157.92 1486.08 1157.25 1486.07 1156 1485.77V1314Z" fill="url(#paint0_radial_1804_2)"/>
<path d="M1140.02 1210.5C1109.3 1237 1106.31 1325.12 1148.02 1373.5C1189.74 1421.88 1276.3 1432 1307.02 1405.5C1337.75 1379.01 1279.11 1330.43 1237.39 1282.05C1195.67 1233.66 1170.75 1184.01 1140.02 1210.5Z" fill="url(#paint1_linear_1804_2)"/>
<ellipse cx="128.689" cy="59.9263" rx="128.689" ry="59.9263" transform="matrix(-0.653026 -0.757336 -0.757336 0.653026 1353.66 1365.92)" fill="url(#paint2_linear_1804_2)"/>
<path fill-rule="evenodd" clip-rule="evenodd" d="M95 467L770.959 44L1441 467L770.959 888L95 467Z" fill="#DDDDDD"/>
<path fill-rule="evenodd" clip-rule="evenodd" d="M95 1821.63V467L770.959 888V2240L95 1821.63Z" fill="white"/>
<path d="M770.959 2240L770.98 2239.99L1441 1821.63V467L770.959 888V2240Z" fill="#5A5A5A"/>
<path fill-rule="evenodd" clip-rule="evenodd" d="M95 467L770.959 44L1441 467L770.959 888L95 467Z" fill="#DDDDDD"/>
<path fill-rule="evenodd" clip-rule="evenodd" d="M95 1821.63V467L770.959 888V2240L95 1821.63Z" fill="white"/>
<path d="M770.959 2240L770.98 2239.99L1441 1821.63V467L770.959 888V2240Z" fill="#5A5A5A"/>
<path fill-rule="evenodd" clip-rule="evenodd" d="M95 467L770.959 44L1441 467L770.959 888L95 467Z" fill="#FEC3FF"/>
<path fill-rule="evenodd" clip-rule="evenodd" d="M95 1821.63V467L770.959 888V2240L95 1821.63Z" fill="url(#paint3_linear_1804_2)"/>
<path d="M770.959 2240L770.98 2239.99L1441 1821.63V467L770.959 888V2240Z" fill="#3D0042"/>
<path fill-rule="evenodd" clip-rule="evenodd" d="M95 467L770.959 44L1441 467L770.959 888L95 467Z" fill="#FEC3FF"/>
<path fill-rule="evenodd" clip-rule="evenodd" d="M95 1821.63V467L770.959 888V2240L95 1821.63Z" fill="url(#paint4_linear_1804_2)"/>
<path d="M770.959 2240L770.98 2239.99L1441 1821.63V467L770.959 888V2240Z" fill="#3D0042"/>
<path fill-rule="evenodd" clip-rule="evenodd" d="M95 467L770.959 44L1441 467L770.959 888L95 467Z" fill="url(#paint5_linear_1804_2)"/>
<path fill-rule="evenodd" clip-rule="evenodd" d="M95 1821.63V467L770.959 888V2240L95 1821.63Z" fill="url(#paint6_linear_1804_2)"/>
<path d="M770.959 2240L770.98 2239.99L1441 1821.63V467L770.959 888V2240Z" fill="#3D0042"/>
<path d="M1057.78 464.926L1068 471.383V458.499L1057.78 464.926Z" fill="#9D009D"/>
<path d="M475 471.383L485.311 464.926L475 458.499V471.383Z" fill="#0027B4"/>
<path fill-rule="evenodd" clip-rule="evenodd" d="M772.804 284.884L485.311 464.926L772.804 644.116L1057.78 464.926L772.804 284.884Z" fill="#9D009D"/>
<path d="M772.804 657L1068 471.383L1057.78 464.926L772.804 644.116L485.311 464.926L475 471.383L772.804 657Z" fill="#0027B4"/>
<path fill-rule="evenodd" clip-rule="evenodd" d="M772.804 644.116L1057.78 464.926L772.804 284.884L485.311 464.926L772.804 644.116Z" fill="#FF68FF"/>
<path d="M772.804 272L475 458.499L485.311 464.926L772.804 284.884L1057.78 464.926L1068 458.499L772.804 272Z" fill="#FF68FF"/>
<path d="M771.5 59.5L771 15L82.5 443V495L771.5 59.5Z" fill="#EA00FF"/>
<path d="M771 15V0L1480 429.5H1453L771 15Z" fill="#FECDFF"/>
<path d="M771 59V15L1461 434V491L771 59Z" fill="#FF79FF"/>
<path d="M66.5 435H95L771 853.5V870L66.5 435Z" fill="#C6A5FF"/>
<path d="M81 495V444L771 870V931L81 495Z" fill="#0027B4"/>
<path d="M1479 429.5H1453L771 853.5V870L1479 429.5Z" fill="#FB41FF"/>
<path d="M771 15V0L67 435H95.5L771 15Z" fill="#FC63FF"/>
<path d="M1461 491.5V440.691L771 870V931L1461 491.5Z" fill="#0B0088"/>
<path d="M348.897 423.269V480.638L379.741 460.438V403.975L379.681 403.937L348.897 423.269Z" fill="#0B0088"/>
<path fill-rule="evenodd" clip-rule="evenodd" d="M452 358.595L421.157 377.965V377.89L379.681 403.937L379.741 403.975V460.438L348.897 480.638V519.956L452 453.504V358.595ZM306.843 358.598L306.846 358.597L306.843 358.595V358.598Z" fill="#0B0088"/>
<path d="M276 377.89V473.067L306.843 492.906V397.09L276 377.89Z" fill="url(#paint7_linear_1804_2)"/>
<path d="M348.897 423.269L306.843 397.09V492.906L348.897 519.956V480.638V423.269Z" fill="url(#paint8_linear_1804_2)"/>
<path d="M348.897 423.269L379.681 403.937L306.846 358.597L306.843 358.598V397.09L348.897 423.269Z" fill="#A6AFFF"/>
<path d="M276 377.89L306.843 397.09V358.598L276 377.89Z" fill="#A6AFFF"/>
<path d="M421.157 377.89L348.897 332.294L306.846 358.597L379.681 403.937L421.157 377.89Z" fill="#A6AFFF"/>
<path d="M379.741 313L306.843 358.595L306.846 358.597L348.897 332.294L421.157 377.89V377.965L452 358.595L379.741 313Z" fill="#A6AFFF"/>
<path d="M343.353 426.548L377.284 405.414L297 355.847L296.998 355.849V397.928L343.353 426.548Z" fill="#A6AFFF"/>
<path d="M263 376.938L296.998 397.928V355.849L263 376.938Z" fill="#A6AFFF"/>
<path d="M423.002 376.938L343.353 327.093L297 355.847L377.284 405.414L423.002 376.938Z" fill="#A6AFFF"/>
<path d="M377.351 306L296.998 355.846L297 355.847L343.353 327.093L423.002 376.938V377.021L457 355.846L377.351 306Z" fill="#A6AFFF"/>
<path fill-rule="evenodd" clip-rule="evenodd" d="M263 384.165V376.938L296.998 397.928V405.674L263 384.165Z" fill="#BC89FF"/>
<path fill-rule="evenodd" clip-rule="evenodd" d="M343.353 426.548V435L296.998 405.674V397.928L343.353 426.548Z" fill="#BC89FF"/>
<path fill-rule="evenodd" clip-rule="evenodd" d="M343.353 435V426.548L377.284 405.414L377.351 405.455V413.579L343.353 435Z" fill="#BB00FF"/>
<path fill-rule="evenodd" clip-rule="evenodd" d="M457 355.846L423.002 377.021V376.938L377.284 405.414L377.351 405.455V413.579L457 363.395V355.846ZM296.998 355.849L297 355.847L296.998 355.846V355.849Z" fill="#BB00FF"/>
<path d="M1038.1 280.269V337.638L1007.26 317.438V260.975L1007.32 260.937L1038.1 280.269Z" fill="url(#paint9_linear_1804_2)"/>
<path fill-rule="evenodd" clip-rule="evenodd" d="M935 215.595L965.843 234.965V234.89L1007.32 260.937L1007.26 260.975V317.438L1038.1 337.638V376.956L935 310.504V215.595ZM1080.16 215.598L1080.15 215.597L1080.16 215.595V215.598Z" fill="url(#paint10_linear_1804_2)"/>
<path d="M1111 234.89V330.067L1080.16 349.906V254.09L1111 234.89Z" fill="#0B0088"/>
<path d="M1038.1 280.269L1080.16 254.09V349.906L1038.1 376.956V337.638V280.269Z" fill="#0B0088"/>
<path d="M1038.1 280.269L1007.32 260.937L1080.15 215.597L1080.16 215.598V254.09L1038.1 280.269Z" fill="#A6AFFF"/>
<path d="M1111 234.89L1080.16 254.09V215.598L1111 234.89Z" fill="#A6AFFF"/>
<path d="M965.843 234.89L1038.1 189.294L1080.15 215.597L1007.32 260.937L965.843 234.89Z" fill="#A6AFFF"/>
<path d="M1007.26 170L1080.16 215.595L1080.15 215.597L1038.1 189.294L965.843 234.89V234.965L935 215.595L1007.26 170Z" fill="#A6AFFF"/>
<path d="M1040.65 284.548L1006.72 263.414L1087 213.847L1087 213.849V255.928L1040.65 284.548Z" fill="#A6AFFF"/>
<path d="M1121 234.938L1087 255.928V213.849L1121 234.938Z" fill="#A6AFFF"/>
<path d="M960.998 234.938L1040.65 185.093L1087 213.847L1006.72 263.414L960.998 234.938Z" fill="#A6AFFF"/>
<path d="M1006.65 164L1087 213.846L1087 213.847L1040.65 185.093L960.998 234.938V235.021L927 213.846L1006.65 164Z" fill="#A6AFFF"/>
<path fill-rule="evenodd" clip-rule="evenodd" d="M1121 242.165V234.938L1087 255.928V263.674L1121 242.165Z" fill="#3800DE"/>
<path fill-rule="evenodd" clip-rule="evenodd" d="M1040.65 284.548V293L1087 263.674V255.928L1040.65 284.548Z" fill="#3800DE"/>
<path fill-rule="evenodd" clip-rule="evenodd" d="M1040.65 293V284.548L1006.72 263.414L1006.65 263.455V271.579L1040.65 293Z" fill="#BC89FF"/>
<path fill-rule="evenodd" clip-rule="evenodd" d="M927 213.846L960.998 235.021V234.938L1006.72 263.414L1006.65 263.455V271.579L927 221.395V213.846ZM1087 213.849L1087 213.847L1087 213.846V213.849Z" fill="#BC89FF"/>
<path fill-rule="evenodd" clip-rule="evenodd" d="M770.98 2239.99L95 1821.5V1821.63L770.959 2240L770.98 2239.99Z" fill="#C6A5FF"/>
<path d="M1156 413H1157.5H1159V584.773C1157.92 585.084 1157.25 585.067 1156 584.773V413Z" fill="url(#paint11_radial_1804_2)"/>
<path d="M1140.02 309.5C1109.3 335.995 1106.31 424.12 1148.02 472.5C1189.74 520.881 1276.3 530.995 1307.02 504.5C1337.75 478.005 1279.11 429.426 1237.39 381.045C1195.67 332.665 1170.75 283.005 1140.02 309.5Z" fill="url(#paint12_linear_1804_2)"/>
<ellipse cx="128.689" cy="59.9263" rx="128.689" ry="59.9263" transform="matrix(-0.653026 -0.757336 -0.757336 0.653026 1353.66 464.921)" fill="url(#paint13_linear_1804_2)"/>
<path fill-rule="evenodd" clip-rule="evenodd" d="M1455 2786.5V2730.5L1180 2902V2960L1455 2786.5Z" fill="#26008D"/>
<path d="M81 2731.5L95 2722.5L770.959 3140.97L771 3141V3157.5L81 2731.5Z" fill="#C6A5FF"/>
<path d="M81 2782.5V2731.5L771 3157.5V3218.5L81 2782.5Z" fill="#0027B4"/>
<path d="M1057.78 1365.93L1068 1372.38V1359.5L1057.78 1365.93Z" fill="#9D009D"/>
<path d="M475 1372.38L485.311 1365.93L475 1359.5V1372.38Z" fill="#0027B4"/>
<path fill-rule="evenodd" clip-rule="evenodd" d="M771 1771V1788.97V1832L1441 1405.24V2722.63L770.959 3141L95 2722.63V2722.5L770.959 3140.97V1831.97V1789L111.017 1377.98L122.576 1370.67L106.548 1360.77L82.5 1345.93V1345.88L106.585 1360.75L120.706 1351.91L136.641 1361.78L771 1754.5V1771ZM771 1771L1420.7 1366.77L1429.94 1361.02L1461 1341.69V1341.7L1429.94 1361.02L1420.7 1366.77L771 1771ZM1068 1359.5V1372.38L1057.78 1365.93L1068 1359.5ZM475 1359.5V1372.38L485.311 1365.93L475 1359.5Z" fill="#3D0142"/>
<path d="M95 1404.85V2722.5L770.959 3140.97V1831.97L95 1404.85Z" fill="#F371FF"/>
<path fill-rule="evenodd" clip-rule="evenodd" d="M95 467L770.959 44L1441 467L770.959 888L95 467Z" fill="#DDDDDD"/>
<path fill-rule="evenodd" clip-rule="evenodd" d="M95 1821.63V467L770.959 888V2240L95 1821.63Z" fill="white"/>
<path d="M770.959 2240L770.98 2239.99L1441 1821.63V467L770.959 888V2240Z" fill="#5A5A5A"/>
<path fill-rule="evenodd" clip-rule="evenodd" d="M95 467L770.959 44L1441 467L770.959 888L95 467Z" fill="#DDDDDD"/>
<path fill-rule="evenodd" clip-rule="evenodd" d="M95 1821.63V467L770.959 888V2240L95 1821.63Z" fill="white"/>
<path d="M770.959 2240L770.98 2239.99L1441 1821.63V467L770.959 888V2240Z" fill="#5A5A5A"/>
<path fill-rule="evenodd" clip-rule="evenodd" d="M95 467L770.959 44L1441 467L770.959 888L95 467Z" fill="#FEC3FF"/>
<path fill-rule="evenodd" clip-rule="evenodd" d="M95 1821.63V467L770.959 888V2240L95 1821.63Z" fill="url(#paint14_linear_1804_2)"/>
<path d="M770.959 2240L770.98 2239.99L1441 1821.63V467L770.959 888V2240Z" fill="#3D0042"/>
<path fill-rule="evenodd" clip-rule="evenodd" d="M95 467L770.959 44L1441 467L770.959 888L95 467Z" fill="#FEC3FF"/>
<path fill-rule="evenodd" clip-rule="evenodd" d="M95 1821.63V467L770.959 888V2240L95 1821.63Z" fill="url(#paint15_linear_1804_2)"/>
<path d="M770.959 2240L770.98 2239.99L1441 1821.63V467L770.959 888V2240Z" fill="#3D0042"/>
<path fill-rule="evenodd" clip-rule="evenodd" d="M95 467L770.959 44L1441 467L770.959 888L95 467Z" fill="url(#paint16_linear_1804_2)"/>
<path fill-rule="evenodd" clip-rule="evenodd" d="M95 1821.63V467L770.959 888V2240L95 1821.63Z" fill="url(#paint17_linear_1804_2)"/>
<path d="M770.959 2240L770.98 2239.99L1441 1821.63V467L770.959 888V2240Z" fill="#3D0042"/>
<path d="M1057.78 464.926L1068 471.383V458.499L1057.78 464.926Z" fill="#9D009D"/>
<path d="M475 471.383L485.311 464.926L475 458.499V471.383Z" fill="#0027B4"/>
<path fill-rule="evenodd" clip-rule="evenodd" d="M772.804 284.884L485.311 464.926L772.804 644.116L1057.78 464.926L772.804 284.884Z" fill="#9D009D"/>
<path d="M772.804 657L1068 471.383L1057.78 464.926L772.804 644.116L485.311 464.926L475 471.383L772.804 657Z" fill="#0027B4"/>
<path fill-rule="evenodd" clip-rule="evenodd" d="M772.804 644.116L1057.78 464.926L772.804 284.884L485.311 464.926L772.804 644.116Z" fill="#9B68FF"/>
<path d="M772.804 272L475 458.499L485.311 464.926L772.804 284.884L1057.78 464.926L1068 458.499L772.804 272Z" fill="#9B68FF"/>
<path d="M771.5 59.5L771 15L82.5 443V495L771.5 59.5Z" fill="#EA00FF"/>
<path d="M771 15V0L1480 429.5H1453L771 15Z" fill="#FECDFF"/>
<path d="M771 59V15L1461 434V491L771 59Z" fill="#FF79FF"/>
<path d="M66.5 435H95L771 853.5V870L66.5 435Z" fill="#C6A5FF"/>
<path d="M81 495V444L771 870V931L81 495Z" fill="#0027B4"/>
<path d="M1479 429.5H1453L771 853.5V870L1479 429.5Z" fill="#FB41FF"/>
<path d="M771 15V0L67 435H95.5L771 15Z" fill="#FC63FF"/>
<path d="M1461 491.5V440.691L771 870V931L1461 491.5Z" fill="#0B0088"/>
<path d="M348.897 423.269V480.638L379.741 460.438V403.975L379.681 403.937L348.897 423.269Z" fill="#0B0088"/>
<path fill-rule="evenodd" clip-rule="evenodd" d="M452 358.595L421.157 377.965V377.89L379.681 403.937L379.741 403.975V460.438L348.897 480.638V519.956L452 453.504V358.595ZM306.843 358.598L306.846 358.597L306.843 358.595V358.598Z" fill="#0B0088"/>
<path d="M276 377.89V473.067L306.843 492.906V397.09L276 377.89Z" fill="url(#paint18_linear_1804_2)"/>
<path d="M348.897 423.269L306.843 397.09V492.906L348.897 519.956V480.638V423.269Z" fill="url(#paint19_linear_1804_2)"/>
<path d="M348.897 423.269L379.681 403.937L306.846 358.597L306.843 358.598V397.09L348.897 423.269Z" fill="#A6AFFF"/>
<path d="M276 377.89L306.843 397.09V358.598L276 377.89Z" fill="#A6AFFF"/>
<path d="M421.157 377.89L348.897 332.294L306.846 358.597L379.681 403.937L421.157 377.89Z" fill="#A6AFFF"/>
<path d="M379.741 313L306.843 358.595L306.846 358.597L348.897 332.294L421.157 377.89V377.965L452 358.595L379.741 313Z" fill="#A6AFFF"/>
<path d="M343.353 426.548L377.284 405.414L297 355.847L296.998 355.849V397.928L343.353 426.548Z" fill="#A6AFFF"/>
<path d="M263 376.938L296.998 397.928V355.849L263 376.938Z" fill="#A6AFFF"/>
<path d="M423.002 376.938L343.353 327.093L297 355.847L377.284 405.414L423.002 376.938Z" fill="#A6AFFF"/>
<path d="M377.351 306L296.998 355.846L297 355.847L343.353 327.093L423.002 376.938V377.021L457 355.846L377.351 306Z" fill="#A6AFFF"/>
<path fill-rule="evenodd" clip-rule="evenodd" d="M263 384.165V376.938L296.998 397.928V405.674L263 384.165Z" fill="#BC89FF"/>
<path fill-rule="evenodd" clip-rule="evenodd" d="M343.353 426.548V435L296.998 405.674V397.928L343.353 426.548Z" fill="#BC89FF"/>
<path fill-rule="evenodd" clip-rule="evenodd" d="M343.353 435V426.548L377.284 405.414L377.351 405.455V413.579L343.353 435Z" fill="#3700FF"/>
<path fill-rule="evenodd" clip-rule="evenodd" d="M457 355.846L423.002 377.021V376.938L377.284 405.414L377.351 405.455V413.579L457 363.395V355.846ZM296.998 355.849L297 355.847L296.998 355.846V355.849Z" fill="#3700FF"/>
<path d="M1038.1 280.269V337.638L1007.26 317.438V260.975L1007.32 260.937L1038.1 280.269Z" fill="url(#paint20_linear_1804_2)"/>
<path fill-rule="evenodd" clip-rule="evenodd" d="M935 215.595L965.843 234.965V234.89L1007.32 260.937L1007.26 260.975V317.438L1038.1 337.638V376.956L935 310.504V215.595ZM1080.16 215.598L1080.15 215.597L1080.16 215.595V215.598Z" fill="url(#paint21_linear_1804_2)"/>
<path d="M1111 234.89V330.067L1080.16 349.906V254.09L1111 234.89Z" fill="#0B0088"/>
<path d="M1038.1 280.269L1080.16 254.09V349.906L1038.1 376.956V337.638V280.269Z" fill="#0B0088"/>
<path d="M1038.1 280.269L1007.32 260.937L1080.15 215.597L1080.16 215.598V254.09L1038.1 280.269Z" fill="#A6AFFF"/>
<path d="M1111 234.89L1080.16 254.09V215.598L1111 234.89Z" fill="#A6AFFF"/>
<path d="M965.843 234.89L1038.1 189.294L1080.15 215.597L1007.32 260.937L965.843 234.89Z" fill="#A6AFFF"/>
<path d="M1007.26 170L1080.16 215.595L1080.15 215.597L1038.1 189.294L965.843 234.89V234.965L935 215.595L1007.26 170Z" fill="#A6AFFF"/>
<path d="M1040.65 284.548L1006.72 263.414L1087 213.847L1087 213.849V255.928L1040.65 284.548Z" fill="#A6AFFF"/>
<path d="M1121 234.938L1087 255.928V213.849L1121 234.938Z" fill="#A6AFFF"/>
<path d="M960.998 234.938L1040.65 185.093L1087 213.847L1006.72 263.414L960.998 234.938Z" fill="#A6AFFF"/>
<path d="M1006.65 164L1087 213.846L1087 213.847L1040.65 185.093L960.998 234.938V235.021L927 213.846L1006.65 164Z" fill="#A6AFFF"/>
<path fill-rule="evenodd" clip-rule="evenodd" d="M1121 242.165V234.938L1087 255.928V263.674L1121 242.165Z" fill="#3800DE"/>
<path fill-rule="evenodd" clip-rule="evenodd" d="M1040.65 284.548V293L1087 263.674V255.928L1040.65 284.548Z" fill="#3800DE"/>
<path fill-rule="evenodd" clip-rule="evenodd" d="M1040.65 293V284.548L1006.72 263.414L1006.65 263.455V271.579L1040.65 293Z" fill="#BC89FF"/>
<path fill-rule="evenodd" clip-rule="evenodd" d="M927 213.846L960.998 235.021V234.938L1006.72 263.414L1006.65 263.455V271.579L927 221.395V213.846ZM1087 213.849L1087 213.847L1087 213.846V213.849Z" fill="#BC89FF"/>
<path fill-rule="evenodd" clip-rule="evenodd" d="M770.98 2239.99L95 1821.5V1821.63L770.959 2240L770.98 2239.99Z" fill="#C6A5FF"/>
<path d="M437.424 1525.16L446.7 1519.35L437.424 1513.57V1525.16Z" fill="#0027B4"/>
<path fill-rule="evenodd" clip-rule="evenodd" d="M437.424 1513.57V1525.16L446.7 1519.35L437.424 1513.57Z" fill="#3D0142"/>
<path fill-rule="evenodd" clip-rule="evenodd" d="M703.674 2305.56L703.656 2305.55L95.5938 1929.14V1929.25L112.685 1939.83L125.279 1947.62L703.656 2305.57L703.674 2305.56Z" fill="#C6A5FF"/>
<path d="M437.424 1525.16L446.7 1519.35L437.424 1513.57V1525.16Z" fill="#0027B4"/>
<path fill-rule="evenodd" clip-rule="evenodd" d="M437.424 1513.57V1525.16L446.7 1519.35L437.424 1513.57Z" fill="#3D0142"/>
<path fill-rule="evenodd" clip-rule="evenodd" d="M703.674 2305.56L703.656 2305.55L95.5938 1929.14V1929.25L112.685 1939.83L125.279 1947.62L703.656 2305.57L703.674 2305.56Z" fill="#C6A5FF"/>
<path d="M467.11 1505.37L476.385 1499.57L467.11 1493.79V1505.37Z" fill="#0027B4"/>
<path fill-rule="evenodd" clip-rule="evenodd" d="M467.11 1493.79V1505.37L476.385 1499.57L467.11 1493.79Z" fill="#3D0142"/>
<path fill-rule="evenodd" clip-rule="evenodd" d="M733.359 2285.77L733.341 2285.76L703.656 2267.38L125.279 1909.35V1909.46L703.656 2267.41L733.341 2285.78L733.359 2285.77Z" fill="#C6A5FF"/>
<path d="M467.11 1505.37L476.385 1499.57L467.11 1493.79V1505.37Z" fill="#0027B4"/>
<path fill-rule="evenodd" clip-rule="evenodd" d="M467.11 1493.79V1505.37L476.385 1499.57L467.11 1493.79Z" fill="#3D0142"/>
<path fill-rule="evenodd" clip-rule="evenodd" d="M733.359 2285.77L733.341 2285.76L703.656 2267.38L125.279 1909.35V1909.46L703.656 2267.41L733.341 2285.78L733.359 2285.77Z" fill="#C6A5FF"/>
<path d="M703.692 2305.57V2320.41V2336.73L733.341 2355.47V2300.6L703.656 2282.27V2305.55L703.674 2305.56L703.692 2305.57Z" fill="#0027B4"/>
<path d="M703.656 2282.27L733.341 2300.6V2285.78L703.656 2267.41V2282.27Z" fill="#0027B4"/>
<path d="M733.341 1918.77L703.656 1900.01V1938.56V2267.38L733.341 2285.76V1918.77Z" fill="#0027B4"/>
<path d="M703.656 1900.01L733.341 1918.77V1671.3L703.656 1652.8V1691.09V1900.01Z" fill="#0027B4"/>
<path d="M733.341 1069.68L703.656 1089.47V1652.8L733.341 1671.3V1069.68Z" fill="#0027B4"/>
<path d="M95.5938 1492.44L95.7601 1492.54L118.717 1506.75L125.279 1510.81V1501.43V1472.65V729.276L95.5938 710.789V1492.44Z" fill="white"/>
<path d="M125.279 691L95.5938 710.789L125.279 729.276V691Z" fill="#FFD9FF"/>
<path d="M733.341 1069.68L125.279 691V729.276L703.656 1089.47L733.341 1069.68Z" fill="#FFD9FF"/>
<path d="M112.685 1955.56L95.5938 1945.01V1991.06L125.279 2009.82V1971.27L112.685 1963.32V1955.56Z" fill="white"/>
<path d="M112.685 1939.83V1955.56L125.279 1963.33V1947.62L112.685 1939.83Z" fill="white"/>
<path d="M112.685 1955.56V1963.32L125.279 1971.27V1963.33L112.685 1955.56Z" fill="white"/>
<path d="M95.5938 1945.01L112.685 1955.56V1939.83L95.5938 1929.25V1945.01Z" fill="white"/>
<path d="M437.424 1336.16L446.7 1330.35L437.424 1324.57V1336.16Z" fill="#0027B4"/>
<path fill-rule="evenodd" clip-rule="evenodd" d="M437.424 1324.57V1336.16L446.7 1330.35L437.424 1324.57Z" fill="#3D0142"/>
<path fill-rule="evenodd" clip-rule="evenodd" d="M703.674 2116.56L703.656 2116.55L95.5938 1740.14V1740.25L112.685 1750.83L125.279 1758.62L703.656 2116.57L703.674 2116.56Z" fill="#C6A5FF"/>
<path d="M437.424 1336.16L446.7 1330.35L437.424 1324.57V1336.16Z" fill="#0027B4"/>
<path fill-rule="evenodd" clip-rule="evenodd" d="M437.424 1324.57V1336.16L446.7 1330.35L437.424 1324.57Z" fill="#3D0142"/>
<path fill-rule="evenodd" clip-rule="evenodd" d="M703.674 2116.56L703.656 2116.55L95.5938 1740.14V1740.25L112.685 1750.83L125.279 1758.62L703.656 2116.57L703.674 2116.56Z" fill="#C6A5FF"/>
<path fill-rule="evenodd" clip-rule="evenodd" d="M733.359 2096.77L733.341 2096.76L703.656 2078.38L125.279 1720.35V1720.46L703.656 2078.41L733.341 2096.78L733.359 2096.77Z" fill="#C6A5FF"/>
<path fill-rule="evenodd" clip-rule="evenodd" d="M733.359 2096.77L733.341 2096.76L703.656 2078.38L125.279 1720.35V1720.46L703.656 2078.41L733.341 2096.78L733.359 2096.77Z" fill="#C6A5FF"/>
<path d="M703.656 2926.98L703.673 2926.99L733.377 2907.21L733.341 2907.19V2166.47L703.692 2147.73V2186.28L703.656 2186.25V2888.81V2926.98Z" fill="#0027B4"/>
<path d="M703.692 2116.57V2131.41V2147.73L733.341 2166.47V2111.6L703.656 2093.27V2116.55L703.674 2116.56L703.692 2116.57Z" fill="#0027B4"/>
<path d="M703.656 2093.27L733.341 2111.6V2096.78L703.656 2078.41V2093.27Z" fill="#0027B4"/>
<path d="M733.341 1729.77L703.656 1711.01V1749.56V2078.38L733.341 2096.76V1729.77Z" fill="#0027B4"/>
<path d="M703.656 1711.01L733.341 1729.77V1482.3L703.656 1463.8V1502.09V1711.01Z" fill="#0027B4"/>
<path fill-rule="evenodd" clip-rule="evenodd" d="M95.5938 2550.57L703.656 2926.98V2888.81V2186.25V2116.55V2093.27V2078.41V2078.38V1749.56L95.5938 1365.36V1740.25L112.685 1750.83L125.279 1758.62V1774.33V1782.27V1820.82L95.5938 1802.06V2550.57Z" fill="white"/>
<path d="M112.685 1766.56L95.5938 1756.01V1802.06L125.279 1820.82V1782.27L112.685 1774.32V1766.56Z" fill="white"/>
<path d="M112.685 1750.83V1766.56L125.279 1774.33V1758.62L112.685 1750.83Z" fill="white"/>
<path d="M112.685 1766.56V1774.32L125.279 1782.27V1774.33L112.685 1766.56Z" fill="white"/>
<path d="M95.5938 1756.01L112.685 1766.56V1750.83L95.5938 1740.25V1756.01Z" fill="white"/>
<path fill-rule="evenodd" clip-rule="evenodd" d="M95.5938 1492.44V1929.25L112.685 1939.83L125.279 1947.62L703.656 2305.57V2305.55V2282.27V2267.41V2267.38V1900.01V1691.09V1652.8V1089.47L125.279 729.276V1472.65V1501.43V1510.81L118.717 1506.75L95.7601 1492.54L95.5938 1492.44ZM476.385 1310.57L467.11 1316.37V1304.79L476.385 1310.57Z" fill="white"/>
<path d="M467.11 1316.37L476.385 1310.57L467.11 1304.79V1316.37Z" fill="white"/>
<path d="M1380 655.5L1270 724.5V863.5L1380 798.5V655.5Z" fill="url(#paint22_linear_1804_2)"/>
<path d="M1396 645L1380 655.5V798.5L1396 808.24V645Z" fill="#002080"/>
<path d="M1396 645L1380 655.5V798.5L1396 808.24V645Z" fill="#002080"/>
<path d="M1396 645L1380 655.5V798.5L1396 808.24V645Z" fill="#002080"/>
<path d="M1396 645L1380 655.5V798.5L1396 808.24V645Z" stroke="#002678"/>
<path d="M1396 808L1380 798.5L1270 863.5V883.5L1396 808Z" fill="#BB00FF"/>
<path d="M1396 821.5V808L1270 883.5V899L1396 821.5Z" fill="#0027B4"/>
<path d="M950 921L934 931.5V1074.5L950 1084.24V921Z" fill="#002080"/>
<path d="M950 921L934 931.5V1074.5L950 1084.24V921Z" fill="#002080"/>
<path d="M950 921L934 931.5V1074.5L950 1084.24V921Z" fill="#002080"/>
<path d="M950 921L934 931.5V1074.5L950 1084.24V921Z" stroke="#002678"/>
<path d="M950 1084L934 1074.5L824 1139.5V1159.5L950 1084Z" fill="#BB00FF"/>
<path d="M950 1097.5V1084L824 1159.5V1175L950 1097.5Z" fill="#0027B4"/>
<g filter="url(#filter0_d_1804_2)">
<path d="M934 931.5L824 1000.5V1139.5L934 1074.5V931.5Z" fill="#F8FF77"/>
</g>
<path d="M1159 792.5L1049 861.5V1000.5L1159 935.5V792.5Z" fill="url(#paint23_linear_1804_2)"/>
<path d="M1175 782L1159 792.5V935.5L1175 945.24V782Z" fill="#002080"/>
<path d="M1175 782L1159 792.5V935.5L1175 945.24V782Z" fill="#002080"/>
<path d="M1175 782L1159 792.5V935.5L1175 945.24V782Z" fill="#002080"/>
<path d="M1175 782L1159 792.5V935.5L1175 945.24V782Z" stroke="#002678"/>
<path d="M1175 945L1159 935.5L1049 1000.5V1020.5L1175 945Z" fill="#BB00FF"/>
<path d="M1175 958.5V945L1049 1020.5V1036L1175 958.5Z" fill="#0027B4"/>
<path d="M1404 895L1388 905.5V1048.5L1404 1058.24V895Z" fill="#002080"/>
<path d="M1404 895L1388 905.5V1048.5L1404 1058.24V895Z" fill="#002080"/>
<path d="M1404 895L1388 905.5V1048.5L1404 1058.24V895Z" fill="#002080"/>
<path d="M1404 895L1388 905.5V1048.5L1404 1058.24V895Z" stroke="#002678"/>
<path d="M1404 1058L1388 1048.5L1278 1113.5V1133.5L1404 1058Z" fill="#BB00FF"/>
<path d="M1404 1071.5V1058L1278 1133.5V1149L1404 1071.5Z" fill="#0027B4"/>
<g filter="url(#filter1_d_1804_2)">
<path d="M1388 905.5L1278 974.5V1113.5L1388 1048.5V905.5Z" fill="#F8FF77"/>
</g>
<path d="M942 1181.5L832 1250.5V1389.5L942 1324.5V1181.5Z" fill="url(#paint24_linear_1804_2)"/>
<path d="M958 1171L942 1181.5V1324.5L958 1334.24V1171Z" fill="#002080"/>
<path d="M958 1171L942 1181.5V1324.5L958 1334.24V1171Z" fill="#002080"/>
<path d="M958 1171L942 1181.5V1324.5L958 1334.24V1171Z" fill="#002080"/>
<path d="M958 1171L942 1181.5V1324.5L958 1334.24V1171Z" stroke="#002678"/>
<path d="M958 1334L942 1324.5L832 1389.5V1409.5L958 1334Z" fill="#BB00FF"/>
<path d="M958 1347.5V1334L832 1409.5V1425L958 1347.5Z" fill="#0027B4"/>
<path d="M1167 1042.5L1057 1111.5V1250.5L1167 1185.5V1042.5Z" fill="url(#paint25_linear_1804_2)"/>
<path d="M1183 1032L1167 1042.5V1185.5L1183 1195.24V1032Z" fill="#002080"/>
<path d="M1183 1032L1167 1042.5V1185.5L1183 1195.24V1032Z" fill="#002080"/>
<path d="M1183 1032L1167 1042.5V1185.5L1183 1195.24V1032Z" fill="#002080"/>
<path d="M1183 1032L1167 1042.5V1185.5L1183 1195.24V1032Z" stroke="#002678"/>
<path d="M1183 1195L1167 1185.5L1057 1250.5V1270.5L1183 1195Z" fill="#BB00FF"/>
<path d="M1183 1208.5V1195L1057 1270.5V1286L1183 1208.5Z" fill="#0027B4"/>
<path d="M1383 1170.5L1273 1239.5V1378.5L1383 1313.5V1170.5Z" fill="url(#paint26_linear_1804_2)"/>
<path d="M1399 1160L1383 1170.5V1313.5L1399 1323.24V1160Z" fill="#002080"/>
<path d="M1399 1160L1383 1170.5V1313.5L1399 1323.24V1160Z" fill="#002080"/>
<path d="M1399 1160L1383 1170.5V1313.5L1399 1323.24V1160Z" fill="#002080"/>
<path d="M1399 1160L1383 1170.5V1313.5L1399 1323.24V1160Z" stroke="#002678"/>
<path d="M1399 1323L1383 1313.5L1273 1378.5V1398.5L1399 1323Z" fill="#BB00FF"/>
<path d="M1399 1336.5V1323L1273 1398.5V1414L1399 1336.5Z" fill="#0027B4"/>
<path d="M953 1599L937 1589.5L827 1654.5V1674.5L953 1599Z" fill="#BB00FF"/>
<path d="M953 1612.5V1599L827 1674.5V1690L953 1612.5Z" fill="#0027B4"/>
<path d="M953 1436L937 1446.5V1589.5L953 1599.24V1436Z" fill="#002080"/>
<path d="M953 1436L937 1446.5V1589.5L953 1599.24V1436Z" fill="#002080"/>
<path d="M953 1436L937 1446.5V1589.5L953 1599.24V1436Z" fill="#002080"/>
<path d="M953 1436L937 1446.5V1589.5L953 1599.24V1436Z" stroke="#002678"/>
<g filter="url(#filter2_d_1804_2)">
<path d="M937 1446.5L827 1515.5V1654.5L937 1589.5V1446.5Z" fill="#F8FF77"/>
</g>
<path d="M1162 1307.5L1052 1376.5V1515.5L1162 1450.5V1307.5Z" fill="url(#paint27_linear_1804_2)"/>
<path d="M1178 1297L1162 1307.5V1450.5L1178 1460.24V1297Z" fill="#002080"/>
<path d="M1178 1297L1162 1307.5V1450.5L1178 1460.24V1297Z" fill="#002080"/>
<path d="M1178 1297L1162 1307.5V1450.5L1178 1460.24V1297Z" fill="#002080"/>
<path d="M1178 1297L1162 1307.5V1450.5L1178 1460.24V1297Z" stroke="#002678"/>
<path d="M1178 1460L1162 1450.5L1052 1515.5V1535.5L1178 1460Z" fill="#BB00FF"/>
<path d="M1178 1473.5V1460L1052 1535.5V1551L1178 1473.5Z" fill="#0027B4"/>
<path d="M1380 1435.5L1270 1504.5V1643.5L1380 1578.5V1435.5Z" fill="url(#paint28_linear_1804_2)"/>
<path d="M1396 1425L1380 1435.5V1578.5L1396 1588.24V1425Z" fill="#002080"/>
<path d="M1396 1425L1380 1435.5V1578.5L1396 1588.24V1425Z" fill="#002080"/>
<path d="M1396 1425L1380 1435.5V1578.5L1396 1588.24V1425Z" fill="#002080"/>
<path d="M1396 1425L1380 1435.5V1578.5L1396 1588.24V1425Z" stroke="#002678"/>
<path d="M1396 1588L1380 1578.5L1270 1643.5V1663.5L1396 1588Z" fill="#BB00FF"/>
<path d="M1396 1601.5V1588L1270 1663.5V1679L1396 1601.5Z" fill="#0027B4"/>
<path d="M934 1711.5L824 1780.5V1919.5L934 1854.5V1711.5Z" fill="url(#paint29_linear_1804_2)"/>
<path d="M950 1701L934 1711.5V1854.5L950 1864.24V1701Z" fill="#002080"/>
<path d="M950 1701L934 1711.5V1854.5L950 1864.24V1701Z" fill="#002080"/>
<path d="M950 1701L934 1711.5V1854.5L950 1864.24V1701Z" fill="#002080"/>
<path d="M950 1701L934 1711.5V1854.5L950 1864.24V1701Z" stroke="#002678"/>
<path d="M950 1864L934 1854.5L824 1919.5V1939.5L950 1864Z" fill="#BB00FF"/>
<path d="M950 1877.5V1864L824 1939.5V1955L950 1877.5Z" fill="#0027B4"/>
<path d="M1159 1572.5L1049 1641.5V1780.5L1159 1715.5V1572.5Z" fill="url(#paint30_linear_1804_2)"/>
<path d="M1175 1562L1159 1572.5V1715.5L1175 1725.24V1562Z" fill="#002080"/>
<path d="M1175 1562L1159 1572.5V1715.5L1175 1725.24V1562Z" fill="#002080"/>
<path d="M1175 1562L1159 1572.5V1715.5L1175 1725.24V1562Z" fill="#002080"/>
<path d="M1175 1562L1159 1572.5V1715.5L1175 1725.24V1562Z" stroke="#002678"/>
<path d="M1175 1725L1159 1715.5L1049 1780.5V1800.5L1175 1725Z" fill="#BB00FF"/>
<path d="M1175 1738.5V1725L1049 1800.5V1816L1175 1738.5Z" fill="#0027B4"/>
<path d="M1383 1693.5L1273 1762.5V1901.5L1383 1836.5V1693.5Z" fill="url(#paint31_linear_1804_2)"/>
<path d="M1399 1683L1383 1693.5V1836.5L1399 1846.24V1683Z" fill="#002080"/>
<path d="M1399 1683L1383 1693.5V1836.5L1399 1846.24V1683Z" fill="#002080"/>
<path d="M1399 1683L1383 1693.5V1836.5L1399 1846.24V1683Z" fill="#002080"/>
<path d="M1399 1683L1383 1693.5V1836.5L1399 1846.24V1683Z" stroke="#002678"/>
<path d="M1399 1846L1383 1836.5L1273 1901.5V1921.5L1399 1846Z" fill="#BB00FF"/>
<path d="M1399 1859.5V1846L1273 1921.5V1937L1399 1859.5Z" fill="#0027B4"/>
<path d="M953 1959L937 1969.5V2112.5L953 2122.24V1959Z" fill="#002080"/>
<path d="M953 1959L937 1969.5V2112.5L953 2122.24V1959Z" fill="#002080"/>
<path d="M953 1959L937 1969.5V2112.5L953 2122.24V1959Z" fill="#002080"/>
<path d="M953 1959L937 1969.5V2112.5L953 2122.24V1959Z" stroke="#002678"/>
<path d="M953 2122L937 2112.5L827 2177.5V2197.5L953 2122Z" fill="#BB00FF"/>
<path d="M953 2135.5V2122L827 2197.5V2213L953 2135.5Z" fill="#0027B4"/>
<g filter="url(#filter3_d_1804_2)">
<path d="M937 1969.5L827 2038.5V2177.5L937 2112.5V1969.5Z" fill="#F8FF77"/>
</g>
<path d="M1162 1830.5L1052 1899.5V2038.5L1162 1973.5V1830.5Z" fill="url(#paint32_linear_1804_2)"/>
<path d="M1178 1820L1162 1830.5V1973.5L1178 1983.24V1820Z" fill="#002080"/>
<path d="M1178 1820L1162 1830.5V1973.5L1178 1983.24V1820Z" fill="#002080"/>
<path d="M1178 1820L1162 1830.5V1973.5L1178 1983.24V1820Z" fill="#002080"/>
<path d="M1178 1820L1162 1830.5V1973.5L1178 1983.24V1820Z" stroke="#002678"/>
<path d="M1178 1983L1162 1973.5L1052 2038.5V2058.5L1178 1983Z" fill="#BB00FF"/>
<path d="M1178 1996.5V1983L1052 2058.5V2074L1178 1996.5Z" fill="#0027B4"/>
<path d="M1404 1947L1388 1957.5V2100.5L1404 2110.24V1947Z" fill="#002080"/>
<path d="M1404 1947L1388 1957.5V2100.5L1404 2110.24V1947Z" fill="#002080"/>
<path d="M1404 1947L1388 1957.5V2100.5L1404 2110.24V1947Z" fill="#002080"/>
<path d="M1404 1947L1388 1957.5V2100.5L1404 2110.24V1947Z" stroke="#002678"/>
<path d="M1404 2110L1388 2100.5L1278 2165.5V2185.5L1404 2110Z" fill="#BB00FF"/>
<path d="M1404 2123.5V2110L1278 2185.5V2201L1404 2123.5Z" fill="#0027B4"/>
<g filter="url(#filter4_d_1804_2)">
<path d="M1388 1957.5L1278 2026.5V2165.5L1388 2100.5V1957.5Z" fill="#F8FF77"/>
</g>
<path d="M942 2233.5L832 2302.5V2441.5L942 2376.5V2233.5Z" fill="url(#paint33_linear_1804_2)"/>
<path d="M958 2223L942 2233.5V2376.5L958 2386.24V2223Z" fill="#002080"/>
<path d="M958 2223L942 2233.5V2376.5L958 2386.24V2223Z" fill="#002080"/>
<path d="M958 2223L942 2233.5V2376.5L958 2386.24V2223Z" fill="#002080"/>
<path d="M958 2223L942 2233.5V2376.5L958 2386.24V2223Z" stroke="#002678"/>
<path d="M958 2386L942 2376.5L832 2441.5V2461.5L958 2386Z" fill="#BB00FF"/>
<path d="M958 2399.5V2386L832 2461.5V2477L958 2399.5Z" fill="#0027B4"/>
<path d="M1167 2094.5L1057 2163.5V2302.5L1167 2237.5V2094.5Z" fill="url(#paint34_linear_1804_2)"/>
<path d="M1183 2084L1167 2094.5V2237.5L1183 2247.24V2084Z" fill="#002080"/>
<path d="M1183 2084L1167 2094.5V2237.5L1183 2247.24V2084Z" fill="#002080"/>
<path d="M1183 2084L1167 2094.5V2237.5L1183 2247.24V2084Z" fill="#002080"/>
<path d="M1183 2084L1167 2094.5V2237.5L1183 2247.24V2084Z" stroke="#002678"/>
<path d="M1183 2247L1167 2237.5L1057 2302.5V2322.5L1183 2247Z" fill="#BB00FF"/>
<path d="M1183 2260.5V2247L1057 2322.5V2338L1183 2260.5Z" fill="#0027B4"/>
<path d="M1388 2214.5L1278 2283.5V2422.5L1388 2357.5V2214.5Z" fill="url(#paint35_linear_1804_2)"/>
<path d="M1404 2204L1388 2214.5V2357.5L1404 2367.24V2204Z" fill="#002080"/>
<path d="M1404 2204L1388 2214.5V2357.5L1404 2367.24V2204Z" fill="#002080"/>
<path d="M1404 2204L1388 2214.5V2357.5L1404 2367.24V2204Z" fill="#002080"/>
<path d="M1404 2204L1388 2214.5V2357.5L1404 2367.24V2204Z" stroke="#002678"/>
<path d="M1404 2367L1388 2357.5L1278 2422.5V2442.5L1404 2367Z" fill="#BB00FF"/>
<path d="M1404 2380.5V2367L1278 2442.5V2458L1404 2380.5Z" fill="#0027B4"/>
<path d="M958 2643L942 2633.5L832 2698.5V2718.5L958 2643Z" fill="#BB00FF"/>
<path d="M958 2656.5V2643L832 2718.5V2734L958 2656.5Z" fill="#0027B4"/>
<path d="M958 2480L942 2490.5V2633.5L958 2643.24V2480Z" fill="#002080"/>
<path d="M958 2480L942 2490.5V2633.5L958 2643.24V2480Z" fill="#002080"/>
<path d="M958 2480L942 2490.5V2633.5L958 2643.24V2480Z" fill="#002080"/>
<path d="M958 2480L942 2490.5V2633.5L958 2643.24V2480Z" stroke="#002678"/>
<g filter="url(#filter5_d_1804_2)">
<path d="M942 2490.5L832 2559.5V2698.5L942 2633.5V2490.5Z" fill="#F8FF77"/>
</g>
<path d="M1167 2351.5L1057 2420.5V2559.5L1167 2494.5V2351.5Z" fill="url(#paint36_linear_1804_2)"/>
<path d="M1183 2341L1167 2351.5V2494.5L1183 2504.24V2341Z" fill="#002080"/>
<path d="M1183 2341L1167 2351.5V2494.5L1183 2504.24V2341Z" fill="#002080"/>
<path d="M1183 2341L1167 2351.5V2494.5L1183 2504.24V2341Z" fill="#002080"/>
<path d="M1183 2341L1167 2351.5V2494.5L1183 2504.24V2341Z" stroke="#002678"/>
<path d="M1183 2504L1167 2494.5L1057 2559.5V2579.5L1183 2504Z" fill="#BB00FF"/>
<path d="M1183 2517.5V2504L1057 2579.5V2595L1183 2517.5Z" fill="#0027B4"/>
<path d="M1378 2479.5L1268 2548.5V2687.5L1378 2622.5V2479.5Z" fill="url(#paint37_linear_1804_2)"/>
<path d="M1394 2469L1378 2479.5V2622.5L1394 2632.24V2469Z" fill="#002080"/>
<path d="M1394 2469L1378 2479.5V2622.5L1394 2632.24V2469Z" fill="#002080"/>
<path d="M1394 2469L1378 2479.5V2622.5L1394 2632.24V2469Z" fill="#002080"/>
<path d="M1394 2469L1378 2479.5V2622.5L1394 2632.24V2469Z" stroke="#002678"/>
<path d="M1394 2632L1378 2622.5L1268 2687.5V2707.5L1394 2632Z" fill="#BB00FF"/>
<path d="M1394 2645.5V2632L1268 2707.5V2723L1394 2645.5Z" fill="#0027B4"/>
<path d="M932 2755.5L822 2824.5V2963.5L932 2898.5V2755.5Z" fill="url(#paint38_linear_1804_2)"/>
<path d="M948 2745L932 2755.5V2898.5L948 2908.24V2745Z" fill="#002080"/>
<path d="M948 2745L932 2755.5V2898.5L948 2908.24V2745Z" fill="#002080"/>
<path d="M948 2745L932 2755.5V2898.5L948 2908.24V2745Z" fill="#002080"/>
<path d="M948 2745L932 2755.5V2898.5L948 2908.24V2745Z" stroke="#002678"/>
<path d="M948 2908L932 2898.5L822 2963.5V2983.5L948 2908Z" fill="#BB00FF"/>
<path d="M948 2921.5V2908L822 2983.5V2999L948 2921.5Z" fill="#0027B4"/>
<path d="M1157 2616.5L1047 2685.5V2824.5L1157 2759.5V2616.5Z" fill="url(#paint39_linear_1804_2)"/>
<path d="M1173 2606L1157 2616.5V2759.5L1173 2769.24V2606Z" fill="#002080"/>
<path d="M1173 2606L1157 2616.5V2759.5L1173 2769.24V2606Z" fill="#002080"/>
<path d="M1173 2606L1157 2616.5V2759.5L1173 2769.24V2606Z" fill="#002080"/>
<path d="M1173 2606L1157 2616.5V2759.5L1173 2769.24V2606Z" stroke="#002678"/>
<path d="M1173 2769L1157 2759.5L1047 2824.5V2844.5L1173 2769Z" fill="#BB00FF"/>
<path d="M1173 2782.5V2769L1047 2844.5V2860L1173 2782.5Z" fill="#0027B4"/>
<path d="M159.496 622L173.496 631V727.5L159.496 718V622Z" fill="#98B2FF"/>
<path d="M178.496 627L164.496 618L159.496 622L173.496 631L178.496 627Z" fill="white"/>
<path d="M178.496 723.5V627L173.496 631V727.5L178.496 723.5Z" fill="#A200FF"/>
<path d="M168.964 681.611C169.236 680.912 169.416 680.171 169.505 679.396V676.934C168.874 670.963 163.877 663.719 156.036 658.344C146.503 651.807 135.91 650.187 130.507 654.001L168.964 681.611Z" fill="white"/>
<path fill-rule="evenodd" clip-rule="evenodd" d="M128.467 656.057C129.019 655.251 129.706 654.567 130.507 654.001L168.964 681.611C168.741 682.182 168.456 682.725 168.106 683.235C163.827 689.477 151.483 688.454 140.537 680.949C129.591 673.444 124.187 662.299 128.467 656.057ZM169.505 679.396V676.934C169.595 677.783 169.597 678.607 169.505 679.396Z" fill="white"/>
<path d="M164.005 628L130.505 654L130.507 654.001C135.91 650.187 146.503 651.807 156.036 658.344C163.877 663.719 168.874 670.963 169.505 676.934V631.5L164.005 628Z" fill="url(#paint40_linear_1804_2)"/>
<path d="M691.496 954L705.496 963V1059.5L691.496 1050V954Z" fill="#98B2FF"/>
<path d="M710.496 959L696.496 950L691.496 954L705.496 963L710.496 959Z" fill="white"/>
<path d="M710.496 1055.5V959L705.496 963V1059.5L710.496 1055.5Z" fill="#A200FF"/>
<path d="M700.964 1013.61C701.236 1012.91 701.416 1012.17 701.505 1011.4V1008.93C700.874 1002.96 695.877 995.719 688.036 990.344C678.503 983.807 667.91 982.187 662.507 986.001L700.964 1013.61Z" fill="white"/>
<path fill-rule="evenodd" clip-rule="evenodd" d="M660.467 988.057C661.019 987.251 661.706 986.567 662.507 986.001L700.964 1013.61C700.741 1014.18 700.456 1014.72 700.106 1015.23C695.827 1021.48 683.483 1020.45 672.537 1012.95C661.591 1005.44 656.187 994.299 660.467 988.057ZM701.505 1011.4V1008.93C701.595 1009.78 701.597 1010.61 701.505 1011.4Z" fill="white"/>
<path d="M696.005 960L662.505 986L662.507 986.001C667.91 982.187 678.503 983.807 688.036 990.344C695.877 995.719 700.874 1002.96 701.505 1008.93V963.5L696.005 960Z" fill="url(#paint41_linear_1804_2)"/>
<path d="M549.496 866L563.496 875V971.5L549.496 962V866Z" fill="#98B2FF"/>
<path d="M568.496 871L554.496 862L549.496 866L563.496 875L568.496 871Z" fill="white"/>
<path d="M568.496 967.5V871L563.496 875V971.5L568.496 967.5Z" fill="#A200FF"/>
<path d="M558.964 925.611C559.236 924.912 559.416 924.171 559.505 923.396V920.934C558.874 914.963 553.877 907.719 546.036 902.344C536.503 895.807 525.91 894.187 520.507 898.001L558.964 925.611Z" fill="white"/>
<path fill-rule="evenodd" clip-rule="evenodd" d="M518.467 900.057C519.019 899.251 519.706 898.567 520.507 898.001L558.964 925.611C558.741 926.182 558.456 926.725 558.106 927.235C553.827 933.477 541.483 932.454 530.537 924.949C519.591 917.444 514.187 906.299 518.467 900.057ZM559.505 923.396V920.934C559.595 921.783 559.597 922.607 559.505 923.396Z" fill="white"/>
<path d="M554.005 872L520.505 898L520.507 898.001C525.91 894.187 536.503 895.807 546.036 902.344C553.877 907.719 558.874 914.963 559.505 920.934V875.5L554.005 872Z" fill="url(#paint42_linear_1804_2)"/>
<path d="M281.496 699L295.496 708V804.5L281.496 795V699Z" fill="#98B2FF"/>
<path d="M300.496 704L286.496 695L281.496 699L295.496 708L300.496 704Z" fill="white"/>
<path d="M300.496 800.5V704L295.496 708V804.5L300.496 800.5Z" fill="#A200FF"/>
<path d="M290.964 758.611C291.236 757.912 291.416 757.171 291.505 756.396V753.934C290.874 747.963 285.877 740.719 278.036 735.344C268.503 728.807 257.91 727.187 252.507 731.001L290.964 758.611Z" fill="white"/>
<path fill-rule="evenodd" clip-rule="evenodd" d="M250.467 733.057C251.019 732.251 251.706 731.567 252.507 731.001L290.964 758.611C290.741 759.182 290.456 759.725 290.106 760.235C285.827 766.477 273.483 765.454 262.537 757.949C251.591 750.444 246.187 739.299 250.467 733.057ZM291.505 756.396V753.934C291.595 754.783 291.597 755.607 291.505 756.396Z" fill="white"/>
<path d="M286.005 705L252.505 731L252.507 731.001C257.91 727.187 268.503 728.807 278.036 735.344C285.877 740.719 290.874 747.963 291.505 753.934V708.5L286.005 705Z" fill="url(#paint43_linear_1804_2)"/>
<path d="M415.496 782L429.496 791V887.5L415.496 878V782Z" fill="#98B2FF"/>
<path d="M434.496 787L420.496 778L415.496 782L429.496 791L434.496 787Z" fill="white"/>
<path d="M434.496 883.5V787L429.496 791V887.5L434.496 883.5Z" fill="#A200FF"/>
<path d="M424.964 841.611C425.236 840.912 425.416 840.171 425.505 839.396V836.934C424.874 830.963 419.877 823.719 412.036 818.344C402.503 811.807 391.91 810.187 386.507 814.001L424.964 841.611Z" fill="white"/>
<path fill-rule="evenodd" clip-rule="evenodd" d="M384.467 816.057C385.019 815.251 385.706 814.567 386.507 814.001L424.964 841.611C424.741 842.182 424.456 842.725 424.106 843.235C419.827 849.477 407.483 848.454 396.537 840.949C385.591 833.444 380.187 822.299 384.467 816.057ZM425.505 839.396V836.934C425.595 837.783 425.597 838.607 425.505 839.396Z" fill="white"/>
<path d="M420.005 788L386.505 814L386.507 814.001C391.91 810.187 402.503 811.807 412.036 818.344C419.877 823.719 424.874 830.963 425.505 836.934V791.5L420.005 788Z" fill="url(#paint44_linear_1804_2)"/>
<g filter="url(#filter6_dddd_1804_2)">
<ellipse cx="147.564" cy="669.552" rx="23.9686" ry="13.7039" transform="rotate(33.0219 147.564 669.552)" fill="white"/>
<ellipse cx="270.564" cy="746.552" rx="23.9686" ry="13.7039" transform="rotate(33.0219 270.564 746.552)" fill="white"/>
<ellipse cx="404.564" cy="829.552" rx="23.9686" ry="13.7039" transform="rotate(33.0219 404.564 829.552)" fill="white"/>
<ellipse cx="538.564" cy="913.552" rx="23.9686" ry="13.7039" transform="rotate(33.0219 538.564 913.552)" fill="white"/>
<ellipse cx="679.564" cy="1001.55" rx="23.9686" ry="13.7039" transform="rotate(33.0219 679.564 1001.55)" fill="white"/>
</g>
<path d="M1109.07 452.565H1110.41H1111.74V605.797C1110.78 606.075 1110.19 606.06 1109.07 605.797V452.565Z" fill="url(#paint45_radial_1804_2)"/>
<path d="M1094.82 360.236C1067.41 383.872 1064.74 462.484 1101.95 505.643C1139.17 548.801 1216.38 557.824 1243.79 534.189C1271.2 510.554 1218.89 467.217 1181.67 424.059C1144.46 380.901 1122.23 336.601 1094.82 360.236Z" fill="url(#paint46_linear_1804_2)"/>
<ellipse cx="114.799" cy="53.458" rx="114.799" ry="53.458" transform="matrix(-0.653026 -0.757336 -0.757336 0.653026 1285.39 498.882)" fill="url(#paint47_linear_1804_2)"/>
<path d="M775.346 585.501H773.484H771.622V798.718C772.96 799.105 773.788 799.083 775.346 798.718V585.501Z" fill="url(#paint48_radial_1804_2)"/>
<path d="M913.054 512.995C930.571 560.212 880.995 657.79 806.651 685.369C732.306 712.949 632.163 672.058 614.646 624.84C597.13 577.623 689.994 559.975 764.338 532.395C838.683 504.815 895.538 465.777 913.054 512.995Z" fill="url(#paint49_linear_1804_2)"/>
<ellipse cx="763.318" cy="568.049" rx="159.738" ry="74.3847" transform="rotate(-20.3534 763.318 568.049)" fill="url(#paint50_linear_1804_2)"/>
<path d="M661.947 226.714H661.09H660.233V324.87C660.849 325.048 661.23 325.038 661.947 324.87V226.714Z" fill="url(#paint51_radial_1804_2)"/>
<path d="M740.701 224.514C734.155 246.755 688.99 269.09 653.971 258.783C618.952 248.476 593.278 205.807 599.824 183.566C606.37 161.325 645.484 180.396 680.503 190.703C715.522 201.01 747.247 202.273 740.701 224.514Z" fill="url(#paint52_linear_1804_2)"/>
<ellipse cx="670.306" cy="203.573" rx="73.5365" ry="34.2436" transform="rotate(16.4003 670.306 203.573)" fill="url(#paint53_linear_1804_2)"/>
<defs>
<filter id="filter0_d_1804_2" x="767.7" y="883.2" width="226.6" height="324.6" filterUnits="userSpaceOnUse" color-interpolation-filters="sRGB">
<feFlood flood-opacity="0" result="BackgroundImageFix"/>
<feColorMatrix in="SourceAlpha" type="matrix" values="0 0 0 0 0 0 0 0 0 0 0 0 0 0 0 0 0 0 127 0" result="hardAlpha"/>
<feOffset dx="2" dy="10"/>
<feGaussianBlur stdDeviation="29.15"/>
<feComposite in2="hardAlpha" operator="out"/>
<feColorMatrix type="matrix" values="0 0 0 0 1 0 0 0 0 1 0 0 0 0 1 0 0 0 1 0"/>
<feBlend mode="normal" in2="BackgroundImageFix" result="effect1_dropShadow_1804_2"/>
<feBlend mode="normal" in="SourceGraphic" in2="effect1_dropShadow_1804_2" result="shape"/>
</filter>
<filter id="filter1_d_1804_2" x="1253.1" y="881.6" width="165.8" height="263.8" filterUnits="userSpaceOnUse" color-interpolation-filters="sRGB">
<feFlood flood-opacity="0" result="BackgroundImageFix"/>
<feColorMatrix in="SourceAlpha" type="matrix" values="0 0 0 0 0 0 0 0 0 0 0 0 0 0 0 0 0 0 127 0" result="hardAlpha"/>
<feOffset dx="3" dy="4"/>
<feGaussianBlur stdDeviation="13.95"/>
<feComposite in2="hardAlpha" operator="out"/>
<feColorMatrix type="matrix" values="0 0 0 0 1 0 0 0 0 1 0 0 0 0 1 0 0 0 1 0"/>
<feBlend mode="normal" in2="BackgroundImageFix" result="effect1_dropShadow_1804_2"/>
<feBlend mode="normal" in="SourceGraphic" in2="effect1_dropShadow_1804_2" result="shape"/>
</filter>
<filter id="filter2_d_1804_2" x="809.3" y="1426.8" width="157.4" height="255.4" filterUnits="userSpaceOnUse" color-interpolation-filters="sRGB">
<feFlood flood-opacity="0" result="BackgroundImageFix"/>
<feColorMatrix in="SourceAlpha" type="matrix" values="0 0 0 0 0 0 0 0 0 0 0 0 0 0 0 0 0 0 127 0" result="hardAlpha"/>
<feOffset dx="6" dy="4"/>
<feGaussianBlur stdDeviation="11.85"/>
<feComposite in2="hardAlpha" operator="out"/>
<feColorMatrix type="matrix" values="0 0 0 0 1 0 0 0 0 1 0 0 0 0 1 0 0 0 1 0"/>
<feBlend mode="normal" in2="BackgroundImageFix" result="effect1_dropShadow_1804_2"/>
<feBlend mode="normal" in="SourceGraphic" in2="effect1_dropShadow_1804_2" result="shape"/>
</filter>
<filter id="filter3_d_1804_2" x="770.7" y="1921.2" width="226.6" height="324.6" filterUnits="userSpaceOnUse" color-interpolation-filters="sRGB">
<feFlood flood-opacity="0" result="BackgroundImageFix"/>
<feColorMatrix in="SourceAlpha" type="matrix" values="0 0 0 0 0 0 0 0 0 0 0 0 0 0 0 0 0 0 127 0" result="hardAlpha"/>
<feOffset dx="2" dy="10"/>
<feGaussianBlur stdDeviation="29.15"/>
<feComposite in2="hardAlpha" operator="out"/>
<feColorMatrix type="matrix" values="0 0 0 0 1 0 0 0 0 1 0 0 0 0 1 0 0 0 1 0"/>
<feBlend mode="normal" in2="BackgroundImageFix" result="effect1_dropShadow_1804_2"/>
<feBlend mode="normal" in="SourceGraphic" in2="effect1_dropShadow_1804_2" result="shape"/>
</filter>
<filter id="filter4_d_1804_2" x="1253.1" y="1933.6" width="165.8" height="263.8" filterUnits="userSpaceOnUse" color-interpolation-filters="sRGB">
<feFlood flood-opacity="0" result="BackgroundImageFix"/>
<feColorMatrix in="SourceAlpha" type="matrix" values="0 0 0 0 0 0 0 0 0 0 0 0 0 0 0 0 0 0 127 0" result="hardAlpha"/>
<feOffset dx="3" dy="4"/>
<feGaussianBlur stdDeviation="13.95"/>
<feComposite in2="hardAlpha" operator="out"/>
<feColorMatrix type="matrix" values="0 0 0 0 1 0 0 0 0 1 0 0 0 0 1 0 0 0 1 0"/>
<feBlend mode="normal" in2="BackgroundImageFix" result="effect1_dropShadow_1804_2"/>
<feBlend mode="normal" in="SourceGraphic" in2="effect1_dropShadow_1804_2" result="shape"/>
</filter>
<filter id="filter5_d_1804_2" x="814.3" y="2470.8" width="157.4" height="255.4" filterUnits="userSpaceOnUse" color-interpolation-filters="sRGB">
<feFlood flood-opacity="0" result="BackgroundImageFix"/>
<feColorMatrix in="SourceAlpha" type="matrix" values="0 0 0 0 0 0 0 0 0 0 0 0 0 0 0 0 0 0 127 0" result="hardAlpha"/>
<feOffset dx="6" dy="4"/>
<feGaussianBlur stdDeviation="11.85"/>
<feComposite in2="hardAlpha" operator="out"/>
<feColorMatrix type="matrix" values="0 0 0 0 1 0 0 0 0 1 0 0 0 0 1 0 0 0 1 0"/>
<feBlend mode="normal" in2="BackgroundImageFix" result="effect1_dropShadow_1804_2"/>
<feBlend mode="normal" in="SourceGraphic" in2="effect1_dropShadow_1804_2" result="shape"/>
</filter>
<filter id="filter6_dddd_1804_2" x="21.3191" y="551.355" width="784.491" height="576.393" filterUnits="userSpaceOnUse" color-interpolation-filters="sRGB">
<feFlood flood-opacity="0" result="BackgroundImageFix"/>
<feColorMatrix in="SourceAlpha" type="matrix" values="0 0 0 0 0 0 0 0 0 0 0 0 0 0 0 0 0 0 127 0" result="hardAlpha"/>
<feOffset dx="-3" dy="9"/>
<feGaussianBlur stdDeviation="12.65"/>
<feComposite in2="hardAlpha" operator="out"/>
<feColorMatrix type="matrix" values="0 0 0 0 1 0 0 0 0 1 0 0 0 0 1 0 0 0 1 0"/>
<feBlend mode="normal" in2="BackgroundImageFix" result="effect1_dropShadow_1804_2"/>
<feColorMatrix in="SourceAlpha" type="matrix" values="0 0 0 0 0 0 0 0 0 0 0 0 0 0 0 0 0 0 127 0" result="hardAlpha"/>
<feOffset dy="4"/>
<feGaussianBlur stdDeviation="8.2"/>
<feComposite in2="hardAlpha" operator="out"/>
<feColorMatrix type="matrix" values="0 0 0 0 1 0 0 0 0 1 0 0 0 0 1 0 0 0 1 0"/>
<feBlend mode="normal" in2="effect1_dropShadow_1804_2" result="effect2_dropShadow_1804_2"/>
<feColorMatrix in="SourceAlpha" type="matrix" values="0 0 0 0 0 0 0 0 0 0 0 0 0 0 0 0 0 0 127 0" result="hardAlpha"/>
<feOffset dy="4"/>
<feGaussianBlur stdDeviation="18.25"/>
<feComposite in2="hardAlpha" operator="out"/>
<feColorMatrix type="matrix" values="0 0 0 0 1 0 0 0 0 1 0 0 0 0 1 0 0 0 1 0"/>
<feBlend mode="normal" in2="effect2_dropShadow_1804_2" result="effect3_dropShadow_1804_2"/>
<feColorMatrix in="SourceAlpha" type="matrix" values="0 0 0 0 0 0 0 0 0 0 0 0 0 0 0 0 0 0 127 0" result="hardAlpha"/>
<feOffset dy="4"/>
<feGaussianBlur stdDeviation="52.4"/>
<feComposite in2="hardAlpha" operator="out"/>
<feColorMatrix type="matrix" values="0 0 0 0 1 0 0 0 0 1 0 0 0 0 1 0 0 0 1 0"/>
<feBlend mode="normal" in2="effect3_dropShadow_1804_2" result="effect4_dropShadow_1804_2"/>
<feBlend mode="normal" in="SourceGraphic" in2="effect4_dropShadow_1804_2" result="shape"/>
</filter>
<radialGradient id="paint0_radial_1804_2" cx="0" cy="0" r="1" gradientUnits="userSpaceOnUse" gradientTransform="translate(1159 1314.16) rotate(90.5001) scale(171.848 2.99715)">
<stop offset="0.565" stop-color="white"/>
<stop offset="1" stop-color="#5A0033"/>
</radialGradient>
<linearGradient id="paint1_linear_1804_2" x1="1197" y1="1408" x2="1149.5" y2="1345.5" gradientUnits="userSpaceOnUse">
<stop stop-color="white"/>
<stop offset="1" stop-color="#FF8EFF"/>
</linearGradient>
<linearGradient id="paint2_linear_1804_2" x1="89.0308" y1="33.6968" x2="104.231" y2="149.331" gradientUnits="userSpaceOnUse">
<stop stop-color="#FFA7D9"/>
<stop offset="1" stop-color="#FF2CD1"/>
</linearGradient>
<linearGradient id="paint3_linear_1804_2" x1="773.25" y1="0" x2="773.25" y2="2317.5" gradientUnits="userSpaceOnUse">
<stop stop-color="#A967FF"/>
<stop offset="1" stop-color="#F373FF"/>
</linearGradient>
<linearGradient id="paint4_linear_1804_2" x1="773.25" y1="0" x2="773.25" y2="2317.5" gradientUnits="userSpaceOnUse">
<stop stop-color="#A967FF"/>
<stop offset="1" stop-color="#F373FF"/>
</linearGradient>
<linearGradient id="paint5_linear_1804_2" x1="773.25" y1="0" x2="773.25" y2="2317.5" gradientUnits="userSpaceOnUse">
<stop stop-color="#FEC3FF"/>
<stop offset="1" stop-color="#FEC0FF"/>
</linearGradient>
<linearGradient id="paint6_linear_1804_2" x1="773.25" y1="0" x2="773.25" y2="2317.5" gradientUnits="userSpaceOnUse">
<stop stop-color="#A967FF"/>
<stop offset="1" stop-color="#F373FF"/>
</linearGradient>
<linearGradient id="paint7_linear_1804_2" x1="773.25" y1="0" x2="773.25" y2="2317.5" gradientUnits="userSpaceOnUse">
<stop stop-color="#A967FF"/>
<stop offset="1" stop-color="#F373FF"/>
</linearGradient>
<linearGradient id="paint8_linear_1804_2" x1="773.25" y1="0" x2="773.25" y2="2317.5" gradientUnits="userSpaceOnUse">
<stop stop-color="#A967FF"/>
<stop offset="1" stop-color="#F373FF"/>
</linearGradient>
<linearGradient id="paint9_linear_1804_2" x1="773.25" y1="0" x2="773.25" y2="2317.5" gradientUnits="userSpaceOnUse">
<stop stop-color="#A967FF"/>
<stop offset="1" stop-color="#F373FF"/>
</linearGradient>
<linearGradient id="paint10_linear_1804_2" x1="773.25" y1="0" x2="773.25" y2="2317.5" gradientUnits="userSpaceOnUse">
<stop stop-color="#A967FF"/>
<stop offset="1" stop-color="#F373FF"/>
</linearGradient>
<radialGradient id="paint11_radial_1804_2" cx="0" cy="0" r="1" gradientUnits="userSpaceOnUse" gradientTransform="translate(1159 413.158) rotate(90.5001) scale(171.848 2.99715)">
<stop offset="0.565" stop-color="white"/>
<stop offset="1" stop-color="#5A0033"/>
</radialGradient>
<linearGradient id="paint12_linear_1804_2" x1="1197" y1="507" x2="1149.5" y2="444.5" gradientUnits="userSpaceOnUse">
<stop stop-color="white"/>
<stop offset="1" stop-color="#FF8EFF"/>
</linearGradient>
<linearGradient id="paint13_linear_1804_2" x1="89.0308" y1="33.6968" x2="104.231" y2="149.331" gradientUnits="userSpaceOnUse">
<stop stop-color="#FFA7D9"/>
<stop offset="1" stop-color="#FF2CD1"/>
</linearGradient>
<linearGradient id="paint14_linear_1804_2" x1="773.25" y1="0" x2="773.25" y2="2317.5" gradientUnits="userSpaceOnUse">
<stop stop-color="#A967FF"/>
<stop offset="1" stop-color="#F373FF"/>
</linearGradient>
<linearGradient id="paint15_linear_1804_2" x1="773.25" y1="0" x2="773.25" y2="2317.5" gradientUnits="userSpaceOnUse">
<stop stop-color="#A967FF"/>
<stop offset="1" stop-color="#F373FF"/>
</linearGradient>
<linearGradient id="paint16_linear_1804_2" x1="773.25" y1="0" x2="773.25" y2="2317.5" gradientUnits="userSpaceOnUse">
<stop stop-color="#FEC3FF"/>
<stop offset="1" stop-color="#FEC0FF"/>
</linearGradient>
<linearGradient id="paint17_linear_1804_2" x1="773.25" y1="0" x2="773.25" y2="2317.5" gradientUnits="userSpaceOnUse">
<stop stop-color="#A967FF"/>
<stop offset="1" stop-color="#F373FF"/>
</linearGradient>
<linearGradient id="paint18_linear_1804_2" x1="773.25" y1="0" x2="773.25" y2="2317.5" gradientUnits="userSpaceOnUse">
<stop stop-color="#A967FF"/>
<stop offset="1" stop-color="#F373FF"/>
</linearGradient>
<linearGradient id="paint19_linear_1804_2" x1="773.25" y1="0" x2="773.25" y2="2317.5" gradientUnits="userSpaceOnUse">
<stop stop-color="#A967FF"/>
<stop offset="1" stop-color="#F373FF"/>
</linearGradient>
<linearGradient id="paint20_linear_1804_2" x1="773.25" y1="0" x2="773.25" y2="2317.5" gradientUnits="userSpaceOnUse">
<stop stop-color="#A967FF"/>
<stop offset="1" stop-color="#F373FF"/>
</linearGradient>
<linearGradient id="paint21_linear_1804_2" x1="773.25" y1="0" x2="773.25" y2="2317.5" gradientUnits="userSpaceOnUse">
<stop stop-color="#A967FF"/>
<stop offset="1" stop-color="#F373FF"/>
</linearGradient>
<linearGradient id="paint22_linear_1804_2" x1="1325" y1="655.5" x2="1325" y2="863.5" gradientUnits="userSpaceOnUse">
<stop stop-color="#0D000D"/>
<stop offset="1" stop-color="#520031"/>
</linearGradient>
<linearGradient id="paint23_linear_1804_2" x1="1104" y1="792.5" x2="1104" y2="1000.5" gradientUnits="userSpaceOnUse">
<stop stop-color="#0D000D"/>
<stop offset="1" stop-color="#520031"/>
</linearGradient>
<linearGradient id="paint24_linear_1804_2" x1="887" y1="1181.5" x2="887" y2="1389.5" gradientUnits="userSpaceOnUse">
<stop stop-color="#0D000D"/>
<stop offset="1" stop-color="#520031"/>
</linearGradient>
<linearGradient id="paint25_linear_1804_2" x1="1112" y1="1042.5" x2="1112" y2="1250.5" gradientUnits="userSpaceOnUse">
<stop stop-color="#0D000D"/>
<stop offset="1" stop-color="#520031"/>
</linearGradient>
<linearGradient id="paint26_linear_1804_2" x1="1328" y1="1170.5" x2="1328" y2="1378.5" gradientUnits="userSpaceOnUse">
<stop stop-color="#0D000D"/>
<stop offset="1" stop-color="#520031"/>
</linearGradient>
<linearGradient id="paint27_linear_1804_2" x1="1107" y1="1307.5" x2="1107" y2="1515.5" gradientUnits="userSpaceOnUse">
<stop stop-color="#0D000D"/>
<stop offset="1" stop-color="#520031"/>
</linearGradient>
<linearGradient id="paint28_linear_1804_2" x1="1325" y1="1435.5" x2="1325" y2="1643.5" gradientUnits="userSpaceOnUse">
<stop stop-color="#0D000D"/>
<stop offset="1" stop-color="#520031"/>
</linearGradient>
<linearGradient id="paint29_linear_1804_2" x1="879" y1="1711.5" x2="879" y2="1919.5" gradientUnits="userSpaceOnUse">
<stop stop-color="#0D000D"/>
<stop offset="1" stop-color="#520031"/>
</linearGradient>
<linearGradient id="paint30_linear_1804_2" x1="1104" y1="1572.5" x2="1104" y2="1780.5" gradientUnits="userSpaceOnUse">
<stop stop-color="#0D000D"/>
<stop offset="1" stop-color="#520031"/>
</linearGradient>
<linearGradient id="paint31_linear_1804_2" x1="1328" y1="1693.5" x2="1328" y2="1901.5" gradientUnits="userSpaceOnUse">
<stop stop-color="#0D000D"/>
<stop offset="1" stop-color="#520031"/>
</linearGradient>
<linearGradient id="paint32_linear_1804_2" x1="1107" y1="1830.5" x2="1107" y2="2038.5" gradientUnits="userSpaceOnUse">
<stop stop-color="#0D000D"/>
<stop offset="1" stop-color="#520031"/>
</linearGradient>
<linearGradient id="paint33_linear_1804_2" x1="887" y1="2233.5" x2="887" y2="2441.5" gradientUnits="userSpaceOnUse">
<stop stop-color="#0D000D"/>
<stop offset="1" stop-color="#520031"/>
</linearGradient>
<linearGradient id="paint34_linear_1804_2" x1="1112" y1="2094.5" x2="1112" y2="2302.5" gradientUnits="userSpaceOnUse">
<stop stop-color="#0D000D"/>
<stop offset="1" stop-color="#520031"/>
</linearGradient>
<linearGradient id="paint35_linear_1804_2" x1="1333" y1="2214.5" x2="1333" y2="2422.5" gradientUnits="userSpaceOnUse">
<stop stop-color="#0D000D"/>
<stop offset="1" stop-color="#520031"/>
</linearGradient>
<linearGradient id="paint36_linear_1804_2" x1="1112" y1="2351.5" x2="1112" y2="2559.5" gradientUnits="userSpaceOnUse">
<stop stop-color="#0D000D"/>
<stop offset="1" stop-color="#520031"/>
</linearGradient>
<linearGradient id="paint37_linear_1804_2" x1="1323" y1="2479.5" x2="1323" y2="2687.5" gradientUnits="userSpaceOnUse">
<stop stop-color="#0D000D"/>
<stop offset="1" stop-color="#520031"/>
</linearGradient>
<linearGradient id="paint38_linear_1804_2" x1="877" y1="2755.5" x2="877" y2="2963.5" gradientUnits="userSpaceOnUse">
<stop stop-color="#0D000D"/>
<stop offset="1" stop-color="#520031"/>
</linearGradient>
<linearGradient id="paint39_linear_1804_2" x1="1102" y1="2616.5" x2="1102" y2="2824.5" gradientUnits="userSpaceOnUse">
<stop stop-color="#0D000D"/>
<stop offset="1" stop-color="#520031"/>
</linearGradient>
<linearGradient id="paint40_linear_1804_2" x1="148.287" y1="628" x2="148.287" y2="687.321" gradientUnits="userSpaceOnUse">
<stop stop-color="white"/>
<stop offset="1" stop-color="#FF0099"/>
</linearGradient>
<linearGradient id="paint41_linear_1804_2" x1="680.287" y1="960" x2="680.287" y2="1019.32" gradientUnits="userSpaceOnUse">
<stop stop-color="white"/>
<stop offset="1" stop-color="#FF0099"/>
</linearGradient>
<linearGradient id="paint42_linear_1804_2" x1="538.287" y1="872" x2="538.287" y2="931.321" gradientUnits="userSpaceOnUse">
<stop stop-color="white"/>
<stop offset="1" stop-color="#FF0099"/>
</linearGradient>
<linearGradient id="paint43_linear_1804_2" x1="270.287" y1="705" x2="270.287" y2="764.321" gradientUnits="userSpaceOnUse">
<stop stop-color="white"/>
<stop offset="1" stop-color="#FF0099"/>
</linearGradient>
<linearGradient id="paint44_linear_1804_2" x1="404.287" y1="788" x2="404.287" y2="847.321" gradientUnits="userSpaceOnUse">
<stop stop-color="white"/>
<stop offset="1" stop-color="#FF0099"/>
</linearGradient>
<radialGradient id="paint45_radial_1804_2" cx="0" cy="0" r="1" gradientUnits="userSpaceOnUse" gradientTransform="translate(1111.74 452.706) rotate(90.5001) scale(153.3 2.67365)">
<stop offset="0.565" stop-color="white"/>
<stop offset="1" stop-color="#5A0033"/>
</radialGradient>
<linearGradient id="paint46_linear_1804_2" x1="1145.64" y1="536.419" x2="1103.27" y2="480.665" gradientUnits="userSpaceOnUse">
<stop stop-color="#FF76E1"/>
<stop offset="1" stop-color="#9C5AFF"/>
</linearGradient>
<linearGradient id="paint47_linear_1804_2" x1="79.4211" y1="30.0597" x2="92.981" y2="133.212" gradientUnits="userSpaceOnUse">
<stop stop-color="#FF6BBF"/>
<stop offset="1" stop-color="#1D0050"/>
</linearGradient>
<radialGradient id="paint48_radial_1804_2" cx="0" cy="0" r="1" gradientUnits="userSpaceOnUse" gradientTransform="translate(771.622 585.698) rotate(89.4999) scale(213.31 3.72027)">
<stop offset="0.565" stop-color="white"/>
<stop offset="1" stop-color="#5A0033"/>
</radialGradient>
<linearGradient id="paint49_linear_1804_2" x1="732.737" y1="693.511" x2="821.832" y2="654.051" gradientUnits="userSpaceOnUse">
<stop stop-color="#FF76E1"/>
<stop offset="1" stop-color="#9C5AFF"/>
</linearGradient>
<linearGradient id="paint50_linear_1804_2" x1="714.091" y1="535.491" x2="732.959" y2="679.024" gradientUnits="userSpaceOnUse">
<stop stop-color="#FF6BBF"/>
<stop offset="1" stop-color="#1D0050"/>
</linearGradient>
<radialGradient id="paint51_radial_1804_2" cx="0" cy="0" r="1" gradientUnits="userSpaceOnUse" gradientTransform="translate(660.233 226.805) rotate(89.4999) scale(98.1991 1.71266)">
<stop offset="0.565" stop-color="white"/>
<stop offset="1" stop-color="#5A0033"/>
</radialGradient>
<linearGradient id="paint52_linear_1804_2" x1="624.465" y1="241.425" x2="668.197" y2="251.413" gradientUnits="userSpaceOnUse">
<stop stop-color="#FF76E1"/>
<stop offset="1" stop-color="#9C5AFF"/>
</linearGradient>
<linearGradient id="paint53_linear_1804_2" x1="647.644" y1="188.584" x2="656.33" y2="254.661" gradientUnits="userSpaceOnUse">
<stop stop-color="#FF6BBF"/>
<stop offset="1" stop-color="#1D0050"/>
</linearGradient>
</defs>
</svg>
