<svg width="1476" height="3036" viewBox="0 0 1476 3036" fill="none" xmlns="http://www.w3.org/2000/svg">
<path d="M271.5 771.5L973 1176.5V2647L271.5 2243.5V771.5Z" fill="#A667FF"/>
<path d="M271.5 771.5L973 1176.5V2863L271.5 2446.5V771.5Z" fill="#A667FF"/>
<path d="M1451 1015.85L973 1291.81V2875L1451 2601.5V1015.85Z" fill="#0A0042"/>
<path d="M1451 476L973 752L973.341 1937.86L1451 1660.2V476Z" fill="#0A0042"/>
<path d="M1451 1015.85L973 1291.81V2875L1451 2601.5V1015.85Z" stroke="black"/>
<path d="M1451 476L973 752L973.341 1937.86L1451 1660.2V476Z" stroke="black"/>
<path d="M258 2426.5L271.5 2419L973 2823V2839.5L258 2426.5Z" fill="#CBA5FF"/>
<path d="M258 2490.5V2426.5L973 2839.5V2900.5L258 2490.5Z" fill="#6000B4"/>
<path d="M271.5 330.5L973 735.5V2122.5L271.5 1714.5V330.5Z" fill="#A667FF"/>
<path d="M267 402L896 762.5V2500.5L267 2143.5V402Z" fill="url(#paint0_diamond_1670_6)"/>
<path d="M267 671L896 1031.5V2769.5L267 2412.5V671Z" fill="url(#paint1_diamond_1670_6)"/>
<path d="M973 752L249 335L752 45L1475.5 462L973 752Z" fill="#DEC4FF"/>
<path d="M249 289.5V335L752 44.9995L1475.5 461.5V416L752 0L249 289.5Z" fill="#C179FF"/>
<path d="M896 762.5L267 402L300.5 382.5L933.5 740.5L896 762.5Z" fill="#DEC4FF"/>
<path d="M752 44.9999V0L249 289.5V335L752 44.9999Z" fill="#6A00FF"/>
<path d="M249 335V289.5L973 706.5L1475.5 416V462L973 752L249 335Z" fill="#CA9FFF"/>
<path d="M973 706.5V752L1475.5 462V416L973 706.5Z" fill="#3A0078"/>
<path d="M896 762.5V2500.5L933.5 2479V740.5L896 762.5Z" fill="#0A0042"/>
<path d="M896 1032V2770L933.5 2748.5V1010L896 1032Z" fill="#0A0042"/>
<path d="M1069 771.784L1055.5 780L1055 920.275L1069 930V771.784Z" fill="#821CFF"/>
<path d="M1069 771.784L1055.5 780L1055 920.275L1069 930V771.784Z" fill="#821CFF"/>
<path d="M1069 771.784L1055.5 780L1055 920.275L1069 930V771.784Z" fill="#440080"/>
<path d="M1069 771.784L1055.5 780L1055 920.275L1069 930V771.784Z" stroke="#5500BD"/>
<path d="M1069 916.5L1055.5 906L1004 935.5V954L1069 916.5Z" fill="#8800FF"/>
<path d="M1069 930.5V916.5L1004 953.5V967.5L1069 930.5Z" fill="#3A0078"/>
<path d="M1055.5 780L1004 810V936L1055.5 906.168V780Z" fill="#FFEB34"/>
<path d="M1420 568L1406.5 576.216L1406 716.492L1420 726.216V568Z" fill="#821CFF"/>
<path d="M1420 568L1406.5 576.216L1406 716.492L1420 726.216V568Z" fill="#821CFF"/>
<path d="M1420 568L1406.5 576.216L1406 716.492L1420 726.216V568Z" fill="#440080"/>
<path d="M1420 568L1406.5 576.216L1406 716.492L1420 726.216V568Z" stroke="#5500BD"/>
<path d="M1420 712.716L1406.5 702.216L1355 731.716V750.216L1420 712.716Z" fill="#8800FF"/>
<path d="M1420 726.716V712.716L1355 749.716V763.716L1420 726.716Z" fill="#3A0078"/>
<path d="M1406.5 576.216L1355 606.216V732.216L1406.5 702.384V576.216Z" fill="#1A002B"/>
<path d="M1332 618L1318.5 626.216L1318 766.492L1332 776.216V618Z" fill="#821CFF"/>
<path d="M1332 618L1318.5 626.216L1318 766.492L1332 776.216V618Z" fill="#821CFF"/>
<path d="M1332 618L1318.5 626.216L1318 766.492L1332 776.216V618Z" fill="#440080"/>
<path d="M1332 618L1318.5 626.216L1318 766.492L1332 776.216V618Z" stroke="#5500BD"/>
<path d="M1332 762.716L1318.5 752.216L1267 781.716V800.216L1332 762.716Z" fill="#8800FF"/>
<path d="M1332 776.716V762.716L1267 799.716V813.716L1332 776.716Z" fill="#3A0078"/>
<path d="M1318.5 626.216L1267 656.216V782.216L1318.5 752.384V626.216Z" fill="#1A002B"/>
<path d="M1244 669L1230.5 677.216L1230 817.492L1244 827.216V669Z" fill="#821CFF"/>
<path d="M1244 669L1230.5 677.216L1230 817.492L1244 827.216V669Z" fill="#821CFF"/>
<path d="M1244 669L1230.5 677.216L1230 817.492L1244 827.216V669Z" fill="#440080"/>
<path d="M1244 669L1230.5 677.216L1230 817.492L1244 827.216V669Z" stroke="#5500BD"/>
<path d="M1244 813.716L1230.5 803.216L1179 832.716V851.216L1244 813.716Z" fill="#8800FF"/>
<path d="M1244 827.716V813.716L1179 850.716V864.716L1244 827.716Z" fill="#3A0078"/>
<path d="M1230.5 677.216L1179 707.216V833.216L1230.5 803.384V677.216Z" fill="#1A002B"/>
<path d="M1156 721L1142.5 729.216L1142 869.492L1156 879.216V721Z" fill="#821CFF"/>
<path d="M1156 721L1142.5 729.216L1142 869.492L1156 879.216V721Z" fill="#821CFF"/>
<path d="M1156 721L1142.5 729.216L1142 869.492L1156 879.216V721Z" fill="#440080"/>
<path d="M1156 721L1142.5 729.216L1142 869.492L1156 879.216V721Z" stroke="#5500BD"/>
<path d="M1156 865.716L1142.5 855.216L1091 884.716V903.216L1156 865.716Z" fill="#8800FF"/>
<path d="M1156 879.716V865.716L1091 902.716V916.716L1156 879.716Z" fill="#3A0078"/>
<path d="M1142.5 729.216L1091 759.216V885.216L1142.5 855.384V729.216Z" fill="#1A002B"/>
<path d="M1069 1025.78L1055.5 1034L1055 1174.28L1069 1184V1025.78Z" fill="#821CFF"/>
<path d="M1069 1025.78L1055.5 1034L1055 1174.28L1069 1184V1025.78Z" fill="#821CFF"/>
<path d="M1069 1025.78L1055.5 1034L1055 1174.28L1069 1184V1025.78Z" fill="#440080"/>
<path d="M1069 1025.78L1055.5 1034L1055 1174.28L1069 1184V1025.78Z" stroke="#5500BD"/>
<path d="M1069 1170.5L1055.5 1160L1004 1189.5V1208L1069 1170.5Z" fill="#8800FF"/>
<path d="M1069 1184.5V1170.5L1004 1207.5V1221.5L1069 1184.5Z" fill="#3A0078"/>
<path d="M1055.5 1034L1004 1064V1190L1055.5 1160.17V1034Z" fill="#1A002B"/>
<path d="M1420 822L1406.5 830.216L1406 970.492L1420 980.216V822Z" fill="#821CFF"/>
<path d="M1420 822L1406.5 830.216L1406 970.492L1420 980.216V822Z" fill="#821CFF"/>
<path d="M1420 822L1406.5 830.216L1406 970.492L1420 980.216V822Z" fill="#440080"/>
<path d="M1420 822L1406.5 830.216L1406 970.492L1420 980.216V822Z" stroke="#5500BD"/>
<path d="M1420 966.716L1406.5 956.216L1355 985.716V1004.22L1420 966.716Z" fill="#8800FF"/>
<path d="M1420 980.716V966.716L1355 1003.72V1017.72L1420 980.716Z" fill="#3A0078"/>
<path d="M1406.5 830.216L1355 860.216V986.216L1406.5 956.384V830.216Z" fill="#1A002B"/>
<path d="M1332 872L1318.5 880.216L1318 1020.49L1332 1030.22V872Z" fill="#821CFF"/>
<path d="M1332 872L1318.5 880.216L1318 1020.49L1332 1030.22V872Z" fill="#821CFF"/>
<path d="M1332 872L1318.5 880.216L1318 1020.49L1332 1030.22V872Z" fill="#440080"/>
<path d="M1332 872L1318.5 880.216L1318 1020.49L1332 1030.22V872Z" stroke="#5500BD"/>
<path d="M1332 1016.72L1318.5 1006.22L1267 1035.72V1054.22L1332 1016.72Z" fill="#8800FF"/>
<path d="M1332 1030.72V1016.72L1267 1053.72V1067.72L1332 1030.72Z" fill="#3A0078"/>
<path d="M1318.5 880.216L1267 910.216V1036.22L1318.5 1006.38V880.216Z" fill="#1A002B"/>
<path d="M1244 923L1230.5 931.216L1230 1071.49L1244 1081.22V923Z" fill="#821CFF"/>
<path d="M1244 923L1230.5 931.216L1230 1071.49L1244 1081.22V923Z" fill="#821CFF"/>
<path d="M1244 923L1230.5 931.216L1230 1071.49L1244 1081.22V923Z" fill="#440080"/>
<path d="M1244 923L1230.5 931.216L1230 1071.49L1244 1081.22V923Z" stroke="#5500BD"/>
<path d="M1244 1067.72L1230.5 1057.22L1179 1086.72V1105.22L1244 1067.72Z" fill="#8800FF"/>
<path d="M1244 1081.72V1067.72L1179 1104.72V1118.72L1244 1081.72Z" fill="#3A0078"/>
<path d="M1230.5 931.216L1179 961.216V1087.22L1230.5 1057.38V931.216Z" fill="#1A002B"/>
<path d="M1156 975L1142.5 983.216L1142 1123.49L1156 1133.22V975Z" fill="#821CFF"/>
<path d="M1156 975L1142.5 983.216L1142 1123.49L1156 1133.22V975Z" fill="#821CFF"/>
<path d="M1156 975L1142.5 983.216L1142 1123.49L1156 1133.22V975Z" fill="#440080"/>
<path d="M1156 975L1142.5 983.216L1142 1123.49L1156 1133.22V975Z" stroke="#5500BD"/>
<path d="M1156 1119.72L1142.5 1109.22L1091 1138.72V1157.22L1156 1119.72Z" fill="#8800FF"/>
<path d="M1156 1133.72V1119.72L1091 1156.72V1170.72L1156 1133.72Z" fill="#3A0078"/>
<path d="M1142.5 983.216L1091 1013.22V1139.22L1142.5 1109.38V983.216Z" fill="#1A002B"/>
<path d="M1069 1287.78L1055.5 1296L1055 1436.28L1069 1446V1287.78Z" fill="#821CFF"/>
<path d="M1069 1287.78L1055.5 1296L1055 1436.28L1069 1446V1287.78Z" fill="#821CFF"/>
<path d="M1069 1287.78L1055.5 1296L1055 1436.28L1069 1446V1287.78Z" fill="#440080"/>
<path d="M1069 1287.78L1055.5 1296L1055 1436.28L1069 1446V1287.78Z" stroke="#5500BD"/>
<path d="M1069 1432.5L1055.5 1422L1004 1451.5V1470L1069 1432.5Z" fill="#8800FF"/>
<path d="M1069 1446.5V1432.5L1004 1469.5V1483.5L1069 1446.5Z" fill="#3A0078"/>
<path d="M1055.5 1296L1004 1326V1452L1055.5 1422.17V1296Z" fill="#1A002B"/>
<path d="M1420 1084L1406.5 1092.22L1406 1232.49L1420 1242.22V1084Z" fill="#821CFF"/>
<path d="M1420 1084L1406.5 1092.22L1406 1232.49L1420 1242.22V1084Z" fill="#821CFF"/>
<path d="M1420 1084L1406.5 1092.22L1406 1232.49L1420 1242.22V1084Z" fill="#440080"/>
<path d="M1420 1084L1406.5 1092.22L1406 1232.49L1420 1242.22V1084Z" stroke="#5500BD"/>
<path d="M1420 1228.72L1406.5 1218.22L1355 1247.72V1266.22L1420 1228.72Z" fill="#8800FF"/>
<path d="M1420 1242.72V1228.72L1355 1265.72V1279.72L1420 1242.72Z" fill="#3A0078"/>
<path d="M1406.5 1092.22L1355 1122.22V1248.22L1406.5 1218.38V1092.22Z" fill="#1A002B"/>
<path d="M1332 1134L1318.5 1142.22L1318 1282.49L1332 1292.22V1134Z" fill="#821CFF"/>
<path d="M1332 1134L1318.5 1142.22L1318 1282.49L1332 1292.22V1134Z" fill="#821CFF"/>
<path d="M1332 1134L1318.5 1142.22L1318 1282.49L1332 1292.22V1134Z" fill="#440080"/>
<path d="M1332 1134L1318.5 1142.22L1318 1282.49L1332 1292.22V1134Z" stroke="#5500BD"/>
<path d="M1332 1278.72L1318.5 1268.22L1267 1297.72V1316.22L1332 1278.72Z" fill="#8800FF"/>
<path d="M1332 1292.72V1278.72L1267 1315.72V1329.72L1332 1292.72Z" fill="#3A0078"/>
<path d="M1318.5 1142.22L1267 1172.22V1298.22L1318.5 1268.38V1142.22Z" fill="#1A002B"/>
<path d="M1244 1185L1230.5 1193.22L1230 1333.49L1244 1343.22V1185Z" fill="#821CFF"/>
<path d="M1244 1185L1230.5 1193.22L1230 1333.49L1244 1343.22V1185Z" fill="#821CFF"/>
<path d="M1244 1185L1230.5 1193.22L1230 1333.49L1244 1343.22V1185Z" fill="#440080"/>
<path d="M1244 1185L1230.5 1193.22L1230 1333.49L1244 1343.22V1185Z" stroke="#5500BD"/>
<path d="M1244 1329.72L1230.5 1319.22L1179 1348.72V1367.22L1244 1329.72Z" fill="#8800FF"/>
<path d="M1244 1343.72V1329.72L1179 1366.72V1380.72L1244 1343.72Z" fill="#3A0078"/>
<path d="M1230.5 1193.22L1179 1223.22V1349.22L1230.5 1319.38V1193.22Z" fill="#1A002B"/>
<path d="M1156 1237L1142.5 1245.22L1142 1385.49L1156 1395.22V1237Z" fill="#821CFF"/>
<path d="M1156 1237L1142.5 1245.22L1142 1385.49L1156 1395.22V1237Z" fill="#821CFF"/>
<path d="M1156 1237L1142.5 1245.22L1142 1385.49L1156 1395.22V1237Z" fill="#440080"/>
<path d="M1156 1237L1142.5 1245.22L1142 1385.49L1156 1395.22V1237Z" stroke="#5500BD"/>
<path d="M1156 1381.72L1142.5 1371.22L1091 1400.72V1419.22L1156 1381.72Z" fill="#8800FF"/>
<path d="M1156 1395.72V1381.72L1091 1418.72V1432.72L1156 1395.72Z" fill="#3A0078"/>
<path d="M1142.5 1245.22L1091 1275.22V1401.22L1142.5 1371.38V1245.22Z" fill="#FFEB34"/>
<path d="M1069 1535.78L1055.5 1544L1055 1684.28L1069 1694V1535.78Z" fill="#821CFF"/>
<path d="M1069 1535.78L1055.5 1544L1055 1684.28L1069 1694V1535.78Z" fill="#821CFF"/>
<path d="M1069 1535.78L1055.5 1544L1055 1684.28L1069 1694V1535.78Z" fill="#440080"/>
<path d="M1069 1535.78L1055.5 1544L1055 1684.28L1069 1694V1535.78Z" stroke="#5500BD"/>
<path d="M1069 1680.5L1055.5 1670L1004 1699.5V1718L1069 1680.5Z" fill="#8800FF"/>
<path d="M1069 1694.5V1680.5L1004 1717.5V1731.5L1069 1694.5Z" fill="#3A0078"/>
<path d="M1055.5 1544L1004 1574V1700L1055.5 1670.17V1544Z" fill="#1A002B"/>
<path d="M1420 1332L1406.5 1340.22L1406 1480.49L1420 1490.22V1332Z" fill="#821CFF"/>
<path d="M1420 1332L1406.5 1340.22L1406 1480.49L1420 1490.22V1332Z" fill="#821CFF"/>
<path d="M1420 1332L1406.5 1340.22L1406 1480.49L1420 1490.22V1332Z" fill="#440080"/>
<path d="M1420 1332L1406.5 1340.22L1406 1480.49L1420 1490.22V1332Z" stroke="#5500BD"/>
<path d="M1420 1476.72L1406.5 1466.22L1355 1495.72V1514.22L1420 1476.72Z" fill="#8800FF"/>
<path d="M1420 1490.72V1476.72L1355 1513.72V1527.72L1420 1490.72Z" fill="#3A0078"/>
<path d="M1406.5 1340.22L1355 1370.22V1496.22L1406.5 1466.38V1340.22Z" fill="#FFEB34"/>
<path d="M1332 1382L1318.5 1390.22L1318 1530.49L1332 1540.22V1382Z" fill="#821CFF"/>
<path d="M1332 1382L1318.5 1390.22L1318 1530.49L1332 1540.22V1382Z" fill="#821CFF"/>
<path d="M1332 1382L1318.5 1390.22L1318 1530.49L1332 1540.22V1382Z" fill="#440080"/>
<path d="M1332 1382L1318.5 1390.22L1318 1530.49L1332 1540.22V1382Z" stroke="#5500BD"/>
<path d="M1332 1526.72L1318.5 1516.22L1267 1545.72V1564.22L1332 1526.72Z" fill="#8800FF"/>
<path d="M1332 1540.72V1526.72L1267 1563.72V1577.72L1332 1540.72Z" fill="#3A0078"/>
<path d="M1318.5 1390.22L1267 1420.22V1546.22L1318.5 1516.38V1390.22Z" fill="#1A002B"/>
<path d="M1244 1433L1230.5 1441.22L1230 1581.49L1244 1591.22V1433Z" fill="#821CFF"/>
<path d="M1244 1433L1230.5 1441.22L1230 1581.49L1244 1591.22V1433Z" fill="#821CFF"/>
<path d="M1244 1433L1230.5 1441.22L1230 1581.49L1244 1591.22V1433Z" fill="#440080"/>
<path d="M1244 1433L1230.5 1441.22L1230 1581.49L1244 1591.22V1433Z" stroke="#5500BD"/>
<path d="M1244 1577.72L1230.5 1567.22L1179 1596.72V1615.22L1244 1577.72Z" fill="#8800FF"/>
<path d="M1244 1591.72V1577.72L1179 1614.72V1628.72L1244 1591.72Z" fill="#3A0078"/>
<path d="M1230.5 1441.22L1179 1471.22V1597.22L1230.5 1567.38V1441.22Z" fill="#1A002B"/>
<path d="M1156 1485L1142.5 1493.22L1142 1633.49L1156 1643.22V1485Z" fill="#821CFF"/>
<path d="M1156 1485L1142.5 1493.22L1142 1633.49L1156 1643.22V1485Z" fill="#821CFF"/>
<path d="M1156 1485L1142.5 1493.22L1142 1633.49L1156 1643.22V1485Z" fill="#440080"/>
<path d="M1156 1485L1142.5 1493.22L1142 1633.49L1156 1643.22V1485Z" stroke="#5500BD"/>
<path d="M1156 1629.72L1142.5 1619.22L1091 1648.72V1667.22L1156 1629.72Z" fill="#8800FF"/>
<path d="M1156 1643.72V1629.72L1091 1666.72V1680.72L1156 1643.72Z" fill="#3A0078"/>
<path d="M1142.5 1493.22L1091 1523.22V1649.22L1142.5 1619.38V1493.22Z" fill="#1A002B"/>
<path d="M1069 1793.78L1055.5 1802L1055 1942.27L1069 1952V1793.78Z" fill="#821CFF"/>
<path d="M1069 1793.78L1055.5 1802L1055 1942.27L1069 1952V1793.78Z" fill="#821CFF"/>
<path d="M1069 1793.78L1055.5 1802L1055 1942.27L1069 1952V1793.78Z" fill="#440080"/>
<path d="M1069 1793.78L1055.5 1802L1055 1942.27L1069 1952V1793.78Z" stroke="#5500BD"/>
<path d="M1069 1938.5L1055.5 1928L1004 1957.5V1976L1069 1938.5Z" fill="#8800FF"/>
<path d="M1069 1952.5V1938.5L1004 1975.5V1989.5L1069 1952.5Z" fill="#3A0078"/>
<path d="M1055.5 1802L1004 1832V1958L1055.5 1928.17V1802Z" fill="#1A002B"/>
<path d="M1420 1590L1406.5 1598.22L1406 1738.49L1420 1748.22V1590Z" fill="#821CFF"/>
<path d="M1420 1590L1406.5 1598.22L1406 1738.49L1420 1748.22V1590Z" fill="#821CFF"/>
<path d="M1420 1590L1406.5 1598.22L1406 1738.49L1420 1748.22V1590Z" fill="#440080"/>
<path d="M1420 1590L1406.5 1598.22L1406 1738.49L1420 1748.22V1590Z" stroke="#5500BD"/>
<path d="M1420 1734.72L1406.5 1724.22L1355 1753.72V1772.22L1420 1734.72Z" fill="#8800FF"/>
<path d="M1420 1748.72V1734.72L1355 1771.72V1785.72L1420 1748.72Z" fill="#3A0078"/>
<path d="M1406.5 1598.22L1355 1628.22V1754.22L1406.5 1724.38V1598.22Z" fill="#1A002B"/>
<path d="M1332 1640L1318.5 1648.22L1318 1788.49L1332 1798.22V1640Z" fill="#821CFF"/>
<path d="M1332 1640L1318.5 1648.22L1318 1788.49L1332 1798.22V1640Z" fill="#821CFF"/>
<path d="M1332 1640L1318.5 1648.22L1318 1788.49L1332 1798.22V1640Z" fill="#440080"/>
<path d="M1332 1640L1318.5 1648.22L1318 1788.49L1332 1798.22V1640Z" stroke="#5500BD"/>
<path d="M1332 1784.72L1318.5 1774.22L1267 1803.72V1822.22L1332 1784.72Z" fill="#8800FF"/>
<path d="M1332 1798.72V1784.72L1267 1821.72V1835.72L1332 1798.72Z" fill="#3A0078"/>
<path d="M1318.5 1648.22L1267 1678.22V1804.22L1318.5 1774.38V1648.22Z" fill="#1A002B"/>
<path d="M1244 1691L1230.5 1699.22L1230 1839.49L1244 1849.22V1691Z" fill="#821CFF"/>
<path d="M1244 1691L1230.5 1699.22L1230 1839.49L1244 1849.22V1691Z" fill="#821CFF"/>
<path d="M1244 1691L1230.5 1699.22L1230 1839.49L1244 1849.22V1691Z" fill="#440080"/>
<path d="M1244 1691L1230.5 1699.22L1230 1839.49L1244 1849.22V1691Z" stroke="#5500BD"/>
<path d="M1244 1835.72L1230.5 1825.22L1179 1854.72V1873.22L1244 1835.72Z" fill="#8800FF"/>
<path d="M1244 1849.72V1835.72L1179 1872.72V1886.72L1244 1849.72Z" fill="#3A0078"/>
<path d="M1230.5 1699.22L1179 1729.22V1855.22L1230.5 1825.38V1699.22Z" fill="#FFEB34"/>
<path d="M1156 1743L1142.5 1751.22L1142 1891.49L1156 1901.22V1743Z" fill="#821CFF"/>
<path d="M1156 1743L1142.5 1751.22L1142 1891.49L1156 1901.22V1743Z" fill="#821CFF"/>
<path d="M1156 1743L1142.5 1751.22L1142 1891.49L1156 1901.22V1743Z" fill="#440080"/>
<path d="M1156 1743L1142.5 1751.22L1142 1891.49L1156 1901.22V1743Z" stroke="#5500BD"/>
<path d="M1156 1887.72L1142.5 1877.22L1091 1906.72V1925.22L1156 1887.72Z" fill="#8800FF"/>
<path d="M1156 1901.72V1887.72L1091 1924.72V1938.72L1156 1901.72Z" fill="#3A0078"/>
<path d="M1142.5 1751.22L1091 1781.22V1907.22L1142.5 1877.38V1751.22Z" fill="#1A002B"/>
<path d="M1069 2045.78L1055.5 2054L1055 2194.27L1069 2204V2045.78Z" fill="#821CFF"/>
<path d="M1069 2045.78L1055.5 2054L1055 2194.27L1069 2204V2045.78Z" fill="#821CFF"/>
<path d="M1069 2045.78L1055.5 2054L1055 2194.27L1069 2204V2045.78Z" fill="#440080"/>
<path d="M1069 2045.78L1055.5 2054L1055 2194.27L1069 2204V2045.78Z" stroke="#5500BD"/>
<path d="M1069 2190.5L1055.5 2180L1004 2209.5V2228L1069 2190.5Z" fill="#8800FF"/>
<path d="M1069 2204.5V2190.5L1004 2227.5V2241.5L1069 2204.5Z" fill="#3A0078"/>
<path d="M1055.5 2054L1004 2084V2210L1055.5 2180.17V2054Z" fill="#1A002B"/>
<path d="M1420 1842L1406.5 1850.22L1406 1990.49L1420 2000.22V1842Z" fill="#821CFF"/>
<path d="M1420 1842L1406.5 1850.22L1406 1990.49L1420 2000.22V1842Z" fill="#821CFF"/>
<path d="M1420 1842L1406.5 1850.22L1406 1990.49L1420 2000.22V1842Z" fill="#440080"/>
<path d="M1420 1842L1406.5 1850.22L1406 1990.49L1420 2000.22V1842Z" stroke="#5500BD"/>
<path d="M1420 1986.72L1406.5 1976.22L1355 2005.72V2024.22L1420 1986.72Z" fill="#8800FF"/>
<path d="M1420 2000.72V1986.72L1355 2023.72V2037.72L1420 2000.72Z" fill="#3A0078"/>
<path d="M1406.5 1850.22L1355 1880.22V2006.22L1406.5 1976.38V1850.22Z" fill="#1A002B"/>
<path d="M1332 1892L1318.5 1900.22L1318 2040.49L1332 2050.22V1892Z" fill="#821CFF"/>
<path d="M1332 1892L1318.5 1900.22L1318 2040.49L1332 2050.22V1892Z" fill="#821CFF"/>
<path d="M1332 1892L1318.5 1900.22L1318 2040.49L1332 2050.22V1892Z" fill="#440080"/>
<path d="M1332 1892L1318.5 1900.22L1318 2040.49L1332 2050.22V1892Z" stroke="#5500BD"/>
<path d="M1332 2036.72L1318.5 2026.22L1267 2055.72V2074.22L1332 2036.72Z" fill="#8800FF"/>
<path d="M1332 2050.72V2036.72L1267 2073.72V2087.72L1332 2050.72Z" fill="#3A0078"/>
<path d="M1318.5 1900.22L1267 1930.22V2056.22L1318.5 2026.38V1900.22Z" fill="#1A002B"/>
<path d="M1244 1943L1230.5 1951.22L1230 2091.49L1244 2101.22V1943Z" fill="#821CFF"/>
<path d="M1244 1943L1230.5 1951.22L1230 2091.49L1244 2101.22V1943Z" fill="#821CFF"/>
<path d="M1244 1943L1230.5 1951.22L1230 2091.49L1244 2101.22V1943Z" fill="#440080"/>
<path d="M1244 1943L1230.5 1951.22L1230 2091.49L1244 2101.22V1943Z" stroke="#5500BD"/>
<path d="M1244 2087.72L1230.5 2077.22L1179 2106.72V2125.22L1244 2087.72Z" fill="#8800FF"/>
<path d="M1244 2101.72V2087.72L1179 2124.72V2138.72L1244 2101.72Z" fill="#3A0078"/>
<path d="M1230.5 1951.22L1179 1981.22V2107.22L1230.5 2077.38V1951.22Z" fill="#1A002B"/>
<path d="M1156 1995L1142.5 2003.22L1142 2143.49L1156 2153.22V1995Z" fill="#821CFF"/>
<path d="M1156 1995L1142.5 2003.22L1142 2143.49L1156 2153.22V1995Z" fill="#821CFF"/>
<path d="M1156 1995L1142.5 2003.22L1142 2143.49L1156 2153.22V1995Z" fill="#440080"/>
<path d="M1156 1995L1142.5 2003.22L1142 2143.49L1156 2153.22V1995Z" stroke="#5500BD"/>
<path d="M1156 2139.72L1142.5 2129.22L1091 2158.72V2177.22L1156 2139.72Z" fill="#8800FF"/>
<path d="M1156 2153.72V2139.72L1091 2176.72V2190.72L1156 2153.72Z" fill="#3A0078"/>
<path d="M1142.5 2003.22L1091 2033.22V2159.22L1142.5 2129.38V2003.22Z" fill="#FFEB34"/>
<path d="M1069 2301.78L1055.5 2310L1055 2450.27L1069 2460V2301.78Z" fill="#821CFF"/>
<path d="M1069 2301.78L1055.5 2310L1055 2450.27L1069 2460V2301.78Z" fill="#821CFF"/>
<path d="M1069 2301.78L1055.5 2310L1055 2450.27L1069 2460V2301.78Z" fill="#440080"/>
<path d="M1069 2301.78L1055.5 2310L1055 2450.27L1069 2460V2301.78Z" stroke="#5500BD"/>
<path d="M1069 2446.5L1055.5 2436L1004 2465.5V2484L1069 2446.5Z" fill="#8800FF"/>
<path d="M1069 2460.5V2446.5L1004 2483.5V2497.5L1069 2460.5Z" fill="#3A0078"/>
<path d="M1055.5 2310L1004 2340V2466L1055.5 2436.17V2310Z" fill="#FFEB34"/>
<path d="M1420 2098L1406.5 2106.22L1406 2246.49L1420 2256.22V2098Z" fill="#821CFF"/>
<path d="M1420 2098L1406.5 2106.22L1406 2246.49L1420 2256.22V2098Z" fill="#821CFF"/>
<path d="M1420 2098L1406.5 2106.22L1406 2246.49L1420 2256.22V2098Z" fill="#440080"/>
<path d="M1420 2098L1406.5 2106.22L1406 2246.49L1420 2256.22V2098Z" stroke="#5500BD"/>
<path d="M1420 2242.72L1406.5 2232.22L1355 2261.72V2280.22L1420 2242.72Z" fill="#8800FF"/>
<path d="M1420 2256.72V2242.72L1355 2279.72V2293.72L1420 2256.72Z" fill="#3A0078"/>
<path d="M1406.5 2106.22L1355 2136.22V2262.22L1406.5 2232.38V2106.22Z" fill="#1A002B"/>
<path d="M1069 2547.78L1055.5 2556L1055 2696.27L1069 2706V2547.78Z" fill="#821CFF"/>
<path d="M1069 2547.78L1055.5 2556L1055 2696.27L1069 2706V2547.78Z" fill="#821CFF"/>
<path d="M1069 2547.78L1055.5 2556L1055 2696.27L1069 2706V2547.78Z" fill="#440080"/>
<path d="M1069 2547.78L1055.5 2556L1055 2696.27L1069 2706V2547.78Z" stroke="#5500BD"/>
<path d="M1069 2692.5L1055.5 2682L1004 2711.5V2730L1069 2692.5Z" fill="#8800FF"/>
<path d="M1069 2706.5V2692.5L1004 2729.5V2743.5L1069 2706.5Z" fill="#3A0078"/>
<path d="M1055.5 2556L1004 2586V2712L1055.5 2682.17V2556Z" fill="#1A002B"/>
<path d="M1420 2344L1406.5 2352.22L1406 2492.49L1420 2502.22V2344Z" fill="#821CFF"/>
<path d="M1420 2344L1406.5 2352.22L1406 2492.49L1420 2502.22V2344Z" fill="#821CFF"/>
<path d="M1420 2344L1406.5 2352.22L1406 2492.49L1420 2502.22V2344Z" fill="#440080"/>
<path d="M1420 2344L1406.5 2352.22L1406 2492.49L1420 2502.22V2344Z" stroke="#5500BD"/>
<path d="M1420 2488.72L1406.5 2478.22L1355 2507.72V2526.22L1420 2488.72Z" fill="#8800FF"/>
<path d="M1420 2502.72V2488.72L1355 2525.72V2539.72L1420 2502.72Z" fill="#3A0078"/>
<path d="M1406.5 2352.22L1355 2382.22V2508.22L1406.5 2478.38V2352.22Z" fill="#FFEB34"/>
<path d="M1332 2148L1318.5 2156.22L1318 2296.49L1332 2306.22V2148Z" fill="#821CFF"/>
<path d="M1332 2148L1318.5 2156.22L1318 2296.49L1332 2306.22V2148Z" fill="#821CFF"/>
<path d="M1332 2148L1318.5 2156.22L1318 2296.49L1332 2306.22V2148Z" fill="#440080"/>
<path d="M1332 2148L1318.5 2156.22L1318 2296.49L1332 2306.22V2148Z" stroke="#5500BD"/>
<path d="M1332 2292.72L1318.5 2282.22L1267 2311.72V2330.22L1332 2292.72Z" fill="#8800FF"/>
<path d="M1332 2306.72V2292.72L1267 2329.72V2343.72L1332 2306.72Z" fill="#3A0078"/>
<path d="M1318.5 2156.22L1267 2186.22V2312.22L1318.5 2282.38V2156.22Z" fill="#1A002B"/>
<path d="M1244 2199L1230.5 2207.22L1230 2347.49L1244 2357.22V2199Z" fill="#821CFF"/>
<path d="M1244 2199L1230.5 2207.22L1230 2347.49L1244 2357.22V2199Z" fill="#821CFF"/>
<path d="M1244 2199L1230.5 2207.22L1230 2347.49L1244 2357.22V2199Z" fill="#440080"/>
<path d="M1244 2199L1230.5 2207.22L1230 2347.49L1244 2357.22V2199Z" stroke="#5500BD"/>
<path d="M1244 2343.72L1230.5 2333.22L1179 2362.72V2381.22L1244 2343.72Z" fill="#8800FF"/>
<path d="M1244 2357.72V2343.72L1179 2380.72V2394.72L1244 2357.72Z" fill="#3A0078"/>
<path d="M1230.5 2207.22L1179 2237.22V2363.22L1230.5 2333.38V2207.22Z" fill="#1A002B"/>
<path d="M1156 2251L1142.5 2259.22L1142 2399.49L1156 2409.22V2251Z" fill="#821CFF"/>
<path d="M1156 2251L1142.5 2259.22L1142 2399.49L1156 2409.22V2251Z" fill="#821CFF"/>
<path d="M1156 2251L1142.5 2259.22L1142 2399.49L1156 2409.22V2251Z" fill="#440080"/>
<path d="M1156 2251L1142.5 2259.22L1142 2399.49L1156 2409.22V2251Z" stroke="#5500BD"/>
<path d="M1156 2395.72L1142.5 2385.22L1091 2414.72V2433.22L1156 2395.72Z" fill="#8800FF"/>
<path d="M1156 2409.72V2395.72L1091 2432.72V2446.72L1156 2409.72Z" fill="#3A0078"/>
<path d="M1142.5 2259.22L1091 2289.22V2415.22L1142.5 2385.38V2259.22Z" fill="#FFEB34"/>
<path d="M1329 2631H1304L973 2823V2839.5L1329 2631Z" fill="#821CFF"/>
<path d="M1464.5 2553L1451 2545L1298 2634.5L1310 2642L1464.5 2553Z" fill="#821CFF"/>
<path d="M1464.5 2615.5V2553L1300 2647.5V2710.5L1464.5 2615.5Z" fill="#3F008D"/>
<path d="M1288 2640L1300 2647.5V2710.5L1288 2704.09V2640Z" fill="#440080"/>
<path d="M1271 2418L1161 2481.5L1163 2757.5L1271 2696V2418Z" fill="#1A002B"/>
<path d="M1288 2408L1271 2418V2695L1288 2704.09V2408Z" fill="#821CFF"/>
<path d="M1288 2408L1271 2418V2695L1288 2704.09V2408Z" fill="#821CFF"/>
<path d="M1288 2408L1271 2418V2695L1288 2704.09V2408Z" fill="#440080"/>
<path d="M1288 2408L1271 2418V2695L1288 2704.09V2408Z" stroke="#5500BD"/>
<path d="M1174.5 2780.5L1300 2710.5L1271 2695L1174.5 2745.5V2780.5Z" fill="#200046"/>
<path d="M1176.5 2779.5V2719L973 2839.5V2900.5L1176.5 2779.5Z" fill="#3F008D"/>
<path d="M1176.5 2719L1163 2711L1010 2801.5L1022.5 2809L1176.5 2719Z" fill="#821CFF"/>
<g filter="url(#filter0_dddddd_1670_6)">
<path d="M266 402L896 762.5V2770L267.002 2409.5L266 402Z" fill="white"/>
</g>
<defs>
<filter id="filter0_dddddd_1670_6" x="0.783203" y="136.783" width="1160.43" height="2898.43" filterUnits="userSpaceOnUse" color-interpolation-filters="sRGB">
<feFlood flood-opacity="0" result="BackgroundImageFix"/>
<feColorMatrix in="SourceAlpha" type="matrix" values="0 0 0 0 0 0 0 0 0 0 0 0 0 0 0 0 0 0 127 0" result="hardAlpha"/>
<feOffset/>
<feGaussianBlur stdDeviation="3.15734"/>
<feColorMatrix type="matrix" values="0 0 0 0 0.647059 0 0 0 0 0.611765 0 0 0 0 0.611765 0 0 0 1 0"/>
<feBlend mode="normal" in2="BackgroundImageFix" result="effect1_dropShadow_1670_6"/>
<feColorMatrix in="SourceAlpha" type="matrix" values="0 0 0 0 0 0 0 0 0 0 0 0 0 0 0 0 0 0 127 0" result="hardAlpha"/>
<feOffset/>
<feGaussianBlur stdDeviation="6.31469"/>
<feColorMatrix type="matrix" values="0 0 0 0 0.647059 0 0 0 0 0.611765 0 0 0 0 0.611765 0 0 0 1 0"/>
<feBlend mode="normal" in2="effect1_dropShadow_1670_6" result="effect2_dropShadow_1670_6"/>
<feColorMatrix in="SourceAlpha" type="matrix" values="0 0 0 0 0 0 0 0 0 0 0 0 0 0 0 0 0 0 127 0" result="hardAlpha"/>
<feOffset/>
<feGaussianBlur stdDeviation="22.1014"/>
<feColorMatrix type="matrix" values="0 0 0 0 0.647059 0 0 0 0 0.611765 0 0 0 0 0.611765 0 0 0 1 0"/>
<feBlend mode="normal" in2="effect2_dropShadow_1670_6" result="effect3_dropShadow_1670_6"/>
<feColorMatrix in="SourceAlpha" type="matrix" values="0 0 0 0 0 0 0 0 0 0 0 0 0 0 0 0 0 0 127 0" result="hardAlpha"/>
<feOffset/>
<feGaussianBlur stdDeviation="44.2028"/>
<feColorMatrix type="matrix" values="0 0 0 0 0.647059 0 0 0 0 0.611765 0 0 0 0 0.611765 0 0 0 1 0"/>
<feBlend mode="normal" in2="effect3_dropShadow_1670_6" result="effect4_dropShadow_1670_6"/>
<feColorMatrix in="SourceAlpha" type="matrix" values="0 0 0 0 0 0 0 0 0 0 0 0 0 0 0 0 0 0 127 0" result="hardAlpha"/>
<feOffset/>
<feGaussianBlur stdDeviation="75.7762"/>
<feColorMatrix type="matrix" values="0 0 0 0 0.647059 0 0 0 0 0.611765 0 0 0 0 0.611765 0 0 0 1 0"/>
<feBlend mode="normal" in2="effect4_dropShadow_1670_6" result="effect5_dropShadow_1670_6"/>
<feColorMatrix in="SourceAlpha" type="matrix" values="0 0 0 0 0 0 0 0 0 0 0 0 0 0 0 0 0 0 127 0" result="hardAlpha"/>
<feOffset/>
<feGaussianBlur stdDeviation="132.608"/>
<feColorMatrix type="matrix" values="0 0 0 0 0.647059 0 0 0 0 0.611765 0 0 0 0 0.611765 0 0 0 1 0"/>
<feBlend mode="normal" in2="effect5_dropShadow_1670_6" result="effect6_dropShadow_1670_6"/>
<feBlend mode="normal" in="SourceGraphic" in2="effect6_dropShadow_1670_6" result="shape"/>
</filter>
<radialGradient id="paint0_diamond_1670_6" cx="0" cy="0" r="1" gradientUnits="userSpaceOnUse" gradientTransform="translate(484.5 1189.5) rotate(8.46204) scale(1257.19 1651.24)">
<stop stop-color="white"/>
<stop offset="1" stop-color="#8C5CC8"/>
</radialGradient>
<radialGradient id="paint1_diamond_1670_6" cx="0" cy="0" r="1" gradientUnits="userSpaceOnUse" gradientTransform="translate(484.5 1189.5) rotate(8.46204) scale(1257.19 1651.24)">
<stop stop-color="white"/>
<stop offset="1" stop-color="#8C5CC8"/>
</radialGradient>
</defs>
</svg>
