<svg width="2062" height="2780" viewBox="0 0 2062 2780" fill="none" xmlns="http://www.w3.org/2000/svg">
<path fill-rule="evenodd" clip-rule="evenodd" d="M0 2300.14L770.875 1818L1535 2300.14L770.875 2780L0 2300.14Z" fill="#520053"/>
<path fill-rule="evenodd" clip-rule="evenodd" d="M1451.04 2311V2255L1180 2424.5V2482L1451.04 2311Z" fill="#8D008D"/>
<path d="M81 2253.5L95 2244.5L771 2663V2679.5L81 2253.5Z" fill="#FDA5FF"/>
<path d="M81 2304.5V2253.5L771 2679.5V2740.5L81 2304.5Z" fill="#B400B4"/>
<path fill-rule="evenodd" clip-rule="evenodd" d="M770.959 2663L1441 2244.63V1567.31L770.959 1987V2663Z" fill="#3D0042"/>
<path fill-rule="evenodd" clip-rule="evenodd" d="M95 1567.31V2244.63L770.959 2663V1987L95 1567.31Z" fill="#F36EFF"/>
<path d="M1168 2170.5L1058 2239.5V2541.5L1168 2476V2170.5Z" fill="url(#paint0_linear_1805_384)"/>
<path d="M1168 2171L1132 2194V2500.5L1168 2476.5V2171Z" fill="#200020"/>
<path d="M1180 2162L1168 2170.5V2475.5L1180 2482V2162Z" fill="#800080"/>
<path d="M1180 2162L1168 2170.5V2475.5L1180 2482V2162Z" fill="#800080"/>
<path d="M1180 2162L1168 2170.5V2475.5L1180 2482V2162Z" fill="#800080"/>
<path d="M1180 2162L1168 2170.5V2475.5L1180 2482V2162Z" stroke="#780078"/>
<path d="M1210.55 2501.5L1168 2475.5L1069 2535L1098.5 2571L1210.55 2501.5Z" fill="#B400B4"/>
<path d="M1092 2234.65L1050 2206V2547L1092 2575V2234.65Z" fill="#800080"/>
<path d="M1092 2234.65L1050 2206V2547L1092 2575V2234.65Z" fill="#800080"/>
<path d="M1092 2234.65L1050 2206V2547L1092 2575V2234.65Z" fill="#F267FF"/>
<path d="M1092 2234.65L1050 2206V2547L1092 2575V2234.65Z" stroke="#780078"/>
<path d="M1062 2214.75L1068.36 2218.98L1076.36 2224.31L1084.36 2229.64L1085.57 2230.45L1091.98 2234.72L1098.8 2230.45L1100.16 2229.59L1179.92 2179.59V2140.82L1062 2214.75Z" fill="#FEC3FF"/>
<path d="M1179.92 2140.82V2179.59L1186.02 2175.77V2144.71L1179.92 2140.82Z" fill="#FEC3FF"/>
<path d="M1186.02 2175.77L1191.7 2172.21V2148.34L1186.02 2144.71V2175.77Z" fill="#FEC3FF"/>
<path d="M1186.02 2137L1179.92 2140.82L1186.02 2144.71V2137Z" fill="#350035"/>
<path d="M1191.7 2140.78L1186.02 2137V2144.71L1191.7 2148.34V2140.78Z" fill="#350035"/>
<path d="M1216 2156.97L1191.7 2140.78V2148.34L1205.2 2156.97L1210.55 2160.39L1216 2156.97Z" fill="#FEC3FF"/>
<path d="M1191.7 2172.21L1205.2 2163.74L1205.2 2156.97L1191.7 2148.34V2172.21Z" fill="#FEC3FF"/>
<path d="M1210.55 2160.39L1205.2 2156.97L1205.2 2163.74L1210.55 2160.39Z" fill="#FEC3FF"/>
<path d="M1098.8 2230.45L1091.98 2234.72V2536.42L1098.8 2532.19V2230.45Z" fill="#7D0088"/>
<path d="M1091.98 2575L1098.8 2570.81V2540.16L1091.98 2544.43V2575Z" fill="#7D0088"/>
<path d="M1098.8 2540.16V2532.19L1091.98 2536.42V2544.43L1098.8 2540.16Z" fill="#7D0088"/>
<path d="M1062 2555.03L1068.36 2559.27V2551.08L1062 2555.03Z" fill="#F267FF"/>
<path d="M1062 2214.75V2555.03L1068.36 2551.08V2218.98L1062 2214.75Z" fill="#F267FF"/>
<path d="M1085.57 2570.73L1091.98 2575V2544.43L1085.57 2548.46V2570.73Z" fill="#F267FF"/>
<path d="M1091.98 2234.72L1085.57 2230.45V2540.4L1091.98 2536.42V2234.72Z" fill="#F267FF"/>
<path d="M1091.98 2536.42L1085.57 2540.4V2548.46L1091.98 2544.43V2536.42Z" fill="#F267FF"/>
<path d="M1216 2498.02V2156.97L1210.55 2160.39V2494.39L1216 2498.02Z" fill="#CD00E0"/>
<path d="M1210.55 2501.5L1216 2498.02L1210.55 2494.39V2501.5Z" fill="#CD00E0"/>
<path d="M1179.92 2481.83L1186.02 2478.05V2175.77L1179.92 2179.59V2481.83Z" fill="#FF00FF"/>
<path d="M1186.02 2478.05L1179.92 2481.83H1186.02V2478.05Z" fill="#FF00FF"/>
<path d="M1179.92 2481.83L1186.02 2485.39V2481.83H1179.92Z" fill="#FF00FF"/>
<path d="M1174 2128L1050 2206L1062 2214.75L1204 2149L1174 2128Z" fill="#FEC3FF"/>
<path d="M1210.55 2501.5L1168 2475.5L1069 2535L1098.5 2571L1210.55 2501.5Z" fill="#B400B4"/>
<path d="M1092 2234.65L1050 2206V2547L1092 2575V2234.65Z" fill="#800080"/>
<path d="M1092 2234.65L1050 2206V2547L1092 2575V2234.65Z" fill="#800080"/>
<path d="M1092 2234.65L1050 2206V2547L1092 2575V2234.65Z" fill="#F267FF"/>
<path d="M1092 2234.65L1050 2206V2547L1092 2575V2234.65Z" stroke="#780078"/>
<path d="M1180 2162L1168 2175.5V2416L1180 2408.5V2162Z" fill="#800080"/>
<path d="M1180 2162L1168 2175.5V2416L1180 2408.5V2162Z" fill="#370037"/>
<path d="M1180 2162L1168 2175.5V2416L1180 2408.5V2162Z" fill="#FF00FF"/>
<path d="M1180 2162L1168 2175.5V2416L1180 2408.5V2162Z" stroke="#780078"/>
<path d="M1062 2214.75L1068.36 2218.98L1076.36 2224.31L1084.36 2229.64L1085.57 2230.45L1091.98 2234.72L1098.8 2230.45L1100.16 2229.59L1179.92 2179.59V2140.82L1062 2214.75Z" fill="#FEC3FF"/>
<path d="M1179.92 2140.82V2179.59L1186.02 2175.77V2144.71L1179.92 2140.82Z" fill="#FEC3FF"/>
<path d="M1186.02 2175.77L1191.7 2172.21V2148.34L1186.02 2144.71V2175.77Z" fill="#FEC3FF"/>
<path d="M1186.02 2137L1179.92 2140.82L1186.02 2144.71V2137Z" fill="#350035"/>
<path d="M1191.7 2140.78L1186.02 2137V2144.71L1191.7 2148.34V2140.78Z" fill="#350035"/>
<path d="M1216 2156.97L1191.7 2140.78V2148.34L1205.2 2156.97L1210.55 2160.39L1216 2156.97Z" fill="#FEC3FF"/>
<path d="M1191.7 2172.21L1205.2 2163.74L1205.2 2156.97L1191.7 2148.34V2172.21Z" fill="#FEC3FF"/>
<path d="M1210.55 2160.39L1205.2 2156.97L1205.2 2163.74L1210.55 2160.39Z" fill="#FEC3FF"/>
<path d="M1098.8 2230.45L1091.98 2234.72V2536.42L1098.8 2532.19V2230.45Z" fill="#7D0088"/>
<path d="M1091.98 2575L1098.8 2570.81V2540.16L1091.98 2544.43V2575Z" fill="#7D0088"/>
<path d="M1098.8 2540.16V2532.19L1091.98 2536.42V2544.43L1098.8 2540.16Z" fill="#7D0088"/>
<path d="M1062 2555.03L1068.36 2559.27V2551.08L1062 2555.03Z" fill="#F267FF"/>
<path d="M1062 2214.75V2555.03L1068.36 2551.08V2218.98L1062 2214.75Z" fill="#F267FF"/>
<path d="M1085.57 2570.73L1091.98 2575V2544.43L1085.57 2548.46V2570.73Z" fill="#F267FF"/>
<path d="M1091.98 2234.72L1085.57 2230.45V2540.4L1091.98 2536.42V2234.72Z" fill="#F267FF"/>
<path d="M1091.98 2536.42L1085.57 2540.4V2548.46L1091.98 2544.43V2536.42Z" fill="#F267FF"/>
<path d="M1216 2498.02V2156.97L1210.55 2160.39V2494.39L1216 2498.02Z" fill="#CD00E0"/>
<path d="M1210.55 2501.5L1216 2498.02L1210.55 2494.39V2501.5Z" fill="#CD00E0"/>
<path d="M1179.92 2481.83L1186.02 2478.05V2175.77L1179.92 2179.59V2481.83Z" fill="#FF00FF"/>
<path d="M1186.02 2478.05L1179.92 2481.83H1186.02V2478.05Z" fill="#FF00FF"/>
<path d="M1179.92 2481.83L1186.02 2485.39V2481.83H1179.92Z" fill="#FF00FF"/>
<path d="M1174 2128L1050 2206L1062 2214.75L1204 2149L1174 2128Z" fill="#FEC3FF"/>
<path d="M1180 2162L1168 2175.5V2416L1180 2408.5V2162Z" fill="#800080"/>
<path d="M1180 2162L1168 2175.5V2416L1180 2408.5V2162Z" fill="#370037"/>
<path d="M1180 2162L1168 2175.5V2416L1180 2408.5V2162Z" fill="#FF00FF"/>
<path d="M1180 2162L1168 2175.5V2416L1180 2408.5V2162Z" stroke="#780078"/>
<path fill-rule="evenodd" clip-rule="evenodd" d="M1451.04 2255L1440.54 2244L1168 2416L1180 2424.5L1451.04 2255Z" fill="#FF1CFF"/>
<path d="M1210.55 2160.36L1168 2131.77V2475.5L1210.55 2501.5V2160.36Z" fill="#800080"/>
<path d="M1210.55 2160.36L1168 2131.77V2475.5L1210.55 2501.5V2160.36Z" fill="#800080"/>
<path d="M1210.55 2160.36L1168 2131.77V2475.5L1210.55 2501.5V2160.36Z" fill="#790079"/>
<path d="M1210.55 2160.36L1168 2131.77V2475.5L1210.55 2501.5V2160.36Z" stroke="#780078"/>
<path d="M1210.55 2501.5L1168 2475.5L1069 2535L1098.5 2571L1210.55 2501.5Z" fill="#B400B4"/>
<path d="M1092 2234.65L1050 2206V2547L1092 2575V2234.65Z" fill="#800080"/>
<path d="M1092 2234.65L1050 2206V2547L1092 2575V2234.65Z" fill="#800080"/>
<path d="M1092 2234.65L1050 2206V2547L1092 2575V2234.65Z" fill="#F267FF"/>
<path d="M1092 2234.65L1050 2206V2547L1092 2575V2234.65Z" stroke="#780078"/>
<path d="M1062 2214.75L1068.36 2218.98L1076.36 2224.31L1084.36 2229.64L1085.57 2230.45L1091.98 2234.72L1098.8 2230.45L1100.16 2229.59L1179.92 2179.59V2140.82L1062 2214.75Z" fill="#FEC3FF"/>
<path d="M1179.92 2140.82V2179.59L1186.02 2175.77V2144.71L1179.92 2140.82Z" fill="#FEC3FF"/>
<path d="M1186.02 2175.77L1191.7 2172.21V2148.34L1186.02 2144.71V2175.77Z" fill="#FEC3FF"/>
<path d="M1186.02 2137L1179.92 2140.82L1186.02 2144.71V2137Z" fill="#350035"/>
<path d="M1191.7 2140.78L1186.02 2137V2144.71L1191.7 2148.34V2140.78Z" fill="#350035"/>
<path d="M1216 2156.97L1191.7 2140.78V2148.34L1205.2 2156.97L1210.55 2160.39L1216 2156.97Z" fill="#FEC3FF"/>
<path d="M1191.7 2172.21L1205.2 2163.74L1205.2 2156.97L1191.7 2148.34V2172.21Z" fill="#FEC3FF"/>
<path d="M1210.55 2160.39L1205.2 2156.97L1205.2 2163.74L1210.55 2160.39Z" fill="#FEC3FF"/>
<path d="M1098.8 2230.45L1091.98 2234.72V2536.42L1098.8 2532.19V2230.45Z" fill="#7D0088"/>
<path d="M1091.98 2575L1098.8 2570.81V2563V2540.16L1091.98 2544.43V2575Z" fill="#7D0088"/>
<path d="M1098.8 2540.16V2532.19L1091.98 2536.42V2544.43L1098.8 2540.16Z" fill="#7D0088"/>
<path d="M1062 2555.03L1068.36 2559.27V2551.08L1062 2555.03Z" fill="#F267FF"/>
<path d="M1062 2214.75V2555.03L1068.36 2551.08V2218.98L1062 2214.75Z" fill="#F267FF"/>
<path d="M1085.57 2570.73L1091.98 2575V2544.43L1085.57 2548.46V2570.73Z" fill="#F267FF"/>
<path d="M1091.98 2234.72L1085.57 2230.45V2540.4L1091.98 2536.42V2234.72Z" fill="#F267FF"/>
<path d="M1091.98 2536.42L1085.57 2540.4V2548.46L1091.98 2544.43V2536.42Z" fill="#F267FF"/>
<path d="M1216 2498.02V2156.97L1210.55 2160.39V2494.39L1216 2498.02Z" fill="#790079"/>
<path d="M1210.55 2501.5L1216 2498.02L1210.55 2494.39V2501.5Z" fill="#790079"/>
<path d="M1179.92 2481.83L1186.02 2478.05V2175.77L1179.92 2179.59V2481.83Z" fill="#790079"/>
<path d="M1186.02 2478.05L1179.92 2481.83H1186.02V2478.05Z" fill="#790079"/>
<path d="M1179.92 2481.83L1186.02 2485.39V2481.83H1179.92Z" fill="#790079"/>
<path d="M1174 2128L1050 2206L1062 2214.75L1204 2149L1174 2128Z" fill="#FEC3FF"/>
<path d="M1064 2556.24V2497L771 2679.5V2740.5L1064 2556.24Z" fill="#8D008D"/>
<path d="M1064 2497L1050.5 2488.5L771 2663V2679.5L1064 2497Z" fill="#FF1CFF"/>
<path d="M1002.73 2254.87C1004.99 2250.84 1006.02 2246.66 1005.85 2243.17C1005.69 2239.84 1004.44 2237.15 1002.13 2235.83C1002.09 2235.81 1002.05 2235.78 1002 2235.76C997.146 2233.15 989.596 2237.48 985.141 2245.42C980.685 2253.37 981.009 2261.93 985.866 2264.53C988.215 2265.8 991.195 2265.44 994.149 2263.83C997.302 2262.11 1000.43 2258.97 1002.73 2254.87Z" fill="url(#paint1_linear_1805_384)"/>
<path d="M1014.86 2261.58C1019.32 2253.63 1018.99 2245.07 1014.13 2242.47C1011.78 2241.2 1008.81 2241.56 1005.85 2243.17C1002.7 2244.89 999.573 2248.03 997.272 2252.13C995.014 2256.16 993.983 2260.34 994.149 2263.83C994.307 2267.16 995.557 2269.85 997.869 2271.17C997.912 2271.19 997.955 2271.22 997.998 2271.24C1002.85 2273.85 1010.4 2269.52 1014.86 2261.58Z" fill="#C3B8FF"/>
<path d="M1005.85 2243.17C1005.69 2239.84 1004.44 2237.15 1002.13 2235.83L1014.13 2242.47C1011.78 2241.2 1008.81 2241.56 1005.85 2243.17Z" fill="url(#paint2_linear_1805_384)"/>
<path d="M985.866 2264.53C988.215 2265.8 991.195 2265.44 994.149 2263.83C994.307 2267.16 995.557 2269.85 997.869 2271.17L985.866 2264.53Z" fill="url(#paint3_linear_1805_384)"/>
<g filter="url(#filter0_ddddd_1805_384)">
<path d="M1014.11 2242.75C1019 2245.34 1019.32 2253.81 1014.84 2261.68C1010.36 2269.55 1002.77 2273.83 997.887 2271.25L997.758 2271.18C995.433 2269.88 994.176 2267.21 994.017 2263.91C993.851 2260.45 994.887 2256.31 997.158 2252.32C999.471 2248.26 1002.61 2245.15 1005.78 2243.45C1008.75 2241.86 1011.75 2241.5 1014.11 2242.75Z" fill="white"/>
</g>
<path d="M1236.73 2126.87C1238.99 2122.84 1240.02 2118.66 1239.85 2115.17C1239.69 2111.84 1238.44 2109.15 1236.13 2107.83C1236.09 2107.81 1236.05 2107.78 1236 2107.76C1231.15 2105.15 1223.6 2109.48 1219.14 2117.42C1214.68 2125.37 1215.01 2133.93 1219.87 2136.53C1222.22 2137.8 1225.19 2137.44 1228.15 2135.83C1231.3 2134.11 1234.43 2130.97 1236.73 2126.87Z" fill="url(#paint4_linear_1805_384)"/>
<path d="M1248.86 2133.58C1253.32 2125.63 1252.99 2117.07 1248.13 2114.47C1245.78 2113.2 1242.81 2113.56 1239.85 2115.17C1236.7 2116.89 1233.57 2120.03 1231.27 2124.13C1229.01 2128.16 1227.98 2132.34 1228.15 2135.83C1228.31 2139.16 1229.56 2141.85 1231.87 2143.17C1231.91 2143.19 1231.95 2143.22 1232 2143.24C1236.85 2145.85 1244.4 2141.52 1248.86 2133.58Z" fill="#C3B8FF"/>
<path d="M1239.85 2115.17C1239.69 2111.84 1238.44 2109.15 1236.13 2107.83L1248.13 2114.47C1245.78 2113.2 1242.81 2113.56 1239.85 2115.17Z" fill="url(#paint5_linear_1805_384)"/>
<path d="M1219.87 2136.53C1222.22 2137.8 1225.19 2137.44 1228.15 2135.83C1228.31 2139.16 1229.56 2141.85 1231.87 2143.17L1219.87 2136.53Z" fill="url(#paint6_linear_1805_384)"/>
<g filter="url(#filter1_ddddd_1805_384)">
<path d="M1248.11 2114.75C1253 2117.34 1253.32 2125.81 1248.84 2133.68C1244.36 2141.55 1236.77 2145.83 1231.89 2143.25L1231.76 2143.18C1229.43 2141.88 1228.18 2139.21 1228.02 2135.91C1227.85 2132.45 1228.89 2128.31 1231.16 2124.32C1233.47 2120.26 1236.61 2117.15 1239.78 2115.45C1242.75 2113.86 1245.75 2113.5 1248.11 2114.75Z" fill="white"/>
</g>
<path fill-rule="evenodd" clip-rule="evenodd" d="M95.5 1275.5L95 1657L771.5 2076.5V1700L95.5 1275.5Z" fill="#F36EFF"/>
<path d="M771.5 2076.5L1441 1657L1441.5 1275L771.5 1700V2076.5Z" fill="#3D0042"/>
<path d="M1156.5 459H1158H1159.5V630.773C1158.42 631.084 1157.75 631.067 1156.5 630.773V459Z" fill="url(#paint7_radial_1805_384)"/>
<path d="M1140.52 355.5C1109.8 381.995 1106.81 470.12 1148.52 518.5C1190.24 566.881 1276.8 576.995 1307.52 550.5C1338.25 524.005 1279.61 475.426 1237.89 427.045C1196.17 378.665 1171.25 329.005 1140.52 355.5Z" fill="url(#paint8_linear_1805_384)"/>
<ellipse cx="128.689" cy="59.9263" rx="128.689" ry="59.9263" transform="matrix(-0.653026 -0.757336 -0.757336 0.653026 1354.16 510.921)" fill="url(#paint9_linear_1805_384)"/>
<path fill-rule="evenodd" clip-rule="evenodd" d="M95.5 513L771.459 90L1441.5 513L1432.35 518.749L771.5 933.975L771.459 934L111.517 522.975L95.5 513Z" fill="#DDDDDD"/>
<path fill-rule="evenodd" clip-rule="evenodd" d="M95.5 513L771.459 90L1441.5 513L1432.35 518.749L771.5 933.975L771.459 934L111.517 522.975L95.5 513Z" fill="#DDDDDD"/>
<path fill-rule="evenodd" clip-rule="evenodd" d="M95.5 513L771.459 90L1441.5 513L1432.35 518.749L771.5 933.975L771.459 934L111.517 522.975L95.5 513Z" fill="#FEC3FF"/>
<path fill-rule="evenodd" clip-rule="evenodd" d="M95.5 513L771.459 90L1441.5 513L1432.35 518.749L771.5 933.975L771.459 934L111.517 522.975L95.5 513Z" fill="#FEC3FF"/>
<path fill-rule="evenodd" clip-rule="evenodd" d="M95.5 513L771.459 90L1441.5 513L1432.35 518.749L771.5 933.975L771.459 934L111.517 522.975L95.5 513Z" fill="url(#paint10_linear_1805_384)"/>
<path d="M1058.28 510.926L1068.5 517.383V504.499L1058.28 510.926Z" fill="#9D009D"/>
<path d="M475.5 517.383L485.811 510.926L475.5 504.499V517.383Z" fill="#B400B4"/>
<path fill-rule="evenodd" clip-rule="evenodd" d="M773.304 330.884L485.811 510.926L773.304 690.116L1058.28 510.926L773.304 330.884Z" fill="#9D009D"/>
<path d="M773.304 703L1068.5 517.383L1058.28 510.926L773.304 690.116L485.811 510.926L475.5 517.383L773.304 703Z" fill="#B400B4"/>
<path fill-rule="evenodd" clip-rule="evenodd" d="M773.304 690.116L1058.28 510.926L773.304 330.884L485.811 510.926L773.304 690.116Z" fill="#FF68FF"/>
<path d="M773.304 318L475.5 504.499L485.811 510.926L773.304 330.884L1058.28 510.926L1068.5 504.499L773.304 318Z" fill="#FF68FF"/>
<path d="M772 105.5L771.5 61L83 489V541L95.5 533.099L111.517 522.975L772 105.5Z" fill="#EA00FF"/>
<path d="M771.5 61V46L1480.5 475.5H1453.5L771.5 61Z" fill="#FECDFF"/>
<path d="M771.5 105V61L1461.5 480V537L1441.5 524.478L1432.35 518.749L771.5 105Z" fill="#FF79FF"/>
<path d="M67 481H95.5L771.5 899.5V916L67 481Z" fill="#FDA5FF"/>
<path d="M1479.5 475.5H1453.5L771.5 899.5V916L1479.5 475.5Z" fill="#FB41FF"/>
<path d="M771.5 61V46L67.5 481H96L771.5 61Z" fill="#FC63FF"/>
<path d="M349.397 469.269V526.638L380.241 506.438V449.975L380.181 449.937L349.397 469.269Z" fill="#880088"/>
<path fill-rule="evenodd" clip-rule="evenodd" d="M452.5 404.595L421.657 423.965V423.89L380.181 449.937L380.241 449.975V506.438L349.397 526.638V565.956L452.5 499.504V404.595ZM307.343 404.598L307.346 404.597L307.343 404.595V404.598Z" fill="#880088"/>
<path d="M276.5 423.89V519.067L307.343 538.906V443.09L276.5 423.89Z" fill="url(#paint11_linear_1805_384)"/>
<path d="M349.397 469.269L307.343 443.09V538.906L349.397 565.956V526.638V469.269Z" fill="url(#paint12_linear_1805_384)"/>
<path d="M349.397 469.269L380.181 449.937L307.346 404.597L307.343 404.598V443.09L349.397 469.269Z" fill="#F8A6FF"/>
<path d="M276.5 423.89L307.343 443.09V404.598L276.5 423.89Z" fill="#F8A6FF"/>
<path d="M421.657 423.89L349.397 378.294L307.346 404.597L380.181 449.937L421.657 423.89Z" fill="#F8A6FF"/>
<path d="M380.241 359L307.343 404.595L307.346 404.597L349.397 378.294L421.657 423.89V423.965L452.5 404.595L380.241 359Z" fill="#F8A6FF"/>
<path d="M343.853 472.548L377.784 451.414L297.5 401.847L297.498 401.849V443.928L343.853 472.548Z" fill="#F8A6FF"/>
<path d="M263.5 422.938L297.498 443.928V401.849L263.5 422.938Z" fill="#F8A6FF"/>
<path d="M423.502 422.938L343.853 373.093L297.5 401.847L377.784 451.414L423.502 422.938Z" fill="#F8A6FF"/>
<path d="M377.851 352L297.498 401.846L297.5 401.847L343.853 373.093L423.502 422.938V423.021L457.5 401.846L377.851 352Z" fill="#F8A6FF"/>
<path fill-rule="evenodd" clip-rule="evenodd" d="M263.5 430.165V422.938L297.498 443.928V451.674L263.5 430.165Z" fill="#F589FF"/>
<path fill-rule="evenodd" clip-rule="evenodd" d="M343.853 472.548V481L297.498 451.674V443.928L343.853 472.548Z" fill="#F589FF"/>
<path fill-rule="evenodd" clip-rule="evenodd" d="M343.853 481V472.548L377.784 451.414L377.851 451.455V459.579L343.853 481Z" fill="#FF00FF"/>
<path fill-rule="evenodd" clip-rule="evenodd" d="M457.5 401.846L423.502 423.021V422.938L377.784 451.414L377.851 451.455V459.579L457.5 409.395V401.846ZM297.498 401.849L297.5 401.847L297.498 401.846V401.849Z" fill="#FF00FF"/>
<path d="M1038.6 326.269V383.638L1007.76 363.438V306.975L1007.82 306.937L1038.6 326.269Z" fill="url(#paint13_linear_1805_384)"/>
<path fill-rule="evenodd" clip-rule="evenodd" d="M935.5 261.595L966.343 280.965V280.89L1007.82 306.937L1007.76 306.975V363.438L1038.6 383.638V422.956L935.5 356.504V261.595ZM1080.66 261.598L1080.65 261.597L1080.66 261.595V261.598Z" fill="url(#paint14_linear_1805_384)"/>
<path d="M1111.5 280.89V376.067L1080.66 395.906V300.09L1111.5 280.89Z" fill="#880088"/>
<path d="M1038.6 326.269L1080.66 300.09V395.906L1038.6 422.956V383.638V326.269Z" fill="#880088"/>
<path d="M1038.6 326.269L1007.82 306.937L1080.65 261.597L1080.66 261.598V300.09L1038.6 326.269Z" fill="#F8A6FF"/>
<path d="M1111.5 280.89L1080.66 300.09V261.598L1111.5 280.89Z" fill="#F8A6FF"/>
<path d="M966.343 280.89L1038.6 235.294L1080.65 261.597L1007.82 306.937L966.343 280.89Z" fill="#F8A6FF"/>
<path d="M1007.76 216L1080.66 261.595L1080.65 261.597L1038.6 235.294L966.343 280.89V280.965L935.5 261.595L1007.76 216Z" fill="#F8A6FF"/>
<path d="M1041.15 330.548L1007.22 309.414L1087.5 259.847L1087.5 259.849V301.928L1041.15 330.548Z" fill="#F8A6FF"/>
<path d="M1121.5 280.938L1087.5 301.928V259.849L1121.5 280.938Z" fill="#F8A6FF"/>
<path d="M961.498 280.938L1041.15 231.093L1087.5 259.847L1007.22 309.414L961.498 280.938Z" fill="#F8A6FF"/>
<path d="M1007.15 210L1087.5 259.846L1087.5 259.847L1041.15 231.093L961.498 280.938V281.021L927.5 259.846L1007.15 210Z" fill="#F8A6FF"/>
<path fill-rule="evenodd" clip-rule="evenodd" d="M1121.5 288.165V280.938L1087.5 301.928V309.674L1121.5 288.165Z" fill="#DE00DE"/>
<path fill-rule="evenodd" clip-rule="evenodd" d="M1041.15 330.548V339L1087.5 309.674V301.928L1041.15 330.548Z" fill="#DE00DE"/>
<path fill-rule="evenodd" clip-rule="evenodd" d="M1041.15 339V330.548L1007.22 309.414L1007.15 309.455V317.579L1041.15 339Z" fill="#F589FF"/>
<path fill-rule="evenodd" clip-rule="evenodd" d="M927.5 259.846L961.498 281.021V280.938L1007.22 309.414L1007.15 309.455V317.579L927.5 267.395V259.846ZM1087.5 259.849L1087.5 259.847L1087.5 259.846V259.849Z" fill="#F589FF"/>
<path d="M771.459 1704.5L1441.5 1276V550.239L771.5 977L771.459 976.974V1704.5Z" fill="#3D0042"/>
<path fill-rule="evenodd" clip-rule="evenodd" d="M1461.5 486.691V537.5L1441.5 550.239V524.478L1432.35 518.749L771.5 933.975V916L1461.5 486.691ZM771.5 977V933.975L771.459 934V976.974L771.5 977Z" fill="#880088"/>
<path d="M771.5 977L1441.5 550.239V524.478L1432.35 518.749L771.5 933.975V977Z" fill="#880088"/>
<path d="M771.459 976.974V934L111.517 522.975L95.5 533.099V549.846L771.459 976.974Z" fill="#B400B4"/>
<path fill-rule="evenodd" clip-rule="evenodd" d="M81.5 541V490L771.5 916V933.975V977L771.459 976.974V934L111.517 522.975L95.5 533.099V549.846L81.5 541Z" fill="#B400B4"/>
<path d="M95.5 1276L771.459 1704.5V976.974L95.5 549.846V1276Z" fill="#F36EFF"/>
<path d="M1378 1099.5L1268 1168.5V1307.5L1378 1242.5V1099.5Z" fill="url(#paint15_linear_1805_384)"/>
<path d="M1394 1089L1378 1099.5V1242.5L1394 1252.24V1089Z" fill="#800080"/>
<path d="M1394 1089L1378 1099.5V1242.5L1394 1252.24V1089Z" fill="#800080"/>
<path d="M1394 1089L1378 1099.5V1242.5L1394 1252.24V1089Z" fill="#800080"/>
<path d="M1394 1089L1378 1099.5V1242.5L1394 1252.24V1089Z" stroke="#780078"/>
<path d="M1394 1252L1378 1242.5L1268 1307.5V1327.5L1394 1252Z" fill="#FF00FF"/>
<path d="M1394 1265.5V1252L1268 1327.5V1343L1394 1265.5Z" fill="#B400B4"/>
<path d="M948 1365L932 1375.5V1518.5L948 1528.24V1365Z" fill="#800080"/>
<path d="M948 1365L932 1375.5V1518.5L948 1528.24V1365Z" fill="#800080"/>
<path d="M948 1365L932 1375.5V1518.5L948 1528.24V1365Z" fill="#800080"/>
<path d="M948 1365L932 1375.5V1518.5L948 1528.24V1365Z" stroke="#780078"/>
<path d="M948 1528L932 1518.5L822 1583.5V1603.5L948 1528Z" fill="#FF00FF"/>
<path d="M948 1541.5V1528L822 1603.5V1619L948 1541.5Z" fill="#B400B4"/>
<g filter="url(#filter2_d_1805_384)">
<path d="M932 1375.5L822 1444.5V1583.5L932 1518.5V1375.5Z" fill="#F8FF77"/>
</g>
<path d="M1157 1236.5L1047 1305.5V1444.5L1157 1379.5V1236.5Z" fill="url(#paint16_linear_1805_384)"/>
<path d="M1173 1226L1157 1236.5V1379.5L1173 1389.24V1226Z" fill="#800080"/>
<path d="M1173 1226L1157 1236.5V1379.5L1173 1389.24V1226Z" fill="#800080"/>
<path d="M1173 1226L1157 1236.5V1379.5L1173 1389.24V1226Z" fill="#800080"/>
<path d="M1173 1226L1157 1236.5V1379.5L1173 1389.24V1226Z" stroke="#780078"/>
<path d="M1173 1389L1157 1379.5L1047 1444.5V1464.5L1173 1389Z" fill="#FF00FF"/>
<path d="M1173 1402.5V1389L1047 1464.5V1480L1173 1402.5Z" fill="#B400B4"/>
<path d="M1378 660.5L1268 729.5V868.5L1378 803.5V660.5Z" fill="url(#paint17_linear_1805_384)"/>
<path d="M1394 650L1378 660.5V803.5L1394 813.24V650Z" fill="#800080"/>
<path d="M1394 650L1378 660.5V803.5L1394 813.24V650Z" fill="#800080"/>
<path d="M1394 650L1378 660.5V803.5L1394 813.24V650Z" fill="#800080"/>
<path d="M1394 650L1378 660.5V803.5L1394 813.24V650Z" stroke="#780078"/>
<path d="M1394 813L1378 803.5L1268 868.5V888.5L1394 813Z" fill="#FF00FF"/>
<path d="M1394 826.5V813L1268 888.5V904L1394 826.5Z" fill="#B400B4"/>
<path d="M948 926L932 936.5V1079.5L948 1089.24V926Z" fill="#800080"/>
<path d="M948 926L932 936.5V1079.5L948 1089.24V926Z" fill="#800080"/>
<path d="M948 926L932 936.5V1079.5L948 1089.24V926Z" fill="#800080"/>
<path d="M948 926L932 936.5V1079.5L948 1089.24V926Z" stroke="#780078"/>
<path d="M948 1089L932 1079.5L822 1144.5V1164.5L948 1089Z" fill="#FF00FF"/>
<path d="M948 1102.5V1089L822 1164.5V1180L948 1102.5Z" fill="#B400B4"/>
<g filter="url(#filter3_d_1805_384)">
<path d="M932 936.5L822 1005.5V1144.5L932 1079.5V936.5Z" fill="#F8FF77"/>
</g>
<path d="M1157 797.5L1047 866.5V1005.5L1157 940.5V797.5Z" fill="url(#paint18_linear_1805_384)"/>
<path d="M1173 787L1157 797.5V940.5L1173 950.24V787Z" fill="#800080"/>
<path d="M1173 787L1157 797.5V940.5L1173 950.24V787Z" fill="#800080"/>
<path d="M1173 787L1157 797.5V940.5L1173 950.24V787Z" fill="#800080"/>
<path d="M1173 787L1157 797.5V940.5L1173 950.24V787Z" stroke="#780078"/>
<path d="M1173 950L1157 940.5L1047 1005.5V1025.5L1173 950Z" fill="#FF00FF"/>
<path d="M1173 963.5V950L1047 1025.5V1041L1173 963.5Z" fill="#B400B4"/>
<path d="M1378 660.5L1268 729.5V868.5L1378 803.5V660.5Z" fill="url(#paint19_linear_1805_384)"/>
<path d="M1394 650L1378 660.5V803.5L1394 813.24V650Z" fill="#800080"/>
<path d="M1394 650L1378 660.5V803.5L1394 813.24V650Z" fill="#800080"/>
<path d="M1394 650L1378 660.5V803.5L1394 813.24V650Z" fill="#800080"/>
<path d="M1394 650L1378 660.5V803.5L1394 813.24V650Z" stroke="#780078"/>
<path d="M1394 813L1378 803.5L1268 868.5V888.5L1394 813Z" fill="#FF00FF"/>
<path d="M1394 826.5V813L1268 888.5V904L1394 826.5Z" fill="#B400B4"/>
<path d="M948 926L932 936.5V1079.5L948 1089.24V926Z" fill="#800080"/>
<path d="M948 926L932 936.5V1079.5L948 1089.24V926Z" fill="#800080"/>
<path d="M948 926L932 936.5V1079.5L948 1089.24V926Z" fill="#800080"/>
<path d="M948 926L932 936.5V1079.5L948 1089.24V926Z" stroke="#780078"/>
<path d="M948 1089L932 1079.5L822 1144.5V1164.5L948 1089Z" fill="#FF00FF"/>
<path d="M948 1102.5V1089L822 1164.5V1180L948 1102.5Z" fill="#B400B4"/>
<g filter="url(#filter4_d_1805_384)">
<path d="M932 936.5L822 1005.5V1144.5L932 1079.5V936.5Z" fill="#F8FF77"/>
</g>
<path d="M1157 797.5L1047 866.5V1005.5L1157 940.5V797.5Z" fill="url(#paint20_linear_1805_384)"/>
<path d="M1173 787L1157 797.5V940.5L1173 950.24V787Z" fill="#800080"/>
<path d="M1173 787L1157 797.5V940.5L1173 950.24V787Z" fill="#800080"/>
<path d="M1173 787L1157 797.5V940.5L1173 950.24V787Z" fill="#800080"/>
<path d="M1173 787L1157 797.5V940.5L1173 950.24V787Z" stroke="#780078"/>
<path d="M1173 950L1157 940.5L1047 1005.5V1025.5L1173 950Z" fill="#FF00FF"/>
<path d="M1173 963.5V950L1047 1025.5V1041L1173 963.5Z" fill="#B400B4"/>
<path d="M1378 1981.5L1268 2050.5V2189.5L1378 2124.5V1981.5Z" fill="url(#paint21_linear_1805_384)"/>
<path d="M1394 1971L1378 1981.5V2124.5L1394 2134.24V1971Z" fill="#800080"/>
<path d="M1394 1971L1378 1981.5V2124.5L1394 2134.24V1971Z" fill="#800080"/>
<path d="M1394 1971L1378 1981.5V2124.5L1394 2134.24V1971Z" fill="#800080"/>
<path d="M1394 1971L1378 1981.5V2124.5L1394 2134.24V1971Z" stroke="#780078"/>
<path d="M1394 2134L1378 2124.5L1268 2189.5V2209.5L1394 2134Z" fill="#FF00FF"/>
<path d="M1394 2147.5V2134L1268 2209.5V2225L1394 2147.5Z" fill="#B400B4"/>
<path d="M932 2254.5L822 2323.5V2462.5L932 2397.5V2254.5Z" fill="url(#paint22_linear_1805_384)"/>
<path d="M948 2244L932 2254.5V2397.5L948 2407.24V2244Z" fill="#800080"/>
<path d="M948 2244L932 2254.5V2397.5L948 2407.24V2244Z" fill="#800080"/>
<path d="M948 2244L932 2254.5V2397.5L948 2407.24V2244Z" fill="#800080"/>
<path d="M948 2244L932 2254.5V2397.5L948 2407.24V2244Z" stroke="#780078"/>
<path d="M948 2407L932 2397.5L822 2462.5V2482.5L948 2407Z" fill="#FF00FF"/>
<path d="M948 2420.5V2407L822 2482.5V2498L948 2420.5Z" fill="#B400B4"/>
<path d="M1394 1313L1378 1323.5V1466.5L1394 1476.24V1313Z" fill="#800080"/>
<path d="M1394 1313L1378 1323.5V1466.5L1394 1476.24V1313Z" fill="#800080"/>
<path d="M1394 1313L1378 1323.5V1466.5L1394 1476.24V1313Z" fill="#800080"/>
<path d="M1394 1313L1378 1323.5V1466.5L1394 1476.24V1313Z" stroke="#780078"/>
<path d="M1394 1476L1378 1466.5L1268 1531.5V1551.5L1394 1476Z" fill="#FF00FF"/>
<path d="M1394 1489.5V1476L1268 1551.5V1567L1394 1489.5Z" fill="#B400B4"/>
<g filter="url(#filter5_d_1805_384)">
<path d="M1378 1323.5L1268 1392.5V1531.5L1378 1466.5V1323.5Z" fill="#F8FF77"/>
</g>
<path d="M932 1599.5L822 1668.5V1807.5L932 1742.5V1599.5Z" fill="url(#paint23_linear_1805_384)"/>
<path d="M948 1589L932 1599.5V1742.5L948 1752.24V1589Z" fill="#800080"/>
<path d="M948 1589L932 1599.5V1742.5L948 1752.24V1589Z" fill="#800080"/>
<path d="M948 1589L932 1599.5V1742.5L948 1752.24V1589Z" fill="#800080"/>
<path d="M948 1589L932 1599.5V1742.5L948 1752.24V1589Z" stroke="#780078"/>
<path d="M948 1752L932 1742.5L822 1807.5V1827.5L948 1752Z" fill="#FF00FF"/>
<path d="M948 1765.5V1752L822 1827.5V1843L948 1765.5Z" fill="#B400B4"/>
<path d="M1157 1460.5L1047 1529.5V1668.5L1157 1603.5V1460.5Z" fill="url(#paint24_linear_1805_384)"/>
<path d="M1173 1450L1157 1460.5V1603.5L1173 1613.24V1450Z" fill="#800080"/>
<path d="M1173 1450L1157 1460.5V1603.5L1173 1613.24V1450Z" fill="#800080"/>
<path d="M1173 1450L1157 1460.5V1603.5L1173 1613.24V1450Z" fill="#800080"/>
<path d="M1173 1450L1157 1460.5V1603.5L1173 1613.24V1450Z" stroke="#780078"/>
<path d="M1173 1613L1157 1603.5L1047 1668.5V1688.5L1173 1613Z" fill="#FF00FF"/>
<path d="M1173 1626.5V1613L1047 1688.5V1704L1173 1626.5Z" fill="#B400B4"/>
<path d="M1394 868L1378 878.5V1021.5L1394 1031.24V868Z" fill="#800080"/>
<path d="M1394 868L1378 878.5V1021.5L1394 1031.24V868Z" fill="#800080"/>
<path d="M1394 868L1378 878.5V1021.5L1394 1031.24V868Z" fill="#800080"/>
<path d="M1394 868L1378 878.5V1021.5L1394 1031.24V868Z" stroke="#780078"/>
<path d="M1394 1031L1378 1021.5L1268 1086.5V1106.5L1394 1031Z" fill="#FF00FF"/>
<path d="M1394 1044.5V1031L1268 1106.5V1122L1394 1044.5Z" fill="#B400B4"/>
<g filter="url(#filter6_d_1805_384)">
<path d="M1378 878.5L1268 947.5V1086.5L1378 1021.5V878.5Z" fill="#F8FF77"/>
</g>
<path d="M932 1154.5L822 1223.5V1362.5L932 1297.5V1154.5Z" fill="url(#paint25_linear_1805_384)"/>
<path d="M948 1144L932 1154.5V1297.5L948 1307.24V1144Z" fill="#800080"/>
<path d="M948 1144L932 1154.5V1297.5L948 1307.24V1144Z" fill="#800080"/>
<path d="M948 1144L932 1154.5V1297.5L948 1307.24V1144Z" fill="#800080"/>
<path d="M948 1144L932 1154.5V1297.5L948 1307.24V1144Z" stroke="#780078"/>
<path d="M948 1307L932 1297.5L822 1362.5V1382.5L948 1307Z" fill="#FF00FF"/>
<path d="M948 1320.5V1307L822 1382.5V1398L948 1320.5Z" fill="#B400B4"/>
<path d="M1157 1015.5L1047 1084.5V1223.5L1157 1158.5V1015.5Z" fill="url(#paint26_linear_1805_384)"/>
<path d="M1173 1005L1157 1015.5V1158.5L1173 1168.24V1005Z" fill="#800080"/>
<path d="M1173 1005L1157 1015.5V1158.5L1173 1168.24V1005Z" fill="#800080"/>
<path d="M1173 1005L1157 1015.5V1158.5L1173 1168.24V1005Z" fill="#800080"/>
<path d="M1173 1005L1157 1015.5V1158.5L1173 1168.24V1005Z" stroke="#780078"/>
<path d="M1173 1168L1157 1158.5L1047 1223.5V1243.5L1173 1168Z" fill="#FF00FF"/>
<path d="M1173 1181.5V1168L1047 1243.5V1259L1173 1181.5Z" fill="#B400B4"/>
<path d="M1378 1542.5L1268 1611.5V1750.5L1378 1685.5V1542.5Z" fill="url(#paint27_linear_1805_384)"/>
<path d="M1394 1532L1378 1542.5V1685.5L1394 1695.24V1532Z" fill="#800080"/>
<path d="M1394 1532L1378 1542.5V1685.5L1394 1695.24V1532Z" fill="#800080"/>
<path d="M1394 1532L1378 1542.5V1685.5L1394 1695.24V1532Z" fill="#800080"/>
<path d="M1394 1532L1378 1542.5V1685.5L1394 1695.24V1532Z" stroke="#780078"/>
<path d="M1394 1695L1378 1685.5L1268 1750.5V1770.5L1394 1695Z" fill="#FF00FF"/>
<path d="M1394 1708.5V1695L1268 1770.5V1786L1394 1708.5Z" fill="#B400B4"/>
<path d="M948 1971L932 1961.5L822 2026.5V2046.5L948 1971Z" fill="#FF00FF"/>
<path d="M948 1984.5V1971L822 2046.5V2062L948 1984.5Z" fill="#B400B4"/>
<path d="M948 1808L932 1818.5V1961.5L948 1971.24V1808Z" fill="#800080"/>
<path d="M948 1808L932 1818.5V1961.5L948 1971.24V1808Z" fill="#800080"/>
<path d="M948 1808L932 1818.5V1961.5L948 1971.24V1808Z" fill="#800080"/>
<path d="M948 1808L932 1818.5V1961.5L948 1971.24V1808Z" stroke="#780078"/>
<g filter="url(#filter7_d_1805_384)">
<path d="M932 1818.5L822 1887.5V2026.5L932 1961.5V1818.5Z" fill="#F8FF77"/>
</g>
<path d="M1157 1679.5L1047 1748.5V1887.5L1157 1822.5V1679.5Z" fill="url(#paint28_linear_1805_384)"/>
<path d="M1173 1669L1157 1679.5V1822.5L1173 1832.24V1669Z" fill="#800080"/>
<path d="M1173 1669L1157 1679.5V1822.5L1173 1832.24V1669Z" fill="#800080"/>
<path d="M1173 1669L1157 1679.5V1822.5L1173 1832.24V1669Z" fill="#800080"/>
<path d="M1173 1669L1157 1679.5V1822.5L1173 1832.24V1669Z" stroke="#780078"/>
<path d="M1173 1832L1157 1822.5L1047 1887.5V1907.5L1173 1832Z" fill="#FF00FF"/>
<path d="M1173 1845.5V1832L1047 1907.5V1923L1173 1845.5Z" fill="#B400B4"/>
<path d="M1378 1762.5L1268 1831.5V1970.5L1378 1905.5V1762.5Z" fill="url(#paint29_linear_1805_384)"/>
<path d="M1394 1752L1378 1762.5V1905.5L1394 1915.24V1752Z" fill="#800080"/>
<path d="M1394 1752L1378 1762.5V1905.5L1394 1915.24V1752Z" fill="#800080"/>
<path d="M1394 1752L1378 1762.5V1905.5L1394 1915.24V1752Z" fill="#800080"/>
<path d="M1394 1752L1378 1762.5V1905.5L1394 1915.24V1752Z" stroke="#780078"/>
<path d="M1394 1915L1378 1905.5L1268 1970.5V1990.5L1394 1915Z" fill="#FF00FF"/>
<path d="M1394 1928.5V1915L1268 1990.5V2006L1394 1928.5Z" fill="#B400B4"/>
<path d="M932 2038.5L822 2107.5V2246.5L932 2181.5V2038.5Z" fill="url(#paint30_linear_1805_384)"/>
<path d="M948 2028L932 2038.5V2181.5L948 2191.24V2028Z" fill="#800080"/>
<path d="M948 2028L932 2038.5V2181.5L948 2191.24V2028Z" fill="#800080"/>
<path d="M948 2028L932 2038.5V2181.5L948 2191.24V2028Z" fill="#800080"/>
<path d="M948 2028L932 2038.5V2181.5L948 2191.24V2028Z" stroke="#780078"/>
<path d="M948 2191L932 2181.5L822 2246.5V2266.5L948 2191Z" fill="#FF00FF"/>
<path d="M948 2204.5V2191L822 2266.5V2282L948 2204.5Z" fill="#B400B4"/>
<path d="M1157 1899.5L1047 1968.5V2107.5L1157 2042.5V1899.5Z" fill="url(#paint31_linear_1805_384)"/>
<path d="M1173 1889L1157 1899.5V2042.5L1173 2052.24V1889Z" fill="#800080"/>
<path d="M1173 1889L1157 1899.5V2042.5L1173 2052.24V1889Z" fill="#800080"/>
<path d="M1173 1889L1157 1899.5V2042.5L1173 2052.24V1889Z" fill="#800080"/>
<path d="M1173 1889L1157 1899.5V2042.5L1173 2052.24V1889Z" stroke="#780078"/>
<path d="M1173 2052L1157 2042.5L1047 2107.5V2127.5L1173 2052Z" fill="#FF00FF"/>
<path d="M1173 2065.5V2052L1047 2127.5V2143L1173 2065.5Z" fill="#B400B4"/>
<g filter="url(#filter8_d_1805_384)">
<path d="M1157 1237L1047 1306V1445L1157 1380V1237Z" fill="#F8FF77"/>
</g>
<g filter="url(#filter9_d_1805_384)">
<path d="M1378 1982L1268 2051V2190L1378 2125V1982Z" fill="#F8FF77"/>
</g>
<path d="M165 1098.5L275 1167.5V1306.5L165 1241.5V1098.5Z" fill="url(#paint32_linear_1805_384)"/>
<path d="M149 1088L165 1098.5V1241.5L149 1251.24V1088Z" fill="#FF1CFF"/>
<path d="M149 1088L165 1098.5V1241.5L149 1251.24V1088Z" fill="#FF1CFF"/>
<path d="M149 1088L165 1098.5V1241.5L149 1251.24V1088Z" fill="#FF1CFF"/>
<path d="M149 1088L165 1098.5V1241.5L149 1251.24V1088Z" stroke="#FF1CFF"/>
<path d="M149 1251L165 1241.5L275 1306.5V1326.5L149 1251Z" fill="#FDA6FF"/>
<path d="M149 1264.5V1251L275 1326.5V1342L149 1264.5Z" fill="#B400B4"/>
<path d="M595 1364L611 1374.5V1517.5L595 1527.24V1364Z" fill="#FF1CFF"/>
<path d="M595 1364L611 1374.5V1517.5L595 1527.24V1364Z" fill="#FF1CFF"/>
<path d="M595 1364L611 1374.5V1517.5L595 1527.24V1364Z" fill="#FF1CFF"/>
<path d="M595 1364L611 1374.5V1517.5L595 1527.24V1364Z" stroke="#FF1CFF"/>
<path d="M595 1527L611 1517.5L721 1582.5V1602.5L595 1527Z" fill="#FDA6FF"/>
<path d="M595 1540.5V1527L721 1602.5V1618L595 1540.5Z" fill="#B400B4"/>
<g filter="url(#filter10_d_1805_384)">
<path d="M611 1374.5L721 1443.5V1582.5L611 1517.5V1374.5Z" fill="url(#paint33_linear_1805_384)"/>
</g>
<path d="M386 1235.5L496 1304.5V1443.5L386 1378.5V1235.5Z" fill="url(#paint34_linear_1805_384)"/>
<path d="M370 1225L386 1235.5V1378.5L370 1388.24V1225Z" fill="#FF1CFF"/>
<path d="M370 1225L386 1235.5V1378.5L370 1388.24V1225Z" fill="#FF1CFF"/>
<path d="M370 1225L386 1235.5V1378.5L370 1388.24V1225Z" fill="#FF1CFF"/>
<path d="M370 1225L386 1235.5V1378.5L370 1388.24V1225Z" stroke="#FF1CFF"/>
<path d="M370 1388L386 1378.5L496 1443.5V1463.5L370 1388Z" fill="#FDA6FF"/>
<path d="M370 1401.5V1388L496 1463.5V1479L370 1401.5Z" fill="#B400B4"/>
<path d="M165 659.5L275 728.5V867.5L165 802.5V659.5Z" fill="url(#paint35_linear_1805_384)"/>
<path d="M149 649L165 659.5V802.5L149 812.24V649Z" fill="#FF1CFF"/>
<path d="M149 649L165 659.5V802.5L149 812.24V649Z" fill="#FF1CFF"/>
<path d="M149 649L165 659.5V802.5L149 812.24V649Z" fill="#FF1CFF"/>
<path d="M149 649L165 659.5V802.5L149 812.24V649Z" stroke="#FF1CFF"/>
<path d="M149 812L165 802.5L275 867.5V887.5L149 812Z" fill="#FDA6FF"/>
<path d="M149 825.5V812L275 887.5V903L149 825.5Z" fill="#B400B4"/>
<path d="M595 925L611 935.5V1078.5L595 1088.24V925Z" fill="#FF1CFF"/>
<path d="M595 925L611 935.5V1078.5L595 1088.24V925Z" fill="#FF1CFF"/>
<path d="M595 925L611 935.5V1078.5L595 1088.24V925Z" fill="#FF1CFF"/>
<path d="M595 925L611 935.5V1078.5L595 1088.24V925Z" stroke="#FF1CFF"/>
<path d="M595 1088L611 1078.5L721 1143.5V1163.5L595 1088Z" fill="#FDA6FF"/>
<path d="M595 1101.5V1088L721 1163.5V1179L595 1101.5Z" fill="#B400B4"/>
<g filter="url(#filter11_d_1805_384)">
<path d="M611 935.5L721 1004.5V1143.5L611 1078.5V935.5Z" fill="url(#paint36_linear_1805_384)"/>
</g>
<path d="M386 796.5L496 865.5V1004.5L386 939.5V796.5Z" fill="url(#paint37_linear_1805_384)"/>
<path d="M370 786L386 796.5V939.5L370 949.24V786Z" fill="#FF1CFF"/>
<path d="M370 786L386 796.5V939.5L370 949.24V786Z" fill="#FF1CFF"/>
<path d="M370 786L386 796.5V939.5L370 949.24V786Z" fill="#FF1CFF"/>
<path d="M370 786L386 796.5V939.5L370 949.24V786Z" stroke="#FF1CFF"/>
<path d="M370 949L386 939.5L496 1004.5V1024.5L370 949Z" fill="#FDA6FF"/>
<path d="M370 962.5V949L496 1024.5V1040L370 962.5Z" fill="#B400B4"/>
<path d="M165 659.5L275 728.5V867.5L165 802.5V659.5Z" fill="url(#paint38_linear_1805_384)"/>
<path d="M149 649L165 659.5V802.5L149 812.24V649Z" fill="#FF1CFF"/>
<path d="M149 649L165 659.5V802.5L149 812.24V649Z" fill="#FF1CFF"/>
<path d="M149 649L165 659.5V802.5L149 812.24V649Z" fill="#FF1CFF"/>
<path d="M149 649L165 659.5V802.5L149 812.24V649Z" stroke="#FF1CFF"/>
<path d="M149 812L165 802.5L275 867.5V887.5L149 812Z" fill="#FDA6FF"/>
<path d="M149 825.5V812L275 887.5V903L149 825.5Z" fill="#B400B4"/>
<path d="M595 925L611 935.5V1078.5L595 1088.24V925Z" fill="#FF1CFF"/>
<path d="M595 925L611 935.5V1078.5L595 1088.24V925Z" fill="#FF1CFF"/>
<path d="M595 925L611 935.5V1078.5L595 1088.24V925Z" fill="#FF1CFF"/>
<path d="M595 925L611 935.5V1078.5L595 1088.24V925Z" stroke="#FF1CFF"/>
<path d="M595 1088L611 1078.5L721 1143.5V1163.5L595 1088Z" fill="#FDA6FF"/>
<path d="M595 1101.5V1088L721 1163.5V1179L595 1101.5Z" fill="#B400B4"/>
<g filter="url(#filter12_d_1805_384)">
<path d="M611 935.5L721 1004.5V1143.5L611 1078.5V935.5Z" fill="url(#paint39_linear_1805_384)"/>
</g>
<path d="M386 796.5L496 865.5V1004.5L386 939.5V796.5Z" fill="url(#paint40_linear_1805_384)"/>
<path d="M370 786L386 796.5V939.5L370 949.24V786Z" fill="#FF1CFF"/>
<path d="M370 786L386 796.5V939.5L370 949.24V786Z" fill="#FF1CFF"/>
<path d="M370 786L386 796.5V939.5L370 949.24V786Z" fill="#FF1CFF"/>
<path d="M370 786L386 796.5V939.5L370 949.24V786Z" stroke="#FF1CFF"/>
<path d="M370 949L386 939.5L496 1004.5V1024.5L370 949Z" fill="#FDA6FF"/>
<path d="M370 962.5V949L496 1024.5V1040L370 962.5Z" fill="#B400B4"/>
<path d="M165 1980.5L275 2049.5V2188.5L165 2123.5V1980.5Z" fill="url(#paint41_linear_1805_384)"/>
<path d="M149 1970L165 1980.5V2123.5L149 2133.24V1970Z" fill="#FF1CFF"/>
<path d="M149 1970L165 1980.5V2123.5L149 2133.24V1970Z" fill="#FF1CFF"/>
<path d="M149 1970L165 1980.5V2123.5L149 2133.24V1970Z" fill="#FF1CFF"/>
<path d="M149 1970L165 1980.5V2123.5L149 2133.24V1970Z" stroke="#FF1CFF"/>
<path d="M149 2133L165 2123.5L275 2188.5V2208.5L149 2133Z" fill="#FDA6FF"/>
<path d="M149 2146.5V2133L275 2208.5V2224L149 2146.5Z" fill="#B400B4"/>
<path d="M611 2253.5L721 2322.5V2461.5L611 2396.5V2253.5Z" fill="url(#paint42_linear_1805_384)"/>
<path d="M595 2243L611 2253.5V2396.5L595 2406.24V2243Z" fill="#FF1CFF"/>
<path d="M595 2243L611 2253.5V2396.5L595 2406.24V2243Z" fill="#FF1CFF"/>
<path d="M595 2243L611 2253.5V2396.5L595 2406.24V2243Z" fill="#FF1CFF"/>
<path d="M595 2243L611 2253.5V2396.5L595 2406.24V2243Z" stroke="#FF1CFF"/>
<path d="M595 2406L611 2396.5L721 2461.5V2481.5L595 2406Z" fill="#FDA6FF"/>
<path d="M595 2419.5V2406L721 2481.5V2497L595 2419.5Z" fill="#B400B4"/>
<path d="M149 1312L165 1322.5V1465.5L149 1475.24V1312Z" fill="#FF1CFF"/>
<path d="M149 1312L165 1322.5V1465.5L149 1475.24V1312Z" fill="#FF1CFF"/>
<path d="M149 1312L165 1322.5V1465.5L149 1475.24V1312Z" fill="#FF1CFF"/>
<path d="M149 1312L165 1322.5V1465.5L149 1475.24V1312Z" stroke="#FF1CFF"/>
<path d="M149 1475L165 1465.5L275 1530.5V1550.5L149 1475Z" fill="#FDA6FF"/>
<path d="M149 1488.5V1475L275 1550.5V1566L149 1488.5Z" fill="#B400B4"/>
<g filter="url(#filter13_d_1805_384)">
<path d="M165 1322.5L275 1391.5V1530.5L165 1465.5V1322.5Z" fill="url(#paint43_linear_1805_384)"/>
</g>
<path d="M611 1598.5L721 1667.5V1806.5L611 1741.5V1598.5Z" fill="url(#paint44_linear_1805_384)"/>
<path d="M595 1588L611 1598.5V1741.5L595 1751.24V1588Z" fill="#FF1CFF"/>
<path d="M595 1588L611 1598.5V1741.5L595 1751.24V1588Z" fill="#FF1CFF"/>
<path d="M595 1588L611 1598.5V1741.5L595 1751.24V1588Z" fill="#FF1CFF"/>
<path d="M595 1588L611 1598.5V1741.5L595 1751.24V1588Z" stroke="#FF1CFF"/>
<path d="M595 1751L611 1741.5L721 1806.5V1826.5L595 1751Z" fill="#FDA6FF"/>
<path d="M595 1764.5V1751L721 1826.5V1842L595 1764.5Z" fill="#B400B4"/>
<path d="M386 1459.5L496 1528.5V1667.5L386 1602.5V1459.5Z" fill="url(#paint45_linear_1805_384)"/>
<path d="M370 1449L386 1459.5V1602.5L370 1612.24V1449Z" fill="#FF1CFF"/>
<path d="M370 1449L386 1459.5V1602.5L370 1612.24V1449Z" fill="#FF1CFF"/>
<path d="M370 1449L386 1459.5V1602.5L370 1612.24V1449Z" fill="#FF1CFF"/>
<path d="M370 1449L386 1459.5V1602.5L370 1612.24V1449Z" stroke="#FF1CFF"/>
<path d="M370 1612L386 1602.5L496 1667.5V1687.5L370 1612Z" fill="#FDA6FF"/>
<path d="M370 1625.5V1612L496 1687.5V1703L370 1625.5Z" fill="#B400B4"/>
<path d="M149 867L165 877.5V1020.5L149 1030.24V867Z" fill="#FF1CFF"/>
<path d="M149 867L165 877.5V1020.5L149 1030.24V867Z" fill="#FF1CFF"/>
<path d="M149 867L165 877.5V1020.5L149 1030.24V867Z" fill="#FF1CFF"/>
<path d="M149 867L165 877.5V1020.5L149 1030.24V867Z" stroke="#FF1CFF"/>
<path d="M149 1030L165 1020.5L275 1085.5V1105.5L149 1030Z" fill="#FDA6FF"/>
<path d="M149 1043.5V1030L275 1105.5V1121L149 1043.5Z" fill="#B400B4"/>
<g filter="url(#filter14_d_1805_384)">
<path d="M165 877.5L275 946.5V1085.5L165 1020.5V877.5Z" fill="url(#paint46_linear_1805_384)"/>
</g>
<path d="M611 1153.5L721 1222.5V1361.5L611 1296.5V1153.5Z" fill="url(#paint47_linear_1805_384)"/>
<path d="M595 1143L611 1153.5V1296.5L595 1306.24V1143Z" fill="#FF1CFF"/>
<path d="M595 1143L611 1153.5V1296.5L595 1306.24V1143Z" fill="#FF1CFF"/>
<path d="M595 1143L611 1153.5V1296.5L595 1306.24V1143Z" fill="#FF1CFF"/>
<path d="M595 1143L611 1153.5V1296.5L595 1306.24V1143Z" stroke="#FF1CFF"/>
<path d="M595 1306L611 1296.5L721 1361.5V1381.5L595 1306Z" fill="#FDA6FF"/>
<path d="M595 1319.5V1306L721 1381.5V1397L595 1319.5Z" fill="#B400B4"/>
<path d="M386 1014.5L496 1083.5V1222.5L386 1157.5V1014.5Z" fill="url(#paint48_linear_1805_384)"/>
<path d="M370 1004L386 1014.5V1157.5L370 1167.24V1004Z" fill="#FF1CFF"/>
<path d="M370 1004L386 1014.5V1157.5L370 1167.24V1004Z" fill="#FF1CFF"/>
<path d="M370 1004L386 1014.5V1157.5L370 1167.24V1004Z" fill="#FF1CFF"/>
<path d="M370 1004L386 1014.5V1157.5L370 1167.24V1004Z" stroke="#FF1CFF"/>
<path d="M370 1167L386 1157.5L496 1222.5V1242.5L370 1167Z" fill="#FDA6FF"/>
<path d="M370 1180.5V1167L496 1242.5V1258L370 1180.5Z" fill="#B400B4"/>
<path d="M165 1541.5L275 1610.5V1749.5L165 1684.5V1541.5Z" fill="url(#paint49_linear_1805_384)"/>
<path d="M149 1531L165 1541.5V1684.5L149 1694.24V1531Z" fill="#FF1CFF"/>
<path d="M149 1531L165 1541.5V1684.5L149 1694.24V1531Z" fill="#FF1CFF"/>
<path d="M149 1531L165 1541.5V1684.5L149 1694.24V1531Z" fill="#FF1CFF"/>
<path d="M149 1531L165 1541.5V1684.5L149 1694.24V1531Z" stroke="#FF1CFF"/>
<path d="M149 1694L165 1684.5L275 1749.5V1769.5L149 1694Z" fill="#FDA6FF"/>
<path d="M149 1707.5V1694L275 1769.5V1785L149 1707.5Z" fill="#B400B4"/>
<path d="M595 1970L611 1960.5L721 2025.5V2045.5L595 1970Z" fill="#FDA6FF"/>
<path d="M595 1983.5V1970L721 2045.5V2061L595 1983.5Z" fill="#B400B4"/>
<path d="M595 1807L611 1817.5V1960.5L595 1970.24V1807Z" fill="#FF1CFF"/>
<path d="M595 1807L611 1817.5V1960.5L595 1970.24V1807Z" fill="#FF1CFF"/>
<path d="M595 1807L611 1817.5V1960.5L595 1970.24V1807Z" fill="#FF1CFF"/>
<path d="M595 1807L611 1817.5V1960.5L595 1970.24V1807Z" stroke="#FF1CFF"/>
<g filter="url(#filter15_d_1805_384)">
<path d="M611 1817.5L721 1886.5V2025.5L611 1960.5V1817.5Z" fill="url(#paint50_linear_1805_384)"/>
</g>
<path d="M386 1678.5L496 1747.5V1886.5L386 1821.5V1678.5Z" fill="url(#paint51_linear_1805_384)"/>
<path d="M370 1668L386 1678.5V1821.5L370 1831.24V1668Z" fill="#FF1CFF"/>
<path d="M370 1668L386 1678.5V1821.5L370 1831.24V1668Z" fill="#FF1CFF"/>
<path d="M370 1668L386 1678.5V1821.5L370 1831.24V1668Z" fill="#FF1CFF"/>
<path d="M370 1668L386 1678.5V1821.5L370 1831.24V1668Z" stroke="#FF1CFF"/>
<path d="M370 1831L386 1821.5L496 1886.5V1906.5L370 1831Z" fill="#FDA6FF"/>
<path d="M370 1844.5V1831L496 1906.5V1922L370 1844.5Z" fill="#B400B4"/>
<path d="M165 1761.5L275 1830.5V1969.5L165 1904.5V1761.5Z" fill="url(#paint52_linear_1805_384)"/>
<path d="M149 1751L165 1761.5V1904.5L149 1914.24V1751Z" fill="#FF1CFF"/>
<path d="M149 1751L165 1761.5V1904.5L149 1914.24V1751Z" fill="#FF1CFF"/>
<path d="M149 1751L165 1761.5V1904.5L149 1914.24V1751Z" fill="#FF1CFF"/>
<path d="M149 1751L165 1761.5V1904.5L149 1914.24V1751Z" stroke="#FF1CFF"/>
<path d="M149 1914L165 1904.5L275 1969.5V1989.5L149 1914Z" fill="#FDA6FF"/>
<path d="M149 1927.5V1914L275 1989.5V2005L149 1927.5Z" fill="#B400B4"/>
<path d="M611 2037.5L721 2106.5V2245.5L611 2180.5V2037.5Z" fill="url(#paint53_linear_1805_384)"/>
<path d="M595 2027L611 2037.5V2180.5L595 2190.24V2027Z" fill="#FF1CFF"/>
<path d="M595 2027L611 2037.5V2180.5L595 2190.24V2027Z" fill="#FF1CFF"/>
<path d="M595 2027L611 2037.5V2180.5L595 2190.24V2027Z" fill="#FF1CFF"/>
<path d="M595 2027L611 2037.5V2180.5L595 2190.24V2027Z" stroke="#FF1CFF"/>
<path d="M595 2190L611 2180.5L721 2245.5V2265.5L595 2190Z" fill="#FDA6FF"/>
<path d="M595 2203.5V2190L721 2265.5V2281L595 2203.5Z" fill="#B400B4"/>
<path d="M386 1898.5L496 1967.5V2106.5L386 2041.5V1898.5Z" fill="url(#paint54_linear_1805_384)"/>
<path d="M370 1888L386 1898.5V2041.5L370 2051.24V1888Z" fill="#FF1CFF"/>
<path d="M370 1888L386 1898.5V2041.5L370 2051.24V1888Z" fill="#FF1CFF"/>
<path d="M370 1888L386 1898.5V2041.5L370 2051.24V1888Z" fill="#FF1CFF"/>
<path d="M370 1888L386 1898.5V2041.5L370 2051.24V1888Z" stroke="#FF1CFF"/>
<path d="M370 2051L386 2041.5L496 2106.5V2126.5L370 2051Z" fill="#FDA6FF"/>
<path d="M370 2064.5V2051L496 2126.5V2142L370 2064.5Z" fill="#B400B4"/>
<path d="M386 2113.5L496 2182.5V2321.5L386 2256.5V2113.5Z" fill="url(#paint55_linear_1805_384)"/>
<path d="M370 2103L386 2113.5V2256.5L370 2266.24V2103Z" fill="#FF1CFF"/>
<path d="M370 2103L386 2113.5V2256.5L370 2266.24V2103Z" fill="#FF1CFF"/>
<path d="M370 2103L386 2113.5V2256.5L370 2266.24V2103Z" fill="#FF1CFF"/>
<path d="M370 2103L386 2113.5V2256.5L370 2266.24V2103Z" stroke="#FF1CFF"/>
<path d="M370 2266L386 2256.5L496 2321.5V2341.5L370 2266Z" fill="#FDA6FF"/>
<path d="M370 2279.5V2266L496 2341.5V2357L370 2279.5Z" fill="#B400B4"/>
<g filter="url(#filter16_d_1805_384)">
<path d="M386 1236L496 1305V1444L386 1379V1236Z" fill="url(#paint56_linear_1805_384)"/>
</g>
<g filter="url(#filter17_d_1805_384)">
<path d="M165 1981L275 2050V2189L165 2124V1981Z" fill="url(#paint57_linear_1805_384)"/>
</g>
<path d="M550.002 199.003H551.502H553.002V370.775C551.924 371.087 551.257 371.07 550.002 370.775V199.003Z" fill="url(#paint58_radial_1805_384)"/>
<path d="M405.955 214.932C421.094 252.575 503.521 283.892 562.789 260.055C622.058 236.219 659.61 157.58 644.471 119.938C629.332 82.2953 564.403 122.087 505.134 145.924C445.866 169.761 390.816 177.29 405.955 214.932Z" fill="url(#paint59_linear_1805_384)"/>
<ellipse cx="128.689" cy="59.9263" rx="128.689" ry="59.9263" transform="matrix(-0.927776 0.373136 0.373136 0.927776 622.094 63.0127)" fill="url(#paint60_linear_1805_384)"/>
<path d="M1177.87 500.476H1176.87H1175.87V614.825C1176.59 615.033 1177.03 615.021 1177.87 614.825V500.476Z" fill="url(#paint61_radial_1805_384)"/>
<path d="M1273.76 511.08C1263.68 536.139 1208.81 556.987 1169.35 541.119C1129.9 525.25 1104.9 472.901 1114.98 447.842C1125.06 422.784 1168.28 449.273 1207.73 465.141C1247.19 481.009 1283.84 486.022 1273.76 511.08Z" fill="url(#paint62_linear_1805_384)"/>
<ellipse cx="1194.47" cy="478.925" rx="85.6681" ry="39.8929" transform="rotate(21.9092 1194.47 478.925)" fill="url(#paint63_linear_1805_384)"/>
<defs>
<filter id="filter0_ddddd_1805_384" x="842.6" y="2093.6" width="334.8" height="340.8" filterUnits="userSpaceOnUse" color-interpolation-filters="sRGB">
<feFlood flood-opacity="0" result="BackgroundImageFix"/>
<feColorMatrix in="SourceAlpha" type="matrix" values="0 0 0 0 0 0 0 0 0 0 0 0 0 0 0 0 0 0 127 0" result="hardAlpha"/>
<feMorphology radius="40" operator="dilate" in="SourceAlpha" result="effect1_dropShadow_1805_384"/>
<feOffset dx="-16" dy="12"/>
<feGaussianBlur stdDeviation="33.75"/>
<feComposite in2="hardAlpha" operator="out"/>
<feColorMatrix type="matrix" values="0 0 0 0 1 0 0 0 0 1 0 0 0 0 1 0 0 0 1 0"/>
<feBlend mode="normal" in2="BackgroundImageFix" result="effect1_dropShadow_1805_384"/>
<feColorMatrix in="SourceAlpha" type="matrix" values="0 0 0 0 0 0 0 0 0 0 0 0 0 0 0 0 0 0 127 0" result="hardAlpha"/>
<feOffset dx="-5" dy="1"/>
<feGaussianBlur stdDeviation="7.6"/>
<feComposite in2="hardAlpha" operator="out"/>
<feColorMatrix type="matrix" values="0 0 0 0 1 0 0 0 0 1 0 0 0 0 1 0 0 0 1 0"/>
<feBlend mode="normal" in2="effect1_dropShadow_1805_384" result="effect2_dropShadow_1805_384"/>
<feColorMatrix in="SourceAlpha" type="matrix" values="0 0 0 0 0 0 0 0 0 0 0 0 0 0 0 0 0 0 127 0" result="hardAlpha"/>
<feOffset dx="4" dy="7"/>
<feGaussianBlur stdDeviation="77.7"/>
<feComposite in2="hardAlpha" operator="out"/>
<feColorMatrix type="matrix" values="0 0 0 0 1 0 0 0 0 1 0 0 0 0 1 0 0 0 1 0"/>
<feBlend mode="normal" in2="effect2_dropShadow_1805_384" result="effect3_dropShadow_1805_384"/>
<feColorMatrix in="SourceAlpha" type="matrix" values="0 0 0 0 0 0 0 0 0 0 0 0 0 0 0 0 0 0 127 0" result="hardAlpha"/>
<feOffset dx="4" dy="11"/>
<feGaussianBlur stdDeviation="14.75"/>
<feComposite in2="hardAlpha" operator="out"/>
<feColorMatrix type="matrix" values="0 0 0 0 1 0 0 0 0 1 0 0 0 0 1 0 0 0 1 0"/>
<feBlend mode="normal" in2="effect3_dropShadow_1805_384" result="effect4_dropShadow_1805_384"/>
<feColorMatrix in="SourceAlpha" type="matrix" values="0 0 0 0 0 0 0 0 0 0 0 0 0 0 0 0 0 0 127 0" result="hardAlpha"/>
<feOffset dx="9" dy="7"/>
<feGaussianBlur stdDeviation="26.9"/>
<feComposite in2="hardAlpha" operator="out"/>
<feColorMatrix type="matrix" values="0 0 0 0 1 0 0 0 0 1 0 0 0 0 1 0 0 0 1 0"/>
<feBlend mode="normal" in2="effect4_dropShadow_1805_384" result="effect5_dropShadow_1805_384"/>
<feBlend mode="normal" in="SourceGraphic" in2="effect5_dropShadow_1805_384" result="shape"/>
</filter>
<filter id="filter1_ddddd_1805_384" x="1076.6" y="1965.6" width="334.8" height="340.8" filterUnits="userSpaceOnUse" color-interpolation-filters="sRGB">
<feFlood flood-opacity="0" result="BackgroundImageFix"/>
<feColorMatrix in="SourceAlpha" type="matrix" values="0 0 0 0 0 0 0 0 0 0 0 0 0 0 0 0 0 0 127 0" result="hardAlpha"/>
<feMorphology radius="40" operator="dilate" in="SourceAlpha" result="effect1_dropShadow_1805_384"/>
<feOffset dx="-16" dy="12"/>
<feGaussianBlur stdDeviation="33.75"/>
<feComposite in2="hardAlpha" operator="out"/>
<feColorMatrix type="matrix" values="0 0 0 0 1 0 0 0 0 1 0 0 0 0 1 0 0 0 1 0"/>
<feBlend mode="normal" in2="BackgroundImageFix" result="effect1_dropShadow_1805_384"/>
<feColorMatrix in="SourceAlpha" type="matrix" values="0 0 0 0 0 0 0 0 0 0 0 0 0 0 0 0 0 0 127 0" result="hardAlpha"/>
<feOffset dx="-5" dy="1"/>
<feGaussianBlur stdDeviation="7.6"/>
<feComposite in2="hardAlpha" operator="out"/>
<feColorMatrix type="matrix" values="0 0 0 0 1 0 0 0 0 1 0 0 0 0 1 0 0 0 1 0"/>
<feBlend mode="normal" in2="effect1_dropShadow_1805_384" result="effect2_dropShadow_1805_384"/>
<feColorMatrix in="SourceAlpha" type="matrix" values="0 0 0 0 0 0 0 0 0 0 0 0 0 0 0 0 0 0 127 0" result="hardAlpha"/>
<feOffset dx="4" dy="7"/>
<feGaussianBlur stdDeviation="77.7"/>
<feComposite in2="hardAlpha" operator="out"/>
<feColorMatrix type="matrix" values="0 0 0 0 1 0 0 0 0 1 0 0 0 0 1 0 0 0 1 0"/>
<feBlend mode="normal" in2="effect2_dropShadow_1805_384" result="effect3_dropShadow_1805_384"/>
<feColorMatrix in="SourceAlpha" type="matrix" values="0 0 0 0 0 0 0 0 0 0 0 0 0 0 0 0 0 0 127 0" result="hardAlpha"/>
<feOffset dx="4" dy="11"/>
<feGaussianBlur stdDeviation="14.75"/>
<feComposite in2="hardAlpha" operator="out"/>
<feColorMatrix type="matrix" values="0 0 0 0 1 0 0 0 0 1 0 0 0 0 1 0 0 0 1 0"/>
<feBlend mode="normal" in2="effect3_dropShadow_1805_384" result="effect4_dropShadow_1805_384"/>
<feColorMatrix in="SourceAlpha" type="matrix" values="0 0 0 0 0 0 0 0 0 0 0 0 0 0 0 0 0 0 127 0" result="hardAlpha"/>
<feOffset dx="9" dy="7"/>
<feGaussianBlur stdDeviation="26.9"/>
<feComposite in2="hardAlpha" operator="out"/>
<feColorMatrix type="matrix" values="0 0 0 0 1 0 0 0 0 1 0 0 0 0 1 0 0 0 1 0"/>
<feBlend mode="normal" in2="effect4_dropShadow_1805_384" result="effect5_dropShadow_1805_384"/>
<feBlend mode="normal" in="SourceGraphic" in2="effect5_dropShadow_1805_384" result="shape"/>
</filter>
<filter id="filter2_d_1805_384" x="765.7" y="1327.2" width="226.6" height="324.6" filterUnits="userSpaceOnUse" color-interpolation-filters="sRGB">
<feFlood flood-opacity="0" result="BackgroundImageFix"/>
<feColorMatrix in="SourceAlpha" type="matrix" values="0 0 0 0 0 0 0 0 0 0 0 0 0 0 0 0 0 0 127 0" result="hardAlpha"/>
<feOffset dx="2" dy="10"/>
<feGaussianBlur stdDeviation="29.15"/>
<feComposite in2="hardAlpha" operator="out"/>
<feColorMatrix type="matrix" values="0 0 0 0 1 0 0 0 0 1 0 0 0 0 1 0 0 0 1 0"/>
<feBlend mode="normal" in2="BackgroundImageFix" result="effect1_dropShadow_1805_384"/>
<feBlend mode="normal" in="SourceGraphic" in2="effect1_dropShadow_1805_384" result="shape"/>
</filter>
<filter id="filter3_d_1805_384" x="765.7" y="888.2" width="226.6" height="324.6" filterUnits="userSpaceOnUse" color-interpolation-filters="sRGB">
<feFlood flood-opacity="0" result="BackgroundImageFix"/>
<feColorMatrix in="SourceAlpha" type="matrix" values="0 0 0 0 0 0 0 0 0 0 0 0 0 0 0 0 0 0 127 0" result="hardAlpha"/>
<feOffset dx="2" dy="10"/>
<feGaussianBlur stdDeviation="29.15"/>
<feComposite in2="hardAlpha" operator="out"/>
<feColorMatrix type="matrix" values="0 0 0 0 1 0 0 0 0 1 0 0 0 0 1 0 0 0 1 0"/>
<feBlend mode="normal" in2="BackgroundImageFix" result="effect1_dropShadow_1805_384"/>
<feBlend mode="normal" in="SourceGraphic" in2="effect1_dropShadow_1805_384" result="shape"/>
</filter>
<filter id="filter4_d_1805_384" x="765.7" y="888.2" width="226.6" height="324.6" filterUnits="userSpaceOnUse" color-interpolation-filters="sRGB">
<feFlood flood-opacity="0" result="BackgroundImageFix"/>
<feColorMatrix in="SourceAlpha" type="matrix" values="0 0 0 0 0 0 0 0 0 0 0 0 0 0 0 0 0 0 127 0" result="hardAlpha"/>
<feOffset dx="2" dy="10"/>
<feGaussianBlur stdDeviation="29.15"/>
<feComposite in2="hardAlpha" operator="out"/>
<feColorMatrix type="matrix" values="0 0 0 0 1 0 0 0 0 1 0 0 0 0 1 0 0 0 1 0"/>
<feBlend mode="normal" in2="BackgroundImageFix" result="effect1_dropShadow_1805_384"/>
<feBlend mode="normal" in="SourceGraphic" in2="effect1_dropShadow_1805_384" result="shape"/>
</filter>
<filter id="filter5_d_1805_384" x="1243.1" y="1299.6" width="165.8" height="263.8" filterUnits="userSpaceOnUse" color-interpolation-filters="sRGB">
<feFlood flood-opacity="0" result="BackgroundImageFix"/>
<feColorMatrix in="SourceAlpha" type="matrix" values="0 0 0 0 0 0 0 0 0 0 0 0 0 0 0 0 0 0 127 0" result="hardAlpha"/>
<feOffset dx="3" dy="4"/>
<feGaussianBlur stdDeviation="13.95"/>
<feComposite in2="hardAlpha" operator="out"/>
<feColorMatrix type="matrix" values="0 0 0 0 1 0 0 0 0 1 0 0 0 0 1 0 0 0 1 0"/>
<feBlend mode="normal" in2="BackgroundImageFix" result="effect1_dropShadow_1805_384"/>
<feBlend mode="normal" in="SourceGraphic" in2="effect1_dropShadow_1805_384" result="shape"/>
</filter>
<filter id="filter6_d_1805_384" x="1243.1" y="854.6" width="165.8" height="263.8" filterUnits="userSpaceOnUse" color-interpolation-filters="sRGB">
<feFlood flood-opacity="0" result="BackgroundImageFix"/>
<feColorMatrix in="SourceAlpha" type="matrix" values="0 0 0 0 0 0 0 0 0 0 0 0 0 0 0 0 0 0 127 0" result="hardAlpha"/>
<feOffset dx="3" dy="4"/>
<feGaussianBlur stdDeviation="13.95"/>
<feComposite in2="hardAlpha" operator="out"/>
<feColorMatrix type="matrix" values="0 0 0 0 1 0 0 0 0 1 0 0 0 0 1 0 0 0 1 0"/>
<feBlend mode="normal" in2="BackgroundImageFix" result="effect1_dropShadow_1805_384"/>
<feBlend mode="normal" in="SourceGraphic" in2="effect1_dropShadow_1805_384" result="shape"/>
</filter>
<filter id="filter7_d_1805_384" x="804.3" y="1798.8" width="157.4" height="255.4" filterUnits="userSpaceOnUse" color-interpolation-filters="sRGB">
<feFlood flood-opacity="0" result="BackgroundImageFix"/>
<feColorMatrix in="SourceAlpha" type="matrix" values="0 0 0 0 0 0 0 0 0 0 0 0 0 0 0 0 0 0 127 0" result="hardAlpha"/>
<feOffset dx="6" dy="4"/>
<feGaussianBlur stdDeviation="11.85"/>
<feComposite in2="hardAlpha" operator="out"/>
<feColorMatrix type="matrix" values="0 0 0 0 1 0 0 0 0 1 0 0 0 0 1 0 0 0 1 0"/>
<feBlend mode="normal" in2="BackgroundImageFix" result="effect1_dropShadow_1805_384"/>
<feBlend mode="normal" in="SourceGraphic" in2="effect1_dropShadow_1805_384" result="shape"/>
</filter>
<filter id="filter8_d_1805_384" x="1022.1" y="1213.1" width="165.8" height="263.8" filterUnits="userSpaceOnUse" color-interpolation-filters="sRGB">
<feFlood flood-opacity="0" result="BackgroundImageFix"/>
<feColorMatrix in="SourceAlpha" type="matrix" values="0 0 0 0 0 0 0 0 0 0 0 0 0 0 0 0 0 0 127 0" result="hardAlpha"/>
<feOffset dx="3" dy="4"/>
<feGaussianBlur stdDeviation="13.95"/>
<feComposite in2="hardAlpha" operator="out"/>
<feColorMatrix type="matrix" values="0 0 0 0 1 0 0 0 0 1 0 0 0 0 1 0 0 0 1 0"/>
<feBlend mode="normal" in2="BackgroundImageFix" result="effect1_dropShadow_1805_384"/>
<feBlend mode="normal" in="SourceGraphic" in2="effect1_dropShadow_1805_384" result="shape"/>
</filter>
<filter id="filter9_d_1805_384" x="1243.1" y="1958.1" width="165.8" height="263.8" filterUnits="userSpaceOnUse" color-interpolation-filters="sRGB">
<feFlood flood-opacity="0" result="BackgroundImageFix"/>
<feColorMatrix in="SourceAlpha" type="matrix" values="0 0 0 0 0 0 0 0 0 0 0 0 0 0 0 0 0 0 127 0" result="hardAlpha"/>
<feOffset dx="3" dy="4"/>
<feGaussianBlur stdDeviation="13.95"/>
<feComposite in2="hardAlpha" operator="out"/>
<feColorMatrix type="matrix" values="0 0 0 0 1 0 0 0 0 1 0 0 0 0 1 0 0 0 1 0"/>
<feBlend mode="normal" in2="BackgroundImageFix" result="effect1_dropShadow_1805_384"/>
<feBlend mode="normal" in="SourceGraphic" in2="effect1_dropShadow_1805_384" result="shape"/>
</filter>
<filter id="filter10_d_1805_384" x="554.7" y="1326.2" width="226.6" height="324.6" filterUnits="userSpaceOnUse" color-interpolation-filters="sRGB">
<feFlood flood-opacity="0" result="BackgroundImageFix"/>
<feColorMatrix in="SourceAlpha" type="matrix" values="0 0 0 0 0 0 0 0 0 0 0 0 0 0 0 0 0 0 127 0" result="hardAlpha"/>
<feOffset dx="2" dy="10"/>
<feGaussianBlur stdDeviation="29.15"/>
<feComposite in2="hardAlpha" operator="out"/>
<feColorMatrix type="matrix" values="0 0 0 0 1 0 0 0 0 1 0 0 0 0 1 0 0 0 1 0"/>
<feBlend mode="normal" in2="BackgroundImageFix" result="effect1_dropShadow_1805_384"/>
<feBlend mode="normal" in="SourceGraphic" in2="effect1_dropShadow_1805_384" result="shape"/>
</filter>
<filter id="filter11_d_1805_384" x="554.7" y="887.2" width="226.6" height="324.6" filterUnits="userSpaceOnUse" color-interpolation-filters="sRGB">
<feFlood flood-opacity="0" result="BackgroundImageFix"/>
<feColorMatrix in="SourceAlpha" type="matrix" values="0 0 0 0 0 0 0 0 0 0 0 0 0 0 0 0 0 0 127 0" result="hardAlpha"/>
<feOffset dx="2" dy="10"/>
<feGaussianBlur stdDeviation="29.15"/>
<feComposite in2="hardAlpha" operator="out"/>
<feColorMatrix type="matrix" values="0 0 0 0 1 0 0 0 0 1 0 0 0 0 1 0 0 0 1 0"/>
<feBlend mode="normal" in2="BackgroundImageFix" result="effect1_dropShadow_1805_384"/>
<feBlend mode="normal" in="SourceGraphic" in2="effect1_dropShadow_1805_384" result="shape"/>
</filter>
<filter id="filter12_d_1805_384" x="554.7" y="887.2" width="226.6" height="324.6" filterUnits="userSpaceOnUse" color-interpolation-filters="sRGB">
<feFlood flood-opacity="0" result="BackgroundImageFix"/>
<feColorMatrix in="SourceAlpha" type="matrix" values="0 0 0 0 0 0 0 0 0 0 0 0 0 0 0 0 0 0 127 0" result="hardAlpha"/>
<feOffset dx="2" dy="10"/>
<feGaussianBlur stdDeviation="29.15"/>
<feComposite in2="hardAlpha" operator="out"/>
<feColorMatrix type="matrix" values="0 0 0 0 1 0 0 0 0 1 0 0 0 0 1 0 0 0 1 0"/>
<feBlend mode="normal" in2="BackgroundImageFix" result="effect1_dropShadow_1805_384"/>
<feBlend mode="normal" in="SourceGraphic" in2="effect1_dropShadow_1805_384" result="shape"/>
</filter>
<filter id="filter13_d_1805_384" x="140.1" y="1298.6" width="165.8" height="263.8" filterUnits="userSpaceOnUse" color-interpolation-filters="sRGB">
<feFlood flood-opacity="0" result="BackgroundImageFix"/>
<feColorMatrix in="SourceAlpha" type="matrix" values="0 0 0 0 0 0 0 0 0 0 0 0 0 0 0 0 0 0 127 0" result="hardAlpha"/>
<feOffset dx="3" dy="4"/>
<feGaussianBlur stdDeviation="13.95"/>
<feComposite in2="hardAlpha" operator="out"/>
<feColorMatrix type="matrix" values="0 0 0 0 1 0 0 0 0 1 0 0 0 0 1 0 0 0 1 0"/>
<feBlend mode="normal" in2="BackgroundImageFix" result="effect1_dropShadow_1805_384"/>
<feBlend mode="normal" in="SourceGraphic" in2="effect1_dropShadow_1805_384" result="shape"/>
</filter>
<filter id="filter14_d_1805_384" x="140.1" y="853.6" width="165.8" height="263.8" filterUnits="userSpaceOnUse" color-interpolation-filters="sRGB">
<feFlood flood-opacity="0" result="BackgroundImageFix"/>
<feColorMatrix in="SourceAlpha" type="matrix" values="0 0 0 0 0 0 0 0 0 0 0 0 0 0 0 0 0 0 127 0" result="hardAlpha"/>
<feOffset dx="3" dy="4"/>
<feGaussianBlur stdDeviation="13.95"/>
<feComposite in2="hardAlpha" operator="out"/>
<feColorMatrix type="matrix" values="0 0 0 0 1 0 0 0 0 1 0 0 0 0 1 0 0 0 1 0"/>
<feBlend mode="normal" in2="BackgroundImageFix" result="effect1_dropShadow_1805_384"/>
<feBlend mode="normal" in="SourceGraphic" in2="effect1_dropShadow_1805_384" result="shape"/>
</filter>
<filter id="filter15_d_1805_384" x="593.3" y="1797.8" width="157.4" height="255.4" filterUnits="userSpaceOnUse" color-interpolation-filters="sRGB">
<feFlood flood-opacity="0" result="BackgroundImageFix"/>
<feColorMatrix in="SourceAlpha" type="matrix" values="0 0 0 0 0 0 0 0 0 0 0 0 0 0 0 0 0 0 127 0" result="hardAlpha"/>
<feOffset dx="6" dy="4"/>
<feGaussianBlur stdDeviation="11.85"/>
<feComposite in2="hardAlpha" operator="out"/>
<feColorMatrix type="matrix" values="0 0 0 0 1 0 0 0 0 1 0 0 0 0 1 0 0 0 1 0"/>
<feBlend mode="normal" in2="BackgroundImageFix" result="effect1_dropShadow_1805_384"/>
<feBlend mode="normal" in="SourceGraphic" in2="effect1_dropShadow_1805_384" result="shape"/>
</filter>
<filter id="filter16_d_1805_384" x="361.1" y="1212.1" width="165.8" height="263.8" filterUnits="userSpaceOnUse" color-interpolation-filters="sRGB">
<feFlood flood-opacity="0" result="BackgroundImageFix"/>
<feColorMatrix in="SourceAlpha" type="matrix" values="0 0 0 0 0 0 0 0 0 0 0 0 0 0 0 0 0 0 127 0" result="hardAlpha"/>
<feOffset dx="3" dy="4"/>
<feGaussianBlur stdDeviation="13.95"/>
<feComposite in2="hardAlpha" operator="out"/>
<feColorMatrix type="matrix" values="0 0 0 0 1 0 0 0 0 1 0 0 0 0 1 0 0 0 1 0"/>
<feBlend mode="normal" in2="BackgroundImageFix" result="effect1_dropShadow_1805_384"/>
<feBlend mode="normal" in="SourceGraphic" in2="effect1_dropShadow_1805_384" result="shape"/>
</filter>
<filter id="filter17_d_1805_384" x="140.1" y="1957.1" width="165.8" height="263.8" filterUnits="userSpaceOnUse" color-interpolation-filters="sRGB">
<feFlood flood-opacity="0" result="BackgroundImageFix"/>
<feColorMatrix in="SourceAlpha" type="matrix" values="0 0 0 0 0 0 0 0 0 0 0 0 0 0 0 0 0 0 127 0" result="hardAlpha"/>
<feOffset dx="3" dy="4"/>
<feGaussianBlur stdDeviation="13.95"/>
<feComposite in2="hardAlpha" operator="out"/>
<feColorMatrix type="matrix" values="0 0 0 0 1 0 0 0 0 1 0 0 0 0 1 0 0 0 1 0"/>
<feBlend mode="normal" in2="BackgroundImageFix" result="effect1_dropShadow_1805_384"/>
<feBlend mode="normal" in="SourceGraphic" in2="effect1_dropShadow_1805_384" result="shape"/>
</filter>
<linearGradient id="paint0_linear_1805_384" x1="1113" y1="2170.5" x2="1113" y2="2541.5" gradientUnits="userSpaceOnUse">
<stop stop-color="#0D000D"/>
<stop offset="1" stop-color="#3C003D"/>
</linearGradient>
<linearGradient id="paint1_linear_1805_384" x1="1000" y1="2235" x2="1000" y2="2272" gradientUnits="userSpaceOnUse">
<stop stop-color="#720081"/>
<stop offset="1" stop-color="#3B007A"/>
</linearGradient>
<linearGradient id="paint2_linear_1805_384" x1="1000" y1="2235" x2="1000" y2="2272" gradientUnits="userSpaceOnUse">
<stop stop-color="#720081"/>
<stop offset="1" stop-color="#3B007A"/>
</linearGradient>
<linearGradient id="paint3_linear_1805_384" x1="1000" y1="2235" x2="1000" y2="2272" gradientUnits="userSpaceOnUse">
<stop stop-color="#720081"/>
<stop offset="1" stop-color="#3B007A"/>
</linearGradient>
<linearGradient id="paint4_linear_1805_384" x1="1234" y1="2107" x2="1234" y2="2144" gradientUnits="userSpaceOnUse">
<stop stop-color="#720081"/>
<stop offset="1" stop-color="#3B007A"/>
</linearGradient>
<linearGradient id="paint5_linear_1805_384" x1="1234" y1="2107" x2="1234" y2="2144" gradientUnits="userSpaceOnUse">
<stop stop-color="#720081"/>
<stop offset="1" stop-color="#3B007A"/>
</linearGradient>
<linearGradient id="paint6_linear_1805_384" x1="1234" y1="2107" x2="1234" y2="2144" gradientUnits="userSpaceOnUse">
<stop stop-color="#720081"/>
<stop offset="1" stop-color="#3B007A"/>
</linearGradient>
<radialGradient id="paint7_radial_1805_384" cx="0" cy="0" r="1" gradientUnits="userSpaceOnUse" gradientTransform="translate(1159.5 459.158) rotate(90.5001) scale(171.848 2.99715)">
<stop offset="0.565" stop-color="white"/>
<stop offset="1" stop-color="#5A0033"/>
</radialGradient>
<linearGradient id="paint8_linear_1805_384" x1="1197.5" y1="553" x2="1150" y2="490.5" gradientUnits="userSpaceOnUse">
<stop stop-color="white"/>
<stop offset="1" stop-color="#FF8EFF"/>
</linearGradient>
<linearGradient id="paint9_linear_1805_384" x1="89.0308" y1="33.6968" x2="104.231" y2="149.331" gradientUnits="userSpaceOnUse">
<stop stop-color="#FFA7D9"/>
<stop offset="1" stop-color="#FF2CD1"/>
</linearGradient>
<linearGradient id="paint10_linear_1805_384" x1="773.75" y1="46" x2="773.75" y2="1704.5" gradientUnits="userSpaceOnUse">
<stop stop-color="#FEC3FF"/>
<stop offset="1" stop-color="#FEC0FF"/>
</linearGradient>
<linearGradient id="paint11_linear_1805_384" x1="773.75" y1="46" x2="773.75" y2="1704.5" gradientUnits="userSpaceOnUse">
<stop stop-color="#F267FF"/>
<stop offset="1" stop-color="#F373FF"/>
</linearGradient>
<linearGradient id="paint12_linear_1805_384" x1="773.75" y1="46" x2="773.75" y2="1704.5" gradientUnits="userSpaceOnUse">
<stop stop-color="#F267FF"/>
<stop offset="1" stop-color="#F373FF"/>
</linearGradient>
<linearGradient id="paint13_linear_1805_384" x1="773.75" y1="46" x2="773.75" y2="1704.5" gradientUnits="userSpaceOnUse">
<stop stop-color="#F267FF"/>
<stop offset="1" stop-color="#F373FF"/>
</linearGradient>
<linearGradient id="paint14_linear_1805_384" x1="773.75" y1="46" x2="773.75" y2="1704.5" gradientUnits="userSpaceOnUse">
<stop stop-color="#F267FF"/>
<stop offset="1" stop-color="#F373FF"/>
</linearGradient>
<linearGradient id="paint15_linear_1805_384" x1="1323" y1="1099.5" x2="1323" y2="1307.5" gradientUnits="userSpaceOnUse">
<stop stop-color="#0D000D"/>
<stop offset="1" stop-color="#3C003D"/>
</linearGradient>
<linearGradient id="paint16_linear_1805_384" x1="1102" y1="1236.5" x2="1102" y2="1444.5" gradientUnits="userSpaceOnUse">
<stop stop-color="#0D000D"/>
<stop offset="1" stop-color="#3C003D"/>
</linearGradient>
<linearGradient id="paint17_linear_1805_384" x1="1323" y1="660.5" x2="1323" y2="868.5" gradientUnits="userSpaceOnUse">
<stop stop-color="#0D000D"/>
<stop offset="1" stop-color="#3C003D"/>
</linearGradient>
<linearGradient id="paint18_linear_1805_384" x1="1102" y1="797.5" x2="1102" y2="1005.5" gradientUnits="userSpaceOnUse">
<stop stop-color="#0D000D"/>
<stop offset="1" stop-color="#3C003D"/>
</linearGradient>
<linearGradient id="paint19_linear_1805_384" x1="1323" y1="660.5" x2="1323" y2="868.5" gradientUnits="userSpaceOnUse">
<stop stop-color="#0D000D"/>
<stop offset="1" stop-color="#3C003D"/>
</linearGradient>
<linearGradient id="paint20_linear_1805_384" x1="1102" y1="797.5" x2="1102" y2="1005.5" gradientUnits="userSpaceOnUse">
<stop stop-color="#0D000D"/>
<stop offset="1" stop-color="#3C003D"/>
</linearGradient>
<linearGradient id="paint21_linear_1805_384" x1="1323" y1="1981.5" x2="1323" y2="2189.5" gradientUnits="userSpaceOnUse">
<stop stop-color="#0D000D"/>
<stop offset="1" stop-color="#3C003D"/>
</linearGradient>
<linearGradient id="paint22_linear_1805_384" x1="877" y1="2254.5" x2="877" y2="2462.5" gradientUnits="userSpaceOnUse">
<stop stop-color="#0D000D"/>
<stop offset="1" stop-color="#3C003D"/>
</linearGradient>
<linearGradient id="paint23_linear_1805_384" x1="877" y1="1599.5" x2="877" y2="1807.5" gradientUnits="userSpaceOnUse">
<stop stop-color="#0D000D"/>
<stop offset="1" stop-color="#3C003D"/>
</linearGradient>
<linearGradient id="paint24_linear_1805_384" x1="1102" y1="1460.5" x2="1102" y2="1668.5" gradientUnits="userSpaceOnUse">
<stop stop-color="#0D000D"/>
<stop offset="1" stop-color="#3C003D"/>
</linearGradient>
<linearGradient id="paint25_linear_1805_384" x1="877" y1="1154.5" x2="877" y2="1362.5" gradientUnits="userSpaceOnUse">
<stop stop-color="#0D000D"/>
<stop offset="1" stop-color="#3C003D"/>
</linearGradient>
<linearGradient id="paint26_linear_1805_384" x1="1102" y1="1015.5" x2="1102" y2="1223.5" gradientUnits="userSpaceOnUse">
<stop stop-color="#0D000D"/>
<stop offset="1" stop-color="#3C003D"/>
</linearGradient>
<linearGradient id="paint27_linear_1805_384" x1="1323" y1="1542.5" x2="1323" y2="1750.5" gradientUnits="userSpaceOnUse">
<stop stop-color="#0D000D"/>
<stop offset="1" stop-color="#3C003D"/>
</linearGradient>
<linearGradient id="paint28_linear_1805_384" x1="1102" y1="1679.5" x2="1102" y2="1887.5" gradientUnits="userSpaceOnUse">
<stop stop-color="#0D000D"/>
<stop offset="1" stop-color="#3C003D"/>
</linearGradient>
<linearGradient id="paint29_linear_1805_384" x1="1323" y1="1762.5" x2="1323" y2="1970.5" gradientUnits="userSpaceOnUse">
<stop stop-color="#0D000D"/>
<stop offset="1" stop-color="#3C003D"/>
</linearGradient>
<linearGradient id="paint30_linear_1805_384" x1="877" y1="2038.5" x2="877" y2="2246.5" gradientUnits="userSpaceOnUse">
<stop stop-color="#0D000D"/>
<stop offset="1" stop-color="#3C003D"/>
</linearGradient>
<linearGradient id="paint31_linear_1805_384" x1="1102" y1="1899.5" x2="1102" y2="2107.5" gradientUnits="userSpaceOnUse">
<stop stop-color="#0D000D"/>
<stop offset="1" stop-color="#3C003D"/>
</linearGradient>
<linearGradient id="paint32_linear_1805_384" x1="220" y1="1098.5" x2="220" y2="1306.5" gradientUnits="userSpaceOnUse">
<stop stop-color="#800080"/>
<stop offset="1" stop-color="#C800C8"/>
</linearGradient>
<linearGradient id="paint33_linear_1805_384" x1="666" y1="1374.5" x2="666" y2="1582.5" gradientUnits="userSpaceOnUse">
<stop stop-color="#800080"/>
<stop offset="1" stop-color="#C800C8"/>
</linearGradient>
<linearGradient id="paint34_linear_1805_384" x1="441" y1="1235.5" x2="441" y2="1443.5" gradientUnits="userSpaceOnUse">
<stop stop-color="#800080"/>
<stop offset="1" stop-color="#C800C8"/>
</linearGradient>
<linearGradient id="paint35_linear_1805_384" x1="220" y1="659.5" x2="220" y2="867.5" gradientUnits="userSpaceOnUse">
<stop stop-color="#800080"/>
<stop offset="1" stop-color="#C800C8"/>
</linearGradient>
<linearGradient id="paint36_linear_1805_384" x1="666" y1="935.5" x2="666" y2="1143.5" gradientUnits="userSpaceOnUse">
<stop stop-color="#800080"/>
<stop offset="1" stop-color="#C800C8"/>
</linearGradient>
<linearGradient id="paint37_linear_1805_384" x1="441" y1="796.5" x2="441" y2="1004.5" gradientUnits="userSpaceOnUse">
<stop stop-color="#800080"/>
<stop offset="1" stop-color="#C800C8"/>
</linearGradient>
<linearGradient id="paint38_linear_1805_384" x1="220" y1="659.5" x2="220" y2="867.5" gradientUnits="userSpaceOnUse">
<stop stop-color="#800080"/>
<stop offset="1" stop-color="#C800C8"/>
</linearGradient>
<linearGradient id="paint39_linear_1805_384" x1="666" y1="935.5" x2="666" y2="1143.5" gradientUnits="userSpaceOnUse">
<stop stop-color="#800080"/>
<stop offset="1" stop-color="#C800C8"/>
</linearGradient>
<linearGradient id="paint40_linear_1805_384" x1="441" y1="796.5" x2="441" y2="1004.5" gradientUnits="userSpaceOnUse">
<stop stop-color="#800080"/>
<stop offset="1" stop-color="#C800C8"/>
</linearGradient>
<linearGradient id="paint41_linear_1805_384" x1="220" y1="1980.5" x2="220" y2="2188.5" gradientUnits="userSpaceOnUse">
<stop stop-color="#800080"/>
<stop offset="1" stop-color="#C800C8"/>
</linearGradient>
<linearGradient id="paint42_linear_1805_384" x1="666" y1="2253.5" x2="666" y2="2461.5" gradientUnits="userSpaceOnUse">
<stop stop-color="#800080"/>
<stop offset="1" stop-color="#C800C8"/>
</linearGradient>
<linearGradient id="paint43_linear_1805_384" x1="220" y1="1322.5" x2="220" y2="1530.5" gradientUnits="userSpaceOnUse">
<stop stop-color="#800080"/>
<stop offset="1" stop-color="#C800C8"/>
</linearGradient>
<linearGradient id="paint44_linear_1805_384" x1="666" y1="1598.5" x2="666" y2="1806.5" gradientUnits="userSpaceOnUse">
<stop stop-color="#800080"/>
<stop offset="1" stop-color="#C800C8"/>
</linearGradient>
<linearGradient id="paint45_linear_1805_384" x1="441" y1="1459.5" x2="441" y2="1667.5" gradientUnits="userSpaceOnUse">
<stop stop-color="#800080"/>
<stop offset="1" stop-color="#C800C8"/>
</linearGradient>
<linearGradient id="paint46_linear_1805_384" x1="220" y1="877.5" x2="220" y2="1085.5" gradientUnits="userSpaceOnUse">
<stop stop-color="#800080"/>
<stop offset="1" stop-color="#C800C8"/>
</linearGradient>
<linearGradient id="paint47_linear_1805_384" x1="666" y1="1153.5" x2="666" y2="1361.5" gradientUnits="userSpaceOnUse">
<stop stop-color="#800080"/>
<stop offset="1" stop-color="#C800C8"/>
</linearGradient>
<linearGradient id="paint48_linear_1805_384" x1="441" y1="1014.5" x2="441" y2="1222.5" gradientUnits="userSpaceOnUse">
<stop stop-color="#800080"/>
<stop offset="1" stop-color="#C800C8"/>
</linearGradient>
<linearGradient id="paint49_linear_1805_384" x1="220" y1="1541.5" x2="220" y2="1749.5" gradientUnits="userSpaceOnUse">
<stop stop-color="#800080"/>
<stop offset="1" stop-color="#C800C8"/>
</linearGradient>
<linearGradient id="paint50_linear_1805_384" x1="666" y1="1817.5" x2="666" y2="2025.5" gradientUnits="userSpaceOnUse">
<stop stop-color="#800080"/>
<stop offset="1" stop-color="#C800C8"/>
</linearGradient>
<linearGradient id="paint51_linear_1805_384" x1="441" y1="1678.5" x2="441" y2="1886.5" gradientUnits="userSpaceOnUse">
<stop stop-color="#800080"/>
<stop offset="1" stop-color="#C800C8"/>
</linearGradient>
<linearGradient id="paint52_linear_1805_384" x1="220" y1="1761.5" x2="220" y2="1969.5" gradientUnits="userSpaceOnUse">
<stop stop-color="#800080"/>
<stop offset="1" stop-color="#C800C8"/>
</linearGradient>
<linearGradient id="paint53_linear_1805_384" x1="666" y1="2037.5" x2="666" y2="2245.5" gradientUnits="userSpaceOnUse">
<stop stop-color="#800080"/>
<stop offset="1" stop-color="#C800C8"/>
</linearGradient>
<linearGradient id="paint54_linear_1805_384" x1="441" y1="1898.5" x2="441" y2="2106.5" gradientUnits="userSpaceOnUse">
<stop stop-color="#800080"/>
<stop offset="1" stop-color="#C800C8"/>
</linearGradient>
<linearGradient id="paint55_linear_1805_384" x1="441" y1="2113.5" x2="441" y2="2321.5" gradientUnits="userSpaceOnUse">
<stop stop-color="#800080"/>
<stop offset="1" stop-color="#C800C8"/>
</linearGradient>
<linearGradient id="paint56_linear_1805_384" x1="441" y1="1236" x2="441" y2="1444" gradientUnits="userSpaceOnUse">
<stop stop-color="#800080"/>
<stop offset="1" stop-color="#C800C8"/>
</linearGradient>
<linearGradient id="paint57_linear_1805_384" x1="220" y1="1981" x2="220" y2="2189" gradientUnits="userSpaceOnUse">
<stop stop-color="#800080"/>
<stop offset="1" stop-color="#C800C8"/>
</linearGradient>
<radialGradient id="paint58_radial_1805_384" cx="0" cy="0" r="1" gradientUnits="userSpaceOnUse" gradientTransform="translate(553.002 199.161) rotate(90.5001) scale(171.848 2.99715)">
<stop offset="0.565" stop-color="white"/>
<stop offset="1" stop-color="#5A0033"/>
</radialGradient>
<linearGradient id="paint59_linear_1805_384" x1="611.269" y1="224.863" x2="536.77" y2="249.608" gradientUnits="userSpaceOnUse">
<stop stop-color="white"/>
<stop offset="1" stop-color="#FF8EFF"/>
</linearGradient>
<linearGradient id="paint60_linear_1805_384" x1="89.0308" y1="33.6968" x2="104.231" y2="149.331" gradientUnits="userSpaceOnUse">
<stop stop-color="#FFA7D9"/>
<stop offset="1" stop-color="#FF2CD1"/>
</linearGradient>
<radialGradient id="paint61_radial_1805_384" cx="0" cy="0" r="1" gradientUnits="userSpaceOnUse" gradientTransform="translate(1175.87 500.581) rotate(89.4999) scale(114.399 1.9952)">
<stop offset="0.565" stop-color="white"/>
<stop offset="1" stop-color="#5A0033"/>
</radialGradient>
<linearGradient id="paint62_linear_1805_384" x1="1137.08" y1="517.691" x2="1186.67" y2="534.164" gradientUnits="userSpaceOnUse">
<stop stop-color="white"/>
<stop offset="1" stop-color="#FF8EFF"/>
</linearGradient>
<linearGradient id="paint63_linear_1805_384" x1="1168.07" y1="461.464" x2="1178.19" y2="538.442" gradientUnits="userSpaceOnUse">
<stop stop-color="#FFA7D9"/>
<stop offset="1" stop-color="#FF2CD1"/>
</linearGradient>
</defs>
</svg>
