<svg width="1448" height="2785" viewBox="0 0 1448 2785" fill="none" xmlns="http://www.w3.org/2000/svg">
<path d="M1424 898.5L723.5 1303V2773.5L1424 2365V898.5Z" fill="#0A0042"/>
<path d="M22.5 898.5L724 1303.5V2774L22.5 2370.5V898.5Z" fill="#A667FF"/>
<path d="M1424 898.5L723.5 1303V2773.5L1424 2365V898.5Z" fill="#0A0042"/>
<path d="M22.5 898.5L724 1303.5V2774L22.5 2370.5V898.5Z" fill="#A667FF"/>
<path d="M723 1304L1424 899L723.5 495L23 900L723 1304Z" fill="#6A00FF"/>
<path d="M86.5 999.5L196.5 1065V1202L86.5 1139V999.5Z" fill="#2B0074"/>
<path d="M323.5 1136.5L433.5 1200V1339.5L323.5 1276.5V1136.5Z" fill="#2B0074"/>
<path d="M562.5 1274.5L672.5 1339V1477.5L561.5 1413.5L562.5 1274.5Z" fill="#2B0074"/>
<path d="M1125.5 1135.5L1015.5 1200V1338.5L1125.5 1275.5V1135.5Z" fill="#1A002B"/>
<path d="M1362.5 998.5L1252.5 1063V1202.5L1362.5 1138.5V998.5Z" fill="#1A002B"/>
<path d="M887.5 1495L777.5 1558L776.5 1698.5L887.5 1635V1495Z" fill="#1A002B"/>
<path d="M1125.5 1357.5L1015.5 1421V1560.5L1126 1497.5L1125.5 1357.5Z" fill="#1A002B"/>
<path d="M887.5 1273L776.5 1337V1476.5L887.5 1413V1273Z" fill="#1A002B"/>
<path d="M1363.5 1220.5L1253 1284.5V1423.5L1363.5 1360.5V1220.5Z" fill="#1A002B"/>
<path d="M887.5 1717.5L776.5 1781.5V1921L887.5 1857.5V1717.5Z" fill="#1A002B"/>
<path d="M1125.5 1579.5L1015.5 1643.5V1783.5L1125.5 1720.5V1579.5Z" fill="#1A002B"/>
<path d="M1363.5 1442L1252.5 1505V1645L1363.5 1582V1442Z" fill="#1A002B"/>
<path d="M887.5 1939.5L776.5 2003.5V2142L887.5 2079.5V1939.5Z" fill="#1A002B"/>
<path d="M1125.5 1801.5L1015.5 1865V2005.5L1125.5 1942.5V1801.5Z" fill="#1A002B"/>
<path d="M1363.5 1664L1253.5 1728V1868.5L1363.5 1805.5V1664Z" fill="#1A002B"/>
<path d="M886.5 2161.5L777.5 2224V2365.5L887.5 2302.5L886.5 2161.5Z" fill="#FFD700" fill-opacity="0.5"/>
<path d="M1125.5 2023.5L1016 2088V2228L1125.5 2165.5V2023.5Z" fill="#1A002B"/>
<path d="M1363.5 1886.5L1253.5 1952V2091.5L1363.5 2026.5V1886.5Z" fill="#1A002B"/>
<path d="M887.5 2383.5L777.5 2447V2586.5L887.5 2523.5V2383.5Z" fill="#1A002B"/>
<path d="M1125.5 2246.5L1015.5 2310L1017.5 2586L1125.5 2524.5V2246.5Z" fill="#1A002B"/>
<path d="M1363.5 2108.5L1253.5 2172V2312.5L1363.5 2249.5V2108.5Z" fill="#1A002B"/>
<path d="M562.5 1496.5L672.5 1558.5V1700L562.5 1636V1496.5Z" fill="#2B0074"/>
<path d="M323.5 1358.5L433.5 1422V1562L323.5 1498.5V1358.5Z" fill="#2B0074"/>
<path d="M86.5 1221.5L196.5 1285V1424.5L85.5 1360.5L86.5 1221.5Z" fill="#2B0074"/>
<path d="M562.5 1718.5L672.5 1781V1922L562.5 1858V1718.5Z" fill="#2B0074"/>
<path d="M323.5 1580.5L433.5 1644V1783.5L323.5 1720.5V1580.5Z" fill="#2B0074"/>
<path d="M86.5 1443.5L196.5 1507.5V1646.5L85.5 1583L86.5 1443.5Z" fill="#2B0074"/>
<path d="M562.5 1941.5L672.5 2006V2143.5L561.5 2080L562.5 1941.5Z" fill="#2B0074"/>
<path d="M323.5 1803.5L433.5 1867V2006.5L323.5 1943.5V1803.5Z" fill="#2B0074"/>
<path d="M86.5 1666.5L196.5 1726V1869.5L86.5 1806V1666.5Z" fill="#2B0074"/>
<path d="M562.5 2163.5L672.5 2228V2367L562.5 2303V2163.5Z" fill="#2B0074"/>
<path d="M323.5 2025.5L433.5 2089V2229L323.5 2166V2025.5Z" fill="#FFD700" fill-opacity="0.85"/>
<path d="M86.5 1888.5L196.5 1954V2091.5L86.5 2028.5V1888.5Z" fill="#FFD700" fill-opacity="0.85"/>
<path d="M561.5 2384.5L671.5 2447V2588L561.5 2524V2384.5Z" fill="#2B0074"/>
<path d="M323.5 2247.5L432.5 2311.5V2450L322.5 2387L323.5 2247.5Z" fill="#2B0074"/>
<path d="M85.5 2109.5L195.5 2173V2312.5L85.5 2249.5V2109.5Z" fill="#2B0074"/>
<path d="M70.5 990.5L86.5 999.5V1139L70.5 1148.74V990.5Z" fill="#821CFF"/>
<path d="M70.5 990.5L86.5 999.5V1139L70.5 1148.74V990.5Z" fill="#821CFF"/>
<path d="M70.5 990.5L86.5 999.5V1139L70.5 1148.74V990.5Z" fill="#821CFF"/>
<path d="M70.5 990.5L86.5 999.5V1139L70.5 1148.74V990.5Z" stroke="#5500BD"/>
<path d="M307.5 1127.5L323.5 1136.5V1276.5L307.5 1286V1127.5Z" fill="#821CFF"/>
<path d="M307.5 1127.5L323.5 1136.5V1276.5L307.5 1286V1127.5Z" fill="#821CFF"/>
<path d="M307.5 1127.5L323.5 1136.5V1276.5L307.5 1286V1127.5Z" fill="#821CFF"/>
<path d="M307.5 1127.5L323.5 1136.5V1276.5L307.5 1286V1127.5Z" stroke="#5500BD"/>
<path d="M546.5 1265.5L562.5 1274.5V1414L546.5 1424V1265.5Z" fill="#821CFF"/>
<path d="M546.5 1265.5L562.5 1274.5V1414L546.5 1424V1265.5Z" fill="#821CFF"/>
<path d="M546.5 1265.5L562.5 1274.5V1414L546.5 1424V1265.5Z" fill="#821CFF"/>
<path d="M546.5 1265.5L562.5 1274.5V1414L546.5 1424V1265.5Z" stroke="#5500BD"/>
<path d="M1378.5 989.5L1362.5 998.5V1138L1378.5 1147.74V989.5Z" fill="#821CFF"/>
<path d="M1378.5 989.5L1362.5 998.5V1138L1378.5 1147.74V989.5Z" fill="#821CFF"/>
<path d="M1378.5 989.5L1362.5 998.5V1138L1378.5 1147.74V989.5Z" fill="#440080"/>
<path d="M1378.5 989.5L1362.5 998.5V1138L1378.5 1147.74V989.5Z" stroke="#5500BD"/>
<path d="M1141.5 1126.5L1125.5 1135.5V1275.5L1141.5 1284.74V1126.5Z" fill="#821CFF"/>
<path d="M1141.5 1126.5L1125.5 1135.5V1275.5L1141.5 1284.74V1126.5Z" fill="#821CFF"/>
<path d="M1141.5 1126.5L1125.5 1135.5V1275.5L1141.5 1284.74V1126.5Z" fill="#440080"/>
<path d="M1141.5 1126.5L1125.5 1135.5V1275.5L1141.5 1284.74V1126.5Z" stroke="#5500BD"/>
<path d="M902.5 1264.5L887.5 1273V1413L902.5 1422.74V1264.5Z" fill="#821CFF"/>
<path d="M902.5 1264.5L887.5 1273V1413L902.5 1422.74V1264.5Z" fill="#821CFF"/>
<path d="M902.5 1264.5L887.5 1273V1413L902.5 1422.74V1264.5Z" fill="#440080"/>
<path d="M902.5 1264.5L887.5 1273V1413L902.5 1422.74V1264.5Z" stroke="#5500BD"/>
<path d="M1378.5 1211.5L1362.5 1220.5V1360L1378.5 1369.74V1211.5Z" fill="#821CFF"/>
<path d="M1378.5 1211.5L1362.5 1220.5V1360L1378.5 1369.74V1211.5Z" fill="#821CFF"/>
<path d="M1378.5 1211.5L1362.5 1220.5V1360L1378.5 1369.74V1211.5Z" fill="#440080"/>
<path d="M1378.5 1211.5L1362.5 1220.5V1360L1378.5 1369.74V1211.5Z" stroke="#5500BD"/>
<path d="M1141.5 1348.5L1125.5 1357.5L1126 1497.5L1141.5 1506.74V1348.5Z" fill="#821CFF"/>
<path d="M1141.5 1348.5L1125.5 1357.5L1126 1497.5L1141.5 1506.74V1348.5Z" fill="#821CFF"/>
<path d="M1141.5 1348.5L1125.5 1357.5L1126 1497.5L1141.5 1506.74V1348.5Z" fill="#440080"/>
<path d="M1141.5 1348.5L1125.5 1357.5L1126 1497.5L1141.5 1506.74V1348.5Z" stroke="#5500BD"/>
<path d="M902.5 1486.5L887.5 1495V1635L902.5 1644.74V1486.5Z" fill="#821CFF"/>
<path d="M902.5 1486.5L887.5 1495V1635L902.5 1644.74V1486.5Z" fill="#821CFF"/>
<path d="M902.5 1486.5L887.5 1495V1635L902.5 1644.74V1486.5Z" fill="#440080"/>
<path d="M902.5 1486.5L887.5 1495V1635L902.5 1644.74V1486.5Z" stroke="#5500BD"/>
<path d="M1378.5 1433.5L1362.5 1442.5V1582L1378.5 1591.74V1433.5Z" fill="#821CFF"/>
<path d="M1378.5 1433.5L1362.5 1442.5V1582L1378.5 1591.74V1433.5Z" fill="#821CFF"/>
<path d="M1378.5 1433.5L1362.5 1442.5V1582L1378.5 1591.74V1433.5Z" fill="#440080"/>
<path d="M1378.5 1433.5L1362.5 1442.5V1582L1378.5 1591.74V1433.5Z" stroke="#5500BD"/>
<path d="M1141.5 1570.5L1125.5 1579.5V1719L1141.5 1728.74V1570.5Z" fill="#821CFF"/>
<path d="M1141.5 1570.5L1125.5 1579.5V1719L1141.5 1728.74V1570.5Z" fill="#821CFF"/>
<path d="M1141.5 1570.5L1125.5 1579.5V1719L1141.5 1728.74V1570.5Z" fill="#440080"/>
<path d="M1141.5 1570.5L1125.5 1579.5V1719L1141.5 1728.74V1570.5Z" stroke="#5500BD"/>
<path d="M902.5 1708.5L886.5 1717.5V1857L902.5 1866.74V1708.5Z" fill="#821CFF"/>
<path d="M902.5 1708.5L886.5 1717.5V1857L902.5 1866.74V1708.5Z" fill="#821CFF"/>
<path d="M902.5 1708.5L886.5 1717.5V1857L902.5 1866.74V1708.5Z" fill="#440080"/>
<path d="M902.5 1708.5L886.5 1717.5V1857L902.5 1866.74V1708.5Z" stroke="#5500BD"/>
<path d="M1378.5 1655.5L1362.5 1664.5V1804L1378.5 1813.74V1655.5Z" fill="#821CFF"/>
<path d="M1378.5 1655.5L1362.5 1664.5V1804L1378.5 1813.74V1655.5Z" fill="#821CFF"/>
<path d="M1378.5 1655.5L1362.5 1664.5V1804L1378.5 1813.74V1655.5Z" fill="#440080"/>
<path d="M1378.5 1655.5L1362.5 1664.5V1804L1378.5 1813.74V1655.5Z" stroke="#5500BD"/>
<path d="M1141.5 1792.5L1125.5 1801.5V1941L1141.5 1950.74V1792.5Z" fill="#821CFF"/>
<path d="M1141.5 1792.5L1125.5 1801.5V1941L1141.5 1950.74V1792.5Z" fill="#821CFF"/>
<path d="M1141.5 1792.5L1125.5 1801.5V1941L1141.5 1950.74V1792.5Z" fill="#440080"/>
<path d="M1141.5 1792.5L1125.5 1801.5V1941L1141.5 1950.74V1792.5Z" stroke="#5500BD"/>
<path d="M902.5 1930.5L886.5 1939.5V2079L902.5 2088.74V1930.5Z" fill="#821CFF"/>
<path d="M902.5 1930.5L886.5 1939.5V2079L902.5 2088.74V1930.5Z" fill="#821CFF"/>
<path d="M902.5 1930.5L886.5 1939.5V2079L902.5 2088.74V1930.5Z" fill="#440080"/>
<path d="M902.5 1930.5L886.5 1939.5V2079L902.5 2088.74V1930.5Z" stroke="#5500BD"/>
<path d="M1378.5 1877.5L1363.5 1886.5V2026.5L1378.5 2035.74V1877.5Z" fill="#821CFF"/>
<path d="M1378.5 1877.5L1363.5 1886.5V2026.5L1378.5 2035.74V1877.5Z" fill="#821CFF"/>
<path d="M1378.5 1877.5L1363.5 1886.5V2026.5L1378.5 2035.74V1877.5Z" fill="#440080"/>
<path d="M1378.5 1877.5L1363.5 1886.5V2026.5L1378.5 2035.74V1877.5Z" stroke="#5500BD"/>
<path d="M1141.5 2014.5L1125.5 2023.5V2163L1141.5 2173.5V2014.5Z" fill="#821CFF"/>
<path d="M1141.5 2014.5L1125.5 2023.5V2163L1141.5 2173.5V2014.5Z" fill="#821CFF"/>
<path d="M1141.5 2014.5L1125.5 2023.5V2163L1141.5 2173.5V2014.5Z" fill="#440080"/>
<path d="M1141.5 2014.5L1125.5 2023.5V2163L1141.5 2173.5V2014.5Z" stroke="#5500BD"/>
<path d="M902.5 2152.5L886.5 2161.5V2301.5L902.5 2311V2152.5Z" fill="#821CFF"/>
<path d="M902.5 2152.5L886.5 2161.5V2301.5L902.5 2311V2152.5Z" fill="#821CFF"/>
<path d="M902.5 2152.5L886.5 2161.5V2301.5L902.5 2311V2152.5Z" fill="#440080"/>
<path d="M902.5 2152.5L886.5 2161.5V2301.5L902.5 2311V2152.5Z" stroke="#5500BD"/>
<path d="M1379.5 2099.5L1363.5 2108.5V2248L1379.5 2257.74V2099.5Z" fill="#821CFF"/>
<path d="M1379.5 2099.5L1363.5 2108.5V2248L1379.5 2257.74V2099.5Z" fill="#821CFF"/>
<path d="M1379.5 2099.5L1363.5 2108.5V2248L1379.5 2257.74V2099.5Z" fill="#440080"/>
<path d="M1379.5 2099.5L1363.5 2108.5V2248L1379.5 2257.74V2099.5Z" stroke="#5500BD"/>
<path d="M1142.5 2236.5L1125.5 2246.5V2523.5L1142.5 2532.5V2236.5Z" fill="#821CFF"/>
<path d="M1142.5 2236.5L1125.5 2246.5V2523.5L1142.5 2532.5V2236.5Z" fill="#821CFF"/>
<path d="M1142.5 2236.5L1125.5 2246.5V2523.5L1142.5 2532.5V2236.5Z" fill="#440080"/>
<path d="M1142.5 2236.5L1125.5 2246.5V2523.5L1142.5 2532.5V2236.5Z" stroke="#5500BD"/>
<path d="M903.5 2374.5L887.5 2383.5V2523L903.5 2532.74V2374.5Z" fill="#821CFF"/>
<path d="M903.5 2374.5L887.5 2383.5V2523L903.5 2532.74V2374.5Z" fill="#821CFF"/>
<path d="M903.5 2374.5L887.5 2383.5V2523L903.5 2532.74V2374.5Z" fill="#440080"/>
<path d="M903.5 2374.5L887.5 2383.5V2523L903.5 2532.74V2374.5Z" stroke="#5500BD"/>
<path d="M70.5 1212.5L86.5 1221.5V1361L70.5 1371V1212.5Z" fill="#821CFF"/>
<path d="M70.5 1212.5L86.5 1221.5V1361L70.5 1371V1212.5Z" fill="#821CFF"/>
<path d="M70.5 1212.5L86.5 1221.5V1361L70.5 1371V1212.5Z" fill="#821CFF"/>
<path d="M70.5 1212.5L86.5 1221.5V1361L70.5 1371V1212.5Z" stroke="#5500BD"/>
<path d="M307.5 1349.5L323.5 1358.5V1498.5L307.5 1508.5V1349.5Z" fill="#821CFF"/>
<path d="M307.5 1349.5L323.5 1358.5V1498.5L307.5 1508.5V1349.5Z" fill="#821CFF"/>
<path d="M307.5 1349.5L323.5 1358.5V1498.5L307.5 1508.5V1349.5Z" fill="#821CFF"/>
<path d="M307.5 1349.5L323.5 1358.5V1498.5L307.5 1508.5V1349.5Z" stroke="#5500BD"/>
<path d="M546.5 1487.5L562.5 1496.5V1636L546.5 1645.74V1487.5Z" fill="#821CFF"/>
<path d="M546.5 1487.5L562.5 1496.5V1636L546.5 1645.74V1487.5Z" fill="#821CFF"/>
<path d="M546.5 1487.5L562.5 1496.5V1636L546.5 1645.74V1487.5Z" fill="#821CFF"/>
<path d="M546.5 1487.5L562.5 1496.5V1636L546.5 1645.74V1487.5Z" stroke="#5500BD"/>
<path d="M70.5 1434.5L86.5 1443.5V1583.5L70.5 1593V1434.5Z" fill="#821CFF"/>
<path d="M70.5 1434.5L86.5 1443.5V1583.5L70.5 1593V1434.5Z" fill="#821CFF"/>
<path d="M70.5 1434.5L86.5 1443.5V1583.5L70.5 1593V1434.5Z" fill="#821CFF"/>
<path d="M70.5 1434.5L86.5 1443.5V1583.5L70.5 1593V1434.5Z" stroke="#5500BD"/>
<path d="M307.5 1571.5L323.5 1580.5V1720.5L307.5 1730.5V1571.5Z" fill="#821CFF"/>
<path d="M307.5 1571.5L323.5 1580.5V1720.5L307.5 1730.5V1571.5Z" fill="#821CFF"/>
<path d="M307.5 1571.5L323.5 1580.5V1720.5L307.5 1730.5V1571.5Z" fill="#821CFF"/>
<path d="M307.5 1571.5L323.5 1580.5V1720.5L307.5 1730.5V1571.5Z" stroke="#5500BD"/>
<path d="M546.5 1709.5L562.5 1718.5V1858L546.5 1867.74V1709.5Z" fill="#821CFF"/>
<path d="M546.5 1709.5L562.5 1718.5V1858L546.5 1867.74V1709.5Z" fill="#821CFF"/>
<path d="M546.5 1709.5L562.5 1718.5V1858L546.5 1867.74V1709.5Z" fill="#821CFF"/>
<path d="M546.5 1709.5L562.5 1718.5V1858L546.5 1867.74V1709.5Z" stroke="#5500BD"/>
<path d="M70.5 1657.5L86.5 1666.5V1806L70.5 1816V1657.5Z" fill="#821CFF"/>
<path d="M70.5 1657.5L86.5 1666.5V1806L70.5 1816V1657.5Z" fill="#821CFF"/>
<path d="M70.5 1657.5L86.5 1666.5V1806L70.5 1816V1657.5Z" fill="#821CFF"/>
<path d="M70.5 1657.5L86.5 1666.5V1806L70.5 1816V1657.5Z" stroke="#5500BD"/>
<path d="M307.5 1794.5L323.5 1803.5V1943.5L307.5 1952.74V1794.5Z" fill="#821CFF"/>
<path d="M307.5 1794.5L323.5 1803.5V1943.5L307.5 1952.74V1794.5Z" fill="#821CFF"/>
<path d="M307.5 1794.5L323.5 1803.5V1943.5L307.5 1952.74V1794.5Z" fill="#821CFF"/>
<path d="M307.5 1794.5L323.5 1803.5V1943.5L307.5 1952.74V1794.5Z" stroke="#5500BD"/>
<path d="M546.5 1932.5L562.5 1941.5V2081L546.5 2090.74V1932.5Z" fill="#821CFF"/>
<path d="M546.5 1932.5L562.5 1941.5V2081L546.5 2090.74V1932.5Z" fill="#821CFF"/>
<path d="M546.5 1932.5L562.5 1941.5V2081L546.5 2090.74V1932.5Z" fill="#821CFF"/>
<path d="M546.5 1932.5L562.5 1941.5V2081L546.5 2090.74V1932.5Z" stroke="#5500BD"/>
<path d="M70.5 1879.5L86.5 1888.5V2028.5L70.5 2037.74V1879.5Z" fill="#821CFF"/>
<path d="M70.5 1879.5L86.5 1888.5V2028.5L70.5 2037.74V1879.5Z" fill="#821CFF"/>
<path d="M70.5 1879.5L86.5 1888.5V2028.5L70.5 2037.74V1879.5Z" fill="#821CFF"/>
<path d="M70.5 1879.5L86.5 1888.5V2028.5L70.5 2037.74V1879.5Z" stroke="#5500BD"/>
<path d="M307.5 2016.5L323.5 2025.5V2166L307.5 2175.5V2016.5Z" fill="#821CFF"/>
<path d="M307.5 2016.5L323.5 2025.5V2166L307.5 2175.5V2016.5Z" fill="#821CFF"/>
<path d="M307.5 2016.5L323.5 2025.5V2166L307.5 2175.5V2016.5Z" fill="#821CFF"/>
<path d="M307.5 2016.5L323.5 2025.5V2166L307.5 2175.5V2016.5Z" stroke="#5500BD"/>
<path d="M546.5 2154.5L562.5 2163.5V2303L546.5 2312.74V2154.5Z" fill="#821CFF"/>
<path d="M546.5 2154.5L562.5 2163.5V2303L546.5 2312.74V2154.5Z" fill="#821CFF"/>
<path d="M546.5 2154.5L562.5 2163.5V2303L546.5 2312.74V2154.5Z" fill="#821CFF"/>
<path d="M546.5 2154.5L562.5 2163.5V2303L546.5 2312.74V2154.5Z" stroke="#5500BD"/>
<path d="M69.5 2100.5L85.5 2109.5V2249.5L69.5 2259V2100.5Z" fill="#821CFF"/>
<path d="M69.5 2100.5L85.5 2109.5V2249.5L69.5 2259V2100.5Z" fill="#821CFF"/>
<path d="M69.5 2100.5L85.5 2109.5V2249.5L69.5 2259V2100.5Z" fill="#821CFF"/>
<path d="M69.5 2100.5L85.5 2109.5V2249.5L69.5 2259V2100.5Z" stroke="#5500BD"/>
<path d="M306.5 2237.5L323.5 2247.5L322.5 2387L306.5 2396.5V2237.5Z" fill="#821CFF"/>
<path d="M306.5 2237.5L323.5 2247.5L322.5 2387L306.5 2396.5V2237.5Z" fill="#821CFF"/>
<path d="M306.5 2237.5L323.5 2247.5L322.5 2387L306.5 2396.5V2237.5Z" fill="#821CFF"/>
<path d="M306.5 2237.5L323.5 2247.5L322.5 2387L306.5 2396.5V2237.5Z" stroke="#5500BD"/>
<path d="M545.5 2375.5L561.5 2384.5V2524L545.5 2533.74V2375.5Z" fill="#821CFF"/>
<path d="M545.5 2375.5L561.5 2384.5V2524L545.5 2533.74V2375.5Z" fill="#821CFF"/>
<path d="M545.5 2375.5L561.5 2384.5V2524L545.5 2533.74V2375.5Z" fill="#821CFF"/>
<path d="M545.5 2375.5L561.5 2384.5V2524L545.5 2533.74V2375.5Z" stroke="#5500BD"/>
<path d="M70.5 1148.5L86.5 1139L196.5 1202V1221L70.5 1148.5Z" fill="#C6A6FF"/>
<path d="M70.5 1148.5L86.5 1139L196.5 1202V1221L70.5 1148.5Z" fill="#C6A6FF"/>
<path d="M307.5 1286L323.5 1276.5L433.5 1339.5V1358.5L307.5 1286Z" fill="#C6A6FF"/>
<path d="M546.5 1424L562.5 1414L672.5 1477.5V1496.5L546.5 1424Z" fill="#C6A6FF"/>
<path d="M70.5 1371L86.5 1361L196.5 1424.5V1443.5L70.5 1371Z" fill="#C6A6FF"/>
<path d="M307.5 1508.5L323.5 1498.5L433.5 1562V1581L307.5 1508.5Z" fill="#C6A6FF"/>
<path d="M546.5 1645.5L562.5 1636L672.5 1700V1719L546.5 1645.5Z" fill="#C6A6FF"/>
<path d="M70.5 1593L86.5 1583.5L196.5 1646.5V1665.5L70.5 1593Z" fill="#C6A6FF"/>
<path d="M307.5 1730.5L323.5 1720.5L433.5 1783.5V1803L307.5 1730.5Z" fill="#C6A6FF"/>
<path d="M546.5 1867.5L562.5 1858L672.5 1922V1941L546.5 1867.5Z" fill="#C6A6FF"/>
<path d="M70.5 1816L86.5 1806L196.5 1869.18V1888.5L70.5 1816Z" fill="#C6A6FF"/>
<path d="M307.5 1952.5L323.5 1943.5L433.5 2006.5V2026L307.5 1952.5Z" fill="#C6A6FF"/>
<path d="M546.5 2090L562.5 2080.5L672.5 2143.5V2162.5L546.5 2090Z" fill="#C6A6FF"/>
<path d="M70.5 2037.5L86.5 2028.5L196.5 2091.5V2110.5L70.5 2037.5Z" fill="#C6A6FF"/>
<path d="M307.5 2175.5L323.5 2166L433.5 2229V2248L307.5 2175.5Z" fill="#C6A6FF"/>
<path d="M546.5 2312.5L562.5 2303L672.5 2367V2386L546.5 2312.5Z" fill="#C6A6FF"/>
<path d="M69.5 2259L85.5 2249.5L195.5 2312.5V2331.5L69.5 2259Z" fill="#C6A6FF"/>
<path d="M306.5 2396.5L322.5 2387L432.5 2450V2469L306.5 2396.5Z" fill="#C6A6FF"/>
<path d="M545.5 2533.5L561.5 2524L671.5 2588V2607L545.5 2533.5Z" fill="#C6A6FF"/>
<path d="M902.5 1422.5L887.5 1413L776.5 1476.5V1495L902.5 1422.5Z" fill="#8800FF"/>
<path d="M1141.5 1284.5L1125.5 1275.5L1015.5 1338V1357L1141.5 1284.5Z" fill="#8800FF"/>
<path d="M1378.5 1146.5L1362.5 1138L1252.5 1201.5V1220L1378.5 1146.5Z" fill="#8800FF"/>
<path d="M1141.5 1506.5L1126 1497.5L1015.5 1560.5V1579L1141.5 1506.5Z" fill="#C997FF"/>
<path d="M1378.5 1368.5L1362.5 1360L1253 1423.5V1442L1378.5 1368.5Z" fill="#C997FF"/>
<path d="M1141.5 1728.5L1125.5 1719L1015.5 1782.5V1801L1141.5 1728.5Z" fill="#8800FF"/>
<path d="M902.5 2088.5L886.5 2079L776.5 2142V2160.5L902.5 2088.5Z" fill="#8800FF"/>
<path d="M1029 2546.5L1017 2538.5L724 2707V2723.5L1029 2546.5Z" fill="#821CFF"/>
<path d="M9 2310.5L22.5 2303L724 2707V2723.5L9 2310.5Z" fill="#CBA5FF"/>
<path d="M1437 2311.5L1424.5 2303.5L1142.5 2468L1156 2476.5L1437 2311.5Z" fill="#821CFF"/>
<path d="M1029 2598.5V2546.5L724 2723.5V2774L1029 2598.5Z" fill="#3F008D"/>
<path d="M9 2374.5V2310.5L724 2723.5V2784.5L9 2374.5Z" fill="#6000B4"/>
<path d="M1437 2374V2311.5L1154.5 2475.5V2539L1437 2374Z" fill="#3F008D"/>
<path d="M1029 2609V2546.5L724 2723.5V2784.5L1029 2609Z" fill="#3F008D"/>
<path d="M1029 2609L1154.5 2539L1125.5 2523.5L1029 2574V2609Z" fill="#200046"/>
<path d="M70.5 1162V1148.5L196.5 1221V1235L70.5 1162Z" fill="#6000B4"/>
<path d="M307.5 1300V1286L433.5 1358.5V1373L307.5 1300Z" fill="#6000B4"/>
<path d="M546.5 1438V1424L672.5 1496.5V1511L546.5 1438Z" fill="#6000B4"/>
<path d="M902.5 1644.5L887.5 1635L776.5 1698.5V1717L902.5 1644.5Z" fill="#8800FF"/>
<path d="M1141 1506.5L1126 1497.5L1016 1560.5V1579L1141 1506.5Z" fill="#8800FF"/>
<path d="M1378 1369.5L1363 1360.5L1253 1423.5V1442L1378 1369.5Z" fill="#8800FF"/>
<path d="M902.5 1866.5L886.5 1857L776.5 1920V1938.5L902.5 1866.5Z" fill="#8800FF"/>
<path d="M1378.5 1590.5L1362.5 1582L1252.5 1645.31V1664L1378.5 1590.5Z" fill="#8800FF"/>
<path d="M1141.5 1950.5L1125.5 1941L1015.5 2004.5V2023L1141.5 1950.5Z" fill="#8800FF"/>
<path d="M1378.5 1812.5L1362.5 1803.5L1253.5 1866.5V1885.5L1378.5 1812.5Z" fill="#8800FF"/>
<path d="M902.5 2311L886.5 2301.5L777.5 2365V2383.5L902.5 2311Z" fill="#8800FF"/>
<path d="M1141.5 2173.5L1125.5 2163L1016 2227.5V2246L1141.5 2173.5Z" fill="#8800FF"/>
<path d="M1379 2036L1363.5 2026.5L1253.5 2090.5V2109L1379 2036Z" fill="#8800FF"/>
<path d="M903.5 2532.5L887.5 2523L777.5 2587V2605.5L903.5 2532.5Z" fill="#8800FF"/>
<path d="M1379.5 2257.5L1363.5 2248L1253.5 2312.5V2331L1379.5 2257.5Z" fill="#8800FF"/>
<path d="M1378.5 1160V1146.5L1252.5 1219V1233L1378.5 1160Z" fill="#3A0078"/>
<path d="M1141.5 1298V1284.5L1015.5 1357V1371L1141.5 1298Z" fill="#3A0078"/>
<path d="M902.5 1436V1422.5L776.5 1495V1509L902.5 1436Z" fill="#3A0078"/>
<path d="M1378.5 1382V1368.5L1253 1441V1455L1378.5 1382Z" fill="#3A0078"/>
<path d="M1141.5 1520V1506.5L1015.5 1579V1593L1141.5 1520Z" fill="#3A0078"/>
<path d="M902.5 1658V1644.5L776.5 1717V1731L902.5 1658Z" fill="#3A0078"/>
<path d="M1378.5 1604V1590.5L1252.5 1663V1677L1378.5 1604Z" fill="#3A0078"/>
<path d="M1141.5 1742V1728.5L1015.5 1801V1815L1141.5 1742Z" fill="#3A0078"/>
<path d="M902.5 1880V1866.5L776.5 1938.5V1953L902.5 1880Z" fill="#3A0078"/>
<path d="M1378.5 1826V1812.5L1253.5 1885V1898.5L1378.5 1826Z" fill="#3A0078"/>
<path d="M1141.5 1964V1950.5L1015.5 2023V2037L1141.5 1964Z" fill="#3A0078"/>
<path d="M902.5 2102V2088.5L776.5 2160.5V2175L902.5 2102Z" fill="#3A0078"/>
<path d="M1379 2049V2036L1253.5 2108V2122L1379 2049Z" fill="#3A0078"/>
<path d="M1141.5 2187V2173.5L1016 2246V2260L1141.5 2187Z" fill="#3A0078"/>
<path d="M902.5 2325V2311L777.5 2383.5V2398L902.5 2325Z" fill="#3A0078"/>
<path d="M1379.5 2271V2257.5L1253.5 2330V2344L1379.5 2271Z" fill="#3A0078"/>
<path d="M903.5 2547V2532.5L777.5 2605.5V2620L903.5 2547Z" fill="#3A0078"/>
<path d="M70.5 1385V1371L196.5 1443.5V1458L70.5 1385Z" fill="#6000B4"/>
<path d="M307.5 1523V1508.5L433.5 1581V1596L307.5 1523Z" fill="#6000B4"/>
<path d="M546.5 1660V1645.5L672.5 1719V1734L546.5 1660Z" fill="#6000B4"/>
<path d="M70.5 1607V1593L196.5 1665.5V1680L70.5 1607Z" fill="#6000B4"/>
<path d="M307.5 1745V1730.5L433.5 1803V1818L307.5 1745Z" fill="#6000B4"/>
<path d="M546.5 1883V1867.5L672.5 1941V1956L546.5 1883Z" fill="#6000B4"/>
<path d="M70.5 1830V1816L196.5 1888.5V1903L70.5 1830Z" fill="#6000B4"/>
<path d="M307.5 1968V1952.5L433.5 2026V2041L307.5 1968Z" fill="#6000B4"/>
<path d="M546.5 2106V2090L672.5 2162.5V2179L546.5 2106Z" fill="#6000B4"/>
<path d="M70.5 2051V2037.5L196.5 2110V2124L70.5 2051Z" fill="#6000B4"/>
<path d="M307.5 2189V2175.5L433.5 2248V2262L307.5 2189Z" fill="#6000B4"/>
<path d="M546.5 2327V2312.5L672.5 2386V2400L546.5 2327Z" fill="#6000B4"/>
<path d="M69.5 2273V2259L195.5 2331.5V2346L69.5 2273Z" fill="#6000B4"/>
<path d="M306.5 2411V2396.5L432.5 2469V2484L306.5 2411Z" fill="#6000B4"/>
<path d="M545.5 2549V2533.5L671.5 2607V2622L545.5 2549Z" fill="#6000B4"/>
<path d="M1142.5 2468L1154.5 2475.5V2539L1142.5 2532.5V2468Z" fill="#3D007F"/>
<path d="M0 416.5V462L724 44.9996L1447.5 461.5V416L724.5 0L0 416.5Z" fill="#C179FF"/>
<path d="M1424 457.5L723.5 862L724 2250L1424 1843V457.5Z" fill="#0A0042"/>
<path d="M22.5 457.5L724 862.5V2249.5L22.5 1841.5V457.5Z" fill="#A667FF"/>
<path d="M723 863L1424 458L723.5 54L23 459L723 863Z" fill="#6A00FF"/>
<path d="M86.5 558.5L196.5 624V761L86.5 698V558.5Z" fill="#FFD700" fill-opacity="0.85"/>
<path d="M323.5 695.5L433.5 759V898.5L323.5 835.5V695.5Z" fill="#2B0074"/>
<path d="M562.5 833.5L672.5 898V1036.5L561.5 972.5L562.5 833.5Z" fill="#2B0074"/>
<path d="M1125.5 694.5L1015.5 759V897.5L1125.5 834.5V694.5Z" fill="#1A002B"/>
<path d="M1362.5 557.5L1252.5 622V761.5L1362.5 697.5V557.5Z" fill="#FFD700" fill-opacity="0.5"/>
<path d="M887.5 1054L777.5 1117L776.5 1257.5L887.5 1194V1054Z" fill="#FFD700" fill-opacity="0.5"/>
<path d="M1125.5 916.5L1015.5 980V1119.5L1126 1056.5L1125.5 916.5Z" fill="#1A002B"/>
<path d="M887.5 832L776.5 896V1035.5L887.5 972V832Z" fill="#1A002B"/>
<path d="M1363.5 779.5L1253 843.5V982.5L1363.5 919.5V779.5Z" fill="#1A002B"/>
<path d="M887.5 1276.5L776.5 1340.5V1480L887.5 1416.5V1276.5Z" fill="#1A002B"/>
<path d="M1125.5 1138.5L1015.5 1202.5V1342.5L1125.5 1279.5V1138.5Z" fill="#FFD700" fill-opacity="0.5"/>
<path d="M1363.5 1001L1252.5 1064V1204L1363.5 1141V1001Z" fill="#1A002B"/>
<path d="M887.5 1498.5L776.5 1562.5V1701L887.5 1638.5V1498.5Z" fill="#1A002B"/>
<path d="M1125.5 1360.5L1015.5 1424V1564.5L1125.5 1501.5V1360.5Z" fill="#1A002B"/>
<path d="M1363.5 1223L1253.5 1287V1427.5L1363.5 1364.5V1223Z" fill="#1A002B"/>
<path d="M886.5 1720.5L777.5 1783V1924.5L887.5 1861.5L886.5 1720.5Z" fill="#FFD700" fill-opacity="0.5"/>
<path d="M1125.5 1582.5L1016 1647V1787L1125.5 1724.5V1582.5Z" fill="#1A002B"/>
<path d="M1363.5 1445.5L1253.5 1511V1650.5L1363.5 1585.5V1445.5Z" fill="#1A002B"/>
<path d="M887.5 1942.5L777.5 2006V2145.5L887.5 2082.5V1942.5Z" fill="#1A002B"/>
<path d="M1363.5 1667.5L1253.5 1731V1871.5L1363.5 1808.5V1667.5Z" fill="#FFD700" fill-opacity="0.5"/>
<path d="M562.5 1055.5L672.5 1117.5V1259L562.5 1195V1055.5Z" fill="#2B0074"/>
<path d="M323.5 917.5L433.5 981V1121L323.5 1057.5V917.5Z" fill="#FFD700" fill-opacity="0.85"/>
<path d="M86.5 780.5L196.5 844V983.5L85.5 919.5L86.5 780.5Z" fill="#2B0074"/>
<path d="M562.5 1277.5L672.5 1340V1481L562.5 1417V1277.5Z" fill="#2B0074"/>
<path d="M323.5 1139.5L433.5 1203V1342.5L323.5 1279.5V1139.5Z" fill="#2B0074"/>
<path d="M86.5 1002.5L196.5 1066.5V1205.5L85.5 1142L86.5 1002.5Z" fill="#2B0074"/>
<path d="M562.5 1500.5L672.5 1565V1702.5L561.5 1639L562.5 1500.5Z" fill="#2B0074"/>
<path d="M323.5 1362.5L433.5 1426V1565.5L323.5 1502.5V1362.5Z" fill="#2B0074"/>
<path d="M86.5 1225.5L196.5 1285V1428.5L86.5 1365V1225.5Z" fill="#FFD700" fill-opacity="0.85"/>
<path d="M562.5 1722.5L672.5 1787V1926L562.5 1862V1722.5Z" fill="#FFD700" fill-opacity="0.85"/>
<path d="M323.5 1584.5L433.5 1648V1788L323.5 1725V1584.5Z" fill="#FFD700" fill-opacity="0.85"/>
<path d="M86.5 1447.5L196.5 1513V1650.5L86.5 1587.5V1447.5Z" fill="#2B0074"/>
<path d="M561.5 1943.5L671.5 2006V2147L561.5 2083V1943.5Z" fill="#2B0074"/>
<path d="M323.5 1806.5L432.5 1870.5V2009L322.5 1946L323.5 1806.5Z" fill="#2B0074"/>
<path d="M85.5 1668.5L195.5 1732V1871.5L85.5 1808.5V1668.5Z" fill="#2B0074"/>
<path d="M70.5 549.5L86.5 558.5V698L70.5 707.74V549.5Z" fill="#821CFF"/>
<path d="M70.5 549.5L86.5 558.5V698L70.5 707.74V549.5Z" fill="#821CFF"/>
<path d="M70.5 549.5L86.5 558.5V698L70.5 707.74V549.5Z" fill="#821CFF"/>
<path d="M70.5 549.5L86.5 558.5V698L70.5 707.74V549.5Z" stroke="#5500BD"/>
<path d="M307.5 686.5L323.5 695.5V835.5L307.5 845V686.5Z" fill="#821CFF"/>
<path d="M307.5 686.5L323.5 695.5V835.5L307.5 845V686.5Z" fill="#821CFF"/>
<path d="M307.5 686.5L323.5 695.5V835.5L307.5 845V686.5Z" fill="#821CFF"/>
<path d="M307.5 686.5L323.5 695.5V835.5L307.5 845V686.5Z" stroke="#5500BD"/>
<path d="M546.5 824.5L562.5 833.5V973L546.5 983V824.5Z" fill="#821CFF"/>
<path d="M546.5 824.5L562.5 833.5V973L546.5 983V824.5Z" fill="#821CFF"/>
<path d="M546.5 824.5L562.5 833.5V973L546.5 983V824.5Z" fill="#821CFF"/>
<path d="M546.5 824.5L562.5 833.5V973L546.5 983V824.5Z" stroke="#5500BD"/>
<path d="M1378.5 548.5L1362.5 557.5V697L1378.5 706.74V548.5Z" fill="#821CFF"/>
<path d="M1378.5 548.5L1362.5 557.5V697L1378.5 706.74V548.5Z" fill="#821CFF"/>
<path d="M1378.5 548.5L1362.5 557.5V697L1378.5 706.74V548.5Z" fill="#440080"/>
<path d="M1378.5 548.5L1362.5 557.5V697L1378.5 706.74V548.5Z" stroke="#5500BD"/>
<path d="M1141.5 685.5L1125.5 694.5V834.5L1141.5 843.74V685.5Z" fill="#821CFF"/>
<path d="M1141.5 685.5L1125.5 694.5V834.5L1141.5 843.74V685.5Z" fill="#821CFF"/>
<path d="M1141.5 685.5L1125.5 694.5V834.5L1141.5 843.74V685.5Z" fill="#440080"/>
<path d="M1141.5 685.5L1125.5 694.5V834.5L1141.5 843.74V685.5Z" stroke="#5500BD"/>
<path d="M902.5 823.5L887.5 832V972L902.5 981.74V823.5Z" fill="#821CFF"/>
<path d="M902.5 823.5L887.5 832V972L902.5 981.74V823.5Z" fill="#821CFF"/>
<path d="M902.5 823.5L887.5 832V972L902.5 981.74V823.5Z" fill="#440080"/>
<path d="M902.5 823.5L887.5 832V972L902.5 981.74V823.5Z" stroke="#5500BD"/>
<path d="M1378.5 770.5L1362.5 779.5V919L1378.5 928.74V770.5Z" fill="#821CFF"/>
<path d="M1378.5 770.5L1362.5 779.5V919L1378.5 928.74V770.5Z" fill="#821CFF"/>
<path d="M1378.5 770.5L1362.5 779.5V919L1378.5 928.74V770.5Z" fill="#440080"/>
<path d="M1378.5 770.5L1362.5 779.5V919L1378.5 928.74V770.5Z" stroke="#5500BD"/>
<path d="M1141.5 907.5L1125.5 916.5L1126 1056.5L1141.5 1065.74V907.5Z" fill="#821CFF"/>
<path d="M1141.5 907.5L1125.5 916.5L1126 1056.5L1141.5 1065.74V907.5Z" fill="#821CFF"/>
<path d="M1141.5 907.5L1125.5 916.5L1126 1056.5L1141.5 1065.74V907.5Z" fill="#440080"/>
<path d="M1141.5 907.5L1125.5 916.5L1126 1056.5L1141.5 1065.74V907.5Z" stroke="#5500BD"/>
<path d="M902.5 1045.5L887.5 1054V1194L902.5 1203.74V1045.5Z" fill="#821CFF"/>
<path d="M902.5 1045.5L887.5 1054V1194L902.5 1203.74V1045.5Z" fill="#821CFF"/>
<path d="M902.5 1045.5L887.5 1054V1194L902.5 1203.74V1045.5Z" fill="#440080"/>
<path d="M902.5 1045.5L887.5 1054V1194L902.5 1203.74V1045.5Z" stroke="#5500BD"/>
<path d="M1378.5 992.5L1362.5 1001.5V1141L1378.5 1150.74V992.5Z" fill="#821CFF"/>
<path d="M1378.5 992.5L1362.5 1001.5V1141L1378.5 1150.74V992.5Z" fill="#821CFF"/>
<path d="M1378.5 992.5L1362.5 1001.5V1141L1378.5 1150.74V992.5Z" fill="#440080"/>
<path d="M1378.5 992.5L1362.5 1001.5V1141L1378.5 1150.74V992.5Z" stroke="#5500BD"/>
<path d="M1141.5 1129.5L1125.5 1138.5V1278L1141.5 1287.74V1129.5Z" fill="#821CFF"/>
<path d="M1141.5 1129.5L1125.5 1138.5V1278L1141.5 1287.74V1129.5Z" fill="#821CFF"/>
<path d="M1141.5 1129.5L1125.5 1138.5V1278L1141.5 1287.74V1129.5Z" fill="#440080"/>
<path d="M1141.5 1129.5L1125.5 1138.5V1278L1141.5 1287.74V1129.5Z" stroke="#5500BD"/>
<path d="M902.5 1267.5L886.5 1276.5V1416L902.5 1425.74V1267.5Z" fill="#821CFF"/>
<path d="M902.5 1267.5L886.5 1276.5V1416L902.5 1425.74V1267.5Z" fill="#821CFF"/>
<path d="M902.5 1267.5L886.5 1276.5V1416L902.5 1425.74V1267.5Z" fill="#440080"/>
<path d="M902.5 1267.5L886.5 1276.5V1416L902.5 1425.74V1267.5Z" stroke="#5500BD"/>
<path d="M1378.5 1214.5L1362.5 1223.5V1363L1378.5 1372.74V1214.5Z" fill="#821CFF"/>
<path d="M1378.5 1214.5L1362.5 1223.5V1363L1378.5 1372.74V1214.5Z" fill="#821CFF"/>
<path d="M1378.5 1214.5L1362.5 1223.5V1363L1378.5 1372.74V1214.5Z" fill="#440080"/>
<path d="M1378.5 1214.5L1362.5 1223.5V1363L1378.5 1372.74V1214.5Z" stroke="#5500BD"/>
<path d="M1141.5 1351.5L1125.5 1360.5V1500L1141.5 1509.74V1351.5Z" fill="#821CFF"/>
<path d="M1141.5 1351.5L1125.5 1360.5V1500L1141.5 1509.74V1351.5Z" fill="#821CFF"/>
<path d="M1141.5 1351.5L1125.5 1360.5V1500L1141.5 1509.74V1351.5Z" fill="#440080"/>
<path d="M1141.5 1351.5L1125.5 1360.5V1500L1141.5 1509.74V1351.5Z" stroke="#5500BD"/>
<path d="M902.5 1489.5L886.5 1498.5V1638L902.5 1647.74V1489.5Z" fill="#821CFF"/>
<path d="M902.5 1489.5L886.5 1498.5V1638L902.5 1647.74V1489.5Z" fill="#821CFF"/>
<path d="M902.5 1489.5L886.5 1498.5V1638L902.5 1647.74V1489.5Z" fill="#440080"/>
<path d="M902.5 1489.5L886.5 1498.5V1638L902.5 1647.74V1489.5Z" stroke="#5500BD"/>
<path d="M1378.5 1436.5L1363.5 1445.5V1585.5L1378.5 1594.74V1436.5Z" fill="#821CFF"/>
<path d="M1378.5 1436.5L1363.5 1445.5V1585.5L1378.5 1594.74V1436.5Z" fill="#821CFF"/>
<path d="M1378.5 1436.5L1363.5 1445.5V1585.5L1378.5 1594.74V1436.5Z" fill="#440080"/>
<path d="M1378.5 1436.5L1363.5 1445.5V1585.5L1378.5 1594.74V1436.5Z" stroke="#5500BD"/>
<path d="M1141.5 1573.5L1125.5 1582.5V1722L1141.5 1732.5V1573.5Z" fill="#821CFF"/>
<path d="M1141.5 1573.5L1125.5 1582.5V1722L1141.5 1732.5V1573.5Z" fill="#821CFF"/>
<path d="M1141.5 1573.5L1125.5 1582.5V1722L1141.5 1732.5V1573.5Z" fill="#440080"/>
<path d="M1141.5 1573.5L1125.5 1582.5V1722L1141.5 1732.5V1573.5Z" stroke="#5500BD"/>
<path d="M902.5 1711.5L886.5 1720.5V1860.5L902.5 1870V1711.5Z" fill="#821CFF"/>
<path d="M902.5 1711.5L886.5 1720.5V1860.5L902.5 1870V1711.5Z" fill="#821CFF"/>
<path d="M902.5 1711.5L886.5 1720.5V1860.5L902.5 1870V1711.5Z" fill="#440080"/>
<path d="M902.5 1711.5L886.5 1720.5V1860.5L902.5 1870V1711.5Z" stroke="#5500BD"/>
<path d="M1379.5 1658.5L1363.5 1667.5V1807L1379.5 1816.74V1658.5Z" fill="#821CFF"/>
<path d="M1379.5 1658.5L1363.5 1667.5V1807L1379.5 1816.74V1658.5Z" fill="#821CFF"/>
<path d="M1379.5 1658.5L1363.5 1667.5V1807L1379.5 1816.74V1658.5Z" fill="#440080"/>
<path d="M1379.5 1658.5L1363.5 1667.5V1807L1379.5 1816.74V1658.5Z" stroke="#5500BD"/>
<path d="M903.5 1933.5L887.5 1942.5V2082L903.5 2091.74V1933.5Z" fill="#821CFF"/>
<path d="M903.5 1933.5L887.5 1942.5V2082L903.5 2091.74V1933.5Z" fill="#821CFF"/>
<path d="M903.5 1933.5L887.5 1942.5V2082L903.5 2091.74V1933.5Z" fill="#440080"/>
<path d="M903.5 1933.5L887.5 1942.5V2082L903.5 2091.74V1933.5Z" stroke="#5500BD"/>
<path d="M70.5 771.5L86.5 780.5V920L70.5 930V771.5Z" fill="#821CFF"/>
<path d="M70.5 771.5L86.5 780.5V920L70.5 930V771.5Z" fill="#821CFF"/>
<path d="M70.5 771.5L86.5 780.5V920L70.5 930V771.5Z" fill="#821CFF"/>
<path d="M70.5 771.5L86.5 780.5V920L70.5 930V771.5Z" stroke="#5500BD"/>
<path d="M307.5 908.5L323.5 917.5V1057.5L307.5 1067.5V908.5Z" fill="#821CFF"/>
<path d="M307.5 908.5L323.5 917.5V1057.5L307.5 1067.5V908.5Z" fill="#821CFF"/>
<path d="M307.5 908.5L323.5 917.5V1057.5L307.5 1067.5V908.5Z" fill="#821CFF"/>
<path d="M307.5 908.5L323.5 917.5V1057.5L307.5 1067.5V908.5Z" stroke="#5500BD"/>
<path d="M546.5 1046.5L562.5 1055.5V1195L546.5 1204.74V1046.5Z" fill="#821CFF"/>
<path d="M546.5 1046.5L562.5 1055.5V1195L546.5 1204.74V1046.5Z" fill="#821CFF"/>
<path d="M546.5 1046.5L562.5 1055.5V1195L546.5 1204.74V1046.5Z" fill="#821CFF"/>
<path d="M546.5 1046.5L562.5 1055.5V1195L546.5 1204.74V1046.5Z" stroke="#5500BD"/>
<path d="M70.5 993.5L86.5 1002.5V1142.5L70.5 1152V993.5Z" fill="#821CFF"/>
<path d="M70.5 993.5L86.5 1002.5V1142.5L70.5 1152V993.5Z" fill="#821CFF"/>
<path d="M70.5 993.5L86.5 1002.5V1142.5L70.5 1152V993.5Z" fill="#821CFF"/>
<path d="M70.5 993.5L86.5 1002.5V1142.5L70.5 1152V993.5Z" stroke="#5500BD"/>
<path d="M307.5 1130.5L323.5 1139.5V1279.5L307.5 1289.5V1130.5Z" fill="#821CFF"/>
<path d="M307.5 1130.5L323.5 1139.5V1279.5L307.5 1289.5V1130.5Z" fill="#821CFF"/>
<path d="M307.5 1130.5L323.5 1139.5V1279.5L307.5 1289.5V1130.5Z" fill="#821CFF"/>
<path d="M307.5 1130.5L323.5 1139.5V1279.5L307.5 1289.5V1130.5Z" stroke="#5500BD"/>
<path d="M546.5 1268.5L562.5 1277.5V1417L546.5 1426.74V1268.5Z" fill="#821CFF"/>
<path d="M546.5 1268.5L562.5 1277.5V1417L546.5 1426.74V1268.5Z" fill="#821CFF"/>
<path d="M546.5 1268.5L562.5 1277.5V1417L546.5 1426.74V1268.5Z" fill="#821CFF"/>
<path d="M546.5 1268.5L562.5 1277.5V1417L546.5 1426.74V1268.5Z" stroke="#5500BD"/>
<path d="M70.5 1216.5L86.5 1225.5V1365L70.5 1375V1216.5Z" fill="#821CFF"/>
<path d="M70.5 1216.5L86.5 1225.5V1365L70.5 1375V1216.5Z" fill="#821CFF"/>
<path d="M70.5 1216.5L86.5 1225.5V1365L70.5 1375V1216.5Z" fill="#821CFF"/>
<path d="M70.5 1216.5L86.5 1225.5V1365L70.5 1375V1216.5Z" stroke="#5500BD"/>
<path d="M307.5 1353.5L323.5 1362.5V1502.5L307.5 1511.74V1353.5Z" fill="#821CFF"/>
<path d="M307.5 1353.5L323.5 1362.5V1502.5L307.5 1511.74V1353.5Z" fill="#821CFF"/>
<path d="M307.5 1353.5L323.5 1362.5V1502.5L307.5 1511.74V1353.5Z" fill="#821CFF"/>
<path d="M307.5 1353.5L323.5 1362.5V1502.5L307.5 1511.74V1353.5Z" stroke="#5500BD"/>
<path d="M546.5 1491.5L562.5 1500.5V1640L546.5 1649.74V1491.5Z" fill="#821CFF"/>
<path d="M546.5 1491.5L562.5 1500.5V1640L546.5 1649.74V1491.5Z" fill="#821CFF"/>
<path d="M546.5 1491.5L562.5 1500.5V1640L546.5 1649.74V1491.5Z" fill="#821CFF"/>
<path d="M546.5 1491.5L562.5 1500.5V1640L546.5 1649.74V1491.5Z" stroke="#5500BD"/>
<path d="M70.5 1438.5L86.5 1447.5V1587.5L70.5 1596.74V1438.5Z" fill="#821CFF"/>
<path d="M70.5 1438.5L86.5 1447.5V1587.5L70.5 1596.74V1438.5Z" fill="#821CFF"/>
<path d="M70.5 1438.5L86.5 1447.5V1587.5L70.5 1596.74V1438.5Z" fill="#821CFF"/>
<path d="M70.5 1438.5L86.5 1447.5V1587.5L70.5 1596.74V1438.5Z" stroke="#5500BD"/>
<path d="M307.5 1575.5L323.5 1584.5V1725L307.5 1734.5V1575.5Z" fill="#821CFF"/>
<path d="M307.5 1575.5L323.5 1584.5V1725L307.5 1734.5V1575.5Z" fill="#821CFF"/>
<path d="M307.5 1575.5L323.5 1584.5V1725L307.5 1734.5V1575.5Z" fill="#821CFF"/>
<path d="M307.5 1575.5L323.5 1584.5V1725L307.5 1734.5V1575.5Z" stroke="#5500BD"/>
<path d="M546.5 1713.5L562.5 1722.5V1862L546.5 1871.74V1713.5Z" fill="#821CFF"/>
<path d="M546.5 1713.5L562.5 1722.5V1862L546.5 1871.74V1713.5Z" fill="#821CFF"/>
<path d="M546.5 1713.5L562.5 1722.5V1862L546.5 1871.74V1713.5Z" fill="#821CFF"/>
<path d="M546.5 1713.5L562.5 1722.5V1862L546.5 1871.74V1713.5Z" stroke="#5500BD"/>
<path d="M69.5 1659.5L85.5 1668.5V1808.5L69.5 1818V1659.5Z" fill="#821CFF"/>
<path d="M69.5 1659.5L85.5 1668.5V1808.5L69.5 1818V1659.5Z" fill="#821CFF"/>
<path d="M69.5 1659.5L85.5 1668.5V1808.5L69.5 1818V1659.5Z" fill="#821CFF"/>
<path d="M69.5 1659.5L85.5 1668.5V1808.5L69.5 1818V1659.5Z" stroke="#5500BD"/>
<path d="M306.5 1796.5L323.5 1806.5L322.5 1946L306.5 1955.5V1796.5Z" fill="#821CFF"/>
<path d="M306.5 1796.5L323.5 1806.5L322.5 1946L306.5 1955.5V1796.5Z" fill="#821CFF"/>
<path d="M306.5 1796.5L323.5 1806.5L322.5 1946L306.5 1955.5V1796.5Z" fill="#821CFF"/>
<path d="M306.5 1796.5L323.5 1806.5L322.5 1946L306.5 1955.5V1796.5Z" stroke="#5500BD"/>
<path d="M545.5 1934.5L561.5 1943.5V2083L545.5 2092.74V1934.5Z" fill="#821CFF"/>
<path d="M545.5 1934.5L561.5 1943.5V2083L545.5 2092.74V1934.5Z" fill="#821CFF"/>
<path d="M545.5 1934.5L561.5 1943.5V2083L545.5 2092.74V1934.5Z" fill="#821CFF"/>
<path d="M545.5 1934.5L561.5 1943.5V2083L545.5 2092.74V1934.5Z" stroke="#5500BD"/>
<path d="M70.5 707.5L86.5 698L196.5 761V780L70.5 707.5Z" fill="#C6A6FF"/>
<path d="M70.5 707.5L86.5 698L196.5 761V780L70.5 707.5Z" fill="#C6A6FF"/>
<path d="M307.5 845L323.5 835.5L433.5 898.5V917.5L307.5 845Z" fill="#C6A6FF"/>
<path d="M546.5 983L562.5 973L672.5 1036.5V1055.5L546.5 983Z" fill="#C6A6FF"/>
<path d="M70.5 930L86.5 920L196.5 983.5V1002.5L70.5 930Z" fill="#C6A6FF"/>
<path d="M307.5 1067.5L323.5 1057.5L433.5 1121V1140L307.5 1067.5Z" fill="#C6A6FF"/>
<path d="M546.5 1204.5L562.5 1195L672.5 1259V1278L546.5 1204.5Z" fill="#C6A6FF"/>
<path d="M70.5 1152L86.5 1142.5L196.5 1205.5V1224.5L70.5 1152Z" fill="#C6A6FF"/>
<path d="M307.5 1289.5L323.5 1279.5L433.5 1342.5V1362L307.5 1289.5Z" fill="#C6A6FF"/>
<path d="M546.5 1426.5L562.5 1417L672.5 1481V1500L546.5 1426.5Z" fill="#C6A6FF"/>
<path d="M70.5 1375L86.5 1365L196.5 1428.18V1447.5L70.5 1375Z" fill="#C6A6FF"/>
<path d="M307.5 1511.5L323.5 1502.5L433.5 1565.5V1585L307.5 1511.5Z" fill="#C6A6FF"/>
<path d="M546.5 1649L562.5 1639.5L672.5 1702.5V1721.5L546.5 1649Z" fill="#C6A6FF"/>
<path d="M70.5 1596.5L86.5 1587.5L196.5 1650.5V1669.5L70.5 1596.5Z" fill="#C6A6FF"/>
<path d="M307.5 1734.5L323.5 1725L433.5 1788V1807L307.5 1734.5Z" fill="#C6A6FF"/>
<path d="M546.5 1871.5L562.5 1862L672.5 1926V1945L546.5 1871.5Z" fill="#C6A6FF"/>
<path d="M69.5 1818L85.5 1808.5L195.5 1871.5V1890.5L69.5 1818Z" fill="#C6A6FF"/>
<path d="M306.5 1955.5L322.5 1946L432.5 2009V2028L306.5 1955.5Z" fill="#C6A6FF"/>
<path d="M545.5 2092.5L561.5 2083L671.5 2147V2166L545.5 2092.5Z" fill="#C6A6FF"/>
<path d="M902.5 981.5L887.5 972L776.5 1035.5V1054L902.5 981.5Z" fill="#8800FF"/>
<path d="M1141.5 843.5L1125.5 834.5L1015.5 897V916L1141.5 843.5Z" fill="#8800FF"/>
<path d="M1378.5 705.5L1362.5 697L1252.5 760.5V779L1378.5 705.5Z" fill="#8800FF"/>
<path d="M1141.5 1065.5L1126 1056.5L1015.5 1119.5V1138L1141.5 1065.5Z" fill="#C997FF"/>
<path d="M1378.5 927.5L1362.5 919L1253 982.5V1001L1378.5 927.5Z" fill="#C997FF"/>
<path d="M1141.5 1287.5L1125.5 1278L1015.5 1341.5V1360L1141.5 1287.5Z" fill="#8800FF"/>
<path d="M902.5 1647.5L886.5 1638L776.5 1701V1719.5L902.5 1647.5Z" fill="#8800FF"/>
<path d="M724 879L0 462L724.5 43.5L1447.5 461.5L724 879Z" fill="#DEC4FF"/>
<path d="M724.165 732.5L239 457.165L724.495 181.5L1201.5 457.165L724.165 732.5Z" fill="#BE68FF"/>
<path d="M70.5 721V707.5L196.5 780V794L70.5 721Z" fill="#6000B4"/>
<path d="M307.5 859V845L433.5 917.5V932L307.5 859Z" fill="#6000B4"/>
<path d="M546.5 997V983L672.5 1055.5V1070L546.5 997Z" fill="#6000B4"/>
<path d="M902.5 1203.5L887.5 1194L776.5 1257.5V1276L902.5 1203.5Z" fill="#8800FF"/>
<path d="M1141 1065.5L1126 1056.5L1016 1119.5V1138L1141 1065.5Z" fill="#8800FF"/>
<path d="M1378 928.5L1363 919.5L1253 982.5V1001L1378 928.5Z" fill="#8800FF"/>
<path d="M902.5 1425.5L886.5 1416L776.5 1479V1497.5L902.5 1425.5Z" fill="#8800FF"/>
<path d="M1378.5 1149.5L1362.5 1141L1252.5 1204.31V1223L1378.5 1149.5Z" fill="#8800FF"/>
<path d="M1141.5 1509.5L1125.5 1500L1015.5 1563.5V1582L1141.5 1509.5Z" fill="#8800FF"/>
<path d="M1378.5 1371.5L1362.5 1362.5L1253.5 1425.5V1444.5L1378.5 1371.5Z" fill="#8800FF"/>
<path d="M902.5 1870L886.5 1860.5L777.5 1924V1942.5L902.5 1870Z" fill="#8800FF"/>
<path d="M1141.5 1732.5L1125.5 1722L1016 1786.5V1805L1141.5 1732.5Z" fill="#8800FF"/>
<path d="M1379 1595L1363.5 1585.5L1253.5 1649.5V1668L1379 1595Z" fill="#8800FF"/>
<path d="M903.5 2091.5L887.5 2082L777.5 2146V2164.5L903.5 2091.5Z" fill="#8800FF"/>
<path d="M1379.5 1816.5L1363.5 1807L1253.5 1871.5V1890L1379.5 1816.5Z" fill="#8800FF"/>
<path d="M1378.5 719V705.5L1252.5 778V792L1378.5 719Z" fill="#3A0078"/>
<path d="M1141.5 857V843.5L1015.5 916V930L1141.5 857Z" fill="#3A0078"/>
<path d="M902.5 995V981.5L776.5 1054V1068L902.5 995Z" fill="#3A0078"/>
<path d="M1378.5 941V927.5L1253 1000V1014L1378.5 941Z" fill="#3A0078"/>
<path d="M1141.5 1079V1065.5L1015.5 1138V1152L1141.5 1079Z" fill="#3A0078"/>
<path d="M902.5 1217V1203.5L776.5 1276V1290L902.5 1217Z" fill="#3A0078"/>
<path d="M1378.5 1163V1149.5L1252.5 1222V1236L1378.5 1163Z" fill="#3A0078"/>
<path d="M1141.5 1301V1287.5L1015.5 1360V1374L1141.5 1301Z" fill="#3A0078"/>
<path d="M902.5 1439V1425.5L776.5 1497.5V1512L902.5 1439Z" fill="#3A0078"/>
<path d="M1378.5 1385V1371.5L1253.5 1444V1457.5L1378.5 1385Z" fill="#3A0078"/>
<path d="M1141.5 1523V1509.5L1015.5 1582V1596L1141.5 1523Z" fill="#3A0078"/>
<path d="M902.5 1661V1647.5L776.5 1719.5V1734L902.5 1661Z" fill="#3A0078"/>
<path d="M1379 1608V1595L1253.5 1667V1681L1379 1608Z" fill="#3A0078"/>
<path d="M1141.5 1746V1732.5L1016 1805V1819L1141.5 1746Z" fill="#3A0078"/>
<path d="M902.5 1884V1870L777.5 1942.5V1957L902.5 1884Z" fill="#3A0078"/>
<path d="M1379.5 1830V1816.5L1253.5 1889V1903L1379.5 1830Z" fill="#3A0078"/>
<path d="M903.5 2106V2091.5L777.5 2164.5V2179L903.5 2106Z" fill="#3A0078"/>
<path d="M1126 1807L1016 1870.5V2011L1126 1948V1807Z" fill="#1A002B"/>
<path d="M1142 1798L1126 1807V1946.5L1142 1956.24V1798Z" fill="#821CFF"/>
<path d="M1142 1798L1126 1807V1946.5L1142 1956.24V1798Z" fill="#821CFF"/>
<path d="M1142 1798L1126 1807V1946.5L1142 1956.24V1798Z" fill="#440080"/>
<path d="M1142 1798L1126 1807V1946.5L1142 1956.24V1798Z" stroke="#5500BD"/>
<path d="M1142 1956L1126 1946.5L1016 2011V2029.5L1142 1956Z" fill="#8800FF"/>
<path d="M1142 1969.5V1956L1016 2028.5V2042.5L1142 1969.5Z" fill="#3A0078"/>
<path d="M70.5 944V930L196.5 1002.5V1017L70.5 944Z" fill="#6000B4"/>
<path d="M307.5 1082V1067.5L433.5 1140V1155L307.5 1082Z" fill="#6000B4"/>
<path d="M546.5 1219V1204.5L672.5 1278V1293L546.5 1219Z" fill="#6000B4"/>
<path d="M70.5 1166V1152L196.5 1224.5V1239L70.5 1166Z" fill="#6000B4"/>
<path d="M307.5 1304V1289.5L433.5 1362V1377L307.5 1304Z" fill="#6000B4"/>
<path d="M546.5 1442V1426.5L672.5 1500V1515L546.5 1442Z" fill="#6000B4"/>
<path d="M70.5 1389V1375L196.5 1447.5V1462L70.5 1389Z" fill="#6000B4"/>
<path d="M307.5 1527V1511.5L433.5 1585V1600L307.5 1527Z" fill="#6000B4"/>
<path d="M546.5 1665V1649L672.5 1721.5V1738L546.5 1665Z" fill="#6000B4"/>
<path d="M70.5 1610V1596.5L196.5 1669V1683L70.5 1610Z" fill="#6000B4"/>
<path d="M307.5 1748V1734.5L433.5 1807V1821L307.5 1748Z" fill="#6000B4"/>
<path d="M546.5 1886V1871.5L672.5 1945V1959L546.5 1886Z" fill="#6000B4"/>
<path d="M69.5 1832V1818L195.5 1890.5V1905L69.5 1832Z" fill="#6000B4"/>
<path d="M306.5 1970V1955.5L432.5 2028V2043L306.5 1970Z" fill="#6000B4"/>
<path d="M545.5 2108V2092.5L671.5 2166V2181L545.5 2108Z" fill="#6000B4"/>
<path d="M724.5 43.5V0L0 416.5V462L724.5 43.5Z" fill="#6A00FF"/>
<path d="M0 462V416.5L724 833.5L1447.5 416V461.5L724 879L0 462Z" fill="#CA9FFF"/>
<path d="M724 833.5V879L1447.5 461.5V416L724 833.5Z" fill="#3A0078"/>
</svg>
