<svg width="1448" height="2344" viewBox="0 0 1448 2344" fill="none" xmlns="http://www.w3.org/2000/svg">
<path d="M0 416.5V462L724 44.9996L1447.5 461.5V416L724.5 0L0 416.5Z" fill="#FF79FF"/>
<path d="M1424 457.5L723.5 862V2332.5L1424 1924V457.5Z" fill="#3D0042"/>
<path d="M22.5 457.5L724 862.5V2333L22.5 1929.5V457.5Z" fill="#F267FF"/>
<path d="M1424 457.5L723.5 862V2332.5L1424 1924V457.5Z" fill="#3D0042"/>
<path d="M22.5 457.5L724 862.5V2333L22.5 1929.5V457.5Z" fill="#F267FF"/>
<path d="M723 863L1424 458L723.5 54L23 459L723 863Z" fill="#EA00FF"/>
<path d="M86.5 558.5L196.5 624V761L86.5 698V558.5Z" fill="#FFD700" fill-opacity="0.85"/>
<path d="M323.5 695.5L433.5 759V898.5L323.5 835.5V695.5Z" fill="#710074"/>
<path d="M562.5 833.5L672.5 898V1036.5L561.5 972.5L562.5 833.5Z" fill="#710074"/>
<path d="M1125.5 694.5L1015.5 759V897.5L1125.5 834.5V694.5Z" fill="#2A002B"/>
<path d="M1362.5 557.5L1252.5 622V761.5L1362.5 697.5V557.5Z" fill="#2A002B"/>
<path d="M887.5 1054L777.5 1117L776.5 1257.5L887.5 1194V1054Z" fill="#2A002B"/>
<path d="M1125.5 916.5L1015.5 980V1119.5L1126 1056.5L1125.5 916.5Z" fill="#FFD700" fill-opacity="0.5"/>
<path d="M887.5 832L776.5 896V1035.5L887.5 972V832Z" fill="#FFD700" fill-opacity="0.5"/>
<path d="M1363.5 779.5L1253 843.5V982.5L1363.5 919.5V779.5Z" fill="#2A002B"/>
<path d="M887.5 1276.5L776.5 1340.5V1480L887.5 1416.5V1276.5Z" fill="#FFD700" fill-opacity="0.5"/>
<path d="M1125.5 1138.5L1015.5 1202.5V1342.5L1125.5 1279.5V1138.5Z" fill="#2A002B"/>
<path d="M1363.5 1001L1252.5 1064V1204L1363.5 1141V1001Z" fill="#2A002B"/>
<path d="M887.5 1498.5L776.5 1562.5V1701L887.5 1638.5V1498.5Z" fill="#2A002B"/>
<path d="M1125.5 1360.5L1015.5 1424V1564.5L1125.5 1501.5V1360.5Z" fill="#2A002B"/>
<path d="M1363.5 1223L1253.5 1287V1427.5L1363.5 1364.5V1223Z" fill="#FFD700" fill-opacity="0.5"/>
<path d="M886.5 1720.5L777.5 1783V1924.5L887.5 1861.5L886.5 1720.5Z" fill="#2A002B"/>
<path d="M1125.5 1582.5L1016 1647V1787L1125.5 1724.5V1582.5Z" fill="#FFD700" fill-opacity="0.5"/>
<path d="M1363.5 1445.5L1253.5 1511V1650.5L1363.5 1585.5V1445.5Z" fill="#2A002B"/>
<path d="M887.5 1942.5L777.5 2006V2145.5L887.5 2082.5V1942.5Z" fill="#2A002B"/>
<path d="M1125.5 1805.5L1015.5 1869L1017.5 2145L1125.5 2083.5V1805.5Z" fill="#2A002B"/>
<path d="M1363.5 1667.5L1253.5 1731V1871.5L1363.5 1808.5V1667.5Z" fill="#2A002B"/>
<path d="M562.5 1055.5L672.5 1117.5V1259L562.5 1195V1055.5Z" fill="#710074"/>
<path d="M323.5 917.5L433.5 981V1121L323.5 1057.5V917.5Z" fill="#FFD700" fill-opacity="0.85"/>
<path d="M86.5 780.5L196.5 844V983.5L85.5 919.5L86.5 780.5Z" fill="#710074"/>
<path d="M562.5 1277.5L672.5 1340V1481L562.5 1417V1277.5Z" fill="#710074"/>
<path d="M323.5 1139.5L433.5 1203V1342.5L323.5 1279.5V1139.5Z" fill="#FFD700" fill-opacity="0.85"/>
<path d="M86.5 1002.5L196.5 1066.5V1205.5L85.5 1142L86.5 1002.5Z" fill="#710074"/>
<path d="M562.5 1500.5L672.5 1565V1702.5L561.5 1639L562.5 1500.5Z" fill="#FFD700" fill-opacity="0.85"/>
<path d="M323.5 1362.5L433.5 1426V1565.5L323.5 1502.5V1362.5Z" fill="#710074"/>
<path d="M86.5 1225.5L196.5 1285V1428.5L86.5 1365V1225.5Z" fill="#FFD700" fill-opacity="0.85"/>
<path d="M562.5 1722.5L672.5 1787V1926L562.5 1862V1722.5Z" fill="#710074"/>
<path d="M323.5 1584.5L433.5 1648V1788L323.5 1725V1584.5Z" fill="#FFD700" fill-opacity="0.85"/>
<path d="M86.5 1447.5L196.5 1513V1650.5L86.5 1587.5V1447.5Z" fill="#710074"/>
<path d="M561.5 1943.5L671.5 2006V2147L561.5 2083V1943.5Z" fill="#710074"/>
<path d="M323.5 1806.5L432.5 1870.5V2009L322.5 1946L323.5 1806.5Z" fill="#710074"/>
<path d="M85.5 1668.5L195.5 1732V1871.5L85.5 1808.5V1668.5Z" fill="#FFD700"/>
<path d="M70.5 549.5L86.5 558.5V698L70.5 707.74V549.5Z" fill="#FF1CFF"/>
<path d="M70.5 549.5L86.5 558.5V698L70.5 707.74V549.5Z" fill="#FF1CFF"/>
<path d="M70.5 549.5L86.5 558.5V698L70.5 707.74V549.5Z" fill="#FF1CFF"/>
<path d="M70.5 549.5L86.5 558.5V698L70.5 707.74V549.5Z" stroke="#AE00BD"/>
<path d="M307.5 686.5L323.5 695.5V835.5L307.5 845V686.5Z" fill="#FF1CFF"/>
<path d="M307.5 686.5L323.5 695.5V835.5L307.5 845V686.5Z" fill="#FF1CFF"/>
<path d="M307.5 686.5L323.5 695.5V835.5L307.5 845V686.5Z" fill="#FF1CFF"/>
<path d="M307.5 686.5L323.5 695.5V835.5L307.5 845V686.5Z" stroke="#AE00BD"/>
<path d="M546.5 824.5L562.5 833.5V973L546.5 983V824.5Z" fill="#FF1CFF"/>
<path d="M546.5 824.5L562.5 833.5V973L546.5 983V824.5Z" fill="#FF1CFF"/>
<path d="M546.5 824.5L562.5 833.5V973L546.5 983V824.5Z" fill="#FF1CFF"/>
<path d="M546.5 824.5L562.5 833.5V973L546.5 983V824.5Z" stroke="#AE00BD"/>
<path d="M1378.5 548.5L1362.5 557.5V697L1378.5 706.74V548.5Z" fill="#FF1CFF"/>
<path d="M1378.5 548.5L1362.5 557.5V697L1378.5 706.74V548.5Z" fill="#FF1CFF"/>
<path d="M1378.5 548.5L1362.5 557.5V697L1378.5 706.74V548.5Z" fill="#800080"/>
<path d="M1378.5 548.5L1362.5 557.5V697L1378.5 706.74V548.5Z" stroke="#AE00BD"/>
<path d="M1141.5 685.5L1125.5 694.5V834.5L1141.5 843.74V685.5Z" fill="#FF1CFF"/>
<path d="M1141.5 685.5L1125.5 694.5V834.5L1141.5 843.74V685.5Z" fill="#FF1CFF"/>
<path d="M1141.5 685.5L1125.5 694.5V834.5L1141.5 843.74V685.5Z" fill="#800080"/>
<path d="M1141.5 685.5L1125.5 694.5V834.5L1141.5 843.74V685.5Z" stroke="#AE00BD"/>
<path d="M902.5 823.5L887.5 832V972L902.5 981.74V823.5Z" fill="#FF1CFF"/>
<path d="M902.5 823.5L887.5 832V972L902.5 981.74V823.5Z" fill="#FF1CFF"/>
<path d="M902.5 823.5L887.5 832V972L902.5 981.74V823.5Z" fill="#800080"/>
<path d="M902.5 823.5L887.5 832V972L902.5 981.74V823.5Z" stroke="#AE00BD"/>
<path d="M1378.5 770.5L1362.5 779.5V919L1378.5 928.74V770.5Z" fill="#FF1CFF"/>
<path d="M1378.5 770.5L1362.5 779.5V919L1378.5 928.74V770.5Z" fill="#FF1CFF"/>
<path d="M1378.5 770.5L1362.5 779.5V919L1378.5 928.74V770.5Z" fill="#800080"/>
<path d="M1378.5 770.5L1362.5 779.5V919L1378.5 928.74V770.5Z" stroke="#AE00BD"/>
<path d="M1141.5 907.5L1125.5 916.5L1126 1056.5L1141.5 1065.74V907.5Z" fill="#FF1CFF"/>
<path d="M1141.5 907.5L1125.5 916.5L1126 1056.5L1141.5 1065.74V907.5Z" fill="#FF1CFF"/>
<path d="M1141.5 907.5L1125.5 916.5L1126 1056.5L1141.5 1065.74V907.5Z" fill="#800080"/>
<path d="M1141.5 907.5L1125.5 916.5L1126 1056.5L1141.5 1065.74V907.5Z" stroke="#AE00BD"/>
<path d="M902.5 1045.5L887.5 1054V1194L902.5 1203.74V1045.5Z" fill="#FF1CFF"/>
<path d="M902.5 1045.5L887.5 1054V1194L902.5 1203.74V1045.5Z" fill="#FF1CFF"/>
<path d="M902.5 1045.5L887.5 1054V1194L902.5 1203.74V1045.5Z" fill="#800080"/>
<path d="M902.5 1045.5L887.5 1054V1194L902.5 1203.74V1045.5Z" stroke="#AE00BD"/>
<path d="M1378.5 992.5L1362.5 1001.5V1141L1378.5 1150.74V992.5Z" fill="#FF1CFF"/>
<path d="M1378.5 992.5L1362.5 1001.5V1141L1378.5 1150.74V992.5Z" fill="#FF1CFF"/>
<path d="M1378.5 992.5L1362.5 1001.5V1141L1378.5 1150.74V992.5Z" fill="#800080"/>
<path d="M1378.5 992.5L1362.5 1001.5V1141L1378.5 1150.74V992.5Z" stroke="#AE00BD"/>
<path d="M1141.5 1129.5L1125.5 1138.5V1278L1141.5 1287.74V1129.5Z" fill="#FF1CFF"/>
<path d="M1141.5 1129.5L1125.5 1138.5V1278L1141.5 1287.74V1129.5Z" fill="#FF1CFF"/>
<path d="M1141.5 1129.5L1125.5 1138.5V1278L1141.5 1287.74V1129.5Z" fill="#800080"/>
<path d="M1141.5 1129.5L1125.5 1138.5V1278L1141.5 1287.74V1129.5Z" stroke="#AE00BD"/>
<path d="M902.5 1267.5L886.5 1276.5V1416L902.5 1425.74V1267.5Z" fill="#FF1CFF"/>
<path d="M902.5 1267.5L886.5 1276.5V1416L902.5 1425.74V1267.5Z" fill="#FF1CFF"/>
<path d="M902.5 1267.5L886.5 1276.5V1416L902.5 1425.74V1267.5Z" fill="#800080"/>
<path d="M902.5 1267.5L886.5 1276.5V1416L902.5 1425.74V1267.5Z" stroke="#AE00BD"/>
<path d="M1378.5 1214.5L1362.5 1223.5V1363L1378.5 1372.74V1214.5Z" fill="#FF1CFF"/>
<path d="M1378.5 1214.5L1362.5 1223.5V1363L1378.5 1372.74V1214.5Z" fill="#FF1CFF"/>
<path d="M1378.5 1214.5L1362.5 1223.5V1363L1378.5 1372.74V1214.5Z" fill="#800080"/>
<path d="M1378.5 1214.5L1362.5 1223.5V1363L1378.5 1372.74V1214.5Z" stroke="#AE00BD"/>
<path d="M1141.5 1351.5L1125.5 1360.5V1500L1141.5 1509.74V1351.5Z" fill="#FF1CFF"/>
<path d="M1141.5 1351.5L1125.5 1360.5V1500L1141.5 1509.74V1351.5Z" fill="#FF1CFF"/>
<path d="M1141.5 1351.5L1125.5 1360.5V1500L1141.5 1509.74V1351.5Z" fill="#800080"/>
<path d="M1141.5 1351.5L1125.5 1360.5V1500L1141.5 1509.74V1351.5Z" stroke="#AE00BD"/>
<path d="M902.5 1489.5L886.5 1498.5V1638L902.5 1647.74V1489.5Z" fill="#FF1CFF"/>
<path d="M902.5 1489.5L886.5 1498.5V1638L902.5 1647.74V1489.5Z" fill="#FF1CFF"/>
<path d="M902.5 1489.5L886.5 1498.5V1638L902.5 1647.74V1489.5Z" fill="#800080"/>
<path d="M902.5 1489.5L886.5 1498.5V1638L902.5 1647.74V1489.5Z" stroke="#AE00BD"/>
<path d="M1378.5 1436.5L1363.5 1445.5V1585.5L1378.5 1594.74V1436.5Z" fill="#FF1CFF"/>
<path d="M1378.5 1436.5L1363.5 1445.5V1585.5L1378.5 1594.74V1436.5Z" fill="#FF1CFF"/>
<path d="M1378.5 1436.5L1363.5 1445.5V1585.5L1378.5 1594.74V1436.5Z" fill="#800080"/>
<path d="M1378.5 1436.5L1363.5 1445.5V1585.5L1378.5 1594.74V1436.5Z" stroke="#AE00BD"/>
<path d="M1141.5 1573.5L1125.5 1582.5V1722L1141.5 1732.5V1573.5Z" fill="#FF1CFF"/>
<path d="M1141.5 1573.5L1125.5 1582.5V1722L1141.5 1732.5V1573.5Z" fill="#FF1CFF"/>
<path d="M1141.5 1573.5L1125.5 1582.5V1722L1141.5 1732.5V1573.5Z" fill="#800080"/>
<path d="M1141.5 1573.5L1125.5 1582.5V1722L1141.5 1732.5V1573.5Z" stroke="#AE00BD"/>
<path d="M902.5 1711.5L886.5 1720.5V1860.5L902.5 1870V1711.5Z" fill="#FF1CFF"/>
<path d="M902.5 1711.5L886.5 1720.5V1860.5L902.5 1870V1711.5Z" fill="#FF1CFF"/>
<path d="M902.5 1711.5L886.5 1720.5V1860.5L902.5 1870V1711.5Z" fill="#800080"/>
<path d="M902.5 1711.5L886.5 1720.5V1860.5L902.5 1870V1711.5Z" stroke="#AE00BD"/>
<path d="M1379.5 1658.5L1363.5 1667.5V1807L1379.5 1816.74V1658.5Z" fill="#FF1CFF"/>
<path d="M1379.5 1658.5L1363.5 1667.5V1807L1379.5 1816.74V1658.5Z" fill="#FF1CFF"/>
<path d="M1379.5 1658.5L1363.5 1667.5V1807L1379.5 1816.74V1658.5Z" fill="#800080"/>
<path d="M1379.5 1658.5L1363.5 1667.5V1807L1379.5 1816.74V1658.5Z" stroke="#AE00BD"/>
<path d="M1142.5 1795.5L1125.5 1805.5V2082.5L1142.5 2091.5V1795.5Z" fill="#FF1CFF"/>
<path d="M1142.5 1795.5L1125.5 1805.5V2082.5L1142.5 2091.5V1795.5Z" fill="#FF1CFF"/>
<path d="M1142.5 1795.5L1125.5 1805.5V2082.5L1142.5 2091.5V1795.5Z" fill="#800080"/>
<path d="M1142.5 1795.5L1125.5 1805.5V2082.5L1142.5 2091.5V1795.5Z" stroke="#AE00BD"/>
<path d="M903.5 1933.5L887.5 1942.5V2082L903.5 2091.74V1933.5Z" fill="#FF1CFF"/>
<path d="M903.5 1933.5L887.5 1942.5V2082L903.5 2091.74V1933.5Z" fill="#FF1CFF"/>
<path d="M903.5 1933.5L887.5 1942.5V2082L903.5 2091.74V1933.5Z" fill="#800080"/>
<path d="M903.5 1933.5L887.5 1942.5V2082L903.5 2091.74V1933.5Z" stroke="#AE00BD"/>
<path d="M70.5 771.5L86.5 780.5V920L70.5 930V771.5Z" fill="#FF1CFF"/>
<path d="M70.5 771.5L86.5 780.5V920L70.5 930V771.5Z" fill="#FF1CFF"/>
<path d="M70.5 771.5L86.5 780.5V920L70.5 930V771.5Z" fill="#FF1CFF"/>
<path d="M70.5 771.5L86.5 780.5V920L70.5 930V771.5Z" stroke="#AE00BD"/>
<path d="M307.5 908.5L323.5 917.5V1057.5L307.5 1067.5V908.5Z" fill="#FF1CFF"/>
<path d="M307.5 908.5L323.5 917.5V1057.5L307.5 1067.5V908.5Z" fill="#FF1CFF"/>
<path d="M307.5 908.5L323.5 917.5V1057.5L307.5 1067.5V908.5Z" fill="#FF1CFF"/>
<path d="M307.5 908.5L323.5 917.5V1057.5L307.5 1067.5V908.5Z" stroke="#AE00BD"/>
<path d="M546.5 1046.5L562.5 1055.5V1195L546.5 1204.74V1046.5Z" fill="#FF1CFF"/>
<path d="M546.5 1046.5L562.5 1055.5V1195L546.5 1204.74V1046.5Z" fill="#FF1CFF"/>
<path d="M546.5 1046.5L562.5 1055.5V1195L546.5 1204.74V1046.5Z" fill="#FF1CFF"/>
<path d="M546.5 1046.5L562.5 1055.5V1195L546.5 1204.74V1046.5Z" stroke="#AE00BD"/>
<path d="M70.5 993.5L86.5 1002.5V1142.5L70.5 1152V993.5Z" fill="#FF1CFF"/>
<path d="M70.5 993.5L86.5 1002.5V1142.5L70.5 1152V993.5Z" fill="#FF1CFF"/>
<path d="M70.5 993.5L86.5 1002.5V1142.5L70.5 1152V993.5Z" fill="#FF1CFF"/>
<path d="M70.5 993.5L86.5 1002.5V1142.5L70.5 1152V993.5Z" stroke="#AE00BD"/>
<path d="M307.5 1130.5L323.5 1139.5V1279.5L307.5 1289.5V1130.5Z" fill="#FF1CFF"/>
<path d="M307.5 1130.5L323.5 1139.5V1279.5L307.5 1289.5V1130.5Z" fill="#FF1CFF"/>
<path d="M307.5 1130.5L323.5 1139.5V1279.5L307.5 1289.5V1130.5Z" fill="#FF1CFF"/>
<path d="M307.5 1130.5L323.5 1139.5V1279.5L307.5 1289.5V1130.5Z" stroke="#AE00BD"/>
<path d="M546.5 1268.5L562.5 1277.5V1417L546.5 1426.74V1268.5Z" fill="#FF1CFF"/>
<path d="M546.5 1268.5L562.5 1277.5V1417L546.5 1426.74V1268.5Z" fill="#FF1CFF"/>
<path d="M546.5 1268.5L562.5 1277.5V1417L546.5 1426.74V1268.5Z" fill="#FF1CFF"/>
<path d="M546.5 1268.5L562.5 1277.5V1417L546.5 1426.74V1268.5Z" stroke="#AE00BD"/>
<path d="M70.5 1216.5L86.5 1225.5V1365L70.5 1375V1216.5Z" fill="#FF1CFF"/>
<path d="M70.5 1216.5L86.5 1225.5V1365L70.5 1375V1216.5Z" fill="#FF1CFF"/>
<path d="M70.5 1216.5L86.5 1225.5V1365L70.5 1375V1216.5Z" fill="#FF1CFF"/>
<path d="M70.5 1216.5L86.5 1225.5V1365L70.5 1375V1216.5Z" stroke="#AE00BD"/>
<path d="M307.5 1353.5L323.5 1362.5V1502.5L307.5 1511.74V1353.5Z" fill="#FF1CFF"/>
<path d="M307.5 1353.5L323.5 1362.5V1502.5L307.5 1511.74V1353.5Z" fill="#FF1CFF"/>
<path d="M307.5 1353.5L323.5 1362.5V1502.5L307.5 1511.74V1353.5Z" fill="#FF1CFF"/>
<path d="M307.5 1353.5L323.5 1362.5V1502.5L307.5 1511.74V1353.5Z" stroke="#AE00BD"/>
<path d="M546.5 1491.5L562.5 1500.5V1640L546.5 1649.74V1491.5Z" fill="#FF1CFF"/>
<path d="M546.5 1491.5L562.5 1500.5V1640L546.5 1649.74V1491.5Z" fill="#FF1CFF"/>
<path d="M546.5 1491.5L562.5 1500.5V1640L546.5 1649.74V1491.5Z" fill="#FF1CFF"/>
<path d="M546.5 1491.5L562.5 1500.5V1640L546.5 1649.74V1491.5Z" stroke="#AE00BD"/>
<path d="M70.5 1438.5L86.5 1447.5V1587.5L70.5 1596.74V1438.5Z" fill="#FF1CFF"/>
<path d="M70.5 1438.5L86.5 1447.5V1587.5L70.5 1596.74V1438.5Z" fill="#FF1CFF"/>
<path d="M70.5 1438.5L86.5 1447.5V1587.5L70.5 1596.74V1438.5Z" fill="#FF1CFF"/>
<path d="M70.5 1438.5L86.5 1447.5V1587.5L70.5 1596.74V1438.5Z" stroke="#AE00BD"/>
<path d="M307.5 1575.5L323.5 1584.5V1725L307.5 1734.5V1575.5Z" fill="#FF1CFF"/>
<path d="M307.5 1575.5L323.5 1584.5V1725L307.5 1734.5V1575.5Z" fill="#FF1CFF"/>
<path d="M307.5 1575.5L323.5 1584.5V1725L307.5 1734.5V1575.5Z" fill="#FF1CFF"/>
<path d="M307.5 1575.5L323.5 1584.5V1725L307.5 1734.5V1575.5Z" stroke="#AE00BD"/>
<path d="M546.5 1713.5L562.5 1722.5V1862L546.5 1871.74V1713.5Z" fill="#FF1CFF"/>
<path d="M546.5 1713.5L562.5 1722.5V1862L546.5 1871.74V1713.5Z" fill="#FF1CFF"/>
<path d="M546.5 1713.5L562.5 1722.5V1862L546.5 1871.74V1713.5Z" fill="#FF1CFF"/>
<path d="M546.5 1713.5L562.5 1722.5V1862L546.5 1871.74V1713.5Z" stroke="#AE00BD"/>
<path d="M69.5 1659.5L85.5 1668.5V1808.5L69.5 1818V1659.5Z" fill="#FF1CFF"/>
<path d="M69.5 1659.5L85.5 1668.5V1808.5L69.5 1818V1659.5Z" fill="#FF1CFF"/>
<path d="M69.5 1659.5L85.5 1668.5V1808.5L69.5 1818V1659.5Z" fill="#FF1CFF"/>
<path d="M69.5 1659.5L85.5 1668.5V1808.5L69.5 1818V1659.5Z" stroke="#AE00BD"/>
<path d="M306.5 1796.5L323.5 1806.5L322.5 1946L306.5 1955.5V1796.5Z" fill="#FF1CFF"/>
<path d="M306.5 1796.5L323.5 1806.5L322.5 1946L306.5 1955.5V1796.5Z" fill="#FF1CFF"/>
<path d="M306.5 1796.5L323.5 1806.5L322.5 1946L306.5 1955.5V1796.5Z" fill="#FF1CFF"/>
<path d="M306.5 1796.5L323.5 1806.5L322.5 1946L306.5 1955.5V1796.5Z" stroke="#AE00BD"/>
<path d="M545.5 1934.5L561.5 1943.5V2083L545.5 2092.74V1934.5Z" fill="#FF1CFF"/>
<path d="M545.5 1934.5L561.5 1943.5V2083L545.5 2092.74V1934.5Z" fill="#FF1CFF"/>
<path d="M545.5 1934.5L561.5 1943.5V2083L545.5 2092.74V1934.5Z" fill="#FF1CFF"/>
<path d="M545.5 1934.5L561.5 1943.5V2083L545.5 2092.74V1934.5Z" stroke="#AE00BD"/>
<path d="M70.5 707.5L86.5 698L196.5 761V780L70.5 707.5Z" fill="#FDA6FF"/>
<path d="M70.5 707.5L86.5 698L196.5 761V780L70.5 707.5Z" fill="#FDA6FF"/>
<path d="M307.5 845L323.5 835.5L433.5 898.5V917.5L307.5 845Z" fill="#FDA6FF"/>
<path d="M546.5 983L562.5 973L672.5 1036.5V1055.5L546.5 983Z" fill="#FDA6FF"/>
<path d="M70.5 930L86.5 920L196.5 983.5V1002.5L70.5 930Z" fill="#FDA6FF"/>
<path d="M307.5 1067.5L323.5 1057.5L433.5 1121V1140L307.5 1067.5Z" fill="#FDA6FF"/>
<path d="M546.5 1204.5L562.5 1195L672.5 1259V1278L546.5 1204.5Z" fill="#FDA6FF"/>
<path d="M70.5 1152L86.5 1142.5L196.5 1205.5V1224.5L70.5 1152Z" fill="#FDA6FF"/>
<path d="M307.5 1289.5L323.5 1279.5L433.5 1342.5V1362L307.5 1289.5Z" fill="#FDA6FF"/>
<path d="M546.5 1426.5L562.5 1417L672.5 1481V1500L546.5 1426.5Z" fill="#FDA6FF"/>
<path d="M70.5 1375L86.5 1365L196.5 1428.18V1447.5L70.5 1375Z" fill="#FDA6FF"/>
<path d="M307.5 1511.5L323.5 1502.5L433.5 1565.5V1585L307.5 1511.5Z" fill="#FDA6FF"/>
<path d="M546.5 1649L562.5 1639.5L672.5 1702.5V1721.5L546.5 1649Z" fill="#FDA6FF"/>
<path d="M70.5 1596.5L86.5 1587.5L196.5 1650.5V1669.5L70.5 1596.5Z" fill="#FDA6FF"/>
<path d="M307.5 1734.5L323.5 1725L433.5 1788V1807L307.5 1734.5Z" fill="#FDA6FF"/>
<path d="M546.5 1871.5L562.5 1862L672.5 1926V1945L546.5 1871.5Z" fill="#FDA6FF"/>
<path d="M69.5 1818L85.5 1808.5L195.5 1871.5V1890.5L69.5 1818Z" fill="#FDA6FF"/>
<path d="M306.5 1955.5L322.5 1946L432.5 2009V2028L306.5 1955.5Z" fill="#FDA6FF"/>
<path d="M545.5 2092.5L561.5 2083L671.5 2147V2166L545.5 2092.5Z" fill="#FDA6FF"/>
<path d="M902.5 981.5L887.5 972L776.5 1035.5V1054L902.5 981.5Z" fill="#FF00FF"/>
<path d="M1141.5 843.5L1125.5 834.5L1015.5 897V916L1141.5 843.5Z" fill="#FF00FF"/>
<path d="M1378.5 705.5L1362.5 697L1252.5 760.5V779L1378.5 705.5Z" fill="#FF00FF"/>
<path d="M1141.5 1065.5L1126 1056.5L1015.5 1119.5V1138L1141.5 1065.5Z" fill="#FF97FF"/>
<path d="M1378.5 927.5L1362.5 919L1253 982.5V1001L1378.5 927.5Z" fill="#FF97FF"/>
<path d="M1141.5 1287.5L1125.5 1278L1015.5 1341.5V1360L1141.5 1287.5Z" fill="#FF00FF"/>
<path d="M902.5 1647.5L886.5 1638L776.5 1701V1719.5L902.5 1647.5Z" fill="#FF00FF"/>
<path d="M724 879L0 462L724.5 43.5L1447.5 461.5L724 879Z" fill="#FEC4FF"/>
<path d="M724.165 732.5L239 457.165L724.495 181.5L1201.5 457.165L724.165 732.5Z" fill="#FF68FF"/>
<path d="M1029 2105.5L1017 2097.5L724 2266V2282.5L1029 2105.5Z" fill="#FF1CFF"/>
<path d="M9 1869.5L22.5 1862L724 2266V2282.5L9 1869.5Z" fill="#FDA5FF"/>
<path d="M1437 1870.5L1424.5 1862.5L1142.5 2027L1156 2035.5L1437 1870.5Z" fill="#FF1CFF"/>
<path d="M1029 2157.5V2105.5L724 2282.5V2333L1029 2157.5Z" fill="#8D008D"/>
<path d="M9 1933.5V1869.5L724 2282.5V2343.5L9 1933.5Z" fill="#B400B4"/>
<path d="M1437 1933V1870.5L1154.5 2034.5V2098L1437 1933Z" fill="#8D008D"/>
<path d="M1029 2168V2105.5L724 2282.5V2343.5L1029 2168Z" fill="#8D008D"/>
<path d="M1029 2168L1154.5 2098L1125.5 2082.5L1029 2133V2168Z" fill="#460046"/>
<path d="M70.5 721V707.5L196.5 780V794L70.5 721Z" fill="#B400B4"/>
<path d="M307.5 859V845L433.5 917.5V932L307.5 859Z" fill="#B400B4"/>
<path d="M546.5 997V983L672.5 1055.5V1070L546.5 997Z" fill="#B400B4"/>
<path d="M902.5 1203.5L887.5 1194L776.5 1257.5V1276L902.5 1203.5Z" fill="#FF00FF"/>
<path d="M1141 1065.5L1126 1056.5L1016 1119.5V1138L1141 1065.5Z" fill="#FF00FF"/>
<path d="M1378 928.5L1363 919.5L1253 982.5V1001L1378 928.5Z" fill="#FF00FF"/>
<path d="M902.5 1425.5L886.5 1416L776.5 1479V1497.5L902.5 1425.5Z" fill="#FF00FF"/>
<path d="M1378.5 1149.5L1362.5 1141L1252.5 1204.31V1223L1378.5 1149.5Z" fill="#FF00FF"/>
<path d="M1141.5 1509.5L1125.5 1500L1015.5 1563.5V1582L1141.5 1509.5Z" fill="#FF00FF"/>
<path d="M1378.5 1371.5L1362.5 1362.5L1253.5 1425.5V1444.5L1378.5 1371.5Z" fill="#FF00FF"/>
<path d="M902.5 1870L886.5 1860.5L777.5 1924V1942.5L902.5 1870Z" fill="#FF00FF"/>
<path d="M1141.5 1732.5L1125.5 1722L1016 1786.5V1805L1141.5 1732.5Z" fill="#FF00FF"/>
<path d="M1379 1595L1363.5 1585.5L1253.5 1649.5V1668L1379 1595Z" fill="#FF00FF"/>
<path d="M903.5 2091.5L887.5 2082L777.5 2146V2164.5L903.5 2091.5Z" fill="#FF00FF"/>
<path d="M1379.5 1816.5L1363.5 1807L1253.5 1871.5V1890L1379.5 1816.5Z" fill="#FF00FF"/>
<path d="M1378.5 719V705.5L1252.5 778V792L1378.5 719Z" fill="#780078"/>
<path d="M1141.5 857V843.5L1015.5 916V930L1141.5 857Z" fill="#780078"/>
<path d="M902.5 995V981.5L776.5 1054V1068L902.5 995Z" fill="#780078"/>
<path d="M1378.5 941V927.5L1253 1000V1014L1378.5 941Z" fill="#780078"/>
<path d="M1141.5 1079V1065.5L1015.5 1138V1152L1141.5 1079Z" fill="#780078"/>
<path d="M902.5 1217V1203.5L776.5 1276V1290L902.5 1217Z" fill="#780078"/>
<path d="M1378.5 1163V1149.5L1252.5 1222V1236L1378.5 1163Z" fill="#780078"/>
<path d="M1141.5 1301V1287.5L1015.5 1360V1374L1141.5 1301Z" fill="#780078"/>
<path d="M902.5 1439V1425.5L776.5 1497.5V1512L902.5 1439Z" fill="#780078"/>
<path d="M1378.5 1385V1371.5L1253.5 1444V1457.5L1378.5 1385Z" fill="#780078"/>
<path d="M1141.5 1523V1509.5L1015.5 1582V1596L1141.5 1523Z" fill="#780078"/>
<path d="M902.5 1661V1647.5L776.5 1719.5V1734L902.5 1661Z" fill="#780078"/>
<path d="M1379 1608V1595L1253.5 1667V1681L1379 1608Z" fill="#780078"/>
<path d="M1141.5 1746V1732.5L1016 1805V1819L1141.5 1746Z" fill="#780078"/>
<path d="M902.5 1884V1870L777.5 1942.5V1957L902.5 1884Z" fill="#780078"/>
<path d="M1379.5 1830V1816.5L1253.5 1889V1903L1379.5 1830Z" fill="#780078"/>
<path d="M903.5 2106V2091.5L777.5 2164.5V2179L903.5 2106Z" fill="#780078"/>
<path d="M70.5 944V930L196.5 1002.5V1017L70.5 944Z" fill="#B400B4"/>
<path d="M307.5 1082V1067.5L433.5 1140V1155L307.5 1082Z" fill="#B400B4"/>
<path d="M546.5 1219V1204.5L672.5 1278V1293L546.5 1219Z" fill="#B400B4"/>
<path d="M70.5 1166V1152L196.5 1224.5V1239L70.5 1166Z" fill="#B400B4"/>
<path d="M307.5 1304V1289.5L433.5 1362V1377L307.5 1304Z" fill="#B400B4"/>
<path d="M546.5 1442V1426.5L672.5 1500V1515L546.5 1442Z" fill="#B400B4"/>
<path d="M70.5 1389V1375L196.5 1447.5V1462L70.5 1389Z" fill="#B400B4"/>
<path d="M307.5 1527V1511.5L433.5 1585V1600L307.5 1527Z" fill="#B400B4"/>
<path d="M546.5 1665V1649L672.5 1721.5V1738L546.5 1665Z" fill="#B400B4"/>
<path d="M70.5 1610V1596.5L196.5 1669V1683L70.5 1610Z" fill="#B400B4"/>
<path d="M307.5 1748V1734.5L433.5 1807V1821L307.5 1748Z" fill="#B400B4"/>
<path d="M546.5 1886V1871.5L672.5 1945V1959L546.5 1886Z" fill="#B400B4"/>
<path d="M69.5 1832V1818L195.5 1890.5V1905L69.5 1832Z" fill="#B400B4"/>
<path d="M306.5 1970V1955.5L432.5 2028V2043L306.5 1970Z" fill="#B400B4"/>
<path d="M545.5 2108V2092.5L671.5 2166V2181L545.5 2108Z" fill="#B400B4"/>
<path d="M1142.5 2027L1154.5 2034.5V2098L1142.5 2091.5V2027Z" fill="#7F007F"/>
<path d="M724.5 43.5V0L0 416.5V462L724.5 43.5Z" fill="#EA00FF"/>
<path d="M0 462V416.5L724 833.5L1447.5 416V461.5L724 879L0 462Z" fill="#F79FFF"/>
<path d="M724 833.5V879L1447.5 461.5V416L724 833.5Z" fill="#780078"/>
</svg>
